<svg width="62" height="63" viewBox="0 0 62 63" fill="none" xmlns="http://www.w3.org/2000/svg">
<path d="M20.6158 31.3662C22.5276 31.3662 24.0774 29.8053 24.0774 27.8798C24.0774 25.9542 22.5276 24.3933 20.6158 24.3933C18.7041 24.3933 17.1543 25.9542 17.1543 27.8798C17.1543 29.8053 18.7041 31.3662 20.6158 31.3662Z" fill="#EE3F59"/>
<path d="M31.0078 49.9571C24.4568 49.9571 18.9472 45.6679 17.2035 39.8143C17.1547 39.6401 17.147 39.4568 17.181 39.2791C17.215 39.1014 17.2898 38.9341 17.3993 38.7906C17.5089 38.6471 17.6502 38.5314 17.812 38.4527C17.9738 38.3739 18.1516 38.3343 18.3313 38.337H43.6712C43.8509 38.3343 44.0288 38.3739 44.1906 38.4527C44.3524 38.5314 44.4937 38.6471 44.6033 38.7906C44.7128 38.9341 44.7876 39.1014 44.8216 39.2791C44.8556 39.4568 44.8479 39.6401 44.7991 39.8143C43.0698 45.6679 37.5587 49.9571 31.0078 49.9571Z" fill="#EE3F59"/>
<path d="M41.3873 31.3662C43.2991 31.3662 44.8489 29.8053 44.8489 27.8798C44.8489 25.9542 43.2991 24.3933 41.3873 24.3933C39.4756 24.3933 37.9258 25.9542 37.9258 27.8798C37.9258 29.8053 39.4756 31.3662 41.3873 31.3662Z" fill="#EE3F59"/>
<path d="M31 61.5773C47.5685 61.5773 61 48.0508 61 31.365C61 14.6793 47.5685 1.15283 31 1.15283C14.4315 1.15283 1 14.6793 1 31.365C1 48.0508 14.4315 61.5773 31 61.5773Z" stroke="#EE3F59" stroke-width="2" stroke-miterlimit="10"/>
</svg>
