<svg width="62" height="63" viewBox="0 0 62 63" fill="none" xmlns="http://www.w3.org/2000/svg">
<path d="M31 61.5773C47.5685 61.5773 61 48.0508 61 31.365C61 14.6793 47.5685 1.15283 31 1.15283C14.4315 1.15283 1 14.6793 1 31.365C1 48.0508 14.4315 61.5773 31 61.5773Z" stroke="#EE3F59" stroke-width="2" stroke-miterlimit="10"/>
<path d="M31.0005 45.3091C38.6475 45.3091 44.8466 39.0661 44.8466 31.365C44.8466 23.6639 38.6475 17.4209 31.0005 17.4209C23.3534 17.4209 17.1543 23.6639 17.1543 31.365C17.1543 39.0661 23.3534 45.3091 31.0005 45.3091Z" stroke="#EE3F59" stroke-width="2" stroke-miterlimit="10"/>
<path d="M31.0021 36.0134C33.5511 36.0134 35.6175 33.9324 35.6175 31.3653C35.6175 28.7983 33.5511 26.7173 31.0021 26.7173C28.4531 26.7173 26.3867 28.7983 26.3867 31.3653C26.3867 33.9324 28.4531 36.0134 31.0021 36.0134Z" fill="#F04D3C"/>
</svg>
