<svg width="138" height="138" viewBox="0 0 138 138" fill="none" xmlns="http://www.w3.org/2000/svg">
<g filter="url(#filter0_d_164_12)">
<circle cx="69" cy="61" r="50" fill="#EE3F59"/>
</g>
<path d="M91.1953 53.2013H89.299C88.7802 53.2013 88.7629 52.8616 88.745 52.6926C87.7506 43.3236 79.8007 36 70.1724 36H68.3875C58.8304 36 50.9271 43.2154 49.8381 52.485C49.8102 52.7224 49.7957 53.2013 49.3589 53.2013H47.3645C46.0555 53.2013 43 54.5787 43 61.5348V65.1855C43 70.3446 46.0555 71.5345 47.3645 71.5345H53.7099C55.0189 71.5345 56.0898 70.4635 56.0898 69.1546V55.5812C56.0898 54.2722 55.0189 53.2013 53.7099 53.2013C53.7099 53.2013 53.4111 53.1751 53.4873 52.6429C54.5343 45.317 60.7855 39.6399 68.3875 39.6399H70.1724C77.7227 39.6399 83.9906 45.2332 85.0517 52.4937C85.0859 52.7278 85.2134 53.2013 84.85 53.2013C83.541 53.2013 82.4701 54.2722 82.4701 55.5812V69.1546C82.4701 70.4635 83.541 71.5345 84.85 71.5345H86.0415C86.3691 71.5345 86.3135 71.7963 86.2842 71.9282C85.3136 76.311 83.1341 81.2832 78.2422 81.2832H74.6186C74.2488 81.2832 74.1575 81.0122 74.0872 80.8838C73.5002 79.8113 72.3618 79.0838 71.0529 79.0838H67.7141C65.8043 79.0838 64.2559 80.632 64.2559 82.542C64.2559 84.452 65.8043 86 67.7141 86H71.0529C72.3796 86 73.5313 85.2528 74.1111 84.1565C74.1617 84.0607 74.2032 83.8616 74.5946 83.8616H78.2422C81.565 83.8616 86.0116 82.2104 88.3256 74.3439C88.5722 73.5056 88.7722 72.6702 88.9351 71.8651C88.9576 71.7543 88.9715 71.5347 89.3173 71.5347H91.1954C92.5044 71.5347 95.5599 70.3446 95.5599 65.1856V61.535C95.5598 54.6778 92.5043 53.2013 91.1953 53.2013Z" fill="white"/>
<defs>
<filter id="filter0_d_164_12" x="0" y="0" width="138" height="138" filterUnits="userSpaceOnUse" color-interpolation-filters="sRGB">
<feFlood flood-opacity="0" result="BackgroundImageFix"/>
<feColorMatrix in="SourceAlpha" type="matrix" values="0 0 0 0 0 0 0 0 0 0 0 0 0 0 0 0 0 0 127 0" result="hardAlpha"/>
<feOffset dy="8"/>
<feGaussianBlur stdDeviation="9.5"/>
<feComposite in2="hardAlpha" operator="out"/>
<feColorMatrix type="matrix" values="0 0 0 0 0.933333 0 0 0 0 0.247059 0 0 0 0 0.34902 0 0 0 0.15 0"/>
<feBlend mode="normal" in2="BackgroundImageFix" result="effect1_dropShadow_164_12"/>
<feBlend mode="normal" in="SourceGraphic" in2="effect1_dropShadow_164_12" result="shape"/>
</filter>
</defs>
</svg>
