<svg width="19" height="19" viewBox="0 0 19 19" fill="none" xmlns="http://www.w3.org/2000/svg">
<path d="M18.5004 9.58451C18.5004 14.5624 14.4731 18.5977 9.50508 18.5977C4.53709 18.5977 0.509766 14.5624 0.509766 9.58451C0.509766 4.60663 4.53709 0.571289 9.50508 0.571289C14.4731 0.571289 18.5004 4.60663 18.5004 9.58451ZM8.4646 14.3569L15.1385 7.6697C15.3652 7.44263 15.3652 7.07443 15.1385 6.84736L14.3178 6.02501C14.0912 5.7979 13.7237 5.7979 13.4971 6.02501L8.05422 11.4787L5.51308 8.93246C5.28646 8.70539 4.91899 8.70539 4.69233 8.93246L3.87162 9.75481C3.645 9.98189 3.645 10.3501 3.87162 10.5772L7.64385 14.3569C7.87051 14.584 8.23794 14.584 8.4646 14.3569Z" fill="#EE3F59"/>
</svg>
