<svg width="21" height="17" viewBox="0 0 21 17" fill="none" xmlns="http://www.w3.org/2000/svg">
<path d="M10.4343 9.64295L3.61192 16.4408C3.14037 16.9107 2.37787 16.9107 1.91134 16.4408L0.77762 15.3112C0.306072 14.8413 0.306072 14.0816 0.777621 13.6167L5.60847 8.79321L0.772607 3.97472C0.301059 3.50486 0.301059 2.7451 0.772607 2.28025L1.90633 1.1456C2.37787 0.675749 3.14037 0.675749 3.60691 1.1456L10.4293 7.94348C10.9059 8.41333 10.9059 9.17309 10.4343 9.64295ZM20.0659 7.94348L13.2435 1.1456C12.772 0.67575 12.0095 0.67575 11.5429 1.1456L10.4092 2.27525C9.93768 2.7451 9.93768 3.50486 10.4092 3.96972L15.2401 8.79321L10.4042 13.6117C9.93266 14.0816 9.93266 14.8413 10.4042 15.3062L11.5379 16.4408C12.0095 16.9107 12.772 16.9107 13.2385 16.4408L20.0609 9.64295C20.5375 9.17309 20.5375 8.41333 20.0659 7.94348Z" fill="#EE3F59"/>
</svg>
