<svg width="138" height="138" viewBox="0 0 138 138" fill="none" xmlns="http://www.w3.org/2000/svg">
<g filter="url(#filter0_d_164_9)">
<circle cx="69" cy="61" r="50" fill="#1B2B7C"/>
</g>
<path d="M57.5431 50.9831C58.6447 50.9831 59.6343 50.5153 60.3331 49.7706C58.8051 47.96 57.4777 45.6207 57.1379 43.3477C55.2144 43.5503 53.7148 45.1773 53.7148 47.1544C53.7144 49.2687 55.4288 50.9831 57.5431 50.9831Z" fill="white"/>
<path d="M60.0897 51.9151C60.0256 51.8753 59.9582 51.8477 59.8912 51.8188C59.4648 51.5346 58.9861 51.3251 58.4972 51.2053L57.5434 52.1652L56.6184 51.1943C56.6151 51.1951 56.6119 51.1951 56.609 51.1964C55.9013 51.3653 55.2134 51.7238 54.6758 52.2281C51.7242 54.2133 50.4675 56.8437 49.6233 62.5987C49.5043 63.4104 50.0659 64.1648 50.878 64.2846C50.9511 64.2948 51.0238 64.3005 51.0957 64.3005C51.8213 64.3005 52.4563 63.7681 52.5648 63.0291C52.8685 60.9587 53.2197 59.4465 53.6246 58.3031V62.9828C53.6246 63.3832 53.7021 63.756 53.8381 64.0987C53.8276 64.1762 53.8207 64.2546 53.8207 64.3342L53.8219 78.5675C53.8219 79.5384 54.6084 80.3241 55.5785 80.3241C56.5485 80.3241 57.3351 79.5372 57.3351 78.5675L57.3342 66.3527C57.4041 66.3559 57.4735 66.3612 57.5438 66.3612C57.5572 66.3612 57.571 66.3596 57.5848 66.3596L57.5844 78.5667C57.5844 79.5368 58.3709 80.3229 59.3405 80.3229C60.3106 80.3229 61.0971 79.5359 61.0971 78.5667L61.0975 64.4203C61.3278 63.9935 61.4614 63.5115 61.4614 62.9824V57.8645C61.8589 58.8565 62.2073 60.1612 62.5118 61.9328V53.9011C61.8451 53.1434 61.0508 52.5047 60.0897 51.9151ZM57.5523 59.7425H57.5344L56.6111 58.4793L57.3265 53.6989C57.398 53.5064 57.4284 53.3022 57.4167 53.0963L57.5348 52.3081H57.5527L58.4757 58.4797L57.5523 59.7425Z" fill="white"/>
<path d="M80.2921 50.9834C82.4068 50.9834 84.1204 49.2691 84.1204 47.1544C84.1204 45.2341 82.7049 43.6481 80.8606 43.3728C80.5106 45.6812 79.1479 48.0501 77.5898 49.8664C78.2822 50.5563 79.2376 50.9834 80.2921 50.9834Z" fill="white"/>
<path d="M88.3778 62.5989C87.4894 56.5369 86.1429 53.9406 82.8389 51.9148C82.7747 51.875 82.7073 51.8474 82.6403 51.819C82.214 51.5344 81.7352 51.3248 81.2464 51.2051L80.2921 52.165L79.368 51.1941C79.3643 51.1949 79.3611 51.1949 79.3586 51.1961C78.6509 51.365 77.9626 51.7236 77.4254 52.2279C76.5743 52.8 75.865 53.4262 75.2656 54.1652V63.2303C75.2847 63.1645 75.3038 63.0987 75.3139 63.0297C75.6177 60.9588 75.9689 59.4467 76.3737 58.3032V62.9834C76.3737 63.383 76.4509 63.7557 76.5869 64.0992C76.5772 64.176 76.5695 64.2547 76.5695 64.3339L76.5703 78.5677C76.5703 79.5381 77.3572 80.3238 78.3268 80.3238C79.2973 80.3238 80.0834 79.5369 80.0834 78.5677L80.0826 66.3528C80.1521 66.3561 80.2215 66.3613 80.2917 66.3613C80.3055 66.3613 80.3189 66.3597 80.3331 66.3597L80.3327 78.5673C80.3327 79.5373 81.1193 80.3238 82.0889 80.3238C83.0598 80.3238 83.8459 79.5369 83.8459 78.5673L83.8463 64.4212C84.0765 63.9945 84.2105 63.5121 84.2105 62.9826V57.8647C84.686 59.052 85.0917 60.6827 85.436 63.0305C85.5448 63.7691 86.1791 64.301 86.9047 64.301C86.9766 64.301 87.0488 64.2962 87.1223 64.2852C87.9348 64.1658 88.4968 63.411 88.3778 62.5989ZM80.3015 59.7427H80.2836L79.3607 58.4795L80.0757 53.699C80.1476 53.5066 80.1776 53.3023 80.1663 53.0964L80.284 52.3083H80.3015L81.224 58.4799L80.3015 59.7427Z" fill="white"/>
<path d="M68.8888 46.3478C71.7462 46.3478 74.0627 44.0314 74.0627 41.1739C74.0627 38.3164 71.7462 36 68.8888 36C66.0313 36 63.7148 38.3164 63.7148 41.1739C63.7148 44.0314 66.0313 46.3478 68.8888 46.3478Z" fill="white"/>
<path d="M79.8157 40.6794C79.6545 39.5819 78.6333 38.8222 77.5361 38.9842C76.4386 39.145 75.6797 40.1662 75.8409 41.2633C76.1129 43.1133 73.1747 46.7329 71.8831 47.3647C71.3528 47.0382 70.7713 46.793 70.1785 46.6472L68.8897 47.9449L67.6398 46.6334C67.6358 46.6342 67.6313 46.6346 67.6268 46.6354C67.0624 46.7702 66.5078 46.9964 65.9974 47.2969C64.6533 46.5148 61.8975 43.0585 62.1614 41.2633C62.3226 40.1662 61.5637 39.1454 60.4661 38.9842C59.3673 38.8226 58.3482 39.5819 58.1865 40.6794C57.668 44.2105 61.0082 48.7964 63.6431 50.5489C63.6142 50.7434 63.5939 50.9408 63.5939 51.1454V62.566C63.5939 63.1065 63.6987 63.6108 63.8826 64.0741C63.8684 64.1789 63.8587 64.2844 63.8587 64.3925L63.8599 83.6267C63.8599 84.9375 64.9229 86.0001 66.2341 86.0001C67.5452 86.0001 68.6079 84.9375 68.6079 83.6259L68.6071 67.1191C68.7013 67.1236 68.7951 67.1309 68.8897 67.1309C68.9079 67.1309 68.9266 67.128 68.9453 67.128L68.9449 83.6255C68.9449 84.9366 70.0075 85.9997 71.3191 85.9997C72.6302 85.9997 73.6929 84.9366 73.6929 83.6255L73.6937 64.5094C74.0047 63.9328 74.1858 63.2811 74.1858 62.5656V51.145C74.1858 50.985 74.1744 50.8295 74.1566 50.6756C74.2171 50.6379 74.2759 50.6042 74.3377 50.5636C76.9758 48.8228 80.3359 44.2206 79.8157 40.6794ZM68.9014 58.1851H68.8771L67.6297 56.4777L68.5961 50.0174C68.6927 49.7571 68.7341 49.4818 68.7179 49.2033L68.8771 48.137H68.9014L70.1492 56.4777L68.9014 58.1851Z" fill="white"/>
<defs>
<filter id="filter0_d_164_9" x="0" y="0" width="138" height="138" filterUnits="userSpaceOnUse" color-interpolation-filters="sRGB">
<feFlood flood-opacity="0" result="BackgroundImageFix"/>
<feColorMatrix in="SourceAlpha" type="matrix" values="0 0 0 0 0 0 0 0 0 0 0 0 0 0 0 0 0 0 127 0" result="hardAlpha"/>
<feOffset dy="8"/>
<feGaussianBlur stdDeviation="9.5"/>
<feComposite in2="hardAlpha" operator="out"/>
<feColorMatrix type="matrix" values="0 0 0 0 0.105882 0 0 0 0 0.168627 0 0 0 0 0.486275 0 0 0 0.15 0"/>
<feBlend mode="normal" in2="BackgroundImageFix" result="effect1_dropShadow_164_9"/>
<feBlend mode="normal" in="SourceGraphic" in2="effect1_dropShadow_164_9" result="shape"/>
</filter>
</defs>
</svg>
