<svg width="63" height="63" viewBox="0 0 63 63" fill="none" xmlns="http://www.w3.org/2000/svg">
<path d="M60.733 1.97154C60.7084 1.85223 60.6505 1.74247 60.5661 1.65516C60.4818 1.56786 60.3744 1.50664 60.2566 1.47872C52.4067 -0.454764 34.273 6.43453 24.4382 16.3316C22.6854 18.0823 21.0872 19.9832 19.6616 22.0129C16.6301 21.7366 13.5987 21.9692 11.0177 23.1032C3.7293 26.3305 1.60875 34.7593 1.0169 38.3776C0.984831 38.5759 0.998528 38.779 1.05693 38.971C1.11532 39.1631 1.21686 39.3391 1.35365 39.4853C1.49045 39.6315 1.65883 39.744 1.84576 39.8141C2.03268 39.8842 2.23313 39.91 2.43156 39.8895L14.1343 38.5957C14.1424 39.4846 14.1954 40.3726 14.2931 41.2561C14.3541 41.8667 14.6247 42.4368 15.0581 42.8683L19.5894 47.4316C20.0182 47.8684 20.5848 48.1409 21.1917 48.2021C22.0637 48.3 22.9401 48.3534 23.8175 48.362L22.5342 60.1373C22.5142 60.3369 22.54 60.5384 22.6096 60.7263C22.6792 60.9143 22.7909 61.0836 22.9358 61.2211C23.0808 61.3587 23.2552 61.4609 23.4457 61.5197C23.6361 61.5785 23.8374 61.5925 24.034 61.5605C27.6284 60.979 36.0154 58.8435 39.2012 51.505C40.3272 48.9028 40.5582 45.8659 40.2983 42.8276C42.3196 41.3932 44.2126 39.7836 45.9555 38.0171C55.8264 28.1317 62.624 10.271 60.733 1.97154ZM37.1817 25.2111C36.3196 24.343 35.7324 23.2369 35.4944 22.0328C35.2565 20.8286 35.3784 19.5804 35.8449 18.4461C36.3114 17.3117 37.1015 16.3421 38.1151 15.66C39.1288 14.9778 40.3206 14.6137 41.5398 14.6137C42.7589 14.6137 43.9507 14.9778 44.9644 15.66C45.978 16.3421 46.7681 17.3117 47.2346 18.4461C47.7011 19.5804 47.823 20.8286 47.5851 22.0328C47.3471 23.2369 46.76 24.343 45.8978 25.2111C45.3259 25.7882 44.6466 26.2461 43.8988 26.5585C43.151 26.8709 42.3494 27.0317 41.5398 27.0317C40.7302 27.0317 39.9285 26.8709 39.1807 26.5585C38.4329 26.2461 37.7536 25.7882 37.1817 25.2111V25.2111Z" stroke="#EE3F59" stroke-width="2" stroke-linecap="round" stroke-linejoin="round"/>
<path d="M9.89688 45.3208C8.45784 45.4987 7.11907 46.1557 6.09317 47.1874C3.54966 49.7576 3.30859 59.2767 3.30859 59.2767C3.30859 59.2767 12.7666 59.034 15.3116 56.4696C16.3402 55.438 16.9937 54.0875 17.1665 52.636" stroke="#EE3F59" stroke-width="2" stroke-linecap="round" stroke-linejoin="round"/>
</svg>
