<svg width="138" height="138" viewBox="0 0 138 138" fill="none" xmlns="http://www.w3.org/2000/svg">
<g filter="url(#filter0_d_164_11)">
<circle cx="69" cy="61" r="50" fill="#1B2B7C"/>
</g>
<path d="M89.5232 64.2798C89.1268 57.8848 85.7459 52.0407 80.4161 48.5003C80.4534 48.1263 80.4732 47.7472 80.4732 47.3636C80.4732 41.0976 75.3754 36 69.1096 36C62.8437 36 57.746 41.0977 57.746 47.3636C57.746 47.7472 57.7656 48.1263 57.8028 48.5003C52.4742 52.0398 49.0938 57.8821 48.6962 64.2752C44.6821 66.0875 42 70.1311 42 74.6364C42 80.9023 47.0977 86 53.3636 86C55.7763 86 58.0792 85.2491 60.0013 83.8609C62.8186 85.2629 65.9349 86 69.1096 86C72.2869 86 75.4064 85.2614 78.226 83.857C80.0934 85.2035 82.3826 86 84.8556 86C91.1214 86 96.2192 80.9023 96.2192 74.6364C96.2192 70.0337 93.467 66.0643 89.5232 64.2798ZM69.1096 40.5456C72.8691 40.5456 75.9278 43.6042 75.9278 47.3638C75.9278 51.1233 72.869 54.1819 69.1096 54.1819C65.3499 54.1819 62.2915 51.1233 62.2915 47.3638C62.2915 43.6042 65.3499 40.5456 69.1096 40.5456ZM46.5454 74.6364C46.5454 71.5816 48.5983 68.8791 51.5375 68.0648H51.5377C52.1282 67.9013 52.7425 67.8182 53.3636 67.8182C57.1231 67.8182 60.1818 70.8767 60.1818 74.6364C60.1818 76.4817 59.4565 78.2097 58.139 79.5027C56.8566 80.7614 55.1606 81.4546 53.3636 81.4546C49.6041 81.4546 46.5454 78.3959 46.5454 74.6364ZM63.206 80.3206C64.1968 78.6124 64.7272 76.6678 64.7272 74.6362C64.7272 68.3708 59.6304 63.2736 53.3654 63.2726C53.9491 59.233 56.0694 55.5665 59.2728 53.0422C61.2402 56.4371 64.9113 58.7272 69.1096 58.7272C73.3076 58.7272 76.9787 56.4371 78.9463 53.0422C82.15 55.5665 84.2702 59.233 84.8538 63.2726C78.5887 63.2737 73.492 68.3708 73.492 74.6362C73.492 76.705 74.0505 78.6449 75.0205 80.3176C73.1517 81.0647 71.1463 81.4544 69.1096 81.4544C67.0754 81.4546 65.0725 81.0658 63.206 80.3206ZM84.8556 81.4546C81.0961 81.4546 78.0375 78.3961 78.0375 74.6364C78.0375 70.8767 81.0961 67.8182 84.8556 67.8182C88.6152 67.8182 91.6738 70.8767 91.6738 74.6364C91.6738 78.3961 88.615 81.4546 84.8556 81.4546Z" fill="white"/>
<defs>
<filter id="filter0_d_164_11" x="0" y="0" width="138" height="138" filterUnits="userSpaceOnUse" color-interpolation-filters="sRGB">
<feFlood flood-opacity="0" result="BackgroundImageFix"/>
<feColorMatrix in="SourceAlpha" type="matrix" values="0 0 0 0 0 0 0 0 0 0 0 0 0 0 0 0 0 0 127 0" result="hardAlpha"/>
<feOffset dy="8"/>
<feGaussianBlur stdDeviation="9.5"/>
<feComposite in2="hardAlpha" operator="out"/>
<feColorMatrix type="matrix" values="0 0 0 0 0.105882 0 0 0 0 0.168627 0 0 0 0 0.486275 0 0 0 0.15 0"/>
<feBlend mode="normal" in2="BackgroundImageFix" result="effect1_dropShadow_164_11"/>
<feBlend mode="normal" in="SourceGraphic" in2="effect1_dropShadow_164_11" result="shape"/>
</filter>
</defs>
</svg>
