<svg width="66" height="64" viewBox="0 0 66 64" fill="none" xmlns="http://www.w3.org/2000/svg">
<path d="M21.2923 62H44.5033M32.8978 62V43.5385M51.4666 27.3846C51.4666 20.0808 51.455 7.96683 51.4492 4.30769C51.4492 3.69565 51.2046 3.10868 50.7693 2.67591C50.334 2.24313 49.7436 2 49.1281 2L16.6632 2.0375C16.0489 2.0375 15.4596 2.27964 15.0245 2.71086C14.5894 3.14207 14.344 3.72719 14.3421 4.33798C14.3421 8.74856 14.3232 22.9683 14.3232 27.3846C14.3232 36.6558 26.3639 43.5385 32.892 43.5385C39.4201 43.5385 51.4666 36.6558 51.4666 27.3846Z" stroke="#EE3F59" stroke-width="4" stroke-linecap="round" stroke-linejoin="round"/>
<path d="M14.3262 8.92285H2.7207V11.2305C2.7207 19.195 7.58775 27.3844 14.3262 27.3844M51.4637 8.92285H63.0692V11.2305C63.0692 19.195 58.2021 27.3844 51.4637 27.3844" stroke="#EE3F59" stroke-width="4" stroke-linecap="round" stroke-linejoin="round"/>
</svg>
