<svg width="45" height="45" viewBox="0 0 45 45" fill="none" xmlns="http://www.w3.org/2000/svg">
<path d="M30.5437 25.3062L27.0437 23.8061C26.8941 23.7424 26.728 23.729 26.5701 23.7679C26.4123 23.8068 26.2714 23.8959 26.1686 24.0218L24.6186 25.9156C22.186 24.7686 20.2283 22.8109 19.0813 20.3783L20.9751 18.8282C21.1013 18.7256 21.1905 18.5847 21.2295 18.4268C21.2684 18.269 21.2548 18.1027 21.1907 17.9532L19.6907 14.4532C19.6204 14.292 19.4961 14.1605 19.3393 14.0812C19.1824 14.0019 19.0027 13.9798 18.8313 14.0188L15.5813 14.7688C15.416 14.807 15.2686 14.9 15.163 15.0328C15.0574 15.1655 15 15.3301 15 15.4997C15 23.5155 21.497 30 29.5003 30C29.6699 30.0001 29.8346 29.9427 29.9674 29.8371C30.1002 29.7315 30.1933 29.5841 30.2315 29.4187L30.9815 26.1687C31.0202 25.9964 30.9977 25.8161 30.9178 25.6587C30.8379 25.5012 30.7056 25.3766 30.5437 25.3062Z" fill="white"/>
<circle cx="22.5" cy="22.5" r="21.75" stroke="white" stroke-opacity="0.5" stroke-width="1.5"/>
</svg>
