<svg width="61" height="64" viewBox="0 0 61 64" fill="none" xmlns="http://www.w3.org/2000/svg">
<path d="M41.1355 53.4286L41.1355 62M54.0673 2L28.2037 2C27.0605 2 25.964 2.45153 25.1557 3.25525C24.3473 4.05898 23.8931 5.14907 23.8931 6.28571L23.8931 61.4643C23.8931 61.6064 23.9499 61.7426 24.0509 61.8431C24.152 61.9436 24.289 62 24.4319 62L58.3779 62L58.3779 6.28571C58.3779 5.14907 57.9238 4.05898 57.1154 3.25526C56.307 2.45153 55.2106 2 54.0673 2V2ZM21.7378 23.4286L6.65069 23.4286C5.50745 23.4286 4.41103 23.8801 3.60263 24.6838C2.79424 25.4876 2.34009 26.5776 2.34009 27.7143L2.34008 62L23.8931 62L23.8931 25.5714C23.8931 25.0031 23.666 24.4581 23.2618 24.0562C22.8576 23.6543 22.3094 23.4286 21.7378 23.4286Z" stroke="#EE3F59" stroke-width="4" stroke-linecap="round" stroke-linejoin="round"/>
<path d="M51.6296 55.554C52.076 55.612 52.5295 55.5296 52.9264 55.3184C53.3232 55.1071 53.6436 54.7776 53.8426 54.3761C54.0415 53.9746 54.109 53.5213 54.0356 53.0797C53.9622 52.6381 53.7515 52.2305 53.4332 51.914C53.1148 51.5975 52.7048 51.388 52.2607 51.315C51.8165 51.242 51.3605 51.3091 50.9567 51.5069C50.5529 51.7047 50.2215 52.0233 50.009 52.4179C49.7965 52.8124 49.7137 53.2633 49.772 53.7071C49.8337 54.1754 50.0492 54.6104 50.3851 54.9444C50.7211 55.2784 51.1586 55.4927 51.6296 55.554ZM51.6296 44.8397C52.076 44.8977 52.5295 44.8153 52.9264 44.6041C53.3233 44.3929 53.6436 44.0634 53.8426 43.6619C54.0415 43.2603 54.109 42.807 54.0356 42.3654C53.9622 41.9238 53.7515 41.5162 53.4332 41.1997C53.1149 40.8832 52.7048 40.6738 52.2607 40.6007C51.8165 40.5277 51.3605 40.5948 50.9567 40.7926C50.5529 40.9904 50.2215 41.309 50.009 41.7036C49.7965 42.0982 49.7137 42.549 49.772 42.9928C49.8337 43.4611 50.0492 43.8961 50.3851 44.2301C50.7211 44.5641 51.1586 44.7784 51.6296 44.8397ZM51.6296 34.1254C52.076 34.1834 52.5295 34.1011 52.9264 33.8898C53.3233 33.6786 53.6436 33.3491 53.8426 32.9476C54.0415 32.5461 54.109 32.0927 54.0356 31.6511C53.9622 31.2095 53.7515 30.8019 53.4332 30.4854C53.1149 30.1689 52.7048 29.9595 52.2607 29.8865C51.8165 29.8135 51.3605 29.8806 50.9567 30.0784C50.5529 30.2761 50.2215 30.5947 50.009 30.9893C49.7965 31.3839 49.7137 31.8347 49.772 32.2785C49.8337 32.7469 50.0492 33.1819 50.3851 33.5159C50.7211 33.8499 51.1586 34.0641 51.6296 34.1254ZM51.6296 23.4111C52.076 23.4691 52.5295 23.3868 52.9264 23.1755C53.3233 22.9643 53.6436 22.6348 53.8426 22.2333C54.0415 21.8318 54.109 21.3784 54.0356 20.9368C53.9622 20.4952 53.7515 20.0876 53.4332 19.7711C53.1149 19.4546 52.7048 19.2452 52.2607 19.1722C51.8165 19.0992 51.3605 19.1663 50.9567 19.3641C50.5529 19.5619 50.2215 19.8804 50.009 20.275C49.7965 20.6696 49.7137 21.1204 49.772 21.5642C49.8337 22.0326 50.0492 22.4676 50.3851 22.8016C50.7211 23.1356 51.1586 23.3499 51.6296 23.4111ZM51.6296 12.6968C52.076 12.7549 52.5295 12.6725 52.9264 12.4612C53.3233 12.25 53.6436 11.9205 53.8426 11.519C54.0415 11.1175 54.109 10.6641 54.0356 10.2225C53.9622 9.78096 53.7515 9.37332 53.4332 9.05683C53.1149 8.74034 52.7048 8.5309 52.2607 8.4579C51.8165 8.38489 51.3605 8.452 50.9567 8.64978C50.5529 8.84757 50.2215 9.16612 50.009 9.56071C49.7965 9.95531 49.7137 10.4061 49.772 10.8499C49.8337 11.3183 50.0492 11.7533 50.3851 12.0873C50.7211 12.4213 51.1586 12.6356 51.6296 12.6968ZM40.8531 44.8397C41.2995 44.8977 41.753 44.8153 42.1499 44.6041C42.5467 44.3929 42.8671 44.0634 43.0661 43.6619C43.265 43.2603 43.3325 42.807 43.2591 42.3654C43.1857 41.9238 42.975 41.5162 42.6567 41.1997C42.3383 40.8832 41.9283 40.6738 41.4842 40.6007C41.04 40.5277 40.584 40.5948 40.1802 40.7926C39.7764 40.9904 39.445 41.309 39.2325 41.7036C39.02 42.0982 38.9372 42.549 38.9955 42.9928C39.0571 43.4611 39.2727 43.8961 39.6086 44.2301C39.9445 44.5641 40.3821 44.7784 40.8531 44.8397ZM40.8531 34.1254C41.2995 34.1834 41.753 34.1011 42.1499 33.8898C42.5467 33.6786 42.8671 33.3491 43.0661 32.9476C43.265 32.5461 43.3325 32.0927 43.2591 31.6511C43.1857 31.2095 42.975 30.8019 42.6567 30.4854C42.3383 30.1689 41.9283 29.9595 41.4842 29.8865C41.04 29.8135 40.584 29.8806 40.1802 30.0784C39.7764 30.2761 39.445 30.5947 39.2325 30.9893C39.02 31.3839 38.9372 31.8347 38.9955 32.2785C39.0571 32.7469 39.2727 33.1819 39.6086 33.5159C39.9445 33.8499 40.3821 34.0641 40.8531 34.1254ZM40.8531 23.4111C41.2995 23.4691 41.753 23.3868 42.1499 23.1755C42.5467 22.9643 42.8671 22.6348 43.0661 22.2333C43.265 21.8318 43.3325 21.3784 43.2591 20.9368C43.1857 20.4952 42.975 20.0876 42.6567 19.7711C42.3383 19.4546 41.9283 19.2452 41.4842 19.1722C41.04 19.0992 40.584 19.1663 40.1802 19.3641C39.7764 19.5619 39.445 19.8804 39.2325 20.275C39.02 20.6696 38.9372 21.1204 38.9955 21.5642C39.0571 22.0326 39.2727 22.4676 39.6086 22.8016C39.9445 23.1356 40.3821 23.3498 40.8531 23.4111ZM40.8531 12.6968C41.2995 12.7549 41.753 12.6725 42.1499 12.4612C42.5467 12.25 42.8671 11.9205 43.0661 11.519C43.265 11.1175 43.3325 10.6641 43.2591 10.2225C43.1857 9.78096 42.975 9.37332 42.6567 9.05683C42.3383 8.74034 41.9283 8.5309 41.4842 8.4579C41.04 8.38489 40.584 8.452 40.1802 8.64978C39.7764 8.84757 39.445 9.16612 39.2325 9.56071C39.02 9.95531 38.9372 10.4061 38.9955 10.8499C39.0572 11.3183 39.2727 11.7533 39.6086 12.0873C39.9445 12.4213 40.3821 12.6356 40.8531 12.6968ZM30.0766 55.554C30.523 55.612 30.9765 55.5296 31.3733 55.3184C31.7702 55.1071 32.0906 54.7776 32.2896 54.3761C32.4885 53.9746 32.556 53.5213 32.4826 53.0797C32.4091 52.6381 32.1985 52.2305 31.8802 51.914C31.5618 51.5975 31.1518 51.388 30.7077 51.315C30.2635 51.242 29.8075 51.3091 29.4037 51.5069C28.9999 51.7047 28.6684 52.0233 28.456 52.4178C28.2435 52.8124 28.1607 53.2633 28.219 53.7071C28.2806 54.1754 28.4962 54.6104 28.8321 54.9444C29.168 55.2784 29.6056 55.4927 30.0766 55.554ZM30.0766 44.8397C30.523 44.8977 30.9765 44.8153 31.3734 44.6041C31.7702 44.3929 32.0906 44.0634 32.2896 43.6619C32.4885 43.2603 32.556 42.807 32.4826 42.3654C32.4091 41.9238 32.1985 41.5162 31.8802 41.1997C31.5618 40.8832 31.1518 40.6737 30.7077 40.6007C30.2635 40.5277 29.8075 40.5948 29.4037 40.7926C28.9999 40.9904 28.6684 41.309 28.456 41.7036C28.2435 42.0982 28.1607 42.549 28.219 42.9928C28.2806 43.4611 28.4962 43.8961 28.8321 44.2301C29.168 44.5641 29.6056 44.7784 30.0766 44.8397ZM30.0766 34.1254C30.523 34.1834 30.9765 34.101 31.3734 33.8898C31.7702 33.6786 32.0906 33.3491 32.2896 32.9476C32.4885 32.5461 32.556 32.0927 32.4826 31.6511C32.4091 31.2095 32.1985 30.8019 31.8802 30.4854C31.5618 30.1689 31.1518 29.9595 30.7077 29.8865C30.2635 29.8135 29.8075 29.8806 29.4037 30.0783C28.9999 30.2761 28.6684 30.5947 28.456 30.9893C28.2435 31.3839 28.1607 31.8347 28.219 32.2785C28.2806 32.7469 28.4962 33.1819 28.8321 33.5159C29.168 33.8498 29.6056 34.0641 30.0766 34.1254Z" fill="#EE3F59"/>
<path d="M28.8322 22.8025C27.9932 21.9683 27.9966 20.6123 28.8399 19.7739C29.6831 18.9355 31.0469 18.9321 31.886 19.7664C32.7251 20.6006 32.7217 21.9565 31.8784 22.7949C31.0351 23.6333 29.6713 23.6367 28.8322 22.8025Z" fill="#EE3F59"/>
<path d="M30.0789 12.6968C30.5252 12.7549 30.9787 12.6725 31.3756 12.4612C31.7725 12.25 32.0929 11.9205 32.2918 11.519C32.4907 11.1175 32.5582 10.6641 32.4848 10.2225C32.4114 9.78096 32.2007 9.37332 31.8824 9.05683C31.5641 8.74034 31.1541 8.5309 30.7099 8.4579C30.2658 8.38489 29.8098 8.452 29.4059 8.64978C29.0021 8.84757 28.6707 9.16612 28.4582 9.56071C28.2457 9.95531 28.1629 10.4061 28.2213 10.8499C28.2829 11.3183 28.4984 11.7533 28.8343 12.0873C29.1703 12.4213 29.6078 12.6356 30.0789 12.6968ZM10.9613 51.2857C11.3876 51.2857 11.8043 51.4113 12.1588 51.6468C12.5132 51.8822 12.7894 52.2169 12.9526 52.6085C13.1157 53 13.1584 53.4309 13.0752 53.8466C12.9921 54.2622 12.7868 54.6441 12.4854 54.9437C12.1839 55.2434 11.7999 55.4475 11.3818 55.5302C10.9637 55.6129 10.5304 55.5704 10.1365 55.4083C9.74271 55.2461 9.4061 54.9714 9.16927 54.619C8.93244 54.2666 8.80604 53.8523 8.80604 53.4285C8.80604 52.8602 9.03311 52.3151 9.43731 51.9133C9.84151 51.5114 10.3897 51.2857 10.9613 51.2857ZM10.9613 40.5714C11.3876 40.5714 11.8043 40.697 12.1588 40.9325C12.5132 41.168 12.7894 41.5026 12.9526 41.8942C13.1157 42.2857 13.1584 42.7166 13.0752 43.1323C12.9921 43.5479 12.7868 43.9298 12.4854 44.2295C12.1839 44.5291 11.7999 44.7332 11.3818 44.8159C10.9637 44.8986 10.5304 44.8562 10.1365 44.694C9.74271 44.5318 9.4061 44.2571 9.16927 43.9047C8.93244 43.5523 8.80604 43.138 8.80604 42.7142C8.80604 42.1459 9.03311 41.6009 9.43731 41.199C9.84151 40.7971 10.3897 40.5714 10.9613 40.5714ZM10.9613 29.8571C11.3876 29.8571 11.8043 29.9828 12.1588 30.2182C12.5132 30.4537 12.7894 30.7883 12.9526 31.1799C13.1157 31.5715 13.1584 32.0023 13.0752 32.418C12.9921 32.8337 12.7868 33.2155 12.4854 33.5152C12.1839 33.8149 11.7999 34.0189 11.3818 34.1016C10.9637 34.1843 10.5304 34.1419 10.1365 33.9797C9.74271 33.8175 9.4061 33.5428 9.16927 33.1904C8.93244 32.8381 8.80604 32.4238 8.80604 31.9999C8.80604 31.4316 9.03311 30.8866 9.43731 30.4847C9.84151 30.0828 10.3897 29.8571 10.9613 29.8571ZM19.5825 51.2857C20.0088 51.2857 20.4255 51.4113 20.78 51.6468C21.1344 51.8822 21.4107 52.2169 21.5738 52.6085C21.7369 53 21.7796 53.4309 21.6964 53.8466C21.6133 54.2622 21.408 54.6441 21.1066 54.9437C20.8052 55.2434 20.4211 55.4475 20.003 55.5302C19.5849 55.6129 19.1516 55.5704 18.7577 55.4083C18.3639 55.2461 18.0273 54.9714 17.7905 54.619C17.5536 54.2666 17.4272 53.8523 17.4272 53.4285C17.4272 52.8602 17.6543 52.3151 18.0585 51.9133C18.4627 51.5114 19.0109 51.2857 19.5825 51.2857ZM19.5825 40.5714C20.0088 40.5714 20.4255 40.697 20.78 40.9325C21.1344 41.168 21.4107 41.5026 21.5738 41.8942C21.7369 42.2857 21.7796 42.7166 21.6964 43.1323C21.6133 43.5479 21.408 43.9298 21.1066 44.2295C20.8052 44.5291 20.4211 44.7332 20.003 44.8159C19.5849 44.8986 19.1516 44.8562 18.7577 44.694C18.3639 44.5318 18.0273 44.2571 17.7905 43.9047C17.5536 43.5523 17.4272 43.138 17.4272 42.7142C17.4272 42.1459 17.6543 41.6009 18.0585 41.199C18.4627 40.7971 19.0109 40.5714 19.5825 40.5714ZM19.5825 29.8571C20.0088 29.8571 20.4255 29.9828 20.78 30.2182C21.1344 30.4537 21.4107 30.7883 21.5738 31.1799C21.7369 31.5715 21.7796 32.0023 21.6964 32.418C21.6133 32.8337 21.408 33.2155 21.1066 33.5152C20.8052 33.8149 20.4211 34.0189 20.003 34.1016C19.5849 34.1843 19.1516 34.1419 18.7578 33.9797C18.3639 33.8175 18.0273 33.5428 17.7905 33.1904C17.5536 32.8381 17.4272 32.4238 17.4272 31.9999C17.4272 31.4316 17.6543 30.8866 18.0585 30.4847C18.4627 30.0828 19.0109 29.8571 19.5825 29.8571Z" fill="#EE3F59"/>
</svg>
