<svg width="45" height="45" viewBox="0 0 45 45" fill="none" xmlns="http://www.w3.org/2000/svg">
<circle cx="22.5" cy="22.5" r="21.75" stroke="white" stroke-opacity="0.5" stroke-width="1.5"/>
<path d="M22.1778 32.0668C16.1238 23.6412 15 22.7765 15 19.68C15 15.4384 18.5817 12 23 12C27.4183 12 31 15.4384 31 19.68C31 22.7765 29.8763 23.6412 23.8222 32.0668C23.4249 32.6178 22.5751 32.6177 22.1778 32.0668ZM23 22.88C24.841 22.88 26.3333 21.4473 26.3333 19.68C26.3333 17.9127 24.841 16.48 23 16.48C21.159 16.48 19.6667 17.9127 19.6667 19.68C19.6667 21.4473 21.159 22.88 23 22.88Z" fill="white"/>
</svg>
