<svg width="45" height="45" viewBox="0 0 45 45" fill="none" xmlns="http://www.w3.org/2000/svg">
<path d="M30.6969 19.9625C30.8187 19.8656 31 19.9562 31 20.1094V26.5C31 27.3281 30.3281 28 29.5 28H16.5C15.6719 28 15 27.3281 15 26.5V20.1125C15 19.9563 15.1781 19.8687 15.3031 19.9656C16.0031 20.5094 16.9313 21.2 20.1188 23.5156C20.7781 23.9969 21.8906 25.0094 23 25.0031C24.1156 25.0125 25.25 23.9781 25.8844 23.5156C29.0719 21.2 29.9969 20.5062 30.6969 19.9625ZM23 24C23.725 24.0125 24.7688 23.0875 25.2937 22.7063C29.4406 19.6969 29.7562 19.4344 30.7125 18.6844C30.8937 18.5437 31 18.325 31 18.0938V17.5C31 16.6719 30.3281 16 29.5 16H16.5C15.6719 16 15 16.6719 15 17.5V18.0938C15 18.325 15.1062 18.5406 15.2875 18.6844C16.2437 19.4312 16.5594 19.6969 20.7063 22.7063C21.2313 23.0875 22.275 24.0125 23 24Z" fill="white"/>
<circle cx="22.5" cy="22.5" r="21.75" stroke="white" stroke-opacity="0.5" stroke-width="1.5"/>
</svg>
