<svg width="45" height="45" viewBox="0 0 45 45" fill="none" xmlns="http://www.w3.org/2000/svg">
<path d="M30.5414 23.7C30.6591 23.1706 30.7178 22.6298 30.7164 22.0875C30.7164 17.9332 27.2989 14.5625 23.0811 14.5625C22.6441 14.5622 22.2079 14.598 21.7768 14.6697C21.0719 14.2296 20.2571 13.9975 19.4261 14C16.9839 14 15 15.9543 15 18.3625C14.9974 19.1404 15.2074 19.9042 15.6072 20.5714C15.5049 21.0691 15.4532 21.5759 15.4529 22.0839C15.4529 26.2425 18.8704 29.6089 23.0839 29.6089C23.5521 29.6101 24.0195 29.5683 24.48 29.4839C25.1256 29.8239 25.8444 30.001 26.5739 30C29.0204 30 31 28.0457 31 25.6375C31.0041 24.9643 30.8468 24.2999 30.5414 23.7ZM27 25.6786C26.6457 26.17 26.1247 26.5618 25.4497 26.8368C24.7747 27.1118 23.9772 27.25 23.0604 27.25C21.9643 27.25 21.0475 27.0582 20.3264 26.6832C19.8266 26.4202 19.3955 26.0434 19.0679 25.5832C18.7425 25.125 18.58 24.6668 18.58 24.2261C18.58 23.9511 18.6872 23.7136 18.8968 23.5136C19.1054 23.3218 19.3761 23.2218 19.6929 23.2218C19.9554 23.2218 20.1804 23.2968 20.3639 23.4511C20.5389 23.5968 20.6889 23.8136 20.8097 24.0968C20.9267 24.368 21.0744 24.625 21.25 24.8625C21.4005 25.0582 21.6131 25.2207 21.8879 25.35C22.1672 25.4793 22.5379 25.5457 22.995 25.5457C23.6243 25.5457 24.1411 25.4125 24.5286 25.15C24.9122 24.8957 25.0957 24.5875 25.0957 24.2125C25.0957 23.9168 24.9997 23.6832 24.7997 23.5C24.5914 23.3082 24.3204 23.1582 23.9829 23.0582C23.6368 22.9511 23.1661 22.8375 22.5825 22.7168C21.7907 22.55 21.1182 22.35 20.5825 22.125C20.0368 21.8957 19.595 21.575 19.2697 21.1793C18.9404 20.775 18.7779 20.2668 18.7779 19.6707C18.7723 19.1198 18.9546 18.5834 19.2947 18.15C19.6364 17.7125 20.1325 17.3707 20.7786 17.1375C21.4122 16.9043 22.1664 16.7875 23.0164 16.7875C23.7 16.7875 24.2961 16.8668 24.7961 17.0168C25.2961 17.1668 25.7214 17.3793 26.0589 17.6375C26.3964 17.8957 26.6425 18.1707 26.8007 18.4589C26.9589 18.7472 27.0386 19.0382 27.0386 19.3161C27.0386 19.5825 26.9343 19.8286 26.7257 20.0411C26.6246 20.1463 26.5027 20.2295 26.3679 20.2855C26.2331 20.3414 26.0881 20.3688 25.9422 20.3661C25.6589 20.3661 25.4379 20.2993 25.2839 20.1661C25.1411 20.0411 24.9922 19.8493 24.8297 19.57C24.6379 19.2161 24.4086 18.9325 24.1461 18.7325C23.8875 18.5411 23.4625 18.4411 22.8707 18.4411C22.3247 18.4411 21.8789 18.5482 21.5493 18.7625C21.2325 18.9668 21.0782 19.2043 21.0782 19.4832C21.0743 19.643 21.1292 19.7987 21.2325 19.9207C21.3582 20.0653 21.513 20.1818 21.6868 20.2625C21.8825 20.3609 22.0877 20.439 22.2993 20.4957C22.5136 20.5543 22.8661 20.6418 23.3539 20.75C23.9747 20.8793 24.5414 21.0293 25.0418 21.1832C25.5504 21.3457 25.9879 21.5404 26.3461 21.7707C26.7018 21.9953 26.9979 22.3028 27.2089 22.6668C27.4132 23.0239 27.5175 23.475 27.5175 23.9918C27.5402 24.5963 27.3578 25.1908 27 25.6786Z" fill="white"/>
<circle cx="22.5" cy="22.5" r="21.75" stroke="white" stroke-opacity="0.5" stroke-width="1.5"/>
</svg>
