<svg width="65" height="64" viewBox="0 0 65 64" fill="none" xmlns="http://www.w3.org/2000/svg">
<path d="M44.0928 20.4619L28.0192 38.9235L20.8818 31.9715" stroke="#EE3F59" stroke-width="4" stroke-linecap="round" stroke-linejoin="round"/>
<path d="M62.5273 11.2841C49.5553 8.97067 44.1921 7.25721 32.4837 2C20.7752 7.25721 15.412 8.97067 2.44001 11.2841C0.0898976 48.3168 30.2467 61.1043 32.4837 62C34.7206 61.1043 64.8774 48.3168 62.5273 11.2841Z" stroke="#EE3F59" stroke-width="4" stroke-linecap="round" stroke-linejoin="round"/>
<path d="M44.0928 20.4619L28.0192 38.9235L20.8818 31.9715" stroke="#EE3F59" stroke-width="4" stroke-linecap="round" stroke-linejoin="round"/>
<path d="M62.5283 11.2841C49.5563 8.97067 44.1931 7.25721 32.4846 2C20.7762 7.25721 15.413 8.97067 2.44098 11.2841C0.0908742 48.3168 30.2477 61.1043 32.4846 62C34.7216 61.1043 64.8784 48.3168 62.5283 11.2841Z" stroke="#EE3F59" stroke-width="4" stroke-linecap="round" stroke-linejoin="round"/>
</svg>
