<svg width="70" height="70" viewBox="0 0 70 70" fill="none" xmlns="http://www.w3.org/2000/svg">
<rect width="70" height="70" rx="16" fill="url(#paint0_linear_335_979)"/>
<circle cx="35" cy="35" r="22" fill="white"/>
<path d="M43.4343 34.8195L36.3272 42.476C35.6788 43.1742 34.572 43.1752 33.9228 42.476L26.8151 34.8195C25.844 33.7736 26.5843 32.0625 28.0173 32.0625H32.3906V13.4687H26.6501C26.5424 13.4688 26.4357 13.4475 26.3362 13.4063C26.2366 13.3651 26.1462 13.3047 26.0701 13.2285L22.2419 9.40034C21.7251 8.88361 22.0911 8 22.822 8H36.2188C37.1249 8 37.8594 8.73452 37.8594 9.64062V32.0625H42.2321C43.6593 32.0625 44.4094 33.7694 43.4343 34.8195Z" fill="#304193"/>
<defs>
<linearGradient id="paint0_linear_335_979" x1="1.71181e-06" y1="-8.16667" x2="70" y2="78.1667" gradientUnits="userSpaceOnUse">
<stop stop-color="#1B2B7C"/>
<stop offset="1" stop-color="#7485DB"/>
</linearGradient>
</defs>
</svg>
