<svg width="35" height="45" viewBox="0 0 35 45" fill="none" xmlns="http://www.w3.org/2000/svg">
<path d="M28.0742 19.3587H32.1225L34.8173 6.11914H28.4943V4.31844H30.4144V0H4.40331V4.31844H6.32351V6.11914H0L2.69481 19.3587H6.7436C7.8442 23.231 11.002 26.2461 14.955 27.1428V34.7484H11.141V40.6816H9.50038V45H25.3174V40.6816H23.6768V34.7484H19.8628V27.1429C23.8158 26.2461 26.9736 23.2311 28.0742 19.3587ZM32.9734 7.62557L30.8918 17.8522H28.3896C28.458 17.3549 28.4943 16.8476 28.4943 16.3317V7.62557H32.9734ZM5.90974 2.81201V1.50643H28.908V2.81201H5.90974ZM3.92547 17.8522L1.84388 7.62557H6.32341V16.3317C6.32341 16.8475 6.35966 17.3549 6.42816 17.8522H3.92547ZM7.82994 16.3318V4.31844H26.9879V16.3318C26.9879 21.6136 22.6907 25.9107 17.4089 25.9107C12.127 25.9107 7.82994 21.6135 7.82994 16.3318ZM23.811 42.188V43.4936H11.0068V42.188H11.141H23.6768H23.811ZM22.1704 40.6816H12.6474V36.2548H22.1704V40.6816ZM18.3564 34.7484H16.4614V27.3762C16.7738 27.4028 17.0897 27.4171 17.409 27.4171C17.7281 27.4171 18.044 27.4027 18.3564 27.3762V34.7484Z" fill="#EE3F59"/>
<path d="M23.6765 9.44031H11.1406V16.8799H23.6765V9.44031ZM22.17 15.3734H12.6471V10.9467H22.17V15.3734Z" fill="#EE3F59"/>
</svg>
