<svg width="45" height="45" viewBox="0 0 45 45" fill="none" xmlns="http://www.w3.org/2000/svg">
<path d="M22.5 1.40625C10.8503 1.40625 1.40625 10.8503 1.40625 22.5C1.40625 34.1497 10.8503 43.5938 22.5 43.5938C34.1497 43.5938 43.5938 34.1497 43.5938 22.5C43.5938 10.8503 34.1497 1.40625 22.5 1.40625ZM35.4268 35.4268C32.2214 38.6225 27.9411 40.5105 23.4198 40.7227C18.8985 40.935 14.4602 39.4563 10.9696 36.5749C7.47895 33.6934 5.18613 29.6157 4.53787 25.136C3.88961 20.6564 4.93234 16.0959 7.4629 12.3432C9.99345 8.59037 13.8305 5.91415 18.2265 4.83594C22.6225 3.75773 27.2624 4.35478 31.2422 6.51076C35.222 8.66673 38.2566 12.2272 39.7547 16.4984C41.2527 20.7695 41.1069 25.4454 39.3457 29.615C38.4278 31.7876 37.0969 33.7614 35.4268 35.4268Z" fill="#EE3F59"/>
<path d="M22.5 33.75C24.9242 33.75 27.2492 32.787 28.9634 31.0728C30.6776 29.3586 31.6406 27.0336 31.6406 24.6094H13.3594C13.3594 27.0336 14.3224 29.3586 16.0366 31.0728C17.7508 32.787 20.0758 33.75 22.5 33.75Z" fill="#EE3F59"/>
<path d="M18.084 20.0647L19.8845 17.904L14.7655 13.6382L9.64648 17.904L11.447 20.0647L14.7655 17.2992L18.084 20.0647Z" fill="#EE3F59"/>
<path d="M25.1152 17.904L26.9158 20.0647L30.2342 17.2992L33.5527 20.0647L35.3533 17.904L30.2342 13.6382L25.1152 17.904Z" fill="#EE3F59"/>
</svg>
