<svg width="45" height="45" viewBox="0 0 45 45" fill="none" xmlns="http://www.w3.org/2000/svg">
<path d="M6.64814 27.021C6.93451 27.3543 7.23458 27.6864 7.52511 28.0075C8.2953 28.8124 8.99894 29.6839 9.62856 30.6127C10.2638 31.6583 10.8399 32.7414 11.3538 33.857C11.64 34.449 11.9361 35.0609 12.2463 35.6513L12.4198 35.9815C13.1352 37.3425 13.8737 38.7497 14.689 40.0763C15.1351 40.7578 15.685 41.3586 16.3169 41.8548C17.4857 42.7915 18.7826 43.539 20.1642 44.0735C21.6318 44.686 23.198 45.0006 24.7784 45C26.5624 44.9772 28.3286 44.6291 29.9978 43.9716C31.2198 43.4887 32.3497 42.7829 33.3348 41.8867C34.6392 40.7331 35.6283 39.2563 36.5424 37.0981C37.4961 34.8456 37.8228 32.4182 38.1386 30.071C38.2322 29.3755 38.3287 28.6563 38.4402 27.954C38.5419 27.2157 38.5982 26.4716 38.6091 25.7259C38.6264 25.2348 38.6445 24.7271 38.6887 24.233C39.0496 20.239 38.9509 16.6546 38.3866 13.2741C38.1995 12.1137 37.9061 10.9746 37.5107 9.8726C36.8415 8.04613 35.2114 6.90622 33.544 7.09779C33.2296 7.14532 32.9206 7.22548 32.6214 7.33714C32.5142 7.37262 32.4061 7.40874 32.2965 7.44235C32.2738 7.32241 32.2539 7.2043 32.2344 7.08849C32.1893 6.76755 32.1186 6.45113 32.0232 6.14246C31.9636 5.96623 31.906 5.78816 31.8481 5.60968C31.6476 4.90281 31.3714 4.22191 31.0246 3.57981C30.8259 3.23689 30.5584 2.94302 30.2405 2.71848C29.9225 2.49394 29.5618 2.34401 29.1831 2.27906C28.7751 2.2119 28.358 2.23654 27.9598 2.35129C27.5615 2.46605 27.1915 2.66829 26.8741 2.94447C26.735 3.06299 26.6019 3.18794 26.4793 3.30273C26.4594 3.32078 26.4411 3.33862 26.4222 3.35604C26.3088 3.14019 26.1989 2.92664 26.0902 2.71534C25.8003 2.15225 25.5264 1.62008 25.2144 1.1012C24.6977 0.241303 23.8679 -0.12586 22.8155 0.0381065C22.3578 0.0981995 21.9201 0.270316 21.5382 0.540455C21.1562 0.810597 20.8408 1.17112 20.6175 1.59268C20.3026 2.21782 20.02 2.86013 19.7711 3.51691C19.6839 3.73631 19.5966 3.95504 19.5072 4.17172C19.4791 4.12483 19.4508 4.07648 19.4217 4.02645C19.2573 3.73659 19.0786 3.45575 18.8865 3.18503C18.0969 2.10845 17.0544 1.87163 15.873 2.50011C14.5165 3.22114 14.2285 4.59016 14.1298 5.55715C13.9972 6.75939 13.9279 7.96834 13.9221 9.17854C13.9287 11.9734 13.9599 14.8146 13.9899 17.5622C14.0032 18.7407 14.0154 19.9192 14.0267 21.0977C14.0304 21.4984 14.0294 21.8992 14.0284 22.3V22.7324C13.9809 22.6908 13.9345 22.6493 13.8878 22.6057C13.7962 22.5227 13.7011 22.4351 13.5994 22.3577C11.5702 20.8167 9.40999 20.2739 7.17896 20.7446C6.69467 20.8347 6.24002 21.051 5.85729 21.3737C5.47456 21.6965 5.17615 22.1149 4.98982 22.5904C4.80693 23.0916 4.74645 23.6325 4.81386 24.1641C4.88127 24.6958 5.07448 25.2016 5.37596 25.6358C5.60126 25.9492 5.85741 26.2369 6.14023 26.4943C6.31232 26.6634 6.49076 26.8377 6.64814 27.021ZM15.8823 25.2568C15.8426 22.8168 15.7921 20.2756 15.7287 17.4869C15.716 16.9194 15.6928 16.3431 15.6705 15.7849C15.6286 14.7387 15.5851 13.6569 15.6081 12.5963C15.6572 10.3383 15.7925 8.04382 15.9233 5.82487L15.9376 5.58539C15.9999 4.52457 16.3775 3.96646 17.1605 3.78112C17.7998 4.21698 18.1963 4.93513 18.3715 5.97809C18.6354 7.54434 18.8211 9.12387 18.9279 10.7103C19.0595 12.6918 19.1596 14.7096 19.2566 16.6608C19.3126 17.7937 19.3689 18.9263 19.4313 20.0585C19.4483 20.3219 19.5223 20.5779 19.6479 20.8071C19.7437 20.9852 19.8967 21.1219 20.08 21.1933C20.2631 21.2645 20.4646 21.266 20.6487 21.1969C20.8232 21.1626 20.9797 21.0632 21.0892 20.9171C21.1987 20.771 21.2536 20.5884 21.2436 20.4032C21.2422 20.1353 21.2486 19.8667 21.255 19.5981C21.2792 19.0467 21.2697 18.4943 21.2267 17.9441C20.9426 15.0822 21.0838 12.1723 21.2203 9.35829L21.2514 8.71713C21.311 7.47183 21.4089 6.24954 21.5065 5.11298C21.5979 4.04596 21.9067 3.20077 22.4505 2.52894C22.7408 2.17049 22.9771 2.00654 23.1688 2.02585C23.3663 2.0466 23.5637 2.25416 23.7896 2.68317C24.5448 4.11404 24.7391 5.72589 24.8726 7.25432C25.1753 10.7175 25.1779 14.3871 24.8812 19.1521C24.8649 19.415 24.8339 19.6832 24.8041 19.9427C24.7659 20.2722 24.7266 20.6132 24.716 20.952C24.7009 21.4237 24.8144 21.7614 25.0527 21.9561C25.2909 22.1508 25.6317 22.1844 26.0649 22.0543C26.3692 21.9769 26.6416 21.799 26.8416 21.547C27.0417 21.2953 27.1587 20.9829 27.1754 20.6562L27.2078 20.2959C27.3127 19.3193 27.3696 18.3376 27.3779 17.3549C27.3568 14.7922 27.2863 12.1868 27.2189 9.66835L27.2024 9.05465C27.1951 8.78171 27.1695 8.50545 27.1448 8.23811C27.0747 7.48033 27.0085 6.76448 27.3106 6.05882L27.4085 5.82636C27.5601 5.42054 27.7567 5.03465 27.9942 4.67652C28.0782 4.54092 28.195 4.431 28.333 4.35789C28.4709 4.28474 28.6247 4.25103 28.7791 4.26014C28.9277 4.28904 29.0664 4.35865 29.1809 4.4618C29.2954 4.56495 29.3816 4.69799 29.4307 4.84731C29.6815 5.49811 29.8729 6.17219 30.0024 6.86055C30.4841 9.12561 30.4102 11.4683 30.3386 13.7329L30.3355 13.8321C30.2506 16.5184 30.2144 19.204 30.1878 21.7058C30.1793 22.525 30.436 22.8787 31.2053 23.1074C31.3396 23.1614 31.4841 23.1827 31.6275 23.1695C31.771 23.1564 31.9097 23.1091 32.0331 23.0314C32.1432 22.9376 32.2315 22.8185 32.2907 22.6836C32.3501 22.5487 32.3789 22.4011 32.3751 22.2527C32.4042 21.7782 32.4035 21.2957 32.4032 20.8289C32.4032 20.6272 32.4032 20.4254 32.4048 20.2238C32.4091 19.7848 32.4131 19.3458 32.4165 18.907C32.4244 17.9651 32.4326 17.023 32.4479 16.0811C32.4556 15.6121 32.4705 15.1428 32.4854 14.6737C32.5121 13.8435 32.5393 12.9838 32.5252 12.1384C32.5095 11.2692 32.8883 10.5733 33.3002 9.95084C33.3536 9.85258 33.4254 9.76657 33.511 9.69782C33.5969 9.62908 33.6951 9.57905 33.7998 9.55065C33.9208 9.54009 34.0428 9.5547 34.1585 9.59363C34.2739 9.63255 34.381 9.69507 34.4734 9.77754C34.9901 10.1552 35.3443 10.7295 35.46 11.3769L35.5999 12.0978C35.9326 13.8068 36.2756 15.5741 36.4997 17.3262C36.7761 19.7178 36.7843 22.1348 36.5236 24.5283C36.4945 24.8181 36.4918 25.1099 36.5157 25.4C36.7661 28.2612 36.1909 31.1623 35.7285 33.4934C35.3613 35.3278 34.6211 37.0585 33.5585 38.5689C32.4838 40.1124 30.9189 41.1989 28.7741 41.8896C24.8575 43.1526 21.1919 42.4708 17.5673 39.8056C17.2098 39.5577 16.897 39.2456 16.6434 38.8838C16.024 37.956 15.4511 36.9959 14.9269 36.0061C14.1292 34.4601 13.3244 32.8018 12.5351 31.0772C11.3229 28.4313 9.7748 26.3477 7.79933 24.7074C7.46494 24.4283 7.18341 24.0862 6.96927 23.6989C6.90886 23.6008 6.86923 23.4899 6.85304 23.3745C6.83682 23.2589 6.84441 23.141 6.87529 23.0287C6.9241 22.9017 6.99774 22.7865 7.09154 22.6908C7.18532 22.595 7.29718 22.5208 7.41999 22.4727C7.81029 22.2911 8.23308 22.1983 8.66038 22.2002C8.89164 22.201 9.12229 22.2245 9.34937 22.2701C11.0862 22.6105 12.2493 23.2853 13.01 24.3938C13.2779 24.8344 13.4846 25.3126 13.6241 25.8139C13.666 25.9417 13.7081 26.0692 13.7518 26.1945C13.9215 26.6817 14.1592 27.1329 14.7437 27.1368C15.2673 27.1352 15.6341 26.8072 15.771 26.2236C15.8473 25.9075 15.8847 25.5827 15.8823 25.2566V25.2568Z" fill="#EE3F59"/>
</svg>
