<svg width="45" height="45" viewBox="0 0 45 45" fill="none" xmlns="http://www.w3.org/2000/svg">
<g clip-path="url(#clip0_326_512)">
<path d="M43.2045 40.3135C42.9531 39.6176 42.1853 39.257 41.4891 39.5085L38.7471 40.4988L34.2509 28.0504C37.5648 26.1737 39.15 22.1196 37.8138 18.4197L31.4804 0.885141C31.229 0.18926 30.4612 -0.171484 29.765 0.0801285L22.4998 2.7042L15.2344 0.0801285C14.5382 -0.171336 13.7703 0.189111 13.519 0.885141L7.18564 18.4197C5.84941 22.1195 7.43457 26.1737 10.7486 28.0503L6.25229 40.4987L3.5103 39.5083C2.81442 39.257 2.04619 39.6173 1.79487 40.3133C1.54355 41.0094 1.90385 41.7774 2.59988 42.0288L10.6043 44.9199C10.7547 44.9743 10.9083 45 11.0594 45C11.6079 45 12.1228 44.6606 12.3197 44.1149C12.571 43.4189 12.2108 42.6508 11.5147 42.3995L8.77274 41.4091L13.2681 28.9631C13.7362 29.0481 14.2083 29.0914 14.6797 29.0914C15.8331 29.0914 16.9823 28.8374 18.0574 28.3328C19.9828 27.4293 21.4411 25.83 22.1636 23.8296L22.4996 22.8993L22.8357 23.8296C23.5582 25.83 25.0165 27.4293 26.9419 28.3328C28.0171 28.8374 29.166 29.0914 30.3196 29.0914C30.7909 29.0914 31.2631 29.0481 31.7311 28.9631L36.2265 41.4091L33.4845 42.3995C32.7885 42.6508 32.4281 43.4189 32.6795 44.1149C32.8767 44.6606 33.3913 45 33.9398 45C34.091 45 34.2446 44.9743 34.395 44.9199L42.3994 42.0288C43.0956 41.7774 43.456 41.0095 43.2045 40.3135ZM28.4498 5.27065C28.2988 4.94891 28.0262 4.70043 27.6919 4.57968L26.4442 4.12901L29.4151 3.05586L32.3445 11.1661L25.8964 13.4951L28.497 6.29512C28.6177 5.96087 28.6007 5.59239 28.4498 5.27065ZM19.6432 22.9191C19.1638 24.2463 18.1963 25.3074 16.919 25.9068C15.6418 26.5062 14.2074 26.5726 12.8803 26.093C10.1407 25.1036 8.7169 22.0696 9.70638 19.33L11.7447 13.6867L21.6817 17.2759L19.6432 22.9191ZM22.5919 14.7554L12.6549 11.1661L15.5843 3.05586L25.5214 6.64499L22.5919 14.7554ZM32.1193 26.0932C30.7921 26.5724 29.3577 26.5063 28.0804 25.9068C26.803 25.3074 25.8355 24.2463 25.3563 22.9191L23.9244 18.955L24.7128 16.7722L33.255 13.6869L35.2932 19.3302C36.2827 22.0698 34.8589 25.1037 32.1193 26.0932Z" fill="#EE3F59"/>
</g>
<defs>
<clipPath id="clip0_326_512">
<rect width="45" height="45" fill="white"/>
</clipPath>
</defs>
</svg>
