<svg width="45" height="45" viewBox="0 0 45 45" fill="none" xmlns="http://www.w3.org/2000/svg">
<g clip-path="url(#clip0_326_528)">
<path d="M41.5754 17.4397H31.1644C30.9207 17.4397 30.7776 17.3006 30.714 17.2176C30.6503 17.1347 30.5529 16.9605 30.616 16.7252L32.4704 9.80425C33.2688 6.82414 31.494 3.75009 28.5139 2.95169C27.2099 2.60206 25.8648 3.37901 25.5153 4.68296L24.2143 9.53838C23.6429 11.671 22.5319 13.616 21.0011 15.1628C19.5058 16.6739 17.9289 17.9013 16.8853 18.7135C16.4869 19.0235 16.1722 19.2685 15.9533 19.4581L15.5859 19.7766C15.3793 19.9555 15.1151 20.054 14.8419 20.054H11.0597V17.3982C11.0597 16.843 10.6094 16.3928 10.0542 16.3928H1.00547C0.450263 16.3928 0 16.843 0 17.3982V41.1267C0 41.682 0.450263 42.1322 1.00547 42.1322H10.0545C10.6097 42.1322 11.06 41.682 11.06 41.1267V38.471H14.8421C15.1155 38.471 15.3799 38.5696 15.5863 38.7486C17.3248 40.2554 19.5494 41.0852 21.85 41.0852H38.5591C40.4474 41.0852 41.9838 39.5489 41.9838 37.6606V37.0902C41.9838 36.3719 41.7615 35.7046 41.3823 35.1534C42.3469 34.5471 42.9892 33.4731 42.9892 32.252V31.6816C42.9892 30.9633 42.767 30.296 42.3877 29.7448C43.3523 29.1385 43.9947 28.0645 43.9947 26.8434V26.273C43.9947 25.5548 43.7724 24.8875 43.3932 24.3362C44.3578 23.7299 45.0002 22.6559 45.0002 21.4348V20.8643C44.9999 18.9761 43.4637 17.4397 41.5754 17.4397ZM9.04903 40.1213H2.01085V18.4036H9.04894V40.1213H9.04903ZM42.9891 21.4348C42.9891 22.2143 42.3549 22.8484 41.5753 22.8484H38.8667C38.3115 22.8484 37.8613 23.2986 37.8613 23.8539C37.8613 24.4092 38.3115 24.8594 38.8667 24.8594H40.5701C41.3495 24.8594 41.9836 25.4936 41.9836 26.273V26.8434C41.9836 27.6229 41.3494 28.257 40.5699 28.257H37.6602C37.105 28.257 36.6547 28.7072 36.6547 29.2625C36.6547 29.8178 37.105 30.268 37.6602 30.268H39.5644C40.3439 30.268 40.9781 30.9021 40.9781 31.6816V32.252C40.9781 33.0315 40.3439 33.6656 39.5644 33.6656H36.6045C36.0493 33.6656 35.5991 34.1158 35.5991 34.6711C35.5991 35.2264 36.0493 35.6766 36.6045 35.6766H38.559C39.3385 35.6766 39.9728 36.3107 39.9728 37.0902V37.6606C39.9728 38.4401 39.3385 39.0742 38.559 39.0742H21.8499C20.033 39.0742 18.2762 38.4189 16.9033 37.2291C16.3313 36.7332 15.5992 36.4601 14.8421 36.4601H11.06V22.0648H14.8421C15.5992 22.0648 16.3313 21.7917 16.9032 21.2959L17.2705 20.9776C17.4493 20.8225 17.7605 20.5804 18.1206 20.3001C19.2049 19.456 20.8437 18.1806 22.4306 16.577C24.2066 14.7822 25.4951 12.5281 26.1569 10.0586L27.4578 5.20309C27.5202 4.9701 27.76 4.83105 27.9935 4.89372C29.9024 5.40515 31.0396 7.37443 30.528 9.28358L28.6736 16.2045C28.5632 16.6168 28.5573 17.0388 28.6479 17.4397H27.4717C26.9165 17.4397 26.4662 17.8899 26.4662 18.4452C26.4662 19.0005 26.9165 19.4507 27.4717 19.4507H41.5754C42.3549 19.4507 42.9891 20.0848 42.9891 20.8643V21.4348Z" fill="#EE3F59"/>
<path d="M6.29062 38.4374C6.84583 38.4374 7.29609 37.9872 7.29609 37.432V36.4265C7.29609 35.8712 6.84583 35.421 6.29062 35.421C5.73542 35.421 5.28516 35.8712 5.28516 36.4265V37.432C5.28524 37.9873 5.73542 38.4374 6.29062 38.4374Z" fill="#EE3F59"/>
<path d="M17.7281 23.3903C17.1729 23.3903 16.7227 23.8404 16.7227 24.3957V29.1822C16.7227 29.7374 17.1729 30.1876 17.7281 30.1876C18.2833 30.1876 18.7336 29.7374 18.7336 29.1822V24.3957C18.7336 23.8403 18.2835 23.3903 17.7281 23.3903Z" fill="#EE3F59"/>
<path d="M17.7281 32.0471C17.1729 32.0471 16.7227 32.4973 16.7227 33.0526V34.0471C16.7227 34.6024 17.1729 35.0525 17.7281 35.0525C18.2833 35.0525 18.7336 34.6024 18.7336 34.0471V33.0526C18.7336 32.4973 18.2835 32.0471 17.7281 32.0471Z" fill="#EE3F59"/>
</g>
<defs>
<clipPath id="clip0_326_528">
<rect width="45" height="45" fill="white"/>
</clipPath>
</defs>
</svg>
