<svg width="120" height="218" viewBox="0 0 120 218" fill="none" xmlns="http://www.w3.org/2000/svg">
<path d="M54 105C54 102.239 56.2386 100 59 100H61C63.7614 100 66 102.239 66 105V108H54V105Z" fill="#2E2E2E"/>
<g filter="url(#filter0_f_341_982)">
<circle cx="60" cy="143" r="16" fill="#EE3F59" fill-opacity="0.2"/>
</g>
<line x1="60" y1="4.37114e-08" x2="60" y2="100" stroke="#2E2E2E" stroke-width="2"/>
<path d="M0 218L37 143H82L120 218H0Z" fill="url(#paint0_linear_341_982)"/>
<path d="M37 125.5C37 113.074 47.0736 103 59.5 103V103C71.9264 103 82 113.074 82 125.5V143H37V125.5Z" fill="#2E2E2E"/>
<path d="M42 125C42.6452 121 45.9484 113 54 113" stroke="white"/>
<defs>
<filter id="filter0_f_341_982" x="34" y="117" width="52" height="52" filterUnits="userSpaceOnUse" color-interpolation-filters="sRGB">
<feFlood flood-opacity="0" result="BackgroundImageFix"/>
<feBlend mode="normal" in="SourceGraphic" in2="BackgroundImageFix" result="shape"/>
<feGaussianBlur stdDeviation="5" result="effect1_foregroundBlur_341_982"/>
</filter>
<linearGradient id="paint0_linear_341_982" x1="62.7731" y1="143" x2="62.7731" y2="218" gradientUnits="userSpaceOnUse">
<stop stop-color="#EE3F59" stop-opacity="0.25"/>
<stop offset="1" stop-color="#EE3F59" stop-opacity="0"/>
</linearGradient>
</defs>
</svg>
