<svg width="45" height="45" viewBox="0 0 45 45" fill="none" xmlns="http://www.w3.org/2000/svg">
<g clip-path="url(#clip0_326_520)">
<path d="M2.51395 22.3765C2.51395 11.3564 11.4794 2.3909 22.4995 2.3909C28.0096 2.3909 33.2415 4.65509 37.0115 8.63608H35.9903C35.33 8.63608 34.7949 9.17124 34.7949 9.83153C34.7949 10.4918 35.33 11.027 35.9903 11.027H40.0445C40.7048 11.027 41.24 10.4918 41.24 9.83153V5.77722C41.24 5.11693 40.7048 4.58177 40.0445 4.58177C39.3842 4.58177 38.8491 5.11693 38.8491 5.77722V7.10165C34.621 2.577 28.7192 0 22.4995 0C10.1611 0 0.123047 10.0381 0.123047 22.3765C0.123047 27.818 2.09979 33.063 5.68894 37.1453C5.92524 37.4141 6.25532 37.5514 6.58725 37.5514C6.86739 37.5514 7.14898 37.4534 7.37599 37.2537C7.87183 36.8178 7.92045 36.0624 7.48437 35.5666C4.27923 31.921 2.51395 27.2366 2.51395 22.3765Z" fill="#EE3F59"/>
<path d="M43.4499 14.5006C43.2174 13.8825 42.5277 13.57 41.9102 13.8024C41.2922 14.0349 40.9796 14.7241 41.212 15.3422C42.0564 17.5876 42.4846 19.9544 42.4846 22.3765C42.4846 33.3966 33.5191 42.3619 22.4991 42.3619C19.3103 42.3619 16.1442 41.5926 13.3321 40.1387L14.4125 39.7561C15.0348 39.5356 15.3606 38.8525 15.1403 38.2302C14.9199 37.6076 14.236 37.2821 13.6143 37.5024L9.79274 38.8558C9.17045 39.0763 8.84462 39.7594 9.06498 40.3817L10.4184 44.2033C10.5921 44.6937 11.0529 45 11.5451 45C11.6776 45 11.8124 44.9778 11.9443 44.9311C12.5666 44.7106 12.8924 44.0275 12.6721 43.4052L12.2745 42.2828C15.4147 43.8979 18.9447 44.7528 22.4991 44.7528C34.8376 44.7528 44.8755 34.7149 44.8755 22.3765C44.8755 19.666 44.3959 17.0161 43.4499 14.5006Z" fill="#EE3F59"/>
<path d="M22.4995 7.48767C14.3795 7.48767 7.77344 14.0937 7.77344 22.2138C7.77344 30.3337 14.3795 36.9399 22.4995 36.9399C30.6196 36.9399 37.2257 30.3338 37.2257 22.2138C37.2258 14.0937 30.6196 7.48767 22.4995 7.48767ZM33.8048 23.4092H34.7767C34.2115 29.2586 29.5443 33.9258 23.695 34.4909V33.519C23.695 32.8587 23.1598 32.3236 22.4995 32.3236C21.8393 32.3236 21.3041 32.8587 21.3041 33.519V34.4909C15.4547 33.9258 10.7876 29.2586 10.2224 23.4094H11.1943C11.8546 23.4094 12.3897 22.8742 12.3897 22.2139C12.3897 21.5536 11.8546 21.0185 11.1943 21.0185H10.2224C10.7876 15.1691 15.4547 10.5019 21.3041 9.93675V10.9087C21.3041 11.5689 21.8393 12.1041 22.4995 12.1041C23.1598 12.1041 23.695 11.5689 23.695 10.9087V9.93675C29.5443 10.5019 34.2115 15.1691 34.7767 21.0183H33.8048C33.1445 21.0183 32.6094 21.5535 32.6094 22.2138C32.6094 22.8741 33.1445 23.4092 33.8048 23.4092Z" fill="#EE3F59"/>
<path d="M27.876 22.2203H27.0387H23.6956V17.4466V15.7396C23.6956 15.0793 23.1604 14.5441 22.5001 14.5441C21.8399 14.5441 21.3047 15.0793 21.3047 15.7396V23.4157C21.3047 24.076 21.8399 24.6112 22.5001 24.6112H27.876C28.5362 24.6112 29.0714 24.076 29.0714 23.4157C29.0714 22.7554 28.5362 22.2203 27.876 22.2203Z" fill="#EE3F59"/>
</g>
<defs>
<clipPath id="clip0_326_520">
<rect width="45" height="45" fill="white"/>
</clipPath>
</defs>
</svg>
