<svg width="33" height="33" viewBox="0 0 33 33" fill="none" xmlns="http://www.w3.org/2000/svg">
<path d="M16.5385 32.6153C12.2236 32.6153 8.16707 30.9351 5.11605 27.884C2.0649 24.8329 0.384644 20.7763 0.384644 16.4615C0.384644 12.1467 2.0649 8.09004 5.11605 5.03896C8.16707 1.98787 12.2236 0.307617 16.5385 0.307617C20.8534 0.307617 24.9099 1.98787 27.9609 5.03896C31.0121 8.09004 32.6923 12.1467 32.6923 16.4615C32.6923 20.7763 31.0121 24.8329 27.9609 27.884C24.9099 30.9351 20.8534 32.6153 16.5385 32.6153ZM16.5385 1.59478C8.34096 1.59478 1.6718 8.26393 1.6718 16.4615C1.6718 24.659 8.34096 31.3282 16.5385 31.3282C24.736 31.3282 31.4052 24.659 31.4052 16.4615C31.4052 8.26393 24.736 1.59478 16.5385 1.59478Z" fill="white"/>
<path d="M12.8788 26.1157C12.5167 26.1157 12.1561 26.026 11.836 25.8564C11.1059 25.4693 10.6523 24.7154 10.6523 23.8892V9.03495C10.6523 8.20866 11.1059 7.45484 11.8359 7.06779C12.5659 6.6808 13.4443 6.72823 14.1283 7.192L25.084 14.619C25.696 15.0338 26.0612 15.7228 26.0612 16.4621C26.0612 17.2012 25.696 17.8902 25.084 18.3051L14.1283 25.7322C13.7583 25.9831 13.3262 26.1157 12.8788 26.1157ZM12.8791 8.0952C12.7284 8.0952 12.5774 8.13149 12.4389 8.20499C12.1308 8.36833 11.9395 8.68632 11.9395 9.03495V23.8892C11.9395 24.2378 12.1308 24.5558 12.4389 24.7191C12.5739 24.7907 12.7261 24.8286 12.8788 24.8286C13.0676 24.8286 13.2499 24.7727 13.406 24.6668L24.3617 17.2397C24.6199 17.0646 24.774 16.774 24.774 16.4621C24.774 16.1501 24.6199 15.8595 24.3617 15.6845L13.406 8.25738C13.2472 8.14971 13.0635 8.0952 12.8791 8.0952Z" fill="white"/>
<path d="M18.7918 4.36556C18.7548 4.36556 18.7174 4.3624 18.6797 4.35577C17.3164 4.11649 15.885 4.10935 14.5196 4.33492C14.1686 4.39304 13.8376 4.15556 13.7797 3.80487C13.7218 3.45418 13.9591 3.12293 14.3098 3.06501C15.8177 2.81588 17.3967 2.82367 18.9023 3.08805C19.2523 3.14951 19.4863 3.48314 19.4249 3.83325C19.37 4.14564 19.0984 4.36556 18.7918 4.36556Z" fill="white"/>
<path d="M28.6921 12.6644C28.4295 12.6644 28.183 12.5025 28.0875 12.2416C27.034 9.35896 24.9521 6.98634 22.2254 5.56075C21.9104 5.39605 21.7886 5.0072 21.9533 4.69224C22.118 4.3772 22.5068 4.25537 22.8218 4.42007C25.8332 5.99452 28.1327 8.6153 29.2965 11.7997C29.4185 12.1336 29.2468 12.5031 28.9129 12.6251C28.8401 12.6518 28.7654 12.6644 28.6921 12.6644Z" fill="white"/>
</svg>
