<svg width="159" height="156" viewBox="0 0 159 156" fill="none" xmlns="http://www.w3.org/2000/svg">
<rect width="6.34783" height="6.34783" rx="2" fill="#97C024" fill-opacity="0.5"/>
<rect y="76.1738" width="6.34783" height="6.34783" rx="2" fill="#97C024" fill-opacity="0.5"/>
<rect y="38.0869" width="6.34783" height="6.34783" rx="2" fill="#97C024" fill-opacity="0.5"/>
<rect y="114.261" width="6.34783" height="6.34783" rx="2" fill="#97C024" fill-opacity="0.5"/>
<rect y="19.0435" width="6.34783" height="6.34783" rx="2" fill="#97C024" fill-opacity="0.5"/>
<rect y="95.2173" width="6.34783" height="6.34783" rx="2" fill="#97C024" fill-opacity="0.5"/>
<rect y="57.1304" width="6.34783" height="6.34783" rx="2" fill="#97C024" fill-opacity="0.5"/>
<rect y="133.304" width="6.34783" height="6.34783" rx="2" fill="#97C024" fill-opacity="0.5"/>
<rect x="152.348" width="6.34783" height="6.34783" rx="2" fill="#97C024" fill-opacity="0.5"/>
<rect x="152.348" y="76.1738" width="6.34783" height="6.34783" rx="2" fill="#97C024" fill-opacity="0.5"/>
<rect x="152.348" y="38.0869" width="6.34783" height="6.34783" rx="2" fill="#97C024" fill-opacity="0.5"/>
<rect x="152.348" y="114.261" width="6.34783" height="6.34783" rx="2" fill="#97C024" fill-opacity="0.5"/>
<rect x="152.348" y="19.0435" width="6.34783" height="6.34783" rx="2" fill="#97C024" fill-opacity="0.5"/>
<rect x="152.348" y="95.2173" width="6.34783" height="6.34783" rx="2" fill="#97C024" fill-opacity="0.5"/>
<rect x="152.348" y="57.1304" width="6.34783" height="6.34783" rx="2" fill="#97C024" fill-opacity="0.5"/>
<rect x="152.348" y="133.304" width="6.34783" height="6.34783" rx="2" fill="#97C024" fill-opacity="0.5"/>
<rect x="76.1738" width="6.34783" height="6.34783" rx="2" fill="#97C024" fill-opacity="0.5"/>
<rect x="76.1738" y="76.1738" width="6.34783" height="6.34783" rx="2" fill="#97C024" fill-opacity="0.5"/>
<rect x="76.1738" y="38.0869" width="6.34783" height="6.34783" rx="2" fill="#97C024" fill-opacity="0.5"/>
<rect x="76.1738" y="114.261" width="6.34783" height="6.34783" rx="2" fill="#97C024" fill-opacity="0.5"/>
<rect x="76.1738" y="19.0435" width="6.34783" height="6.34783" rx="2" fill="#97C024" fill-opacity="0.5"/>
<rect x="76.1738" y="95.2173" width="6.34783" height="6.34783" rx="2" fill="#97C024" fill-opacity="0.5"/>
<rect x="76.1738" y="57.1304" width="6.34783" height="6.34783" rx="2" fill="#97C024" fill-opacity="0.5"/>
<rect x="76.1738" y="133.304" width="6.34783" height="6.34783" rx="2" fill="#97C024" fill-opacity="0.5"/>
<rect x="38.0859" width="6.34783" height="6.34783" rx="2" fill="#97C024" fill-opacity="0.5"/>
<rect x="38.0859" y="76.1738" width="6.34783" height="6.34783" rx="2" fill="#97C024" fill-opacity="0.5"/>
<rect x="38.0859" y="38.0869" width="6.34783" height="6.34783" rx="2" fill="#97C024" fill-opacity="0.5"/>
<rect x="38.0859" y="114.261" width="6.34783" height="6.34783" rx="2" fill="#97C024" fill-opacity="0.5"/>
<rect x="38.0859" y="19.0435" width="6.34783" height="6.34783" rx="2" fill="#97C024" fill-opacity="0.5"/>
<rect x="38.0859" y="95.2173" width="6.34783" height="6.34783" rx="2" fill="#97C024" fill-opacity="0.5"/>
<rect x="38.0859" y="57.1304" width="6.34783" height="6.34783" rx="2" fill="#97C024" fill-opacity="0.5"/>
<rect x="38.0859" y="133.304" width="6.34783" height="6.34783" rx="2" fill="#97C024" fill-opacity="0.5"/>
<rect x="114.262" width="6.34783" height="6.34783" rx="2" fill="#97C024" fill-opacity="0.5"/>
<rect x="114.262" y="76.1738" width="6.34783" height="6.34783" rx="2" fill="#97C024" fill-opacity="0.5"/>
<rect x="114.262" y="38.0869" width="6.34783" height="6.34783" rx="2" fill="#97C024" fill-opacity="0.5"/>
<rect x="114.262" y="114.261" width="6.34783" height="6.34783" rx="2" fill="#97C024" fill-opacity="0.5"/>
<rect x="114.262" y="19.0435" width="6.34783" height="6.34783" rx="2" fill="#97C024" fill-opacity="0.5"/>
<rect x="114.262" y="95.2173" width="6.34783" height="6.34783" rx="2" fill="#97C024" fill-opacity="0.5"/>
<rect x="114.262" y="57.1304" width="6.34783" height="6.34783" rx="2" fill="#97C024" fill-opacity="0.5"/>
<rect x="114.262" y="133.304" width="6.34783" height="6.34783" rx="2" fill="#97C024" fill-opacity="0.5"/>
<rect x="19.043" width="6.34783" height="6.34783" rx="2" fill="#97C024" fill-opacity="0.5"/>
<rect x="19.043" y="76.1738" width="6.34783" height="6.34783" rx="2" fill="#97C024" fill-opacity="0.5"/>
<rect x="19.043" y="38.0869" width="6.34783" height="6.34783" rx="2" fill="#97C024" fill-opacity="0.5"/>
<rect x="19.043" y="114.261" width="6.34783" height="6.34783" rx="2" fill="#97C024" fill-opacity="0.5"/>
<rect x="19.043" y="19.0435" width="6.34783" height="6.34783" rx="2" fill="#97C024" fill-opacity="0.5"/>
<rect x="19.043" y="95.2173" width="6.34783" height="6.34783" rx="2" fill="#97C024" fill-opacity="0.5"/>
<rect x="19.043" y="57.1304" width="6.34783" height="6.34783" rx="2" fill="#97C024" fill-opacity="0.5"/>
<rect x="19.043" y="133.304" width="6.34783" height="6.34783" rx="2" fill="#97C024" fill-opacity="0.5"/>
<rect x="95.2168" width="6.34783" height="6.34783" rx="2" fill="#97C024" fill-opacity="0.5"/>
<rect x="95.2168" y="76.1738" width="6.34783" height="6.34783" rx="2" fill="#97C024" fill-opacity="0.5"/>
<rect x="95.2168" y="38.0869" width="6.34783" height="6.34783" rx="2" fill="#97C024" fill-opacity="0.5"/>
<rect x="95.2168" y="114.261" width="6.34783" height="6.34783" rx="2" fill="#97C024" fill-opacity="0.5"/>
<rect x="95.2168" y="19.0435" width="6.34783" height="6.34783" rx="2" fill="#97C024" fill-opacity="0.5"/>
<rect x="95.2168" y="95.2173" width="6.34783" height="6.34783" rx="2" fill="#97C024" fill-opacity="0.5"/>
<rect x="95.2168" y="57.1304" width="6.34783" height="6.34783" rx="2" fill="#97C024" fill-opacity="0.5"/>
<rect x="95.2168" y="133.304" width="6.34783" height="6.34783" rx="2" fill="#97C024" fill-opacity="0.5"/>
<rect x="57.1309" width="6.34783" height="6.34783" rx="2" fill="#97C024" fill-opacity="0.5"/>
<rect x="57.1309" y="76.1738" width="6.34783" height="6.34783" rx="2" fill="#97C024" fill-opacity="0.5"/>
<rect x="57.1309" y="38.0869" width="6.34783" height="6.34783" rx="2" fill="#97C024" fill-opacity="0.5"/>
<rect x="57.1309" y="114.261" width="6.34783" height="6.34783" rx="2" fill="#97C024" fill-opacity="0.5"/>
<rect x="57.1309" y="19.0435" width="6.34783" height="6.34783" rx="2" fill="#97C024" fill-opacity="0.5"/>
<rect x="57.1309" y="95.2173" width="6.34783" height="6.34783" rx="2" fill="#97C024" fill-opacity="0.5"/>
<rect x="57.1309" y="57.1304" width="6.34783" height="6.34783" rx="2" fill="#97C024" fill-opacity="0.5"/>
<rect x="57.1309" y="133.304" width="6.34783" height="6.34783" rx="2" fill="#97C024" fill-opacity="0.5"/>
<rect x="133.305" width="6.34783" height="6.34783" rx="2" fill="#97C024" fill-opacity="0.5"/>
<rect x="133.305" y="76.1738" width="6.34783" height="6.34783" rx="2" fill="#97C024" fill-opacity="0.5"/>
<rect x="133.305" y="38.0869" width="6.34783" height="6.34783" rx="2" fill="#97C024" fill-opacity="0.5"/>
<rect x="133.305" y="114.261" width="6.34783" height="6.34783" rx="2" fill="#97C024" fill-opacity="0.5"/>
<rect x="133.305" y="19.0435" width="6.34783" height="6.34783" rx="2" fill="#97C024" fill-opacity="0.5"/>
<rect x="133.305" y="95.2173" width="6.34783" height="6.34783" rx="2" fill="#97C024" fill-opacity="0.5"/>
<rect x="133.305" y="57.1304" width="6.34783" height="6.34783" rx="2" fill="#97C024" fill-opacity="0.5"/>
<rect x="133.305" y="133.304" width="6.34783" height="6.34783" rx="2" fill="#97C024" fill-opacity="0.5"/>
<g filter="url(#filter0_d_102_2)">
<ellipse cx="79.5" cy="70" rx="62.5" ry="62" fill="#97C024"/>
</g>
<path d="M108.604 61.4025C107.556 60.0979 106.227 59.0459 104.717 58.3243C103.207 57.6026 101.553 57.2299 99.8796 57.2336H87.4646L89.732 48.3757C90.1941 46.5379 90.0173 44.5975 89.2305 42.8735C88.4437 41.1495 87.0937 39.7445 85.4026 38.8894C83.5514 37.9532 81.4158 37.7475 79.42 38.3131C77.4241 38.8788 75.714 40.1743 74.6292 41.9425L65.1514 57.2327H62.2138C61.6995 56.0134 60.8373 54.9726 59.7349 54.2404C58.6326 53.5082 57.3389 53.1171 56.0156 53.1158H54.7241C52.9413 53.1177 51.2321 53.8267 49.9715 55.0873C48.7109 56.3479 48.0019 58.0571 48 59.8399V91.2759C48.0019 93.0587 48.7109 94.7679 49.9715 96.0285C51.2321 97.2891 52.9413 97.9981 54.7241 98H56.0156C57.1725 97.997 58.3089 97.6947 59.3144 97.1225C60.3199 96.5502 61.1601 95.7275 61.7535 94.7343H96.6157C99.1732 94.7232 101.651 93.8422 103.641 92.2364C105.632 90.6305 107.017 88.3953 107.569 85.898L110.834 70.8104C111.192 69.1755 111.178 67.4808 110.792 65.8522C110.406 64.2236 109.658 62.7028 108.604 61.4025ZM56.0156 93.515H54.7241C54.1299 93.5143 53.5602 93.2779 53.14 92.8578C52.7198 92.4376 52.4834 91.8679 52.4827 91.2737V59.8399C52.4834 59.2456 52.7198 58.6759 53.14 58.2558C53.5602 57.8356 54.1299 57.5992 54.7241 57.5985H56.0156C56.6098 57.5992 57.1795 57.8356 57.5997 58.2558C58.0199 58.6759 58.2562 59.2456 58.2569 59.8399V91.2759C58.2556 91.8697 58.019 92.4389 57.5989 92.8586C57.1788 93.2783 56.6094 93.5143 56.0156 93.515ZM106.455 69.8601L103.189 84.9458C102.857 86.4447 102.026 87.7861 100.831 88.7499C99.6361 89.7136 98.149 90.2424 96.6139 90.2494H62.7397V61.7154H66.3994C66.781 61.7157 67.1563 61.6183 67.4896 61.4325C67.823 61.2467 68.1032 60.9786 68.3036 60.6539L78.4378 44.3036C78.9188 43.5276 79.6617 42.9494 80.5321 42.6737C81.4025 42.398 82.3428 42.443 83.1829 42.8005C84.023 43.158 84.7074 43.8045 85.1121 44.6229C85.5169 45.4413 85.6153 46.3775 85.3896 47.2622L82.4086 58.9173C82.3238 59.2483 82.3159 59.5943 82.3853 59.9288C82.4548 60.2633 82.5998 60.5775 82.8093 60.8474C83.0187 61.1173 83.2871 61.3357 83.594 61.486C83.9008 61.6363 84.2379 61.7145 84.5795 61.7145H99.8796C100.883 61.7141 101.875 61.9384 102.781 62.3711C103.686 62.8037 104.484 63.4337 105.114 64.2148C105.745 64.9959 106.193 65.9083 106.425 66.885C106.657 67.8617 106.667 68.878 106.455 69.8592V69.8601Z" fill="white"/>
<defs>
<filter id="filter0_d_102_2" x="1" y="0" width="157" height="156" filterUnits="userSpaceOnUse" color-interpolation-filters="sRGB">
<feFlood flood-opacity="0" result="BackgroundImageFix"/>
<feColorMatrix in="SourceAlpha" type="matrix" values="0 0 0 0 0 0 0 0 0 0 0 0 0 0 0 0 0 0 127 0" result="hardAlpha"/>
<feOffset dy="8"/>
<feGaussianBlur stdDeviation="8"/>
<feComposite in2="hardAlpha" operator="out"/>
<feColorMatrix type="matrix" values="0 0 0 0 0.105882 0 0 0 0 0.168627 0 0 0 0 0.486275 0 0 0 0.15 0"/>
<feBlend mode="normal" in2="BackgroundImageFix" result="effect1_dropShadow_102_2"/>
<feBlend mode="normal" in="SourceGraphic" in2="effect1_dropShadow_102_2" result="shape"/>
</filter>
</defs>
</svg>
