<svg width="49" height="40" viewBox="0 0 49 40" fill="none" xmlns="http://www.w3.org/2000/svg">
<path d="M45.2058 0.479492H4.3195C2.25815 0.479492 0.581055 2.21335 0.581055 4.34446V35.6556C0.581055 37.7867 2.25815 39.5206 4.3195 39.5206H45.2058C47.2671 39.5206 48.9442 37.7867 48.9442 35.6556V4.34446C48.9442 2.21335 47.2671 0.479492 45.2058 0.479492ZM4.3195 1.9472H45.2058C46.4843 1.9472 47.5245 3.02264 47.5245 4.34446V6.74172H2.00072V4.34446C2.00072 3.02264 3.04095 1.9472 4.3195 1.9472ZM45.2058 38.0529H4.3195C3.04095 38.0529 2.00072 36.9774 2.00072 35.6556V8.20943H47.5245V35.6556C47.5245 36.9774 46.4843 38.0529 45.2058 38.0529Z" fill="white"/>
</svg>
