<svg width="159" height="139" viewBox="0 0 159 139" fill="none" xmlns="http://www.w3.org/2000/svg">
<rect width="6.34783" height="6.31639" rx="2" fill="#EE3F59" fill-opacity="0.5"/>
<rect y="75.7964" width="6.34783" height="6.31639" rx="2" fill="#EE3F59" fill-opacity="0.5"/>
<rect y="37.8984" width="6.34783" height="6.31639" rx="2" fill="#EE3F59" fill-opacity="0.5"/>
<rect y="113.695" width="6.34783" height="6.31639" rx="2" fill="#EE3F59" fill-opacity="0.5"/>
<rect y="18.9492" width="6.34783" height="6.31639" rx="2" fill="#EE3F59" fill-opacity="0.5"/>
<rect y="94.7456" width="6.34783" height="6.31639" rx="2" fill="#EE3F59" fill-opacity="0.5"/>
<rect y="56.8477" width="6.34783" height="6.31639" rx="2" fill="#EE3F59" fill-opacity="0.5"/>
<rect y="132.644" width="6.34783" height="6.31639" rx="2" fill="#EE3F59" fill-opacity="0.5"/>
<rect x="152.348" width="6.34783" height="6.31639" rx="2" fill="#EE3F59" fill-opacity="0.5"/>
<rect x="152.348" y="75.7964" width="6.34783" height="6.31639" rx="2" fill="#EE3F59" fill-opacity="0.5"/>
<rect x="152.348" y="37.8984" width="6.34783" height="6.31639" rx="2" fill="#EE3F59" fill-opacity="0.5"/>
<rect x="152.348" y="113.695" width="6.34783" height="6.31639" rx="2" fill="#EE3F59" fill-opacity="0.5"/>
<rect x="152.348" y="18.9492" width="6.34783" height="6.31639" rx="2" fill="#EE3F59" fill-opacity="0.5"/>
<rect x="152.348" y="94.7456" width="6.34783" height="6.31639" rx="2" fill="#EE3F59" fill-opacity="0.5"/>
<rect x="152.348" y="56.8477" width="6.34783" height="6.31639" rx="2" fill="#EE3F59" fill-opacity="0.5"/>
<rect x="152.348" y="132.644" width="6.34783" height="6.31639" rx="2" fill="#EE3F59" fill-opacity="0.5"/>
<rect x="76.1738" width="6.34783" height="6.31639" rx="2" fill="#EE3F59" fill-opacity="0.5"/>
<rect x="76.1738" y="75.7964" width="6.34783" height="6.31639" rx="2" fill="#EE3F59" fill-opacity="0.5"/>
<rect x="76.1738" y="37.8984" width="6.34783" height="6.31639" rx="2" fill="#EE3F59" fill-opacity="0.5"/>
<rect x="76.1738" y="113.695" width="6.34783" height="6.31639" rx="2" fill="#EE3F59" fill-opacity="0.5"/>
<rect x="76.1738" y="18.9492" width="6.34783" height="6.31639" rx="2" fill="#EE3F59" fill-opacity="0.5"/>
<rect x="76.1738" y="94.7456" width="6.34783" height="6.31639" rx="2" fill="#EE3F59" fill-opacity="0.5"/>
<rect x="76.1738" y="56.8477" width="6.34783" height="6.31639" rx="2" fill="#EE3F59" fill-opacity="0.5"/>
<rect x="76.1738" y="132.644" width="6.34783" height="6.31639" rx="2" fill="#EE3F59" fill-opacity="0.5"/>
<rect x="38.0859" width="6.34783" height="6.31639" rx="2" fill="#EE3F59" fill-opacity="0.5"/>
<rect x="38.0859" y="75.7964" width="6.34783" height="6.31639" rx="2" fill="#EE3F59" fill-opacity="0.5"/>
<rect x="38.0859" y="37.8984" width="6.34783" height="6.31639" rx="2" fill="#EE3F59" fill-opacity="0.5"/>
<rect x="38.0859" y="113.695" width="6.34783" height="6.31639" rx="2" fill="#EE3F59" fill-opacity="0.5"/>
<rect x="38.0859" y="18.9492" width="6.34783" height="6.31639" rx="2" fill="#EE3F59" fill-opacity="0.5"/>
<rect x="38.0859" y="94.7456" width="6.34783" height="6.31639" rx="2" fill="#EE3F59" fill-opacity="0.5"/>
<rect x="38.0859" y="56.8477" width="6.34783" height="6.31639" rx="2" fill="#EE3F59" fill-opacity="0.5"/>
<rect x="38.0859" y="132.644" width="6.34783" height="6.31639" rx="2" fill="#EE3F59" fill-opacity="0.5"/>
<rect x="114.262" width="6.34783" height="6.31639" rx="2" fill="#EE3F59" fill-opacity="0.5"/>
<rect x="114.262" y="75.7964" width="6.34783" height="6.31639" rx="2" fill="#EE3F59" fill-opacity="0.5"/>
<rect x="114.262" y="37.8984" width="6.34783" height="6.31639" rx="2" fill="#EE3F59" fill-opacity="0.5"/>
<rect x="114.262" y="113.695" width="6.34783" height="6.31639" rx="2" fill="#EE3F59" fill-opacity="0.5"/>
<rect x="114.262" y="18.9492" width="6.34783" height="6.31639" rx="2" fill="#EE3F59" fill-opacity="0.5"/>
<rect x="114.262" y="94.7456" width="6.34783" height="6.31639" rx="2" fill="#EE3F59" fill-opacity="0.5"/>
<rect x="114.262" y="56.8477" width="6.34783" height="6.31639" rx="2" fill="#EE3F59" fill-opacity="0.5"/>
<rect x="114.262" y="132.644" width="6.34783" height="6.31639" rx="2" fill="#EE3F59" fill-opacity="0.5"/>
<rect x="19.043" width="6.34783" height="6.31639" rx="2" fill="#EE3F59" fill-opacity="0.5"/>
<rect x="19.043" y="75.7964" width="6.34783" height="6.31639" rx="2" fill="#EE3F59" fill-opacity="0.5"/>
<rect x="19.043" y="37.8984" width="6.34783" height="6.31639" rx="2" fill="#EE3F59" fill-opacity="0.5"/>
<rect x="19.043" y="113.695" width="6.34783" height="6.31639" rx="2" fill="#EE3F59" fill-opacity="0.5"/>
<rect x="19.043" y="18.9492" width="6.34783" height="6.31639" rx="2" fill="#EE3F59" fill-opacity="0.5"/>
<rect x="19.043" y="94.7456" width="6.34783" height="6.31639" rx="2" fill="#EE3F59" fill-opacity="0.5"/>
<rect x="19.043" y="56.8477" width="6.34783" height="6.31639" rx="2" fill="#EE3F59" fill-opacity="0.5"/>
<rect x="19.043" y="132.644" width="6.34783" height="6.31639" rx="2" fill="#EE3F59" fill-opacity="0.5"/>
<rect x="95.2168" width="6.34783" height="6.31639" rx="2" fill="#EE3F59" fill-opacity="0.5"/>
<rect x="95.2168" y="75.7964" width="6.34783" height="6.31639" rx="2" fill="#EE3F59" fill-opacity="0.5"/>
<rect x="95.2168" y="37.8984" width="6.34783" height="6.31639" rx="2" fill="#EE3F59" fill-opacity="0.5"/>
<rect x="95.2168" y="113.695" width="6.34783" height="6.31639" rx="2" fill="#EE3F59" fill-opacity="0.5"/>
<rect x="95.2168" y="18.9492" width="6.34783" height="6.31639" rx="2" fill="#EE3F59" fill-opacity="0.5"/>
<rect x="95.2168" y="94.7456" width="6.34783" height="6.31639" rx="2" fill="#EE3F59" fill-opacity="0.5"/>
<rect x="95.2168" y="56.8477" width="6.34783" height="6.31639" rx="2" fill="#EE3F59" fill-opacity="0.5"/>
<rect x="95.2168" y="132.644" width="6.34783" height="6.31639" rx="2" fill="#EE3F59" fill-opacity="0.5"/>
<rect x="57.1309" width="6.34783" height="6.31639" rx="2" fill="#EE3F59" fill-opacity="0.5"/>
<rect x="57.1309" y="75.7964" width="6.34783" height="6.31639" rx="2" fill="#EE3F59" fill-opacity="0.5"/>
<rect x="57.1309" y="37.8984" width="6.34783" height="6.31639" rx="2" fill="#EE3F59" fill-opacity="0.5"/>
<rect x="57.1309" y="113.695" width="6.34783" height="6.31639" rx="2" fill="#EE3F59" fill-opacity="0.5"/>
<rect x="57.1309" y="18.9492" width="6.34783" height="6.31639" rx="2" fill="#EE3F59" fill-opacity="0.5"/>
<rect x="57.1309" y="94.7456" width="6.34783" height="6.31639" rx="2" fill="#EE3F59" fill-opacity="0.5"/>
<rect x="57.1309" y="56.8477" width="6.34783" height="6.31639" rx="2" fill="#EE3F59" fill-opacity="0.5"/>
<rect x="57.1309" y="132.644" width="6.34783" height="6.31639" rx="2" fill="#EE3F59" fill-opacity="0.5"/>
<rect x="133.305" width="6.34783" height="6.31639" rx="2" fill="#EE3F59" fill-opacity="0.5"/>
<rect x="133.305" y="75.7964" width="6.34783" height="6.31639" rx="2" fill="#EE3F59" fill-opacity="0.5"/>
<rect x="133.305" y="37.8984" width="6.34783" height="6.31639" rx="2" fill="#EE3F59" fill-opacity="0.5"/>
<rect x="133.305" y="113.695" width="6.34783" height="6.31639" rx="2" fill="#EE3F59" fill-opacity="0.5"/>
<rect x="133.305" y="18.9492" width="6.34783" height="6.31639" rx="2" fill="#EE3F59" fill-opacity="0.5"/>
<rect x="133.305" y="94.7456" width="6.34783" height="6.31639" rx="2" fill="#EE3F59" fill-opacity="0.5"/>
<rect x="133.305" y="56.8477" width="6.34783" height="6.31639" rx="2" fill="#EE3F59" fill-opacity="0.5"/>
<rect x="133.305" y="132.644" width="6.34783" height="6.31639" rx="2" fill="#EE3F59" fill-opacity="0.5"/>
</svg>
