<svg width="100" height="100" viewBox="0 0 100 100" fill="none" xmlns="http://www.w3.org/2000/svg">
<rect width="4" height="4.54546" rx="2" fill="#EE3F59" fill-opacity="0.25"/>
<rect y="54.5459" width="4" height="4.54546" rx="2" fill="#EE3F59" fill-opacity="0.25"/>
<rect y="27.2725" width="4" height="4.54546" rx="2" fill="#EE3F59" fill-opacity="0.25"/>
<rect y="81.8184" width="4" height="4.54546" rx="2" fill="#EE3F59" fill-opacity="0.25"/>
<rect y="13.6367" width="4" height="4.54546" rx="2" fill="#EE3F59" fill-opacity="0.25"/>
<rect y="68.1816" width="4" height="4.54546" rx="2" fill="#EE3F59" fill-opacity="0.25"/>
<rect y="40.9092" width="4" height="4.54546" rx="2" fill="#EE3F59" fill-opacity="0.25"/>
<rect y="95.4541" width="4" height="4.54546" rx="2" fill="#EE3F59" fill-opacity="0.25"/>
<rect x="96" width="4" height="4.54546" rx="2" fill="#EE3F59" fill-opacity="0.25"/>
<rect x="96" y="54.5449" width="4" height="4.54546" rx="2" fill="#EE3F59" fill-opacity="0.25"/>
<rect x="96" y="27.2725" width="4" height="4.54546" rx="2" fill="#EE3F59" fill-opacity="0.25"/>
<rect x="96" y="81.8184" width="4" height="4.54546" rx="2" fill="#EE3F59" fill-opacity="0.25"/>
<rect x="96" y="13.6367" width="4" height="4.54546" rx="2" fill="#EE3F59" fill-opacity="0.25"/>
<rect x="96" y="68.1816" width="4" height="4.54546" rx="2" fill="#EE3F59" fill-opacity="0.25"/>
<rect x="96" y="40.9092" width="4" height="4.54546" rx="2" fill="#EE3F59" fill-opacity="0.25"/>
<rect x="96" y="95.4551" width="4" height="4.54546" rx="2" fill="#EE3F59" fill-opacity="0.25"/>
<rect x="48" width="4" height="4.54546" rx="2" fill="#EE3F59" fill-opacity="0.25"/>
<rect x="48" y="54.5449" width="4" height="4.54546" rx="2" fill="#EE3F59" fill-opacity="0.25"/>
<rect x="48" y="27.2725" width="4" height="4.54546" rx="2" fill="#EE3F59" fill-opacity="0.25"/>
<rect x="48" y="81.8184" width="4" height="4.54546" rx="2" fill="#EE3F59" fill-opacity="0.25"/>
<rect x="48" y="13.6367" width="4" height="4.54546" rx="2" fill="#EE3F59" fill-opacity="0.25"/>
<rect x="48" y="68.1816" width="4" height="4.54546" rx="2" fill="#EE3F59" fill-opacity="0.25"/>
<rect x="48" y="40.9092" width="4" height="4.54546" rx="2" fill="#EE3F59" fill-opacity="0.25"/>
<rect x="48" y="95.4551" width="4" height="4.54546" rx="2" fill="#EE3F59" fill-opacity="0.25"/>
<rect x="24" width="4" height="4.54546" rx="2" fill="#EE3F59" fill-opacity="0.25"/>
<rect x="24" y="54.5449" width="4" height="4.54546" rx="2" fill="#EE3F59" fill-opacity="0.25"/>
<rect x="24" y="27.2725" width="4" height="4.54546" rx="2" fill="#EE3F59" fill-opacity="0.25"/>
<rect x="24" y="81.8184" width="4" height="4.54546" rx="2" fill="#EE3F59" fill-opacity="0.25"/>
<rect x="24" y="13.6367" width="4" height="4.54546" rx="2" fill="#EE3F59" fill-opacity="0.25"/>
<rect x="24" y="68.1816" width="4" height="4.54546" rx="2" fill="#EE3F59" fill-opacity="0.25"/>
<rect x="24" y="40.9092" width="4" height="4.54546" rx="2" fill="#EE3F59" fill-opacity="0.25"/>
<rect x="24" y="95.4551" width="4" height="4.54546" rx="2" fill="#EE3F59" fill-opacity="0.25"/>
<rect x="72" width="4" height="4.54546" rx="2" fill="#EE3F59" fill-opacity="0.25"/>
<rect x="72" y="54.5449" width="4" height="4.54546" rx="2" fill="#EE3F59" fill-opacity="0.25"/>
<rect x="72" y="27.2725" width="4" height="4.54546" rx="2" fill="#EE3F59" fill-opacity="0.25"/>
<rect x="72" y="81.8184" width="4" height="4.54546" rx="2" fill="#EE3F59" fill-opacity="0.25"/>
<rect x="72" y="13.6367" width="4" height="4.54546" rx="2" fill="#EE3F59" fill-opacity="0.25"/>
<rect x="72" y="68.1816" width="4" height="4.54546" rx="2" fill="#EE3F59" fill-opacity="0.25"/>
<rect x="72" y="40.9092" width="4" height="4.54546" rx="2" fill="#EE3F59" fill-opacity="0.25"/>
<rect x="72" y="95.4551" width="4" height="4.54546" rx="2" fill="#EE3F59" fill-opacity="0.25"/>
<rect x="12" width="4" height="4.54546" rx="2" fill="#EE3F59" fill-opacity="0.25"/>
<rect x="12" y="54.5449" width="4" height="4.54546" rx="2" fill="#EE3F59" fill-opacity="0.25"/>
<rect x="12" y="27.2725" width="4" height="4.54546" rx="2" fill="#EE3F59" fill-opacity="0.25"/>
<rect x="12" y="81.8184" width="4" height="4.54546" rx="2" fill="#EE3F59" fill-opacity="0.25"/>
<rect x="12" y="13.6367" width="4" height="4.54546" rx="2" fill="#EE3F59" fill-opacity="0.25"/>
<rect x="12" y="68.1816" width="4" height="4.54546" rx="2" fill="#EE3F59" fill-opacity="0.25"/>
<rect x="12" y="40.9092" width="4" height="4.54546" rx="2" fill="#EE3F59" fill-opacity="0.25"/>
<rect x="12" y="95.4551" width="4" height="4.54546" rx="2" fill="#EE3F59" fill-opacity="0.25"/>
<rect x="60" width="4" height="4.54546" rx="2" fill="#EE3F59" fill-opacity="0.25"/>
<rect x="60" y="54.5449" width="4" height="4.54546" rx="2" fill="#EE3F59" fill-opacity="0.25"/>
<rect x="60" y="27.2725" width="4" height="4.54546" rx="2" fill="#EE3F59" fill-opacity="0.25"/>
<rect x="60" y="81.8184" width="4" height="4.54546" rx="2" fill="#EE3F59" fill-opacity="0.25"/>
<rect x="60" y="13.6367" width="4" height="4.54546" rx="2" fill="#EE3F59" fill-opacity="0.25"/>
<rect x="60" y="68.1816" width="4" height="4.54546" rx="2" fill="#EE3F59" fill-opacity="0.25"/>
<rect x="60" y="40.9092" width="4" height="4.54546" rx="2" fill="#EE3F59" fill-opacity="0.25"/>
<rect x="60" y="95.4551" width="4" height="4.54546" rx="2" fill="#EE3F59" fill-opacity="0.25"/>
<rect x="36" width="4" height="4.54546" rx="2" fill="#EE3F59" fill-opacity="0.25"/>
<rect x="36" y="54.5449" width="4" height="4.54546" rx="2" fill="#EE3F59" fill-opacity="0.25"/>
<rect x="36" y="27.2725" width="4" height="4.54546" rx="2" fill="#EE3F59" fill-opacity="0.25"/>
<rect x="36" y="81.8184" width="4" height="4.54546" rx="2" fill="#EE3F59" fill-opacity="0.25"/>
<rect x="36" y="13.6367" width="4" height="4.54546" rx="2" fill="#EE3F59" fill-opacity="0.25"/>
<rect x="36" y="68.1816" width="4" height="4.54546" rx="2" fill="#EE3F59" fill-opacity="0.25"/>
<rect x="36" y="40.9092" width="4" height="4.54546" rx="2" fill="#EE3F59" fill-opacity="0.25"/>
<rect x="36" y="95.4551" width="4" height="4.54546" rx="2" fill="#EE3F59" fill-opacity="0.25"/>
<rect x="84" width="4" height="4.54546" rx="2" fill="#EE3F59" fill-opacity="0.25"/>
<rect x="84" y="54.5449" width="4" height="4.54546" rx="2" fill="#EE3F59" fill-opacity="0.25"/>
<rect x="84" y="27.2725" width="4" height="4.54546" rx="2" fill="#EE3F59" fill-opacity="0.25"/>
<rect x="84" y="81.8184" width="4" height="4.54546" rx="2" fill="#EE3F59" fill-opacity="0.25"/>
<rect x="84" y="13.6367" width="4" height="4.54546" rx="2" fill="#EE3F59" fill-opacity="0.25"/>
<rect x="84" y="68.1816" width="4" height="4.54546" rx="2" fill="#EE3F59" fill-opacity="0.25"/>
<rect x="84" y="40.9092" width="4" height="4.54546" rx="2" fill="#EE3F59" fill-opacity="0.25"/>
<rect x="84" y="95.4551" width="4" height="4.54546" rx="2" fill="#EE3F59" fill-opacity="0.25"/>
</svg>
