<svg width="100" height="101" viewBox="0 0 100 101" fill="none" xmlns="http://www.w3.org/2000/svg">
<circle cx="50" cy="50.5913" r="50" fill="#EE3F59"/>
<path d="M67.0625 30.6255L56.5625 30.6255C54.3887 30.6255 52.625 32.7626 52.625 35.3968V48.1201C52.625 50.7543 54.3887 52.8914 56.5625 52.8914H63.125V59.2531C63.125 62.7619 60.7707 65.6148 57.875 65.6148H57.2188C56.1277 65.6148 55.25 66.6784 55.25 68.0004V72.7717C55.25 74.0937 56.1277 75.1573 57.2188 75.1573H57.875C65.1266 75.1573 71 68.0402 71 59.2531V35.3968C71 32.7626 69.2363 30.6255 67.0625 30.6255ZM43.4375 30.6255L32.9375 30.6255C30.7637 30.6255 29 32.7626 29 35.3968L29 48.1201C29 50.7543 30.7637 52.8914 32.9375 52.8914H39.5V59.2531C39.5 62.7619 37.1457 65.6148 34.25 65.6148H33.5938C32.5027 65.6148 31.625 66.6784 31.625 68.0004V72.7717C31.625 74.0937 32.5027 75.1573 33.5938 75.1573H34.25C41.5016 75.1573 47.375 68.0402 47.375 59.2531V35.3968C47.375 32.7626 45.6113 30.6255 43.4375 30.6255Z" fill="white"/>
</svg>
