<svg width="23" height="23" viewBox="0 0 23 23" fill="none" xmlns="http://www.w3.org/2000/svg">
<path d="M20.7329 9.86572L21.8169 10.9497C22.2759 11.4087 22.2759 12.1509 21.8169 12.605L12.3296 22.0972C11.8706 22.5562 11.1284 22.5562 10.6743 22.0972L1.18213 12.605C0.723145 12.146 0.723145 11.4038 1.18213 10.9497L2.26611 9.86572C2.72998 9.40186 3.48682 9.41162 3.94092 9.88525L9.54639 15.769V1.73584C9.54639 1.08643 10.0688 0.563965 10.7183 0.563965H12.2808C12.9302 0.563965 13.4526 1.08643 13.4526 1.73584V15.769L19.0581 9.88525C19.5122 9.40674 20.269 9.39697 20.7329 9.86572Z" fill="#EE3F59"/>
</svg>
