<svg width="23" height="23" viewBox="0 0 23 23" fill="none" xmlns="http://www.w3.org/2000/svg">
<path d="M2.26709 13.1353L1.1831 12.0513C0.72412 11.5923 0.72412 10.8501 1.1831 10.396L10.6704 0.903808C11.1294 0.444823 11.8716 0.444823 12.3257 0.903808L21.8179 10.396C22.2769 10.855 22.2769 11.5972 21.8179 12.0513L20.7339 13.1353C20.27 13.5991 19.5132 13.5894 19.0591 13.1157L13.4536 7.23193L13.4536 21.2651C13.4536 21.9146 12.9312 22.437 12.2817 22.437L10.7192 22.437C10.0698 22.437 9.54736 21.9145 9.54736 21.2651L9.54736 7.23193L3.94189 13.1157C3.48779 13.5942 2.73096 13.604 2.26709 13.1353Z" fill="#EE3F59"/>
</svg>
