<svg width="76" height="80" viewBox="0 0 76 80" fill="none" xmlns="http://www.w3.org/2000/svg">
<g clip-path="url(#clip0_188_18619)">
<path d="M72.3379 -0.000976562H3.07821C1.38088 -0.000976562 0 1.46384 0 3.26433V76.7337C0 78.5342 1.38088 79.999 3.07821 79.999H72.3379C74.0352 79.999 75.4161 78.5342 75.4161 76.7337V3.26433C75.4161 1.46384 74.0352 -0.000976562 72.3379 -0.000976562ZM72.3379 76.7337H3.07821V14.6929H72.3379V76.7337ZM72.3379 11.4276H3.07821V3.26433H72.3379V11.4276Z" fill="white"/>
<path d="M11.5431 5.71338H6.15625V8.97869H11.5431V5.71338Z" fill="white"/>
<path d="M19.2384 5.71338H13.8516V8.97869H19.2384V5.71338Z" fill="white"/>
<path d="M69.2599 5.71338H63.873V8.97869H69.2599V5.71338Z" fill="white"/>
<path d="M18.4688 48.9787H21.1149C21.2692 49.4249 21.4364 49.8574 21.6157 50.275L19.7508 52.2649C19.1697 52.8812 18.8498 53.7 18.8498 54.5705C18.8498 55.441 19.1699 56.2598 19.7508 56.876L24.1063 61.4962C24.6873 62.1125 25.4591 62.452 26.2798 62.452C27.1004 62.452 27.8723 62.1125 28.4501 61.4996L30.3292 59.5179C30.7227 59.708 31.1306 59.8853 31.5512 60.049V62.856C31.5512 64.6565 32.9321 66.1214 34.6294 66.1214H40.7858C42.4832 66.1214 43.8641 64.6565 43.8642 62.856V60.049C44.2848 59.8853 44.6926 59.708 45.0863 59.5178L46.9621 61.496C47.5431 62.1124 48.315 62.4518 49.1356 62.4518C49.9563 62.4518 50.7281 62.1122 51.309 61.496L55.6645 56.8758C56.2455 56.2595 56.5655 55.4407 56.5655 54.5702C56.5655 53.6996 56.2455 52.8809 55.6677 52.268L53.7996 50.2747C53.9787 49.8572 54.1459 49.4245 54.3003 48.9783H56.9464C58.6438 48.9783 60.0246 47.5135 60.0246 45.713V39.1824C60.0246 37.3819 58.6438 35.9171 56.9464 35.9171H54.3003C54.1459 35.4709 53.9787 35.0384 53.7994 34.6208L55.6644 32.6309C56.2454 32.0146 56.5654 31.1958 56.5654 30.3253C56.5654 29.4547 56.2452 28.636 55.6644 28.0198L51.3089 23.3996C50.7278 22.7832 49.956 22.4438 49.1353 22.4438C48.3147 22.4438 47.5428 22.7832 46.965 23.3961L45.0859 25.3778C44.6924 25.1878 44.2845 25.0105 43.8639 24.8467V22.0397C43.8639 20.2392 42.483 18.7744 40.7857 18.7744H34.6293C32.9319 18.7744 31.5511 20.2392 31.5511 22.0397V24.8467C31.1304 25.0105 30.7227 25.1878 30.329 25.378L28.4532 23.3997C27.8721 22.7834 27.1003 22.444 26.2796 22.444C25.459 22.444 24.6871 22.7836 24.1063 23.3997L19.7508 28.02C19.1697 28.6363 18.8498 29.4551 18.8498 30.3256C18.8498 31.1961 19.1697 32.0149 19.7475 32.6278L21.6157 34.6211C21.4365 35.0386 21.2694 35.4712 21.115 35.9174H18.4688C16.7715 35.9174 15.3906 37.3823 15.3906 39.1827V45.7134C15.3906 47.5138 16.7715 48.9787 18.4688 48.9787ZM18.4688 39.1824H22.2246C22.9042 39.1824 23.5034 38.7094 23.6987 38.0188C24.0024 36.9454 24.385 35.9584 24.8361 35.0856C25.1642 34.451 25.0591 33.6631 24.578 33.1496L21.9277 30.3289L26.2798 25.7119L28.9424 28.5199C29.4263 29.0302 30.1691 29.1414 30.7675 28.7937C31.5903 28.3151 32.5207 27.9093 33.5327 27.5871C34.1839 27.3801 34.6296 26.7444 34.6296 26.0234V22.0397H40.786V26.0237C40.786 26.7447 41.2319 27.3803 41.8829 27.5875C42.8949 27.9096 43.8253 28.3155 44.6481 28.794C45.2463 29.1421 45.9889 29.0307 46.4731 28.5202L49.1323 25.7088L53.4847 30.3254L50.8376 33.1499C50.3565 33.6632 50.2513 34.4511 50.5795 35.0859C51.0306 35.9587 51.4132 36.9457 51.7169 38.0191C51.912 38.7099 52.5114 39.1827 53.191 39.1827H56.9464V45.7134H53.191C52.5114 45.7134 51.9122 46.1863 51.7169 46.8769C51.4132 47.9504 51.0306 48.9374 50.5795 49.8102C50.2513 50.4448 50.3565 51.2327 50.8376 51.7462L53.4879 54.5669L49.1358 59.1839L46.4731 56.3759C45.9889 55.8655 45.2463 55.754 44.6481 56.1021C43.8253 56.5806 42.8949 56.9865 41.8829 57.3086C41.2317 57.5156 40.786 58.1514 40.786 58.8724V62.856H34.6296V58.8722C34.6296 58.1512 34.1837 57.5156 33.5327 57.3085C32.5207 56.9863 31.5903 56.5805 30.7675 56.1019C30.5349 55.9667 30.2805 55.9009 30.028 55.9009C29.6307 55.9009 29.2383 56.0637 28.9421 56.3756L26.283 59.187L21.9306 54.5703L24.5777 51.7458C25.0588 51.2325 25.1639 50.4446 24.8358 49.8098C24.3847 48.937 24.0021 47.9501 23.6984 46.8766C23.5032 46.1858 22.9039 45.713 22.2242 45.713H18.4688V39.1824Z" fill="white"/>
<path d="M37.7072 50.6112C41.9505 50.6112 45.4028 46.9492 45.4028 42.4479C45.4028 37.9467 41.9505 34.2847 37.7072 34.2847C33.4639 34.2847 30.0117 37.9467 30.0117 42.4479C30.0117 46.9492 33.4639 50.6112 37.7072 50.6112ZM37.7072 37.55C40.2532 37.55 42.3246 39.7472 42.3246 42.4479C42.3246 45.1487 40.2532 47.3459 37.7072 47.3459C35.1613 47.3459 33.0899 45.1487 33.0899 42.4479C33.0899 39.7472 35.1613 37.55 37.7072 37.55Z" fill="white"/>
<path d="M61.5645 24.4888H58.4863V27.7541H61.5645V24.4888Z" fill="white"/>
<path d="M66.1817 24.4888H63.1035V27.7541H66.1817V24.4888Z" fill="white"/>
<path d="M70.7989 24.4888H67.7207V27.7541H70.7989V24.4888Z" fill="white"/>
<path d="M7.6954 57.1416H4.61719V60.4069H7.6954V57.1416Z" fill="white"/>
<path d="M12.3126 57.1416H9.23438V60.4069H12.3126V57.1416Z" fill="white"/>
<path d="M16.9298 57.1416H13.8516V60.4069H16.9298V57.1416Z" fill="white"/>
<path d="M65.4117 70.2031H10.0039V73.4684H65.4117V70.2031Z" fill="white"/>
</g>
<defs>
<clipPath id="clip0_188_18619">
<rect width="75.4161" height="80" fill="white" transform="translate(0 -0.000976562)"/>
</clipPath>
</defs>
</svg>
