<svg width="138" height="138" viewBox="0 0 138 138" fill="none" xmlns="http://www.w3.org/2000/svg">
<g filter="url(#filter0_d_1_4)">
<circle cx="69" cy="61" r="50" fill="#EE3F59"/>
</g>
<path d="M68.9258 48.71C70.8594 48.71 72.3828 47.1093 72.3828 45.317C72.3828 43.4192 70.8594 41.924 68.9258 41.924C66.9922 41.924 65.4688 43.4192 65.4688 45.317C65.4688 47.2052 66.9922 48.71 68.9258 48.71ZM68.9258 43.7067C69.8437 43.7067 70.4492 44.4064 70.4492 45.2019C70.4492 45.9975 69.7363 46.6972 68.9258 46.6972C68.1152 46.6972 67.4023 46.0933 67.4023 45.2019C67.4023 44.4064 68.0078 43.7067 68.9258 43.7067Z" fill="white"/>
<path d="M54.873 67.6974C52.9395 67.6974 51.416 69.1926 51.416 71.0904C51.416 72.9882 52.9395 74.4834 54.873 74.4834C56.709 74.4834 58.3301 72.9882 58.3301 71.0904C58.3301 69.1926 56.8066 67.6974 54.873 67.6974ZM54.873 72.4898C54.0625 72.4898 53.3496 71.7901 53.3496 70.9945C53.3496 70.199 53.9648 69.4993 54.873 69.4993C55.6836 69.4993 56.3965 70.199 56.3965 70.9945C56.3965 71.7901 55.791 72.4898 54.873 72.4898Z" fill="white"/>
<path d="M82.9785 63.7734C79.7559 63.7734 76.9238 65.2495 75.127 67.5594L69.8438 62.8341V57.3421C74.8242 56.882 78.7988 52.6839 78.7988 47.6902C78.7988 42.294 74.4238 38 68.9258 38C63.4277 38 59.0527 42.3898 59.0527 47.6806C59.0527 52.7701 63.0371 56.882 68.0078 57.3325V62.767L62.7051 67.5211C60.9082 65.2303 58.0762 63.7638 54.873 63.7638C49.375 63.7734 45 68.0674 45 73.4636C45 78.8598 49.4824 83.1538 54.873 83.1538C60.2637 83.1538 64.7461 78.8598 64.7461 73.4636C64.7461 71.9205 64.3848 70.4636 63.75 69.1792L68.8867 64.5402L74.0918 69.1984C73.457 70.4828 73.1055 71.9301 73.1055 73.4636C73.1055 78.8598 77.5879 83.1538 82.9785 83.1538C88.4766 83.1538 92.8516 78.8598 92.8516 73.4636C92.8516 68.0674 88.4766 63.7734 82.9785 63.7734ZM50.4297 79.9142C50.918 78.3998 52.3145 77.355 53.9648 77.355H55.8008C57.4414 77.355 58.8379 78.3998 59.3359 79.9142C58.0664 80.7576 56.5332 81.256 54.8926 81.256C53.2324 81.256 51.6992 80.7576 50.4297 79.9142ZM60.8398 78.6011C59.873 76.7991 57.959 75.5531 55.8008 75.5531H53.9648C51.7188 75.5531 49.7949 76.732 48.877 78.5435C47.6758 77.1729 46.9434 75.3997 46.9434 73.454C46.9434 69.1601 50.5078 65.6616 54.8828 65.6616C59.1602 65.6616 62.8223 69.1601 62.8223 73.454C62.8125 75.4285 62.0703 77.2304 60.8398 78.6011ZM68.9258 55.473C67.2754 55.473 65.752 54.9746 64.4824 54.1312C64.9707 52.6168 66.3672 51.572 68.0176 51.572H69.8535C71.4941 51.572 72.8906 52.6168 73.3887 54.1312C72.0996 54.9842 70.5762 55.473 68.9258 55.473ZM60.9863 47.6806C60.9863 43.3866 64.5508 39.8882 68.9258 39.8882C73.3008 39.8882 76.8652 43.3866 76.8652 47.6806C76.8652 49.6455 76.1133 51.4474 74.8828 52.818C73.916 51.0161 72.002 49.7701 69.8438 49.7701H68.0078C65.7617 49.7701 63.8379 50.949 62.9199 52.7605C61.7188 51.4091 60.9863 49.6263 60.9863 47.6806ZM78.5254 79.9142C79.0137 78.3998 80.4102 77.355 82.0605 77.355H83.8965C85.5371 77.355 86.9336 78.3998 87.4316 79.9142C86.1621 80.7576 84.6289 81.256 82.9883 81.256C81.3477 81.256 79.7949 80.7576 78.5254 79.9142ZM88.9355 78.6011C87.9688 76.7991 86.0547 75.5531 83.8965 75.5531H82.0605C79.8145 75.5531 77.8906 76.732 76.9727 78.5435C75.7715 77.1729 75.0391 75.3997 75.0391 73.454C75.0391 69.1601 78.6035 65.6616 82.9785 65.6616C87.3535 65.6616 90.918 69.1601 90.918 73.454C90.918 75.4285 90.166 77.2304 88.9355 78.6011Z" fill="white"/>
<path d="M82.9785 67.6974C81.0449 67.6974 79.5215 69.1926 79.5215 71.0904C79.5215 72.9882 81.0449 74.4834 82.9785 74.4834C84.9121 74.4834 86.4355 72.9882 86.4355 71.0904C86.4355 69.1926 84.9121 67.6974 82.9785 67.6974ZM82.9785 72.4898C82.168 72.4898 81.4551 71.7901 81.4551 70.9945C81.4551 70.199 82.0703 69.4993 82.9785 69.4993C83.8867 69.4993 84.502 70.199 84.502 70.9945C84.502 71.7901 83.8965 72.4898 82.9785 72.4898Z" fill="white"/>
<defs>
<filter id="filter0_d_1_4" x="0" y="0" width="138" height="138" filterUnits="userSpaceOnUse" color-interpolation-filters="sRGB">
<feFlood flood-opacity="0" result="BackgroundImageFix"/>
<feColorMatrix in="SourceAlpha" type="matrix" values="0 0 0 0 0 0 0 0 0 0 0 0 0 0 0 0 0 0 127 0" result="hardAlpha"/>
<feOffset dy="8"/>
<feGaussianBlur stdDeviation="9.5"/>
<feComposite in2="hardAlpha" operator="out"/>
<feColorMatrix type="matrix" values="0 0 0 0 0.933333 0 0 0 0 0.247059 0 0 0 0 0.34902 0 0 0 0.15 0"/>
<feBlend mode="normal" in2="BackgroundImageFix" result="effect1_dropShadow_1_4"/>
<feBlend mode="normal" in="SourceGraphic" in2="effect1_dropShadow_1_4" result="shape"/>
</filter>
</defs>
</svg>
