<svg width="138" height="138" viewBox="0 0 138 138" fill="none" xmlns="http://www.w3.org/2000/svg">
<g filter="url(#filter0_d_1_3)">
<circle cx="69" cy="61" r="50" fill="#1B2B7C"/>
</g>
<path d="M69.4992 38.481C57.0929 38.481 47 48.3875 47 60.564C47 72.741 57.0929 82.6475 69.4992 82.6475C81.9055 82.6475 91.9989 72.741 91.9989 60.564C91.9989 48.3875 81.9049 38.481 69.4992 38.481ZM69.4992 79.4548C58.8869 79.4548 50.2524 70.9803 50.2524 60.564C50.2524 50.1477 58.8864 41.6737 69.4992 41.6737C80.112 41.6737 88.7459 50.1477 88.7459 60.564C88.7459 70.9803 80.112 79.4548 69.4992 79.4548Z" fill="white"/>
<path d="M76.0098 62.5967C76.0011 62.5967 75.9936 62.5967 75.9849 62.5967L71.126 62.668V50.1877C71.126 49.3059 70.3979 48.5913 69.4995 48.5913C68.6012 48.5913 67.873 49.3059 67.873 50.1877V64.2889C67.873 64.2921 67.8741 64.2953 67.8741 64.2985C67.8741 64.3038 67.873 64.3086 67.873 64.3128C67.8741 64.3777 67.8866 64.4389 67.8953 64.5012C67.9007 64.54 67.9012 64.58 67.9088 64.6183C67.9235 64.6869 67.9479 64.7508 67.9712 64.8152C67.9831 64.8487 67.9907 64.8838 68.0048 64.9157C68.033 64.9812 68.0709 65.0408 68.1073 65.102C68.1241 65.1291 68.1365 65.1589 68.1544 65.1855C68.1956 65.2446 68.245 65.2973 68.2938 65.351C68.3144 65.3733 68.3312 65.3989 68.3529 65.4207C68.4054 65.4718 68.4645 65.5149 68.5236 65.5591C68.5475 65.5766 68.5686 65.5979 68.593 65.6144C68.657 65.657 68.727 65.6905 68.7969 65.7235C68.8213 65.7347 68.843 65.7506 68.8679 65.7607C68.9492 65.7943 69.036 65.8177 69.1238 65.8384C69.1401 65.8421 69.1553 65.8496 69.1721 65.8528C69.2772 65.8735 69.3862 65.8852 69.4979 65.8852C69.506 65.8852 69.5147 65.8852 69.5228 65.8852L76.0331 65.7895C76.9309 65.7762 77.6482 65.0504 77.6352 64.1692C77.6227 63.2959 76.8968 62.5967 76.0098 62.5967Z" fill="white"/>
<defs>
<filter id="filter0_d_1_3" x="0" y="0" width="138" height="138" filterUnits="userSpaceOnUse" color-interpolation-filters="sRGB">
<feFlood flood-opacity="0" result="BackgroundImageFix"/>
<feColorMatrix in="SourceAlpha" type="matrix" values="0 0 0 0 0 0 0 0 0 0 0 0 0 0 0 0 0 0 127 0" result="hardAlpha"/>
<feOffset dy="8"/>
<feGaussianBlur stdDeviation="9.5"/>
<feComposite in2="hardAlpha" operator="out"/>
<feColorMatrix type="matrix" values="0 0 0 0 0.105882 0 0 0 0 0.168627 0 0 0 0 0.486275 0 0 0 0.15 0"/>
<feBlend mode="normal" in2="BackgroundImageFix" result="effect1_dropShadow_1_3"/>
<feBlend mode="normal" in="SourceGraphic" in2="effect1_dropShadow_1_3" result="shape"/>
</filter>
</defs>
</svg>
