<svg width="138" height="138" viewBox="0 0 138 138" fill="none" xmlns="http://www.w3.org/2000/svg">
<g filter="url(#filter0_d_1_2)">
<circle cx="69" cy="61" r="50" fill="#EE3F59"/>
</g>
<path d="M60.1086 48.349V42.4327C60.1086 40.9824 61.3106 39.8025 62.7883 39.8025H64.2261C64.9021 39.8025 65.45 40.3402 65.45 41.0037C65.45 41.6672 64.9021 42.205 64.2261 42.205H62.7883C62.6626 42.205 62.5564 42.3092 62.5564 42.4327V46.2987L62.6511 46.2465C62.8338 46.146 63.0399 46.0932 63.2494 46.0932H68.1188C68.7948 46.0932 69.3428 46.6309 69.3428 47.2944C69.3428 47.9579 68.7948 48.4957 68.1188 48.4957H63.5691L61.931 49.3969C61.745 49.4991 61.5388 49.5502 61.3326 49.5502C61.1187 49.5502 60.9048 49.4952 60.714 49.3855C60.3389 49.17 60.1086 48.7754 60.1086 48.349ZM66.8951 42.0631V38.6303C66.8951 37.1799 68.0971 36 69.5746 36H76.082C77.5596 36 78.7617 37.1799 78.7617 38.6303V45.9223C78.7617 46.4183 78.4513 46.8632 77.9801 47.0424C77.8362 47.0971 77.6865 47.1236 77.5381 47.1236C77.2004 47.1236 76.8701 46.9864 76.6335 46.7317L74.7391 44.693H69.5746C68.0971 44.6932 66.8951 43.5133 66.8951 42.0631ZM69.3429 42.0631C69.3429 42.1843 69.4511 42.2907 69.5748 42.2907H75.2794C75.6236 42.2907 75.9518 42.4328 76.1838 42.6826L76.3139 42.8226V38.6303C76.3139 38.5069 76.2077 38.4025 76.082 38.4025H69.5746C69.4511 38.4025 69.3428 38.5089 69.3428 38.6303V42.0631H69.3429ZM81.8695 51.7757C81.8695 49.0138 84.1589 46.7667 86.9731 46.7667C89.7872 46.7667 92.0766 49.0137 92.0766 51.7757C92.0766 54.5378 89.7872 56.7848 86.9731 56.7848C84.1591 56.7848 81.8695 54.5378 81.8695 51.7757ZM84.3174 51.7757C84.3174 53.213 85.5088 54.3823 86.9731 54.3823C88.4375 54.3823 89.6288 53.213 89.6288 51.7757C89.6288 50.3385 88.4375 49.1692 86.9731 49.1692C85.5088 49.1693 84.3174 50.3385 84.3174 51.7757ZM62.4108 82.6712H60.3279V71.5821C60.3279 70.9203 59.7826 70.3832 59.1084 70.3808L52.0657 70.3559V61.5717L60.6984 64.4002C61.34 64.6102 62.0328 64.2703 62.2469 63.6412C62.4609 63.0118 62.1147 62.3314 61.4735 62.1213L51.2674 58.7773C51.1621 58.7389 51.05 58.7144 50.9334 58.7059C50.8488 58.6996 50.7651 58.7022 50.6828 58.7126C50.4936 58.7366 50.3179 58.8031 50.1662 58.9018C49.9456 59.0448 49.7704 59.2585 49.6803 59.5235C49.6324 59.6642 49.6125 59.8073 49.6178 59.9472V71.5527C49.6178 71.5862 49.6192 71.6195 49.6219 71.6523C49.6221 71.6535 49.6221 71.6547 49.6222 71.6558C49.6222 71.6559 49.6222 71.656 49.6222 71.656C49.6223 71.6572 49.6223 71.6583 49.6225 71.6594C49.6225 71.6595 49.6225 71.6596 49.6225 71.6598C49.6226 71.6608 49.6226 71.6618 49.6227 71.6628C49.6227 71.6631 49.6227 71.6634 49.6227 71.6636C49.6227 71.6646 49.6229 71.6655 49.623 71.6664C49.623 71.6667 49.623 71.6671 49.623 71.6674C49.623 71.6682 49.6231 71.6691 49.6233 71.67C49.6233 71.6704 49.6233 71.6708 49.6234 71.6712C49.6234 71.672 49.6236 71.673 49.6237 71.6738C49.6237 71.6742 49.6237 71.6746 49.6238 71.675C49.6238 71.6758 49.624 71.6766 49.624 71.6774C49.624 71.6779 49.6241 71.6783 49.6241 71.6788C49.6241 71.6797 49.6242 71.6805 49.6242 71.6813C49.6242 71.6817 49.6244 71.6822 49.6244 71.6826C49.6244 71.6834 49.6245 71.6841 49.6245 71.6849C49.6245 71.6854 49.6246 71.6859 49.6246 71.6865C49.6246 71.6871 49.6248 71.6879 49.6249 71.6887C49.6249 71.6893 49.625 71.6897 49.625 71.6903C49.625 71.691 49.6252 71.6917 49.6252 71.6925C49.6252 71.693 49.6253 71.6937 49.6253 71.6942C49.6255 71.6949 49.6255 71.6954 49.6256 71.6961C49.6256 71.6966 49.6257 71.6973 49.6257 71.6979C49.6257 71.6985 49.6259 71.6991 49.626 71.6997C49.626 71.7003 49.6261 71.701 49.6261 71.7017C49.6261 71.7022 49.6263 71.7029 49.6264 71.7035C49.6264 71.7042 49.6265 71.7047 49.6265 71.7054C49.6267 71.7061 49.6267 71.7067 49.6268 71.7074C49.6269 71.7079 49.627 71.7086 49.6271 71.7092C49.6271 71.7098 49.6272 71.7103 49.6274 71.711C49.6274 71.7117 49.6275 71.7122 49.6276 71.7129C49.6276 71.7134 49.6278 71.7141 49.6278 71.7146C49.6279 71.7153 49.6279 71.716 49.628 71.7166C49.6282 71.7172 49.6282 71.7178 49.6283 71.7185C49.6283 71.7192 49.6284 71.7198 49.6286 71.7204C49.6287 71.7209 49.6287 71.7216 49.6289 71.7222C49.629 71.7229 49.629 71.7236 49.6291 71.7242C49.6293 71.7248 49.6293 71.7254 49.6294 71.726C49.6295 71.7266 49.6295 71.7273 49.6297 71.728C49.6297 71.7285 49.6298 71.7292 49.6299 71.7298C49.6299 71.7305 49.6301 71.7312 49.6302 71.7318C49.6303 71.7325 49.6303 71.7332 49.6305 71.7338C49.6305 71.7344 49.6306 71.735 49.6308 71.7356C49.6308 71.7362 49.6309 71.737 49.631 71.7378C49.631 71.7384 49.6312 71.7389 49.6312 71.7393C49.6313 71.7401 49.6314 71.7408 49.6316 71.7416C49.6316 71.7421 49.6317 71.7425 49.6317 71.7431C49.6318 71.7437 49.632 71.7445 49.6321 71.7453C49.6321 71.7457 49.6323 71.7464 49.6324 71.7469C49.6324 71.7476 49.6325 71.7485 49.6327 71.7492C49.6328 71.7497 49.6328 71.75 49.6329 71.7505C49.6331 71.7513 49.6332 71.7523 49.6333 71.7531C49.6333 71.7535 49.6335 71.7539 49.6335 71.7543C49.6336 71.7551 49.6337 71.756 49.6339 71.7568C49.6339 71.7571 49.634 71.7576 49.634 71.7579C49.6342 71.7587 49.6343 71.7596 49.6344 71.7604C49.6344 71.7608 49.6346 71.7612 49.6346 71.7616C49.6347 71.7625 49.6348 71.7636 49.6351 71.7644C49.6351 71.7647 49.6351 71.7649 49.6352 71.7652C49.6354 71.7661 49.6355 71.7672 49.6358 71.7681C49.6358 71.7684 49.6358 71.7687 49.6359 71.7689C49.6361 71.7699 49.6362 71.7709 49.6365 71.7719C49.6365 71.7721 49.6365 71.7723 49.6366 71.7726C49.6367 71.7736 49.637 71.7746 49.6371 71.7756C49.6371 71.7759 49.6371 71.776 49.6373 71.7762C49.6374 71.7772 49.6377 71.7784 49.6378 71.7795V71.7798C49.6381 71.7808 49.6382 71.7822 49.6385 71.7832C49.6385 71.7832 49.6385 71.7834 49.6385 71.7835C49.6388 71.7847 49.6389 71.7859 49.6392 71.7871C49.6395 71.7883 49.6396 71.7895 49.6399 71.7907C49.7523 72.3398 50.2461 72.7536 50.8386 72.7541L57.8781 72.7791V83.8504C57.8779 83.8578 57.8779 83.8651 57.8779 83.8726C57.8779 84.1448 57.9701 84.3958 58.1256 84.5972C58.349 84.887 58.7032 85.0741 59.102 85.0741C59.1104 85.0741 59.119 85.0741 59.1273 85.0739H62.4087C63.0847 85.0739 63.6326 84.5361 63.6326 83.8726C63.6326 83.2091 63.0868 82.6712 62.4108 82.6712ZM46.7937 51.7757C46.7937 49.0138 49.0831 46.7667 51.8973 46.7667C54.7112 46.7667 57.0005 49.0137 57.0005 51.7757C57.0005 54.5378 54.7112 56.7848 51.8973 56.7848C49.0833 56.7848 46.7937 54.5378 46.7937 51.7757ZM49.2416 51.7757C49.2416 53.213 50.433 54.3823 51.8973 54.3823C53.3615 54.3823 54.5527 53.213 54.5527 51.7757C54.5527 50.3385 53.3617 49.1693 51.8975 49.1693C50.433 49.1693 49.2416 50.3385 49.2416 51.7757ZM93.87 75.8398V63.6863C93.87 63.0228 93.3221 62.485 92.6461 62.485C91.9701 62.485 91.4222 63.0228 91.4222 63.6863V74.6718H84.5605C83.8845 74.6718 83.3366 75.2096 83.3366 75.8731V83.8725C83.3366 84.536 83.8845 85.0737 84.5605 85.0737C85.2365 85.0737 85.7844 84.536 85.7844 83.8725V77.0743H91.4226V83.8725C91.4226 84.536 91.9705 85.0737 92.6465 85.0737C93.3226 85.0737 93.8705 84.536 93.8705 83.8725V75.8731C93.8705 75.862 93.8703 75.8509 93.87 75.8398ZM80.9904 72.7791L88.0301 72.7541C88.2266 72.754 88.4123 72.7083 88.5769 72.6273L88.577 72.6272C88.5781 72.6266 88.5791 72.6261 88.5801 72.6257C88.5801 72.6257 88.5803 72.6257 88.5803 72.6256C88.5814 72.625 88.5823 72.6246 88.5834 72.6241C88.5835 72.6241 88.5837 72.624 88.5838 72.6238C88.5848 72.6234 88.5857 72.6229 88.5867 72.6224C88.5868 72.6224 88.5869 72.6222 88.5872 72.6221C88.588 72.6217 88.589 72.6212 88.5899 72.6208C88.5902 72.6206 88.5905 72.6205 88.5909 72.6202C88.5917 72.6198 88.5924 72.6194 88.5932 72.619C88.5935 72.6189 88.5939 72.6188 88.5942 72.6186C88.595 72.6182 88.5956 72.6178 88.5965 72.6174C88.5969 72.6173 88.5971 72.6172 88.5975 72.6169C88.5982 72.6165 88.599 72.6161 88.5997 72.6157C88.6 72.6156 88.6004 72.6153 88.6008 72.6152C88.6015 72.6148 88.6022 72.6145 88.6029 72.6141C88.6033 72.6138 88.6037 72.6136 88.6042 72.6134C88.6048 72.613 88.6054 72.6128 88.6061 72.6124C88.6065 72.6121 88.6071 72.612 88.6075 72.6117C88.608 72.6114 88.6087 72.611 88.6094 72.6108C88.6098 72.6105 88.6103 72.6102 88.6107 72.61C88.6114 72.6097 88.612 72.6093 88.6126 72.609C88.6132 72.6088 88.6136 72.6085 88.6141 72.6082C88.6147 72.608 88.6152 72.6077 88.6158 72.6073C88.6163 72.607 88.617 72.6067 88.6175 72.6063C88.618 72.6061 88.6185 72.6058 88.619 72.6056C88.6196 72.6053 88.6203 72.6049 88.6208 72.6046C88.6212 72.6043 88.6218 72.6042 88.6222 72.6039C88.6228 72.6035 88.6234 72.6033 88.6241 72.6029C88.6245 72.6027 88.6249 72.6025 88.6254 72.6022C88.6261 72.6018 88.6268 72.6014 88.6275 72.601C88.6277 72.6009 88.6282 72.6006 88.6286 72.6005C88.6292 72.6001 88.6299 72.5997 88.6306 72.5993C88.631 72.5991 88.6314 72.5989 88.6317 72.5986C88.6324 72.5982 88.6332 72.5978 88.6339 72.5974C88.6341 72.5973 88.6345 72.597 88.6348 72.5969C88.6355 72.5965 88.6363 72.5961 88.637 72.5957C88.6373 72.5955 88.6377 72.5953 88.6381 72.5951C88.6388 72.5947 88.6396 72.5943 88.6404 72.5938C88.6407 72.5937 88.6409 72.5935 88.6412 72.5934C88.642 72.593 88.6428 72.5925 88.6437 72.5919C88.6439 72.5918 88.6441 72.5917 88.6443 72.5915C88.6451 72.591 88.6461 72.5906 88.6469 72.5901C88.6471 72.5901 88.6473 72.5899 88.6475 72.5898C88.6483 72.5894 88.6491 72.5889 88.65 72.5883C88.6502 72.5882 88.6504 72.5881 88.6507 72.5879C88.6515 72.5874 88.6525 72.5869 88.6533 72.5863C88.6534 72.5863 88.6537 72.5862 88.6539 72.5861C88.6547 72.5855 88.6556 72.585 88.6566 72.5845C88.6567 72.5843 88.6568 72.5843 88.6571 72.5842C88.6581 72.5837 88.659 72.5831 88.66 72.5826C88.6601 72.5826 88.6601 72.5825 88.6602 72.5825C88.6612 72.5819 88.662 72.5814 88.663 72.5809C88.6631 72.5809 88.6632 72.5807 88.6634 72.5806C88.6643 72.5801 88.6654 72.5794 88.6664 72.5787C88.6673 72.5781 88.6684 72.5775 88.6694 72.5769L88.6695 72.5767C88.6704 72.5762 88.6715 72.5755 88.6725 72.5749H88.6726C88.6736 72.5743 88.6747 72.5736 88.6756 72.573H88.6757C88.6778 72.5716 88.6798 72.5704 88.6819 72.5691C88.6839 72.5678 88.6859 72.5666 88.688 72.5652C88.7212 72.5444 88.7531 72.5221 88.784 72.4984C88.7859 72.4969 88.7878 72.4954 88.7897 72.494C88.7907 72.4933 88.7916 72.4925 88.7926 72.4917C88.7934 72.491 88.7943 72.4904 88.7953 72.4897C88.7953 72.4896 88.7954 72.4896 88.7956 72.4894C88.7965 72.4888 88.7973 72.488 88.7983 72.4873C88.7991 72.4866 88.8 72.4858 88.801 72.4852C88.801 72.485 88.8011 72.485 88.8013 72.485C88.8021 72.4844 88.803 72.4836 88.804 72.4829L88.8041 72.4828C88.8049 72.4821 88.8058 72.4814 88.8067 72.4808C88.8068 72.4806 88.807 72.4806 88.8071 72.4805C88.8079 72.4798 88.8089 72.479 88.8097 72.4784L88.8098 72.4782C88.8107 72.4775 88.8115 72.4769 88.8123 72.4762C88.8124 72.4762 88.8126 72.4761 88.8127 72.4759C88.8135 72.4753 88.8143 72.4746 88.8151 72.4739C88.8151 72.4739 88.8153 72.4738 88.8154 72.4737C88.8162 72.473 88.8169 72.4725 88.8177 72.4718C88.8179 72.4717 88.818 72.4715 88.8183 72.4714C88.8189 72.4707 88.8198 72.4701 88.8206 72.4694C88.8207 72.4693 88.8208 72.4691 88.821 72.469C88.8217 72.4685 88.8225 72.4678 88.8233 72.4671C88.8234 72.467 88.8237 72.4669 88.8238 72.4667C88.8245 72.4662 88.8253 72.4655 88.8262 72.4649C88.8263 72.4647 88.8266 72.4646 88.8267 72.4645C88.8274 72.4639 88.8281 72.4633 88.8289 72.4627C88.8291 72.4625 88.8293 72.4623 88.8295 72.4621C88.8302 72.4615 88.8309 72.4609 88.8317 72.4603C88.8319 72.4602 88.8321 72.4599 88.8323 72.4598C88.833 72.4591 88.8336 72.4586 88.8343 72.4579C88.8346 72.4578 88.8349 72.4575 88.835 72.4574C88.8357 72.4569 88.8364 72.4562 88.837 72.4557C88.8373 72.4555 88.8376 72.4553 88.8378 72.455C88.8384 72.4545 88.8391 72.4539 88.8398 72.4534C88.84 72.4531 88.8403 72.4529 88.8407 72.4526C88.8412 72.4521 88.8419 72.4515 88.8426 72.4509C88.8429 72.4507 88.8432 72.4505 88.8434 72.4502C88.8441 72.4497 88.8446 72.4491 88.8453 72.4486C88.8456 72.4483 88.846 72.4481 88.8463 72.4478C88.8468 72.4473 88.8475 72.4467 88.8481 72.4462C88.8483 72.4459 88.8486 72.4456 88.849 72.4454C88.8495 72.445 88.8501 72.4444 88.8506 72.4439C88.851 72.4435 88.8513 72.4432 88.8517 72.4428C88.8523 72.4424 88.8528 72.4419 88.8534 72.4414C88.8536 72.4411 88.854 72.4407 88.8544 72.4404C88.855 72.4399 88.8555 72.4394 88.8561 72.439C88.8563 72.4387 88.8567 72.4383 88.8572 72.438C88.8577 72.4376 88.8583 72.4371 88.8587 72.4367C88.8591 72.4363 88.8595 72.436 88.8599 72.4356C88.8603 72.4352 88.8608 72.4348 88.8612 72.4344C88.8616 72.434 88.8621 72.4336 88.8626 72.4332C88.863 72.4328 88.8634 72.4324 88.8638 72.432C88.8642 72.4316 88.8648 72.4312 88.8652 72.4308C88.8656 72.4304 88.8661 72.43 88.8665 72.4295C88.867 72.4291 88.8674 72.4287 88.8679 72.4283C88.8683 72.4279 88.8687 72.4276 88.8691 72.4272C88.8695 72.4268 88.8701 72.4263 88.8705 72.4259C88.8709 72.4256 88.8713 72.4252 88.8717 72.4248C88.8722 72.4243 88.8727 72.4239 88.8732 72.4234C88.8736 72.423 88.8739 72.4227 88.8743 72.4223C88.8747 72.4219 88.8752 72.4214 88.8758 72.421C88.8762 72.4206 88.8766 72.4202 88.877 72.4199C88.8776 72.4195 88.878 72.419 88.8785 72.4184C88.8789 72.4182 88.8792 72.4178 88.8796 72.4175C88.8801 72.417 88.8807 72.4164 88.8811 72.416C88.8814 72.4158 88.8818 72.4155 88.882 72.4151C88.8826 72.4146 88.8831 72.414 88.8838 72.4134C88.8841 72.4131 88.8844 72.4129 88.8846 72.4127C88.8852 72.4121 88.8859 72.4115 88.8864 72.4109C88.8867 72.4107 88.8869 72.4104 88.8872 72.4101C88.8879 72.4095 88.8884 72.4089 88.8891 72.4083C88.8894 72.4081 88.8895 72.4079 88.8898 72.4076C88.8905 72.4071 88.891 72.4064 88.8917 72.4057C88.8918 72.4055 88.8921 72.4053 88.8924 72.4051C88.8931 72.4044 88.8937 72.4037 88.8944 72.4031C88.8946 72.4029 88.8947 72.4027 88.895 72.4025C88.8956 72.4019 88.8963 72.4012 88.897 72.4005C88.8973 72.4003 88.8974 72.4001 88.8977 72.3999C88.8984 72.3993 88.899 72.3985 88.8997 72.3979C88.8999 72.3977 88.9 72.3976 88.9001 72.3975C88.9008 72.3968 88.9015 72.3961 88.9022 72.3953C88.9023 72.3952 88.9024 72.3951 88.9027 72.3949C88.9034 72.3943 88.9041 72.3935 88.9049 72.3928C88.905 72.3927 88.905 72.3927 88.9052 72.3925C88.9058 72.3919 88.9067 72.3911 88.9073 72.3903C88.9075 72.3901 88.9076 72.39 88.9077 72.3899C88.9084 72.3892 88.9092 72.3884 88.9099 72.3877C88.9099 72.3876 88.9101 72.3876 88.9102 72.3875C88.9109 72.3867 88.9117 72.386 88.9125 72.3852C88.9125 72.3851 88.9126 72.3851 88.9126 72.3851C88.9135 72.3843 88.9143 72.3833 88.9151 72.3825V72.3824C88.9159 72.3816 88.9167 72.3808 88.9175 72.38C88.9177 72.3798 88.9177 72.3798 88.9178 72.3797C88.9185 72.3789 88.9193 72.3781 88.9201 72.3773V72.3772C88.9209 72.3764 88.9218 72.3754 88.9226 72.3746C88.9844 72.3098 89.039 72.2381 89.0851 72.161L89.0852 72.1608C89.0864 72.1587 89.0877 72.1567 89.0887 72.1547V72.1545C89.0893 72.1535 89.09 72.1525 89.0905 72.1516V72.1515C89.0911 72.1505 89.0916 72.1496 89.0923 72.1487C89.0924 72.1485 89.0924 72.1483 89.0926 72.1481C89.093 72.1473 89.0935 72.1464 89.0941 72.1455C89.0941 72.1453 89.0942 72.1451 89.0943 72.1449C89.0949 72.1441 89.0953 72.1432 89.0958 72.1423C89.096 72.1421 89.0961 72.1419 89.0962 72.1416C89.0966 72.1408 89.0972 72.1399 89.0976 72.1391C89.0977 72.1388 89.0979 72.1385 89.098 72.1383C89.0984 72.1375 89.0988 72.1367 89.0994 72.1359C89.0995 72.1356 89.0996 72.1352 89.0999 72.1349C89.1003 72.1343 89.1007 72.1335 89.1011 72.1327C89.1013 72.1324 89.1015 72.132 89.1017 72.1317C89.1021 72.1309 89.1025 72.1303 89.1029 72.1296C89.103 72.1292 89.1033 72.1288 89.1034 72.1284C89.1038 72.1277 89.1043 72.127 89.1047 72.1264C89.1048 72.126 89.1051 72.1256 89.1053 72.125C89.1056 72.1245 89.106 72.1238 89.1063 72.1232C89.1066 72.1226 89.1068 72.1221 89.1072 72.1216C89.1075 72.121 89.1078 72.1205 89.1081 72.12C89.1083 72.1194 89.1086 72.1188 89.109 72.1182C89.1093 72.1177 89.1094 72.1173 89.1098 72.1168C89.1101 72.1161 89.1105 72.1154 89.1108 72.1149C89.1111 72.1145 89.1112 72.1141 89.1115 72.1136C89.1117 72.1129 89.1121 72.1122 89.1126 72.1114C89.1127 72.111 89.1128 72.1108 89.1131 72.1104C89.1135 72.1097 89.1139 72.1089 89.1143 72.1081C89.1145 72.1078 89.1146 72.1076 89.1149 72.1072C89.1153 72.1064 89.1157 72.1056 89.1161 72.1046C89.1162 72.1045 89.1164 72.1041 89.1165 72.104C89.1169 72.1032 89.1173 72.1024 89.1179 72.1014C89.118 72.1012 89.1181 72.1009 89.1183 72.1006C89.1187 72.0997 89.1192 72.0988 89.1196 72.0978C89.1196 72.0977 89.1198 72.0977 89.1198 72.0976C89.1203 72.0966 89.1208 72.0956 89.1213 72.0946C89.1213 72.0945 89.1214 72.0945 89.1214 72.0943C89.1219 72.0933 89.1223 72.0924 89.1229 72.0913V72.0911C89.1234 72.0901 89.124 72.0891 89.1245 72.0881V72.0879C89.2067 71.9259 89.2525 71.7432 89.2518 71.5498V59.9333C89.2534 59.8639 89.249 59.7938 89.2379 59.7236C89.2131 59.5624 89.1555 59.4118 89.0722 59.2784C89.0017 59.165 88.9136 59.066 88.8128 58.9835C88.6311 58.8343 88.4049 58.7359 88.1564 58.7104C88.0783 58.7023 87.9989 58.7015 87.9191 58.7086C87.8102 58.7179 87.7053 58.7414 87.6065 58.777L77.3956 62.1226C76.7545 62.3327 76.4082 63.0132 76.6222 63.6425C76.8363 64.2717 77.5295 64.6114 78.1706 64.4015L86.804 61.5729V70.3572L79.761 70.3822C79.0868 70.3846 78.5414 70.9217 78.5414 71.5834V82.6726H76.4583C75.7823 82.6726 75.2344 83.2103 75.2344 83.8738C75.2344 84.5373 75.7823 85.0751 76.4583 85.0751H79.7401C79.7485 85.0752 79.7569 85.0753 79.7654 85.0753C80.1642 85.0753 80.5183 84.8882 80.7418 84.5984C80.8972 84.397 80.9894 84.146 80.9894 83.8738C80.9894 83.8665 80.9894 83.8591 80.9893 83.8516V72.7791H80.9904ZM54.3097 74.6718H47.448V63.6863C47.448 63.0228 46.9001 62.485 46.2241 62.485C45.548 62.485 45.0001 63.0228 45.0001 63.6863V75.8511C45 75.8584 45 75.8657 45 75.8732V83.8726C45 84.5361 45.5479 85.0739 46.2239 85.0739C46.8999 85.0739 47.4478 84.5361 47.4478 83.8726V77.0745H53.0857V83.8726C53.0857 84.5361 53.6336 85.0739 54.3097 85.0739C54.9857 85.0739 55.5336 84.5361 55.5336 83.8726V75.8732C55.5336 75.2097 54.9857 74.6718 54.3097 74.6718ZM72.1584 82.6708H70.6591V68.3398H78.1835C78.8595 68.3398 79.4074 67.802 79.4074 67.1385C79.4074 66.475 78.8595 65.9373 78.1835 65.9373H69.4605C69.4438 65.9369 69.4267 65.9369 69.4099 65.9373H60.6869C60.0109 65.9373 59.463 66.475 59.463 67.1385C59.463 67.802 60.0109 68.3398 60.6869 68.3398H68.2113V82.6708H66.712C66.036 82.6708 65.4881 83.2086 65.4881 83.8721C65.4881 84.5356 66.036 85.0733 66.712 85.0733H72.1584C72.8345 85.0733 73.3824 84.5356 73.3824 83.8721C73.3824 83.2086 72.8345 82.6708 72.1584 82.6708Z" fill="white"/>
<defs>
<filter id="filter0_d_1_2" x="0" y="0" width="138" height="138" filterUnits="userSpaceOnUse" color-interpolation-filters="sRGB">
<feFlood flood-opacity="0" result="BackgroundImageFix"/>
<feColorMatrix in="SourceAlpha" type="matrix" values="0 0 0 0 0 0 0 0 0 0 0 0 0 0 0 0 0 0 127 0" result="hardAlpha"/>
<feOffset dy="8"/>
<feGaussianBlur stdDeviation="9.5"/>
<feComposite in2="hardAlpha" operator="out"/>
<feColorMatrix type="matrix" values="0 0 0 0 0.933333 0 0 0 0 0.247059 0 0 0 0 0.34902 0 0 0 0.15 0"/>
<feBlend mode="normal" in2="BackgroundImageFix" result="effect1_dropShadow_1_2"/>
<feBlend mode="normal" in="SourceGraphic" in2="effect1_dropShadow_1_2" result="shape"/>
</filter>
</defs>
</svg>
