<svg width="70" height="105" viewBox="0 0 70 105" fill="none" xmlns="http://www.w3.org/2000/svg">
<g opacity="0.85">
<path d="M35.9949 0.902344L50.3341 5.45133L59.5309 10.1981L68.53 31.7563L69.5189 68.4447L68.9255 92.4752L60.4209 97.7164L38.1705 104.639L9.98662 91.9808L6.22877 86.5418L5.33876 76.7516L0.888672 55.8856L1.28424 48.5677L16.909 9.80252L35.9949 0.902344Z" fill="#6D6D6D"/>
<path d="M50.7284 5.64909L50.3328 5.45133L35.9937 0.902344L20.0723 8.31915V13.5604L47.1683 10.4947L50.7284 5.64909Z" fill="#5D5D5D"/>
<path d="M50.728 5.64917L47.168 10.3959L54.0903 15.5382L59.5293 10.0993L50.728 5.64917Z" fill="#535453"/>
<path d="M59.5308 10.1978L54.0918 15.6367L60.9153 43.1284L68.5299 31.7559L59.5308 10.1978Z" fill="#878787"/>
<path d="M68.431 31.7561L60.8164 43.1285L69.4199 68.4446L68.431 31.7561Z" fill="#5D5D5D"/>
<path d="M69.5186 68.4448L68.9253 92.4753L60.4207 97.7165L58.6406 94.1564L69.5186 68.4448Z" fill="#6D6D6D"/>
<path d="M60.4211 97.7166L58.641 94.1565L41.434 98.5077L38.2695 104.738L60.4211 97.7166Z" fill="#535453"/>
<path d="M38.1702 104.639L41.3347 98.4087L12.063 87.8274L9.98633 91.9808L38.1702 104.639Z" fill="#9A9A9A"/>
<path d="M41.4336 98.5076L30.9512 76.6527L21.6554 73.8838L9.98633 80.905L12.063 87.8274L41.4336 98.5076Z" fill="#7A7A7A"/>
<path d="M9.98576 91.9809L6.22791 86.5419L5.33789 76.7517L9.98576 80.9051L12.0625 87.8275L9.98576 91.9809Z" fill="#B6B6B6"/>
<path d="M9.98591 80.9052L21.655 73.8839L16.0182 22.1641L0.789062 55.8858L5.23915 76.7518L9.98591 80.9052Z" fill="#535453"/>
<path d="M20.0728 13.5603V8.31909L16.8094 9.80245L1.18463 48.5676L0.789062 55.8856L20.0728 13.5603Z" fill="#878787"/>
<path d="M60.9151 43.1287L30.9512 76.6526L41.4336 98.5075L58.6406 94.1563L69.5186 68.4447L60.9151 43.1287Z" fill="#494949"/>
</g>
</svg>
