<svg width="72" height="75" viewBox="0 0 72 75" fill="none" xmlns="http://www.w3.org/2000/svg">
<g opacity="0.5">
<path d="M49.9354 45.7971V49.9505H56.2644C59.7256 49.9505 59.8245 50.0494 59.8245 53.4117V54.994C59.6267 57.0707 59.9233 58.6529 62.0989 59.9385C65.0657 61.7185 65.2635 66.1686 62.8901 68.8387C62.3503 69.4579 61.6921 69.9628 60.9543 70.3238C60.2164 70.6847 59.4137 70.8944 58.5936 70.9405C57.7735 70.9866 56.9524 70.8681 56.1788 70.5921C55.4051 70.316 54.6945 69.888 54.0888 69.3331L53.7921 69.0365C51.221 66.4653 51.221 61.7185 54.3855 60.0374C57.6489 58.1585 56.66 55.6862 56.66 53.0161C54.0888 53.0161 51.6165 52.9173 49.1442 53.0161C47.3642 53.115 46.672 52.3239 46.7709 50.6428C46.8698 48.8971 46.8698 47.1472 46.7709 45.4016C46.672 43.5226 47.3642 42.7315 49.342 42.7315C52.5076 42.8633 55.6783 42.7973 58.8356 42.5337C61.3714 42.1963 63.7247 41.0308 65.5299 39.2182C67.3351 37.4056 68.491 35.0475 68.818 32.5103C69.145 29.9731 68.6248 27.399 67.3382 25.1879C66.0516 22.9769 64.0708 21.2527 61.7034 20.2833C59.8245 19.5911 59.2311 18.6021 59.1322 16.6243C58.9888 14.7845 58.4829 12.9913 57.6437 11.3478C56.8044 9.70433 55.6483 8.24308 54.2421 7.0482C52.8358 5.85332 51.207 4.94839 49.4496 4.38553C47.6922 3.82266 45.8407 3.61297 44.0019 3.76853C41.6654 3.96509 39.4136 4.73598 37.4468 6.01267C35.48 7.28936 33.8591 9.03228 32.7284 11.0865C31.7395 12.8665 30.9484 13.4598 28.8716 12.7676C25.9996 11.8168 22.8678 12.0426 20.1618 13.3955C17.4559 14.7485 15.3962 17.1185 14.4336 19.9866C14.1178 20.8076 13.9504 21.6782 13.9391 22.5578C13.7414 24.5356 13.0491 25.4256 10.8735 25.6234C6.81901 25.9201 3.65449 29.7768 3.5556 33.9302C3.45671 37.9847 6.42344 41.9404 10.3791 42.4348C14.2612 42.7313 18.156 42.8303 22.0482 42.7315C24.8171 42.7315 24.916 42.8304 24.916 45.5004V57.8618C24.916 59.6418 24.3227 60.3341 22.5426 60.2352C21.8208 60.1362 21.0889 60.1362 20.367 60.2352C19.6264 60.4114 18.9655 60.8288 18.4881 61.4219C16.807 64.1908 14.2358 65.4764 11.368 64.6853C10.0103 64.3664 8.80123 63.5958 7.93882 62.4999C7.07642 61.4039 6.61184 60.0475 6.62122 58.6529C6.58672 57.2669 7.0297 55.9112 7.8759 54.8129C8.7221 53.7146 9.92009 52.9406 11.2691 52.6206C12.65 52.2846 14.1038 52.424 15.3957 53.0161C16.6877 53.6083 17.7423 54.6186 18.3892 55.884C19.1803 57.2684 19.1804 57.2684 21.7515 56.9718V45.7971C18.7848 45.7971 15.917 45.6982 13.0491 45.7971C10.159 45.9777 7.30317 45.0904 5.02426 43.3037C2.74536 41.5171 1.20214 38.9556 0.687774 36.1058C-0.301134 29.6779 3.06114 24.6345 9.68683 22.5578C10.0029 22.3781 10.2796 22.1366 10.5004 21.8478C10.7213 21.559 10.8818 21.2287 10.9724 20.8766C12.7524 14.0532 17.4003 9.80087 24.4216 9.10863C26.2716 9.10619 28.1203 9.20523 29.9594 9.40531C30.7506 8.31751 31.5417 7.22971 32.3328 6.2408C37.2774 0.999588 43.3097 -0.780446 50.1332 1.29626C56.9566 3.37297 60.9123 8.21862 62.0989 15.3388C62.3174 16.2449 62.8864 17.0274 63.6812 17.5144C66.6938 18.989 69.116 21.4434 70.5507 24.4753C71.9853 27.5072 72.3472 30.9366 71.577 34.2011C70.8069 37.4657 68.9503 40.3717 66.3119 42.4427C63.6734 44.5137 60.4096 45.6267 57.0555 45.5993C54.781 45.7971 52.4077 45.7971 49.9354 45.7971ZM58.2422 67.8498C58.8734 67.8588 59.4933 67.6817 60.0246 67.3407C60.5558 66.9996 60.9748 66.5097 61.2293 65.932C61.4839 65.3543 61.5626 64.7144 61.4558 64.0922C61.349 63.4701 61.0613 62.8931 60.6286 62.4334C60.196 61.9737 59.6375 61.6516 59.0229 61.5073C58.4083 61.363 57.7649 61.4029 57.1728 61.6219C56.5808 61.841 56.0664 62.2296 55.6938 62.7392C55.3212 63.2488 55.1069 63.8569 55.0777 64.4875C55.0605 64.9171 55.1292 65.3458 55.2796 65.7485C55.4301 66.1512 55.6594 66.5199 55.9541 66.833C56.2487 67.1461 56.6028 67.3973 56.9957 67.5718C57.3886 67.7464 57.8124 67.8409 58.2422 67.8498ZM12.6536 55.6862C12.2445 55.6927 11.8407 55.7797 11.4652 55.9422C11.0898 56.1048 10.75 56.3397 10.4654 56.6335C10.1807 56.9274 9.95669 57.2744 9.80614 57.6549C9.65559 58.0353 9.58145 58.4416 9.58794 58.8507C9.59444 59.2598 9.68144 59.6636 9.84398 60.039C10.0065 60.4145 10.2414 60.7542 10.5353 61.0389C10.8291 61.3236 11.1762 61.5476 11.5566 61.6981C11.937 61.8487 12.3434 61.9228 12.7524 61.9163H13.0491C13.4616 61.8932 13.865 61.7867 14.2351 61.6032C14.6052 61.4197 14.9343 61.163 15.2024 60.8487C15.4704 60.5344 15.672 60.169 15.7948 59.7746C15.9176 59.3802 15.9592 58.965 15.9169 58.554C15.845 57.7485 15.4661 57.0015 14.8586 56.4677C14.2511 55.9339 13.4616 55.6541 12.6536 55.6862Z" fill="black"/>
<path d="M37.7709 53.1147C37.7709 55.5869 37.8698 58.0592 37.7709 60.5315C37.6747 61.0405 37.7607 61.5672 38.0138 62.0192C38.2669 62.4713 38.6711 62.8198 39.1554 63.0037C40.4484 63.638 41.4699 64.7166 42.0328 66.0422C42.5958 67.3679 42.6625 68.8519 42.221 70.2228C41.8154 71.5114 41.0068 72.6358 39.9143 73.4304C38.8217 74.225 37.503 74.6479 36.1521 74.6369C34.8012 74.6258 33.4895 74.1813 32.4101 73.3689C31.3308 72.5565 30.5407 71.419 30.1563 70.1239C29.7527 68.7913 29.8284 67.3595 30.3703 66.0769C30.9122 64.7943 31.8862 63.742 33.123 63.1026C33.6485 62.9082 34.087 62.5321 34.3591 62.0423C34.6312 61.5525 34.7189 60.9815 34.6064 60.4326C34.5075 55.2903 34.5075 50.2468 34.6064 45.1045C34.6402 44.2782 34.995 43.4977 35.5953 42.9289C36.5842 42.2367 37.672 43.1267 37.7709 44.6101C37.7709 47.4779 37.7709 50.3457 37.7709 53.1147ZM36.1886 65.3771C35.7796 65.3836 35.3758 65.4706 35.0003 65.6332C34.6249 65.7957 34.2851 66.0306 34.0004 66.3245C33.7158 66.6183 33.4918 66.9654 33.3412 67.3458C33.1907 67.7262 33.1165 68.1326 33.123 68.5416C33.1295 68.9507 33.2165 69.3545 33.3791 69.7299C33.5416 70.1054 33.7765 70.4452 34.0704 70.7298C34.3642 71.0145 34.7113 71.2385 35.0917 71.389C35.4721 71.5396 35.8785 71.6137 36.2875 71.6072C37.0837 71.6077 37.8489 71.2983 38.421 70.7446C38.9932 70.1909 39.3275 69.4363 39.3531 68.6405C39.3513 67.7925 39.0204 66.9784 38.43 66.3696C37.8397 65.7609 37.0361 65.405 36.1886 65.3771Z" fill="black"/>
<path d="M20.4657 29.4801L17.8945 27.2056C26.3002 17.6132 43.9028 16.2287 54.3852 27.1067L51.6163 29.2823C47.414 25.2654 41.8142 23.0401 36.001 23.077C30.1877 23.1139 24.6167 25.4101 20.4657 29.4801Z" fill="black"/>
<path d="M25.8055 34.7215L23.2344 32.447C29.0689 25.1291 42.4192 25.0302 49.2426 32.447L46.5726 34.6226C43.7762 31.9514 40.0562 30.4634 36.1891 30.4692C34.2613 30.4431 32.348 30.8063 30.5639 31.5369C28.7797 32.2676 27.1613 33.3507 25.8055 34.7215Z" fill="black"/>
<path d="M30.7498 40.1605C30.0576 39.3694 29.4642 38.776 28.8709 38.0838C28.772 37.886 28.6731 37.7871 28.5742 37.5893C32.431 33.2381 39.7489 33.2381 43.9023 37.5893L41.2322 39.7649C37.9688 37.1938 34.4088 37.1938 30.7498 40.1605Z" fill="black"/>
<path d="M58.243 67.8499C57.821 67.8434 57.4043 67.7539 57.0168 67.5863C56.6294 67.4188 56.2788 67.1766 55.9849 66.8736C55.6911 66.5706 55.4598 66.2126 55.3042 65.8202C55.1487 65.4278 55.072 65.0086 55.0785 64.5865C55.085 64.1645 55.1746 63.7478 55.3421 63.3604C55.5096 62.9729 55.7518 62.6222 56.0548 62.3284C56.3579 62.0345 56.7158 61.8033 57.1082 61.6477C57.5006 61.4922 57.9199 61.4155 58.3419 61.422H58.4408C58.8582 61.4427 59.2672 61.5468 59.6437 61.7281C60.0202 61.9094 60.3567 62.1642 60.6331 62.4776C60.9096 62.7909 61.1206 63.1565 61.2536 63.5526C61.3866 63.9488 61.4389 64.3676 61.4075 64.7843C61.3818 65.6063 61.0371 66.386 60.4464 66.9583C59.8557 67.5305 59.0654 67.8503 58.243 67.8499Z" fill="white"/>
<path d="M12.654 55.6861C13.2657 55.6771 13.8665 55.8484 14.3814 56.1786C14.8963 56.5088 15.3027 56.9833 15.5497 57.5429C15.7967 58.1026 15.8735 58.7225 15.7705 59.3255C15.6674 59.9285 15.3892 60.4878 14.9703 60.9337C14.5515 61.3795 14.0107 61.6922 13.4153 61.8327C12.8199 61.9731 12.1964 61.9352 11.6224 61.7236C11.0484 61.512 10.5495 61.1361 10.1878 60.6428C9.82606 60.1495 9.61761 59.5605 9.58842 58.9495C9.56134 58.5306 9.62057 58.1106 9.76246 57.7155C9.90435 57.3205 10.1259 56.9587 10.4133 56.6528C10.7007 56.3468 11.0479 56.1032 11.4333 55.9369C11.8188 55.7706 12.2342 55.6853 12.654 55.6861Z" fill="white"/>
<path d="M36.1892 65.3772C36.7972 65.4054 37.3836 65.611 37.8762 65.9684C38.3688 66.3259 38.7461 66.8196 38.9615 67.3889C39.177 67.9581 39.2211 68.5779 39.0886 69.172C38.9561 69.766 38.6527 70.3083 38.2157 70.732C37.7788 71.1557 37.2274 71.4423 36.6296 71.5565C36.0318 71.6707 35.4136 71.6075 34.8512 71.3746C34.2889 71.1418 33.807 70.7495 33.4648 70.2461C33.1227 69.7427 32.9353 69.1503 32.9258 68.5417C32.97 67.6998 33.331 66.9057 33.9362 66.3188C34.5415 65.7319 35.3463 65.3955 36.1892 65.3772Z" fill="white"/>
</g>
</svg>
