<svg width="143" height="175" viewBox="0 0 143 175" fill="none" xmlns="http://www.w3.org/2000/svg">
<path d="M15.2074 5.69358H136.151C136.283 5.68565 136.415 5.70578 136.538 5.75267C136.662 5.79956 136.774 5.87215 136.868 5.96561C136.961 6.05907 137.034 6.17129 137.081 6.29487C137.128 6.41844 137.148 6.55055 137.14 6.68249V168.863C137.148 168.995 137.128 169.127 137.081 169.251C137.034 169.375 136.961 169.487 136.868 169.58C136.774 169.674 136.662 169.746 136.538 169.793C136.415 169.84 136.283 169.86 136.151 169.852H15.2074C15.0755 169.86 14.9433 169.84 14.8198 169.793C14.6962 169.746 14.584 169.674 14.4905 169.58C14.3971 169.487 14.3245 169.375 14.2776 169.251C14.2307 169.127 14.2106 168.995 14.2185 168.863V6.68249C14.2358 6.42593 14.3456 6.18435 14.5274 6.00252C14.7093 5.82069 14.9508 5.71093 15.2074 5.69358Z" fill="white"/>
<path d="M16.0979 174.807H135.36C137.143 174.805 138.852 174.096 140.113 172.835C141.374 171.575 142.083 169.865 142.085 168.082V7.58272C142.083 5.79981 141.374 4.09046 140.113 2.82975C138.852 1.56905 137.143 0.859987 135.36 0.858154H16.0979C14.315 0.859987 12.6056 1.56905 11.3449 2.82975C10.0842 4.09046 9.37512 5.79981 9.37329 7.58272V168.082C9.36577 168.968 9.53458 169.845 9.86986 170.665C10.2051 171.484 10.7002 172.228 11.3261 172.854C11.9521 173.48 12.6964 173.975 13.5156 174.31C14.3349 174.646 15.2127 174.815 16.0979 174.807ZM16.0979 169.961C15.5941 169.948 15.1131 169.749 14.7478 169.402C14.3824 169.055 14.1588 168.585 14.12 168.082V7.58272C14.1229 7.32837 14.1767 7.07717 14.2784 6.84399C14.38 6.61082 14.5274 6.40042 14.7118 6.22523C14.8962 6.05004 15.1139 5.91363 15.352 5.82406C15.5901 5.7345 15.8437 5.6936 16.0979 5.7038H135.36C135.864 5.71674 136.345 5.91602 136.71 6.26308C137.076 6.61013 137.299 7.08031 137.338 7.58272V168.082C137.335 168.337 137.281 168.588 137.18 168.821C137.078 169.054 136.931 169.265 136.746 169.44C136.562 169.615 136.344 169.752 136.106 169.841C135.868 169.931 135.614 169.972 135.36 169.961H16.0979Z" fill="#808080"/>
<path d="M5.72332 41.5635L6.81112 46.2113V138.279C6.66854 139.04 6.24198 139.719 5.61776 140.178C4.99354 140.637 4.21828 140.842 3.44883 140.751C2.82621 140.658 2.24987 140.368 1.80475 139.923C1.35964 139.478 1.06931 138.901 0.976562 138.279V46.2113L2.06436 41.5635V41.3657L3.15216 36.6189C3.22483 36.4274 3.36687 36.2703 3.55008 36.1787C3.73329 36.0871 3.94426 36.0677 4.14107 36.1245C4.25508 36.1649 4.35864 36.2303 4.44418 36.3158C4.52972 36.4014 4.59509 36.5049 4.63552 36.6189L5.72332 41.3657V41.5635Z" fill="#555555"/>
</svg>
