<svg width="80" height="167" viewBox="0 0 80 167" fill="none" xmlns="http://www.w3.org/2000/svg">
<g opacity="0.95">
<path d="M70.9861 1.65991H8.98158C6.85684 1.78734 4.85932 2.71518 3.39135 4.25655C1.92337 5.79792 1.09402 7.8383 1.07032 9.96673V156.82C1.06728 158.923 1.86134 160.949 3.29259 162.491C4.72384 164.032 6.68596 164.974 8.7838 165.126H71.085C73.1769 164.958 75.1296 164.011 76.5576 162.473C77.9856 160.936 78.7852 158.918 78.7985 156.82V10.0656C78.8341 7.92676 78.0406 5.85708 76.5843 4.29017C75.128 2.72326 73.1219 1.7807 70.9861 1.65991ZM76.6229 156.82C76.6048 158.177 76.1545 159.493 75.3373 160.577C75.3373 160.676 75.2384 160.676 75.2384 160.775C75.1395 160.973 74.9417 161.072 74.8429 161.27L74.4473 161.665C74.2739 161.83 74.0731 161.964 73.854 162.061C73.6348 162.157 73.434 162.291 73.2606 162.456C73.2217 162.494 73.1748 162.522 73.1235 162.539C73.0721 162.556 73.0176 162.562 72.9639 162.555C72.865 162.555 72.7661 162.654 72.6673 162.654C72.4695 162.753 72.1728 162.753 71.975 162.852C71.6858 162.933 71.3851 162.967 71.085 162.951H8.88269C7.35092 162.808 5.92667 162.102 4.88545 160.969C3.84423 159.836 3.26005 158.358 3.24592 156.82V10.0656C3.23214 8.50275 3.81998 6.99445 4.88771 5.85308C5.95544 4.71171 7.42126 4.02471 8.98158 3.93439H71.975C72.0739 3.93439 72.0739 3.93439 72.1728 4.03329C72.2717 4.03329 72.3706 4.13218 72.4695 4.13218C72.5684 4.13218 72.6673 4.23108 72.7662 4.23108C72.865 4.23108 72.9639 4.32995 73.0628 4.32995C73.4111 4.45458 73.7431 4.62058 74.0517 4.8244C74.078 4.8244 74.1031 4.83483 74.1217 4.85337C74.1402 4.87192 74.1506 4.89707 74.1506 4.9233L74.3484 5.02219C74.4473 5.12108 74.5462 5.1211 74.5462 5.21999C74.6451 5.31888 74.8429 5.41776 74.9417 5.61554L75.1395 5.81331L75.3373 6.0111C75.5351 6.30777 75.8318 6.60444 76.0295 6.90111C76.1284 7.09889 76.2273 7.19778 76.3262 7.39557C76.4182 7.54875 76.4849 7.71569 76.524 7.89002C76.524 7.98891 76.6229 8.08782 76.6229 8.18671C76.7035 8.37354 76.7374 8.57716 76.7218 8.78003V8.97783C76.7218 9.2745 76.8207 9.57116 76.8207 9.86784L76.6229 156.82Z" fill="#808080"/>
<path d="M9.37791 0.671387H70.9869C73.3634 0.804209 75.5991 1.8411 77.2355 3.56951C78.872 5.29792 79.7853 7.5869 79.7882 9.96712V156.82C79.7793 159.165 78.8903 161.422 77.297 163.144C75.7038 164.865 73.5225 165.926 71.1847 166.116H8.68567C6.34784 165.926 4.1665 164.865 2.57329 163.144C0.980075 161.422 0.0910663 159.165 0.0821757 156.82V9.96712C0.0688592 7.58215 0.976749 5.28411 2.61651 3.55222C4.25628 1.82034 6.50132 0.788319 8.88346 0.671387H9.37791ZM70.888 2.6492H8.88346C7.0155 2.76033 5.26002 3.57884 3.97409 4.93826C2.68816 6.29767 1.96836 8.09587 1.9611 9.96712V156.82C1.96247 158.676 2.66712 160.463 3.93319 161.821C5.19925 163.179 6.93271 164.007 8.78457 164.138H71.0858C72.9252 163.974 74.6392 163.136 75.8987 161.785C77.1581 160.435 77.8741 158.666 77.9092 156.82V9.96712C77.8972 8.08068 77.1626 6.27059 75.8565 4.90934C74.5505 3.54809 72.7723 2.73924 70.888 2.6492ZM9.37791 2.94586H71.5802C71.6339 2.93919 71.6884 2.9446 71.7398 2.96171C71.7911 2.97882 71.8379 3.0072 71.8769 3.04476C71.9306 3.03809 71.9851 3.04349 72.0364 3.0606C72.0878 3.07771 72.1346 3.1061 72.1736 3.14366C72.2725 3.14366 72.3713 3.24255 72.5691 3.24255C72.668 3.24255 72.7669 3.34142 72.8658 3.34142C72.9647 3.34142 73.0636 3.44032 73.1625 3.44032C73.5361 3.61709 73.8993 3.8152 74.2503 4.03367H74.3492L74.5469 4.13256C74.6458 4.23146 74.7447 4.33033 74.8436 4.33033C75.0414 4.42922 75.1403 4.62702 75.3381 4.72592L75.6347 5.02258L75.8325 5.22037C76.1195 5.56545 76.3838 5.92879 76.6236 6.30814L76.9203 6.90149C77.03 7.08191 77.0976 7.28472 77.1181 7.49485C77.1181 7.59374 77.217 7.69262 77.217 7.79151C77.3159 7.98929 77.3159 8.28597 77.4148 8.48375C77.4081 8.53745 77.4135 8.59195 77.4306 8.64328C77.4477 8.69461 77.4761 8.74146 77.5137 8.78041C77.5954 9.10333 77.6288 9.43662 77.6126 9.76934V156.82C77.6204 158.396 77.0979 159.928 76.1292 161.171C76.1292 161.27 76.0303 161.27 76.0303 161.369C75.8325 161.567 75.7336 161.764 75.5359 161.863C75.3967 162.024 75.2291 162.159 75.0414 162.259L74.7447 162.457C74.632 162.579 74.498 162.679 74.3492 162.753C74.1413 162.922 73.9075 163.055 73.6569 163.149L73.4591 163.248L73.2614 163.347L73.0636 163.446C72.9647 163.446 72.9647 163.545 72.8658 163.545C72.6158 163.656 72.348 163.723 72.0747 163.742C71.778 163.841 71.3824 163.841 71.0858 163.94H8.88346C7.0829 163.812 5.3978 163.007 4.16813 161.685C2.93845 160.364 2.25576 158.625 2.25777 156.82V10.066C2.25576 8.26094 2.93845 6.52228 4.16813 5.20084C5.3978 3.87941 7.0829 3.07354 8.88346 2.94586H9.37791ZM70.6902 4.92368H8.98235C7.69049 5.02956 6.48557 5.61693 5.60639 6.56937C4.72721 7.52182 4.23795 8.76983 4.23559 10.066V156.82C4.23795 158.116 4.72721 159.364 5.60639 160.317C6.48557 161.269 7.69049 161.856 8.98235 161.962H70.888C71.1847 161.962 71.3824 161.863 71.5802 161.863C71.7904 161.843 71.9931 161.775 72.1736 161.666C72.2725 161.666 72.3713 161.567 72.4702 161.567L72.668 161.468L72.7669 161.369L72.9647 161.27C73.0636 161.171 73.1625 161.171 73.2614 161.072C73.449 160.972 73.6166 160.838 73.7558 160.677L73.8547 160.578L74.1514 160.281L74.5469 159.886L74.6458 159.787C75.3533 158.884 75.7365 157.769 75.7336 156.622V9.76934C75.7497 9.50179 75.7162 9.23357 75.6347 8.97821V8.78041C75.6347 8.58263 75.5359 8.48374 75.5359 8.28596C75.5359 8.18707 75.5359 8.18709 75.437 8.0882C75.4123 7.93945 75.3434 7.8016 75.2392 7.69264C75.135 7.58368 75.066 7.4458 75.0414 7.29705C74.876 7.01051 74.6768 6.74491 74.4481 6.50594L74.2503 6.30814L74.1514 6.20928C74.0387 6.08713 73.9046 5.98657 73.7558 5.91259C73.7025 5.85882 73.633 5.82407 73.558 5.81369L73.3603 5.71482L73.2614 5.61593C73.1625 5.51704 73.0636 5.51702 72.8658 5.41813C72.7669 5.31924 72.5691 5.31926 72.4702 5.22037C72.3713 5.22037 72.3714 5.12147 72.2725 5.12147C72.1736 5.12147 72.1736 5.12147 72.0747 5.02258C71.9758 5.02258 71.8769 4.92368 71.778 4.92368H71.4813L71.0858 4.82478H70.9869L70.6902 4.92368Z" fill="#808080"/>
<path d="M19.5634 6.70304C19.5634 6.67691 19.553 6.65184 19.5345 6.63336C19.516 6.61488 19.491 6.60449 19.4648 6.60449C19.491 6.60449 19.516 6.61488 19.5345 6.63336C19.553 6.65184 19.5634 6.67691 19.5634 6.70304Z" fill="black"/>
<path d="M20.3544 7.98893L20.2559 7.89038C20.3544 7.89038 20.3544 7.89039 20.3544 7.98893Z" fill="black"/>
<path d="M21.0467 8.58256L20.9478 8.48366L20.8489 8.38477H20.75L20.8489 8.48366L21.0467 8.58256Z" fill="black"/>
<path d="M21.4423 8.87882L21.3438 8.78027C21.3567 8.78027 21.3695 8.78284 21.3815 8.78779C21.3934 8.79274 21.4043 8.79999 21.4134 8.80914C21.4226 8.81829 21.4298 8.82916 21.4348 8.84111C21.4397 8.85307 21.4423 8.86588 21.4423 8.87882Z" fill="black"/>
<path d="M22.3325 9.27465C22.2337 9.27465 22.2337 9.27467 22.1348 9.17578C22.1861 9.2322 22.2566 9.26744 22.3325 9.27465Z" fill="black"/>
<path d="M22.5298 9.37356C22.6287 9.37356 22.7276 9.37356 22.7276 9.47245C22.7276 9.47245 22.7276 9.37356 22.5298 9.37356C22.4548 9.36318 22.3853 9.32842 22.332 9.27466C22.407 9.28504 22.4765 9.31979 22.5298 9.37356Z" fill="black"/>
<path d="M23.3213 9.57148H22.9258C22.9258 9.47259 23.1236 9.47259 23.3213 9.57148Z" fill="black"/>
<path d="M56.6484 9.57139C56.8462 9.57139 56.9451 9.4725 57.1429 9.4725H56.9451C56.8914 9.46582 56.8369 9.47125 56.7856 9.48836C56.7342 9.50547 56.6874 9.53384 56.6484 9.57139Z" fill="black"/>
<path d="M57.5374 9.27475H57.043C57.1419 9.27475 57.2407 9.27478 57.2407 9.17589C57.2407 9.07699 57.4385 9.27475 57.5374 9.27475Z" fill="black"/>
<path d="M57.5371 9.27465C57.636 9.27465 57.636 9.17578 57.7349 9.17578C57.6836 9.2322 57.613 9.26744 57.5371 9.27465Z" fill="black"/>
<path d="M58.4277 8.87882L58.5263 8.78027L58.4277 8.87882Z" fill="black"/>
<path d="M59.1197 8.38477L59.0208 8.48366L58.9219 8.58256L59.0208 8.48366C59.0208 8.45743 59.0312 8.43228 59.0497 8.41374C59.0683 8.39519 59.0934 8.38477 59.1197 8.38477Z" fill="black"/>
<path d="M59.6143 7.79126C59.6143 7.89033 59.5153 7.89033 59.6143 7.79126V7.79126Z" fill="black"/>
<path d="M60.4055 6.60449C60.4055 6.70338 60.3066 6.70336 60.3066 6.80226C60.3066 6.70336 60.3066 6.60449 60.4055 6.60449Z" fill="black"/>
<path d="M61.1959 3.93457C60.9538 3.94612 60.723 4.04102 60.5428 4.20322C60.3626 4.36543 60.2439 4.58494 60.207 4.82458V4.92348C60.2227 5.12635 60.1888 5.33 60.1081 5.51683V5.71462C60.1081 5.81351 60.1081 5.8135 60.0093 5.91239C59.9104 6.01128 60.0093 6.01129 59.9104 6.11018V6.30794C59.9104 6.40683 59.9104 6.40685 59.8115 6.50574C59.7126 6.60463 59.8115 6.60464 59.7126 6.70353C59.7126 6.71652 59.71 6.72938 59.7051 6.74137C59.7001 6.75337 59.6928 6.76427 59.6836 6.77346C59.6744 6.78264 59.6635 6.78991 59.6515 6.79488C59.6395 6.79985 59.6267 6.8024 59.6137 6.8024C59.5148 6.8024 59.6137 6.90129 59.5148 6.90129V7.09909V7.39575V7.49464V7.59354V7.69244L59.4159 7.79131C59.4159 7.81753 59.4055 7.84268 59.3869 7.86123C59.3684 7.87978 59.3432 7.8902 59.317 7.8902C59.317 7.91643 59.3066 7.94158 59.2881 7.96013C59.2695 7.97867 59.2444 7.9891 59.2181 7.9891V8.088L59.1192 8.18689L59.0203 8.28576L58.9215 8.38466L58.8226 8.48355L58.7237 8.58245L58.6248 8.68135L58.5259 8.78021C58.427 8.8791 58.427 8.78022 58.427 8.87911C58.4008 8.87911 58.3756 8.88954 58.3571 8.90808C58.3385 8.92663 58.3281 8.95178 58.3281 8.97801L58.2292 9.0769C58.203 9.0769 58.1778 9.08733 58.1593 9.10588C58.1408 9.12442 58.1303 9.14957 58.1303 9.1758L58.0314 9.27467H57.9325C57.9063 9.27467 57.8812 9.28509 57.8626 9.30364C57.8441 9.32218 57.8337 9.34734 57.8337 9.37356H57.6359C57.537 9.37356 57.537 9.47246 57.4381 9.47246C57.3392 9.47246 57.3392 9.47247 57.2403 9.57136C57.1414 9.67025 57.0425 9.57135 57.0425 9.67024C56.8448 9.67024 56.7459 9.76914 56.5481 9.76914H22.8263C22.6285 9.76914 22.5296 9.67024 22.3319 9.67024C22.233 9.67024 22.1341 9.67025 22.1341 9.57136C22.1341 9.47247 22.0352 9.57135 21.9363 9.47246C21.8374 9.47246 21.8374 9.37356 21.7385 9.37356H21.5407C21.5278 9.37356 21.5149 9.37102 21.5029 9.36605C21.4909 9.36108 21.48 9.35377 21.4708 9.34459C21.4616 9.33541 21.4543 9.32451 21.4494 9.31251C21.4444 9.30051 21.4418 9.28765 21.4418 9.27467H21.343C21.3167 9.27467 21.2916 9.26427 21.273 9.24573C21.2545 9.22718 21.2441 9.20203 21.2441 9.1758C21.2178 9.1758 21.1927 9.16537 21.1741 9.14683C21.1556 9.12828 21.1452 9.10313 21.1452 9.0769L21.0463 8.97801C21.0333 8.97801 21.0204 8.97546 21.0084 8.97049C20.9964 8.96552 20.9855 8.95822 20.9764 8.94903C20.9672 8.93985 20.9599 8.92895 20.9549 8.91695C20.95 8.90496 20.9474 8.8921 20.9474 8.87911C20.9212 8.87911 20.896 8.86868 20.8775 8.85014C20.8589 8.83159 20.8485 8.80644 20.8485 8.78021C20.8485 8.68132 20.8485 8.78024 20.7496 8.68135L20.6507 8.58245L20.5518 8.48355C20.5256 8.48355 20.5004 8.47313 20.4819 8.45458C20.4634 8.43604 20.4529 8.41088 20.4529 8.38466L20.354 8.28576L20.2552 8.18689L20.1563 8.088V7.9891L20.0574 7.8902L19.9585 7.79131V7.69244V7.59354V7.49464V7.19798V7.00019C19.9585 6.97396 19.9481 6.94881 19.9295 6.93027C19.911 6.91172 19.8858 6.90129 19.8596 6.90129C19.8596 6.87507 19.8492 6.84991 19.8306 6.83137C19.8121 6.81282 19.7869 6.8024 19.7607 6.8024C19.7607 6.70351 19.6618 6.70352 19.6618 6.60463C19.6618 6.50574 19.6618 6.50573 19.5629 6.40684V6.20908C19.5629 6.11019 19.5629 6.11017 19.464 6.01128C19.464 5.91239 19.464 5.91238 19.3651 5.81349V5.61573C19.3651 5.41794 19.2663 5.22016 19.2663 5.02237V4.92348C19.2293 4.68384 19.1107 4.46432 18.9305 4.30212C18.7503 4.13992 18.5195 4.04501 18.2773 4.03347H61.1959V3.93457Z" fill="#555555"/>
<path d="M32.7166 5.81341H45.1769C45.4129 5.81341 45.6393 5.90718 45.8062 6.07409C45.9731 6.241 46.0669 6.4674 46.0669 6.70345C46.0669 6.93949 45.9731 7.16586 45.8062 7.33277C45.6393 7.49968 45.4129 7.59346 45.1769 7.59346H32.7166C32.4806 7.59346 32.2542 7.49968 32.0873 7.33277C31.9204 7.16586 31.8266 6.93949 31.8266 6.70345C31.8176 6.58426 31.8344 6.46451 31.8759 6.35243C31.9175 6.24035 31.9827 6.13857 32.0672 6.05405C32.1517 5.96954 32.2535 5.90428 32.3656 5.86275C32.4777 5.82122 32.5974 5.80437 32.7166 5.81341Z" fill="white"/>
<path d="M76.6233 10.0658V156.82C76.6052 158.177 76.1549 159.494 75.3377 160.578C75.3377 160.676 75.2388 160.676 75.2388 160.775C75.1399 160.973 74.9422 161.072 74.8433 161.27L74.4477 161.665C74.2743 161.831 74.0735 161.964 73.8544 162.061C73.6352 162.157 73.4344 162.291 73.261 162.457C73.2221 162.494 73.1752 162.522 73.1239 162.54C73.0725 162.557 73.018 162.562 72.9643 162.555C72.8654 162.555 72.7666 162.654 72.6677 162.654C72.4699 162.753 72.1732 162.753 71.9754 162.852C71.6862 162.934 71.3855 162.967 71.0854 162.951H8.88311C7.35133 162.808 5.92708 162.102 4.88586 160.969C3.84464 159.837 3.26046 158.358 3.24633 156.82V10.0658C3.23255 8.50293 3.82039 6.99463 4.88813 5.85327C5.95586 4.7119 7.42167 4.02489 8.982 3.93457H18.2777C18.5199 3.94612 18.7507 4.04102 18.9309 4.20322C19.1111 4.36543 19.2297 4.58494 19.2666 4.82458V4.92348C19.251 5.12635 19.2849 5.33 19.3655 5.51683V5.71462C19.3655 5.81351 19.3655 5.8135 19.4644 5.91239C19.5633 6.01128 19.4644 6.01129 19.5633 6.11018V6.30794C19.5633 6.40683 19.5633 6.40685 19.6622 6.50574C19.7611 6.60463 19.6622 6.60464 19.7611 6.70353C19.7611 6.72976 19.7715 6.75491 19.7901 6.77346C19.8086 6.792 19.8338 6.8024 19.86 6.8024C19.9589 6.8024 19.86 6.90129 19.9589 6.90129V7.09909V7.39575V7.49464V7.59354V7.69244L20.0578 7.79131C20.0578 7.81753 20.0682 7.84268 20.0867 7.86123C20.1053 7.87978 20.1304 7.8902 20.1567 7.8902V7.9891L20.2555 8.088L20.3544 8.18689L20.4533 8.28576L20.5522 8.38466H20.6511L20.75 8.48355L20.8489 8.58245L20.9478 8.68135C21.0467 8.78024 20.9478 8.68135 21.0467 8.68135C21.0729 8.68135 21.0981 8.69174 21.1166 8.71029C21.1351 8.72883 21.1456 8.75399 21.1456 8.78021H21.3433C21.3563 8.78021 21.3692 8.78279 21.3812 8.78776C21.3932 8.79273 21.4041 8.8 21.4133 8.80918C21.4225 8.81837 21.4297 8.82927 21.4347 8.84127C21.4397 8.85326 21.4422 8.86612 21.4422 8.87911L21.5411 8.97801H21.64C21.6662 8.97801 21.6914 8.98843 21.7099 9.00698C21.7285 9.02552 21.7389 9.05068 21.7389 9.0769H21.9367C22.0356 9.0769 22.0356 9.07691 22.1345 9.1758H57.3396C57.4385 9.1758 57.4385 9.17579 57.5374 9.0769H57.7352C57.7614 9.0769 57.7865 9.06648 57.8051 9.04793C57.8236 9.02939 57.834 9.00423 57.834 8.97801H57.9329C57.9459 8.97801 57.9588 8.97546 57.9708 8.97049C57.9828 8.96552 57.9937 8.95822 58.0029 8.94903C58.0121 8.93985 58.0193 8.92895 58.0243 8.91695C58.0293 8.90496 58.0318 8.8921 58.0318 8.87911C58.0581 8.87911 58.0832 8.86868 58.1018 8.85014C58.1203 8.83159 58.1307 8.80644 58.1307 8.78021H58.3285C58.3547 8.78021 58.3799 8.76982 58.3984 8.75127C58.417 8.73273 58.4274 8.70757 58.4274 8.68135H58.5263C58.6252 8.68135 58.5263 8.68134 58.6252 8.58245L58.7241 8.48355L58.823 8.38466H58.9218C58.9481 8.38466 58.9732 8.37423 58.9918 8.35568C59.0103 8.33714 59.0207 8.31199 59.0207 8.28576L59.1196 8.18689L59.2185 8.088L59.3174 7.9891V7.8902L59.4163 7.79131L59.5152 7.69244V7.59354V7.49464V7.39575V7.09909V6.90129C59.5152 6.87507 59.5256 6.84991 59.5442 6.83137C59.5627 6.81282 59.5879 6.8024 59.6141 6.8024C59.6141 6.78941 59.6166 6.77655 59.6216 6.76455C59.6266 6.75255 59.6339 6.74166 59.643 6.73247C59.6522 6.72329 59.6631 6.71601 59.6751 6.71105C59.6871 6.70608 59.7 6.70353 59.713 6.70353C59.713 6.60464 59.8119 6.60463 59.8119 6.50574C59.8119 6.40685 59.8119 6.40683 59.9108 6.30794V6.11018C59.9108 6.01129 59.9108 6.01128 60.0096 5.91239C60.0096 5.8135 60.0096 5.81351 60.1085 5.71462V5.51683C60.1085 5.31905 60.2074 5.12126 60.2074 4.92348V4.82458C60.2443 4.58494 60.3629 4.36543 60.5432 4.20322C60.7234 4.04102 60.9541 3.94612 61.1963 3.93457H72.0743C72.1732 3.93457 72.1732 3.93458 72.2721 4.03347C72.371 4.03347 72.4699 4.13236 72.5688 4.13236C72.6677 4.13236 72.7666 4.23126 72.8654 4.23126C72.9643 4.23126 73.0632 4.33013 73.1621 4.33013C73.3394 4.4065 73.5057 4.5063 73.6566 4.62682C73.8544 4.72571 73.9532 4.82459 74.151 4.92348C74.1773 4.92348 74.2024 4.9339 74.221 4.95245C74.2395 4.971 74.2499 4.99615 74.2499 5.02237L74.4477 5.12127C74.5466 5.22016 74.6455 5.22014 74.6455 5.31904C74.7444 5.41793 74.9422 5.51684 75.041 5.71462L75.2388 5.91239L75.4366 6.11018C75.6344 6.40685 75.9311 6.70352 76.1288 7.00019C76.2277 7.19797 76.3266 7.29686 76.4255 7.49464C76.5174 7.64783 76.5842 7.81477 76.6233 7.9891C76.6233 8.08799 76.7222 8.18687 76.7222 8.28576C76.8028 8.47259 76.8367 8.67623 76.8211 8.87911V9.0769C76.6698 9.38359 76.6017 9.72455 76.6233 10.0658Z" fill="white"/>
</g>
</svg>
