<svg width="57" height="104" viewBox="0 0 57 104" fill="none" xmlns="http://www.w3.org/2000/svg">
<g opacity="0.9">
<path d="M52.4381 24.0466H4.67383L9.3217 18.212C10.8627 16.2778 11.8229 13.9459 12.0906 11.4874L13.0795 3.57617C13.2773 1.30168 20.8919 0.11499 28.5065 0.11499C36.1211 0.11499 43.7357 1.30168 43.9335 3.57617L44.9224 11.4874C45.2348 13.9343 46.1902 16.2546 47.6913 18.212L52.4381 24.0466Z" fill="#808080"/>
<path d="M52.4381 79.9197H4.67383L9.3217 85.7542C10.8627 87.6884 11.8229 90.0203 12.0906 92.4788L13.0795 100.39C13.2773 102.665 20.8919 103.851 28.5065 103.851C36.1211 103.851 43.7357 102.665 43.9335 100.39L44.9224 92.4788C45.2348 90.0319 46.1902 87.7116 47.6913 85.7542L52.4381 79.9197Z" fill="#808080"/>
<path d="M56.6651 32.052V71.6083C56.6736 73.2453 56.3542 74.8675 55.7258 76.379C55.0974 77.8906 54.1727 79.2611 53.0062 80.4096L52.5117 80.9041L52.3139 81.1019L52.1162 81.2996L52.0173 81.3985L51.9184 81.4974C51.8921 81.4974 51.867 81.5078 51.8484 81.5264C51.8299 81.5449 51.8195 81.5701 51.8195 81.5963C51.7206 81.5963 51.7206 81.6952 51.6217 81.6952H51.5228C51.4239 81.6952 51.4239 81.7941 51.325 81.7941C51.2988 81.7941 51.2736 81.8045 51.2551 81.8231C51.2366 81.8416 51.2261 81.8668 51.2261 81.893H51.1272L51.0284 81.9919C50.9751 82.0456 50.9056 82.0804 50.8306 82.0908C50.7317 82.0908 50.7317 82.1896 50.6328 82.1896C50.5339 82.2885 50.435 82.2886 50.3361 82.3874C50.2372 82.3874 50.1383 82.4863 50.0394 82.4863C49.9406 82.4863 49.8417 82.5852 49.7428 82.5852C49.6439 82.5852 49.545 82.6841 49.4461 82.6841C49.3472 82.6841 49.2483 82.783 49.1494 82.783C49.0505 82.783 48.9516 82.8819 48.8528 82.8819C48.7539 82.8819 48.655 82.9808 48.5561 82.9808C48.3583 83.0797 48.2594 83.0797 48.0616 83.1786C47.9627 83.1786 47.9627 83.1786 47.8638 83.2775H47.6661L47.4683 83.3764H47.3694C47.2705 83.3764 47.1716 83.3763 47.1716 83.4752H45.4905C45.2876 83.4596 45.084 83.4935 44.8971 83.5741H10.6809C10.582 83.5741 10.4831 83.5741 10.4831 83.4752H10.2853C10.1865 83.4752 10.0876 83.4752 10.0876 83.3764C10.0876 83.2775 9.98868 83.3763 9.88979 83.2775C9.7909 83.1786 9.69201 83.2774 9.69201 83.1786C9.59311 83.1786 9.49422 83.0797 9.39533 83.0797C9.29644 83.0797 9.19755 82.9808 9.09866 82.9808C9.02367 82.9704 8.95418 82.9357 8.90088 82.8819L8.7031 82.783C8.38054 82.6341 8.05045 82.5021 7.71419 82.3874C7.6153 82.3874 7.6153 82.2885 7.51641 82.2885C7.44142 82.2782 7.37192 82.2434 7.31863 82.1896L7.21974 82.0908C7.19351 82.0908 7.16835 82.0803 7.14981 82.0618C7.13126 82.0432 7.12084 82.0181 7.12084 81.9919C7.12084 81.893 7.02195 81.9919 7.02195 81.893C6.92306 81.893 6.92306 81.7941 6.82417 81.7941C6.72528 81.7941 6.72528 81.6952 6.62639 81.6952C6.57508 81.6917 6.52676 81.6698 6.4904 81.6334C6.45403 81.597 6.43208 81.5487 6.42861 81.4974C6.32972 81.4974 6.32972 81.3985 6.23083 81.3985L6.13194 81.2996C6.03305 81.2007 5.93416 81.2007 5.93416 81.1019L5.83526 81.003C5.73637 80.9041 5.63748 80.9041 5.63748 80.8052C5.63748 80.7063 5.53859 80.7063 5.4397 80.6074C5.34081 80.5085 4.94525 81.003 4.94525 81.003C4.74747 80.8052 4.54968 80.7063 4.45079 80.5085C3.2843 79.36 2.35959 77.9895 1.73118 76.4779C1.10276 74.9663 0.78337 73.3442 0.791834 71.7072V31.7553V31.4587V30.8653V29.6786C0.78516 29.625 0.790576 29.5704 0.807687 29.5191C0.824797 29.4678 0.853169 29.4209 0.890725 29.382C0.989615 29.2831 0.890725 29.1842 0.989615 29.1842C1.08851 29.1842 0.989615 28.9864 1.08851 28.8875C1.08851 28.7886 1.08851 28.7886 1.1874 28.6897C1.28629 28.5908 1.1874 28.5908 1.28629 28.492C1.34271 28.4406 1.37797 28.3701 1.38518 28.2942C1.43356 28.2011 1.46694 28.101 1.48407 27.9975V27.8986C1.48407 27.7997 1.58296 27.7997 1.58296 27.7008C1.59334 27.6258 1.62809 27.5563 1.68185 27.5031C1.69223 27.4281 1.72698 27.3586 1.78074 27.3053C1.82912 27.2122 1.8625 27.1121 1.87963 27.0086C1.97852 26.8108 2.07741 26.7119 2.17631 26.5141C2.17631 26.4153 2.2752 26.4152 2.2752 26.3163C2.37409 26.2175 2.37409 26.1186 2.47298 25.9208C2.57187 25.8219 2.57187 25.723 2.67076 25.6241C3.0008 25.1066 3.36417 24.6111 3.75856 24.1408C3.75856 24.0419 3.85745 24.0419 3.95634 23.943L4.45079 23.4485C6.71848 21.1936 9.75887 19.8855 12.9554 19.7896H44.3038C47.5003 19.8855 50.5407 21.1936 52.8084 23.4485C54.0238 24.5277 54.9961 25.8528 55.661 27.3359C56.3259 28.8191 56.6681 30.4266 56.6651 32.052Z" fill="#555555"/>
<path d="M53.798 32.052V71.6083C53.7934 74.1264 52.7989 76.5417 51.029 78.3329C50.9302 78.4318 50.7324 78.5307 50.6335 78.7285L50.5346 78.8274C50.5084 78.8274 50.4832 78.8378 50.4647 78.8563C50.4461 78.8749 50.4357 78.9 50.4357 78.9263L50.3368 79.0251H50.139L50.0401 79.124L49.9412 79.2229L49.8424 79.3218L49.7435 79.4207L49.6446 79.5196H49.4468C49.3479 79.5196 49.3479 79.6185 49.249 79.6185C49.1731 79.6257 49.1026 79.6609 49.0512 79.7174L48.8535 79.8163L48.6557 79.9152L48.4579 80.014L48.2601 80.1129C48.1612 80.1129 48.1612 80.2118 48.0623 80.2118C47.9634 80.2118 47.7657 80.3107 47.6668 80.3107H11.3738L11.1761 80.2118C11.0772 80.2118 11.0772 80.2118 10.9783 80.1129H10.8794L10.7805 80.014C10.5827 79.9152 10.286 79.8163 10.0883 79.7174C10.062 79.7174 10.0369 79.707 10.0183 79.6884C9.99979 79.6699 9.98937 79.6447 9.98937 79.6185L9.89048 79.5196H9.6927L9.49492 79.4207L9.39602 79.3218L9.19824 79.124H9.09935C9.07312 79.124 9.04797 79.1136 9.02943 79.0951C9.01088 79.0765 9.00046 79.0514 9.00046 79.0251C8.90157 79.0251 8.90157 78.9263 8.80268 78.9263L8.70379 78.8274L8.6049 78.7285C8.50601 78.6296 8.30823 78.5307 8.20934 78.3329C4.94594 76.6518 3.95703 74.2784 3.95703 71.7072V31.7553V31.4587V30.9642V30.8653V30.7664V30.3709V30.272V30.1731V30.0742V29.9753V29.7775V29.6786V29.5797V29.4809L4.05592 29.2831V29.1842C4.05592 29.0853 4.05592 29.0853 4.15481 28.9864C4.15481 28.8875 4.15481 28.8875 4.2537 28.8875V28.7886C4.2537 28.7624 4.26412 28.7372 4.28267 28.7187C4.30121 28.7001 4.32637 28.6897 4.35259 28.6897C4.35259 28.5908 4.45149 28.5908 4.45149 28.492C4.55038 28.3931 4.55038 28.1953 4.64927 28.0964V27.9975C4.68682 27.9585 4.71519 27.9117 4.7323 27.8603C4.74942 27.809 4.75483 27.7545 4.74816 27.7008C4.74816 27.6019 4.84705 27.6019 4.84705 27.503C5.08691 27.1237 5.35117 26.7603 5.63817 26.4152L5.73707 26.3163C5.83596 26.2175 5.93485 26.0197 6.13263 25.9208C7.82203 24.2391 10.08 23.2513 12.4616 23.1519H44.6011C46.9828 23.2513 49.2408 24.2391 50.9302 25.9208C52.8091 27.1075 53.798 29.5797 53.798 32.052Z" fill="#CCCCCC"/>
<path d="M55.9734 26.2175C56.0723 26.3164 56.1712 26.5142 56.2701 26.613C56.1961 26.4642 56.0956 26.3302 55.9734 26.2175ZM53.9956 22.2618C54.0945 22.3607 54.1934 22.4596 54.1934 22.5585C54.1934 22.3607 54.0945 22.2618 53.9956 22.2618ZM53.2045 21.4707C53.4023 21.6685 53.6001 21.7674 53.7978 21.9652C53.5767 21.8306 53.3768 21.6639 53.2045 21.4707ZM52.71 21.0752C52.8934 21.182 53.06 21.3153 53.2045 21.4707C53.06 21.3153 52.8934 21.182 52.71 21.0752ZM50.4355 19.5918L51.0289 19.8885L50.4355 19.5918Z" fill="#C0C0C0"/>
<path d="M51.7209 32.749V71.0197C51.7354 72.0339 51.5409 73.0402 51.1496 73.9759C50.7583 74.9116 50.1786 75.7568 49.4465 76.4587L49.1498 76.7554L49.0509 76.8543L48.952 76.9532L48.8531 77.0521L48.7542 77.151C48.728 77.151 48.7028 77.1614 48.6843 77.1799C48.6658 77.1985 48.6553 77.2236 48.6553 77.2499L48.5564 77.3488C48.5031 77.4025 48.4337 77.4373 48.3587 77.4477C48.3324 77.4477 48.3073 77.4581 48.2887 77.4766C48.2702 77.4952 48.2598 77.5203 48.2598 77.5465L48.062 77.6454C48.0087 77.6992 47.9392 77.7339 47.8642 77.7443L47.6664 77.8432C47.5675 77.8432 47.5675 77.8432 47.4686 77.9421L47.2709 78.041C47.172 78.041 47.0731 78.1399 46.9742 78.1399H12.1646C12.0657 78.1399 12.0657 78.1399 11.9669 78.041L11.7691 77.9421H11.5713L10.9779 77.6454H10.8791C10.8528 77.6454 10.8277 77.635 10.8091 77.6165C10.7906 77.5979 10.7802 77.5728 10.7802 77.5465H10.6813L10.3846 77.3488H10.2857L9.98904 77.151H9.89015L9.79126 77.0521L9.09902 77.151L9.00013 77.0521H8.90124L8.60457 76.7554C7.15678 75.3147 6.33892 73.3589 6.33008 71.3164V32.6501V32.4523V32.3534V32.2546V32.0568V31.7601V31.6612V31.5623V31.4634V31.3645V31.1668V31.0679V30.969V30.7712C6.33008 30.745 6.3405 30.7198 6.35904 30.7013C6.37759 30.6827 6.40274 30.6723 6.42897 30.6723V30.5734V30.2767V30.1778C6.42897 30.079 6.42897 30.079 6.52786 29.9801C6.52786 29.8812 6.62675 29.7823 6.72564 29.6834C6.72564 29.5845 6.82453 29.5845 6.82453 29.4856L6.92342 29.3867C7.12271 29.0669 7.3547 28.7686 7.61566 28.4967V28.3978L7.91233 28.1011C9.31734 26.7199 11.185 25.9094 13.1535 25.8267H44.1064C46.0749 25.9093 47.9426 26.7198 49.3476 28.1011C50.8309 28.7934 51.7209 30.6723 51.7209 32.749Z" fill="white"/>
</g>
</svg>
