<svg width="243" height="201" viewBox="0 0 243 201" fill="none" xmlns="http://www.w3.org/2000/svg">
<g opacity="0.9">
<path d="M85.358 198.726H84.8635V199.715C84.86 199.88 84.8917 200.045 84.9564 200.197C85.0212 200.349 85.1175 200.486 85.239 200.598C85.3606 200.71 85.5045 200.795 85.6614 200.848C85.8183 200.9 85.9846 200.918 86.1491 200.902H156.757C156.92 200.91 157.082 200.885 157.236 200.83C157.389 200.774 157.529 200.688 157.649 200.578C157.768 200.467 157.865 200.334 157.933 200.186C158 200.038 158.038 199.878 158.043 199.715V198.726H85.358Z" fill="#555555"/>
<path d="M156.856 200.012H86.1489C85.825 200.011 85.5132 199.888 85.2752 199.668C85.0372 199.449 84.8903 199.148 84.8633 198.825C84.8802 198.412 85.0576 198.022 85.3577 197.737L92.4779 192.793C93.1254 192.333 93.6706 191.744 94.0791 191.064C94.4876 190.383 94.7505 189.625 94.8513 188.837L97.1257 165.103H145.78L148.054 188.837C148.135 189.63 148.389 190.396 148.799 191.08C149.21 191.764 149.766 192.348 150.428 192.793L157.548 197.737C157.685 197.834 157.802 197.957 157.892 198.099C157.981 198.241 158.042 198.399 158.069 198.565C158.097 198.731 158.091 198.9 158.053 199.064C158.014 199.227 157.943 199.381 157.845 199.517C157.731 199.672 157.581 199.797 157.41 199.883C157.238 199.969 157.048 200.013 156.856 200.012V200.012Z" fill="#808080"/>
<path d="M14.8346 0.00027211H228.241C232.146 0.00993296 235.888 1.56545 238.649 4.32665C241.41 7.08786 242.966 10.8301 242.976 14.735V152.193C242.966 156.098 241.41 159.84 238.649 162.602C235.888 165.363 232.146 166.918 228.241 166.928H14.8346C10.9297 166.918 7.18746 165.363 4.42625 162.602C1.66505 159.84 0.109542 156.098 0.0998815 152.193V14.735C0.0880663 12.7967 0.461125 10.8753 1.19743 9.0823C1.93373 7.28927 3.01864 5.66023 4.38924 4.28962C5.75985 2.91902 7.38889 1.83413 9.18192 1.09782C10.975 0.36152 12.8963 -0.0115431 14.8346 0.00027211V0.00027211Z" fill="#333333"/>
<path d="M14.8346 0.198026H228.241C232.146 0.207687 235.888 1.7632 238.649 4.52441C241.41 7.28561 242.966 11.0278 242.976 14.9328V152.292C242.966 156.197 241.41 159.939 238.649 162.7C235.888 165.462 232.146 167.017 228.241 167.027H14.8346C10.9297 167.017 7.18746 165.462 4.42625 162.7C1.66505 159.939 0.109542 156.197 0.0998815 152.292V14.9328C0.0880663 12.9945 0.461125 11.0731 1.19743 9.28009C1.93373 7.48705 3.01864 5.85801 4.38924 4.48741C5.75985 3.1168 7.38889 2.03188 9.18192 1.29558C10.975 0.559274 12.8963 0.186211 14.8346 0.198026V0.198026Z" fill="#808080"/>
<path d="M242.976 144.777V161.291C242.973 162.838 242.357 164.32 241.264 165.414C240.17 166.507 238.688 167.123 237.141 167.126H5.9344C5.16628 167.133 4.4045 166.987 3.69352 166.696C2.98254 166.405 2.33661 165.975 1.79345 165.432C1.25029 164.889 0.820778 164.243 0.529994 163.532C0.23921 162.821 0.0929791 162.059 0.0998401 161.291V144.777H242.976Z" fill="#555555"/>
<path d="M242.975 144.777H0V145.469H242.975V144.777Z" fill="#777777"/>
<path d="M232.689 10.9773H10.0859V144.875H232.689V10.9773Z" fill="white"/>
</g>
</svg>
