<svg width="21" height="22" viewBox="0 0 21 22" fill="none" xmlns="http://www.w3.org/2000/svg">
<path d="M4.05254 13.5C5.4175 13.5 6.52402 12.3807 6.52402 11C6.52402 9.61929 5.4175 8.5 4.05254 8.5C2.68758 8.5 1.58105 9.61929 1.58105 11C1.58105 12.3807 2.68758 13.5 4.05254 13.5Z" stroke="#1B2B7C" stroke-width="2" stroke-linecap="round" stroke-linejoin="round"/>
<path d="M17.2344 6C18.5994 6 19.7059 4.88071 19.7059 3.5C19.7059 2.11929 18.5994 1 17.2344 1C15.8695 1 14.7629 2.11929 14.7629 3.5C14.7629 4.88071 15.8695 6 17.2344 6Z" stroke="#1B2B7C" stroke-width="2" stroke-linecap="round" stroke-linejoin="round"/>
<path d="M17.2344 21C18.5994 21 19.7059 19.8807 19.7059 18.5C19.7059 17.1193 18.5994 16 17.2344 16C15.8695 16 14.7629 17.1193 14.7629 18.5C14.7629 19.8807 15.8695 21 17.2344 21Z" stroke="#1B2B7C" stroke-width="2" stroke-linecap="round" stroke-linejoin="round"/>
<path d="M6.20544 12.2255L15.0791 17.2745M15.0791 4.72552L6.20544 9.77448" stroke="#1B2B7C" stroke-width="2" stroke-linecap="round" stroke-linejoin="round"/>
</svg>
