<svg width="25" height="22" viewBox="0 0 25 22" fill="none" xmlns="http://www.w3.org/2000/svg">
<path d="M17.8997 18.3997V20.7066L15.2471 17.7886L13.1129 15.3073L13.1127 15.307C12.7788 14.9192 12.193 14.8747 11.8042 15.2087C11.4152 15.5429 11.3716 16.1292 11.7057 16.5173C11.7057 16.5174 11.7058 16.5175 11.7059 16.5176L12.8946 17.8997H2.13949C1.2509 17.8997 0.5 17.1488 0.5 16.2602V2.13949C0.5 1.2509 1.2509 0.5 2.13949 0.5H22.6786C23.5672 0.5 24.3181 1.2509 24.3181 2.13949V16.2602C24.3181 17.1488 23.5672 17.8997 22.6786 17.8997H21.8228H19.2555H18.3997H17.8997V18.3997Z" stroke="#EE3F59"/>
<path d="M11.1259 6.41839H4.70744C4.47081 6.41839 4.27954 6.22669 4.27954 5.99049C4.27954 5.75429 4.47081 5.56259 4.70744 5.56259H11.1259C11.3626 5.56259 11.5538 5.75429 11.5538 5.99049C11.5538 6.22669 11.3626 6.41839 11.1259 6.41839Z" fill="#EE3F59"/>
<path d="M19.256 9.8428H4.70744C4.47081 9.8428 4.27954 9.6511 4.27954 9.4149C4.27954 9.1787 4.47081 8.987 4.70744 8.987H19.256C19.4926 8.987 19.6839 9.1787 19.6839 9.4149C19.6839 9.6511 19.4926 9.8428 19.256 9.8428Z" fill="#EE3F59"/>
<path d="M19.256 13.2625H4.70744C4.47081 13.2625 4.27954 13.0708 4.27954 12.8346C4.27954 12.5984 4.47081 12.4067 4.70744 12.4067H19.256C19.4926 12.4067 19.6839 12.5984 19.6839 12.8346C19.6839 13.0708 19.4926 13.2625 19.256 13.2625Z" fill="#EE3F59"/>
</svg>
