<svg viewBox="0 0 32 28" fill="none" xmlns="http://www.w3.org/2000/svg">
<path d="M28.8637 0H2.72299C1.2406 0 0 1.2406 0 2.72299V20.6948C0 22.1772 1.2406 23.4177 2.72299 23.4177H17.798L15.3806 20.6071C15.1845 20.3794 15.2101 20.0352 15.4383 19.8392C15.6665 19.6431 16.0107 19.6693 16.2067 19.8969L18.9286 23.0616L23.4177 28V23.4177H24.5069H27.7745H28.8637C30.3461 23.4177 31.5867 22.1772 31.5867 20.6948V2.72299C31.5867 1.2406 30.3461 0 28.8637 0Z" fill="#EE3F59"/>
<path d="M14.1596 8.16897H5.99064C5.68948 8.16897 5.44604 7.92499 5.44604 7.62437C5.44604 7.32375 5.68948 7.07977 5.99064 7.07977H14.1596C14.4608 7.07977 14.7042 7.32375 14.7042 7.62437C14.7042 7.92499 14.4608 8.16897 14.1596 8.16897Z" fill="white"/>
<path d="M24.507 12.5258H5.99064C5.68948 12.5258 5.44604 12.2818 5.44604 11.9812C5.44604 11.6806 5.68948 11.4366 5.99064 11.4366H24.507C24.8082 11.4366 25.0516 11.6806 25.0516 11.9812C25.0516 12.2818 24.8082 12.5258 24.507 12.5258Z" fill="white"/>
<path d="M24.507 16.8826H5.99064C5.68948 16.8826 5.44604 16.6386 5.44604 16.338C5.44604 16.0373 5.68948 15.7934 5.99064 15.7934H24.507C24.8082 15.7934 25.0516 16.0373 25.0516 16.338C25.0516 16.6386 24.8082 16.8826 24.507 16.8826Z" fill="white"/>
</svg>
