<svg width="23" height="18" viewBox="0 0 23 18" fill="none" xmlns="http://www.w3.org/2000/svg">
<path d="M5.22721 18.0006V8.73036L2.4713 6.10019L0 4.64062V16.3646C0 17.2698 0.703017 18.0006 1.5682 18.0006H5.22721Z" fill="#4285F4"/>
<path d="M17.7722 18.0005H21.4312C22.299 18.0005 22.9994 17.267 22.9994 16.3645V4.64062L20.2003 6.31238L17.7722 8.73027V18.0005Z" fill="#34A853"/>
<path d="M5.22742 8.72977L4.85242 5.10762L5.22742 1.64087L11.5 6.54863L17.7727 1.64087L18.1921 4.92045L17.7727 8.72977L11.5 13.6375L5.22742 8.72977Z" fill="#EA4335"/>
<path d="M17.7722 1.64051V8.72941L22.9994 4.63968V2.45844C22.9994 0.435412 20.7857 -0.71786 19.2359 0.495395L17.7722 1.64051Z" fill="#FBBC04"/>
<path d="M0 4.6396L2.40409 6.52064L5.22721 8.72933V1.64043L3.7635 0.495316C2.21102 -0.718033 0 0.435333 0 2.45827V4.6395V4.6396Z" fill="#C5221F"/>
</svg>
