<svg width="17" height="16" viewBox="0 0 17 16" fill="none" xmlns="http://www.w3.org/2000/svg">
<path d="M2.05456 0H13.9477C15.0776 0 16.0013 0.92402 16.0013 2.05392V13.947C16.0013 15.0766 15.0776 16 13.9477 16H2.05456C0.924661 16 0 15.0766 0 13.947V2.05392C0 0.92402 0.924661 0 2.05456 0ZM11.6567 1.77705C11.26 1.77705 10.9364 2.10193 10.9364 2.49844V4.22199C10.9364 4.61866 11.26 4.94279 11.6567 4.94279H13.465C13.8611 4.94279 14.1854 4.61866 14.1854 4.22199V2.49844C14.1854 2.10193 13.8611 1.77705 13.465 1.77705H11.6567ZM14.1923 6.76619H12.7844C12.9179 7.20223 12.9903 7.66205 12.9903 8.14012C12.9903 10.8007 10.7626 12.9586 8.01568 12.9586C5.26949 12.9586 3.04174 10.8007 3.04174 8.14012C3.04174 7.66205 3.11481 7.20223 3.24767 6.76619H1.77881V13.5258C1.77881 13.8758 2.06464 14.1606 2.41438 14.1606H13.557C13.907 14.1606 14.1923 13.8758 14.1923 13.5258V6.76619ZM8.01573 4.85191C6.24173 4.85191 4.80268 6.24551 4.80268 7.96618C4.80268 9.68509 6.24173 11.0798 8.01573 11.0798C9.7907 11.0798 11.2298 9.68509 11.2298 7.96618C11.2298 6.24546 9.7907 4.85191 8.01573 4.85191Z" fill="white"/>
</svg>
