<svg width="30" height="30" viewBox="0 0 30 30" fill="none" xmlns="http://www.w3.org/2000/svg">
<path d="M28.1242 22.9406C27.0554 21.8637 24.4669 20.2921 23.211 19.6588C21.5755 18.835 21.4409 18.7677 20.1553 19.7227C19.2979 20.3601 18.7278 20.9295 17.7243 20.7155C16.7208 20.5015 14.5401 19.2947 12.6307 17.3913C10.7212 15.4879 9.44445 13.244 9.22974 12.2438C9.01504 11.2437 9.59386 10.6803 10.2252 9.82085C11.115 8.60937 11.0476 8.40745 10.2871 6.77195C9.69415 5.49988 8.07681 2.93557 6.9959 1.87216C5.8396 0.729994 5.8396 0.931908 5.09454 1.24151C4.48797 1.49672 3.90604 1.80695 3.35605 2.1683C2.27918 2.88375 1.68151 3.47805 1.26355 4.37118C0.845584 5.26432 0.657804 7.35817 2.81627 11.2793C4.97473 15.2005 6.48909 17.2055 9.62348 20.3312C12.7579 23.4568 15.168 25.1374 18.6915 27.1135C23.0501 29.5546 24.722 29.0788 25.6178 28.6615C26.5136 28.2442 27.1106 27.6519 27.8274 26.575C28.1897 26.026 28.5006 25.4447 28.7562 24.8386C29.0665 24.0962 29.2684 24.0962 28.1242 22.9406Z" stroke="white" stroke-width="1.5" stroke-miterlimit="10"/>
</svg>
