<svg width="16" height="16" viewBox="0 0 16 16" fill="none" xmlns="http://www.w3.org/2000/svg">
<path d="M14.5621 11.9703C14.0277 11.4319 12.7334 10.6461 12.1055 10.3294C11.2877 9.91749 11.2204 9.88384 10.5777 10.3614C10.1489 10.6801 9.8639 10.9648 9.36214 10.8577C8.86038 10.7507 7.77005 10.1473 6.81533 9.19565C5.86061 8.24396 5.22222 7.12199 5.11487 6.62191C5.00752 6.12184 5.29693 5.84017 5.61259 5.41043C6.05747 4.80468 6.02382 4.70373 5.64355 3.88597C5.34707 3.24994 4.53841 1.96779 3.99795 1.43608C3.4198 0.864997 3.4198 0.965954 3.04727 1.12075C2.74398 1.24836 2.45302 1.40347 2.17803 1.58415C1.63959 1.94187 1.34075 2.23902 1.13177 2.68559C0.922792 3.13216 0.828902 4.17909 1.90813 6.13967C2.98737 8.10026 3.74455 9.10277 5.31174 10.6656C6.87893 12.2284 8.08402 13.0687 9.84573 14.0567C12.0251 15.2773 12.861 15.0394 13.3089 14.8307C13.7568 14.6221 14.0553 14.326 14.4137 13.7875C14.5948 13.513 14.7503 13.2223 14.8781 12.9193C15.0332 12.5481 15.1342 12.5481 14.5621 11.9703Z" stroke="white" stroke-width="1.5" stroke-miterlimit="10"/>
</svg>
