<svg width="23" height="22" viewBox="0 0 23 22" fill="none" xmlns="http://www.w3.org/2000/svg">
<path d="M21.8989 16.8361L21.9071 16.8426L21.9155 16.8488C22.5271 17.2995 22.5544 18.1887 21.9481 18.6673L21.9251 18.6855L21.9044 18.7062L19.5201 21.0904C19.2333 21.3772 18.8682 21.5258 18.5434 21.4962L18.5331 21.4953L18.5226 21.4948C13.9758 21.2719 9.64394 19.2188 6.60959 16.1844C3.57812 13.1529 1.526 8.82644 1.29985 4.28433C1.30261 3.90146 1.4434 3.53403 1.70357 3.27387L4.0878 0.889632C4.64952 0.327914 5.54453 0.384344 6.05265 0.990523L8.2945 3.7814C8.67059 4.2618 8.68513 4.92167 8.33881 5.36244L8.33342 5.3693L8.32827 5.37634L6.58595 7.76058L6.56942 7.7832L6.55552 7.80752C6.29011 8.27198 6.25724 8.8916 6.71728 9.36138L9.91877 12.9288L9.93682 12.9489L9.95694 12.9669L13.5244 16.1685C13.9439 16.5784 14.6314 16.6996 15.1362 16.2916L17.5093 14.5574L17.5164 14.5523L17.5233 14.5469C17.964 14.2006 18.6239 14.2151 19.1043 14.5912C19.1049 14.5917 19.1056 14.5922 19.1063 14.5927L21.8989 16.8361Z" stroke="#F0562D"/>
</svg>
