<svg width="23" height="22" viewBox="0 0 23 22" fill="none" xmlns="http://www.w3.org/2000/svg">
<path d="M21.2725 12.8364C21.2655 12.8752 21.2606 12.9144 21.2533 12.9532L21.2156 12.731C21.2362 12.7656 21.2533 12.8016 21.2725 12.8365C21.3874 12.2138 21.4455 11.582 21.4461 10.9488C21.4461 9.54312 21.1709 8.17927 20.6271 6.89546C20.1025 5.65532 19.352 4.54155 18.3951 3.58535C17.4396 2.62914 16.325 1.87856 15.0856 1.35402C13.8021 0.810967 12.4384 0.535734 11.0326 0.535734C10.3702 0.535734 9.70654 0.597931 9.0608 0.721893C9.05942 0.722238 9.05769 0.722238 9.05589 0.722582C9.09224 0.741793 9.12894 0.758936 9.16451 0.778835L8.94553 0.744549C8.98223 0.737658 9.01927 0.729905 9.05589 0.722582C8.16997 0.251543 7.17345 0 6.16487 0C4.51829 0 2.97001 0.641176 1.80559 1.80594C0.64152 2.97036 0 4.51855 0 6.16521C0.000558979 7.2112 0.267497 8.23982 0.775648 9.15409C0.782281 9.11636 0.786847 9.07828 0.794169 9.04055L0.8319 9.25884C0.812345 9.22464 0.795203 9.18898 0.775648 9.15409C0.672005 9.74673 0.61955 10.3472 0.618864 10.9488C0.618864 12.3549 0.894097 13.7184 1.43784 15.0025C1.96169 16.243 2.71261 17.356 3.66848 18.3122C4.62537 19.2685 5.73845 20.0201 6.97928 20.5433C8.26284 21.0874 9.62694 21.363 11.0326 21.363C11.6445 21.363 12.2578 21.3071 12.8563 21.2009C12.8214 21.1814 12.7859 21.1635 12.7502 21.1429L12.9727 21.1821C12.9343 21.1894 12.8955 21.1939 12.8564 21.2009C13.7815 21.7245 14.8263 21.9998 15.8892 22C17.5355 22 19.0831 21.3598 20.2475 20.1947C21.4121 19.031 22.0531 17.4825 22.0531 15.8358C22.0525 14.7859 21.7838 13.7535 21.2725 12.8365V12.8364ZM11.0742 17.3264C7.37468 17.3264 5.71958 15.5075 5.71958 14.1445C5.71958 13.4452 6.23576 12.9552 6.94715 12.9552C8.53032 12.9552 8.12027 15.2285 11.0742 15.2285C12.5864 15.2285 13.4214 14.4074 13.4214 13.5671C13.4214 13.0618 13.1721 12.5015 12.1764 12.256L8.88584 11.4346C6.23576 10.77 5.75482 9.33741 5.75482 7.9907C5.75482 5.1947 8.3874 4.14486 10.8598 4.14486C13.1372 4.14486 15.8219 5.40352 15.8219 7.08093C15.8219 7.79972 15.1995 8.2177 14.4883 8.2177C13.1372 8.2177 13.3859 6.34749 10.6642 6.34749C9.31363 6.34749 8.56555 6.95912 8.56555 7.83427C8.56555 8.70777 9.63219 8.9868 10.5583 9.19768L12.994 9.73832C15.6619 10.3327 16.3384 11.8904 16.3384 13.3575C16.3384 15.6298 14.5942 17.3264 11.0742 17.3264ZM12.7502 21.1429C12.7859 21.1636 12.8214 21.1814 12.8564 21.2009C12.8955 21.1939 12.9343 21.1894 12.9727 21.182L12.7502 21.1429ZM21.2533 12.9532C21.2606 12.9144 21.2655 12.8753 21.2725 12.8365C21.2533 12.8015 21.2362 12.7656 21.2157 12.731L21.2533 12.9532ZM0.794169 9.04055C0.786847 9.07828 0.782281 9.11636 0.775648 9.15409C0.795203 9.18898 0.812345 9.22464 0.8319 9.25884L0.794169 9.04055ZM9.16451 0.778835C9.12894 0.758936 9.09224 0.741793 9.05597 0.722582C9.01927 0.729905 8.98223 0.737572 8.94553 0.744549L9.16451 0.778835Z" fill="#00AFF0"/>
</svg>
