<svg width="22" height="22" viewBox="0 0 22 22" fill="none" xmlns="http://www.w3.org/2000/svg">
<path d="M5.76765 18.9094L6.12438 19.0878C7.61095 19.9796 9.27577 20.3958 10.9407 20.3958C16.1731 20.3958 20.4542 16.1148 20.4542 10.8823C20.4542 8.38508 19.4433 5.94722 17.6596 4.16342C15.8758 2.37961 13.4973 1.36884 10.9407 1.36884C5.70824 1.36884 1.42708 5.64991 1.48657 10.9418C1.48657 12.7256 2.02171 14.45 2.91357 15.9364L3.15139 16.2932L2.20012 19.8013L5.76765 18.9094Z" fill="#00E676"/>
<path d="M18.6703 3.21081C16.6487 1.12977 13.8541 0 11 0C4.9352 0 0.0594972 4.93512 0.118909 10.9405C0.118909 12.8432 0.654043 14.6865 1.54599 16.3513L0 22L5.76757 20.5135C7.37297 21.4055 9.15669 21.8217 10.9406 21.8217C16.946 21.8217 21.8217 16.8865 21.8217 10.8812C21.8217 7.9676 20.6919 5.23243 18.6704 3.21081H18.6703ZM11 19.9785C9.3946 19.9785 7.78919 19.5623 6.42161 18.7299L6.06488 18.5515L2.61626 19.4433L3.50812 16.0542L3.2703 15.6974C0.654043 11.4758 1.90272 5.88648 6.18379 3.27022C10.4649 0.654044 15.9946 1.90272 18.6109 6.18379C21.227 10.4649 19.9784 15.9946 15.6974 18.6109C14.3297 19.5027 12.6649 19.9784 11 19.9784V19.9785ZM16.2324 13.3785L15.5784 13.0812C15.5784 13.0812 14.6271 12.665 14.0325 12.3677C13.973 12.3677 13.9136 12.3082 13.8541 12.3082C13.6757 12.3082 13.5568 12.3677 13.4378 12.4272C13.4378 12.4272 13.3784 12.4866 12.546 13.4379C12.4865 13.5568 12.3676 13.6163 12.2487 13.6163H12.1892C12.1298 13.6163 12.0109 13.5568 11.9514 13.4974L11.654 13.3785C11 13.0812 10.4055 12.7244 9.92973 12.2488C9.81082 12.1299 9.63241 12.0109 9.5135 11.892C9.09728 11.4758 8.68106 11.0001 8.38382 10.465L8.32433 10.346C8.26491 10.2865 8.26492 10.2271 8.20542 10.1082C8.20542 9.98931 8.20542 9.8704 8.26491 9.81091C8.26491 9.81091 8.50273 9.51359 8.68106 9.33527C8.80005 9.21628 8.85946 9.03795 8.97837 8.91905C9.09728 8.74064 9.15678 8.50282 9.09728 8.32441C9.03787 8.0271 8.32433 6.4217 8.14601 6.06497C8.02701 5.88656 7.90819 5.82715 7.72978 5.76765H7.07574C6.95674 5.76765 6.83792 5.82715 6.71892 5.82715L6.65943 5.88656C6.54052 5.94606 6.42161 6.06497 6.3027 6.12438C6.18379 6.24337 6.12429 6.3622 6.00538 6.48119C5.58916 7.01633 5.35134 7.67037 5.35134 8.32441C5.35134 8.80005 5.47025 9.27577 5.64866 9.692L5.70815 9.8704C6.24329 11.0001 6.95674 12.0109 7.90819 12.9028L8.14601 13.1406C8.32433 13.319 8.50273 13.4379 8.62164 13.6163C9.87032 14.6866 11.2973 15.4596 12.9027 15.8758C13.0811 15.9352 13.3189 15.9352 13.4973 15.9947H14.0919C14.3892 15.9947 14.7459 15.8758 14.9838 15.7569C15.1622 15.638 15.2811 15.638 15.4 15.5191L15.519 15.4001C15.6379 15.2812 15.7568 15.2217 15.8757 15.1028C15.9946 14.9839 16.1135 14.865 16.173 14.746C16.2919 14.5082 16.3513 14.2109 16.4108 13.9137V13.4974C16.4108 13.4974 16.3513 13.4379 16.2324 13.3785Z" fill="white"/>
</svg>
