<svg width="70" height="71" viewBox="0 0 70 71" fill="none" xmlns="http://www.w3.org/2000/svg">
<path d="M10.5002 56.002C9.8563 56.002 9.33362 56.5247 9.33362 57.1686C9.33362 57.8126 9.8563 58.3352 10.5002 58.3352H22.1669C22.8108 58.3352 23.3335 57.8126 23.3335 57.1686C23.3335 56.5247 22.8108 56.002 22.1669 56.002H21.0003V28.0019H22.1669C22.8108 28.0019 23.3335 27.4793 23.3335 26.8353C23.3335 26.1914 22.8108 25.6687 22.1669 25.6687H10.5002C9.8563 25.6687 9.33362 26.1914 9.33362 26.8353C9.33362 27.4793 9.8563 28.0019 10.5002 28.0019H11.6669V56.002H10.5002ZM14.0002 28.0019H18.6669V56.002H14.0002V28.0019Z" fill="#2E2E2E"/>
<path d="M1.16689 23.3353H68.8336C69.355 23.3353 69.8124 22.9899 69.9559 22.4883C70.0983 21.9878 69.8918 21.4522 69.4484 21.177L35.6151 0.176988C35.2383 -0.0563917 34.7623 -0.0563917 34.3855 0.176988L0.55206 21.177C0.10868 21.4524 -0.0977652 21.9879 0.0445592 22.4883C0.187977 22.9899 0.645439 23.3353 1.16689 23.3353ZM35.0003 2.54182L64.7422 21.002H5.25834L35.0003 2.54182Z" fill="#2E2E2E"/>
<path d="M4.66687 61.8353C4.66687 62.4793 5.18955 63.0019 5.83349 63.0019H64.167C64.8109 63.0019 65.3336 62.4793 65.3336 61.8353C65.3336 61.1914 64.8109 60.6687 64.167 60.6687H5.83349C5.18955 60.6687 4.66687 61.1914 4.66687 61.8353Z" fill="#2E2E2E"/>
<path d="M68.8336 65.3352H1.16687C0.522921 65.3352 0.000244141 65.8579 0.000244141 66.5018V68.8352C0.000244141 69.4792 0.522921 70.0018 1.16687 70.0018C1.81081 70.0018 2.33349 69.4792 2.33349 68.8352V67.6686H67.667V68.8352C67.667 69.4792 68.1896 70.0018 68.8336 70.0018C69.4775 70.0018 70.0002 69.4792 70.0002 68.8352V66.5018C70.0003 65.8579 69.4777 65.3352 68.8336 65.3352Z" fill="#2E2E2E"/>
<path d="M29.1669 56.002C28.5229 56.002 28.0002 56.5247 28.0002 57.1686C28.0002 57.8126 28.5229 58.3352 29.1669 58.3352H40.8335C41.4775 58.3352 42.0001 57.8126 42.0001 57.1686C42.0001 56.5247 41.4775 56.002 40.8335 56.002H39.6669V28.0019H40.8335C41.4775 28.0019 42.0001 27.4793 42.0001 26.8353C42.0001 26.1914 41.4775 25.6687 40.8335 25.6687H29.1669C28.5229 25.6687 28.0002 26.1914 28.0002 26.8353C28.0002 27.4793 28.5229 28.0019 29.1669 28.0019H30.3335V56.002H29.1669ZM32.6669 28.0019H37.3335V56.002H32.6669V28.0019Z" fill="#2E2E2E"/>
<path d="M47.8336 56.002C47.1897 56.002 46.667 56.5247 46.667 57.1686C46.667 57.8126 47.1897 58.3352 47.8336 58.3352H59.5003C60.1442 58.3352 60.6669 57.8126 60.6669 57.1686C60.6669 56.5247 60.1442 56.002 59.5003 56.002H58.3336V28.0019H59.5003C60.1442 28.0019 60.6669 27.4793 60.6669 26.8353C60.6669 26.1914 60.1442 25.6687 59.5003 25.6687H47.8336C47.1897 25.6687 46.667 26.1914 46.667 26.8353C46.667 27.4793 47.1897 28.0019 47.8336 28.0019H49.0002V56.002H47.8336ZM51.3336 28.0019H56.0003V56.002H51.3336V28.0019Z" fill="#2E2E2E"/>
</svg>
