<svg width="72" height="72" viewBox="0 0 72 72" fill="none" xmlns="http://www.w3.org/2000/svg">
<path d="M16.8065 71H5.51613C4.31838 71 3.16968 70.5241 2.32274 69.6772C1.47581 68.8303 1 67.6816 1 66.4838V14.5483H52.9355V32.6129" stroke="#2E2E2E" stroke-width="2" stroke-linejoin="round"/>
<path d="M40.5161 19.0645V5.51613C40.5161 4.31838 40.0403 3.16968 39.1933 2.32274C38.3464 1.47581 37.1977 1 36 1H17.9354C16.7377 1 15.589 1.47581 14.7421 2.32274C13.8951 3.16968 13.4193 4.31838 13.4193 5.51613V25.8387" stroke="#2E2E2E" stroke-width="2" stroke-linejoin="round"/>
<path d="M1 21.3225H29.2258" stroke="#2E2E2E" stroke-width="2" stroke-linejoin="round"/>
<path d="M13.4193 30.3548C14.6664 30.3548 15.6774 29.3438 15.6774 28.0967C15.6774 26.8496 14.6664 25.8386 13.4193 25.8386C12.1722 25.8386 11.1613 26.8496 11.1613 28.0967C11.1613 29.3438 12.1722 30.3548 13.4193 30.3548Z" stroke="#2E2E2E" stroke-width="2" stroke-linejoin="round"/>
<path d="M71.0001 66.4838C71.0001 67.6815 70.5243 68.8302 69.6773 69.6771C68.8304 70.5241 67.6817 70.9999 66.4839 70.9999H23.5807C22.383 70.9999 21.2343 70.5241 20.3873 69.6771C19.5404 68.8302 19.0646 67.6815 19.0646 66.4838V32.6128H71.0001V66.4838Z" stroke="#2E2E2E" stroke-width="2" stroke-linejoin="round"/>
<path d="M58.5807 43.9033V26.9678C58.5807 25.77 58.1049 24.6213 57.2579 23.7744C56.411 22.9275 55.2623 22.4517 54.0645 22.4517H36C34.8023 22.4517 33.6536 22.9275 32.8066 23.7744C31.9597 24.6213 31.4839 25.77 31.4839 26.9678V43.9033" stroke="#2E2E2E" stroke-width="2" stroke-linejoin="round"/>
<path d="M19.0646 39.3872H71.0001" stroke="#2E2E2E" stroke-width="2" stroke-linejoin="round"/>
<path d="M31.4839 48.4194C32.731 48.4194 33.742 47.4085 33.742 46.1614C33.742 44.9143 32.731 43.9033 31.4839 43.9033C30.2368 43.9033 29.2258 44.9143 29.2258 46.1614C29.2258 47.4085 30.2368 48.4194 31.4839 48.4194Z" stroke="#2E2E2E" stroke-width="2" stroke-linejoin="round"/>
<path d="M58.5807 48.4194C59.8278 48.4194 60.8388 47.4085 60.8388 46.1614C60.8388 44.9143 59.8278 43.9033 58.5807 43.9033C57.3336 43.9033 56.3226 44.9143 56.3226 46.1614C56.3226 47.4085 57.3336 48.4194 58.5807 48.4194Z" stroke="#2E2E2E" stroke-width="2" stroke-linejoin="round"/>
<path d="M5.51637 60.8386V65.3548C5.51314 65.5039 5.54013 65.6522 5.59572 65.7906C5.65132 65.9291 5.73436 66.0548 5.83985 66.1603C5.94535 66.2658 6.0711 66.3488 6.20955 66.4044C6.34799 66.46 6.49625 66.487 6.64541 66.4838H10.0325" stroke="#2E2E2E" stroke-width="2" stroke-linejoin="round"/>
<path d="M43.9032 46.1614H46.1613" stroke="#2E2E2E" stroke-width="2" stroke-linejoin="round"/>
<path d="M48.4193 46.1614H50.6774" stroke="#2E2E2E" stroke-width="2" stroke-linejoin="round"/>
<path d="M39.3871 46.1614H41.6451" stroke="#2E2E2E" stroke-width="2" stroke-linejoin="round"/>
</svg>
