<svg width="70" height="70" viewBox="0 0 70 70" fill="none" xmlns="http://www.w3.org/2000/svg">
<path d="M6.85062 40.8469V12.2211H11.9008C11.8963 12.2241 11.8918 12.2272 11.8872 12.2302H65.4083C65.4516 12.2302 65.4947 12.2273 65.5379 12.2263V10.4885H64.1247C64.0268 10.4946 63.9288 10.4976 63.8309 10.4976H10.3098C10.3143 10.4946 10.3189 10.4915 10.3234 10.4885H5.27319V39.1143V69.2466H6.85062V40.8469Z" fill="#DEE0E0"/>
<path d="M54.0812 25.8372L53.4849 24.0481L50.4717 33.0878H51.6645L54.0812 25.8372Z" fill="#2E2E2E"/>
<path d="M45.952 16.5151H42.9387V19.5284H45.952V16.5151Z" fill="#2E2E2E"/>
<path d="M39.9253 16.5151H36.9121V19.5284H39.9253V16.5151Z" fill="#2E2E2E"/>
<path d="M33.899 16.5151H30.8857V19.5284H33.899V16.5151Z" fill="#2E2E2E"/>
<path d="M27.8724 16.5151H24.8591V19.5284H27.8724V16.5151Z" fill="#2E2E2E"/>
<path d="M65.5378 70.0001H5.27308C4.85711 70.0001 4.51978 69.6629 4.51978 69.2467V10.4887C4.51978 10.0727 4.85711 9.73535 5.27308 9.73535H65.5378C65.9539 9.73535 66.2911 10.0727 66.2911 10.4887V69.2467C66.2911 69.6627 65.9539 70.0001 65.5378 70.0001ZM6.02639 68.4934H64.7845V11.242H6.02639V68.4934Z" fill="#2E2E2E"/>
<path d="M63.8308 11.251H10.3097C9.89373 11.251 9.5564 10.9137 9.5564 10.4977C9.5564 10.0817 9.89373 9.74439 10.3097 9.74439H63.8308C63.9134 9.74439 63.9958 9.74183 64.0783 9.73671C66.1641 9.6097 67.7977 7.87061 67.7977 5.77747C67.7977 4.69647 67.3872 3.68191 66.6418 2.92062C65.8971 2.16008 64.8988 1.74124 63.8308 1.74124H10.4483C10.0323 1.74124 9.69501 1.40391 9.69501 0.987928C9.69501 0.571951 10.0323 0.234619 10.4483 0.234619H63.8308C65.3073 0.234619 66.6878 0.814215 67.7183 1.86659C68.7412 2.91113 69.3043 4.30008 69.3043 5.77747C69.3043 8.6655 67.0492 11.0652 64.1704 11.2406C64.058 11.2475 63.9436 11.251 63.8308 11.251Z" fill="#2E2E2E"/>
<path d="M5.27316 39.8676H0.753309C0.337332 39.8676 0 39.5305 0 39.1143V7.47537C0 5.27857 0.874893 3.21736 2.40034 1.82028C3.85619 0.486771 5.77607 -0.149022 7.80699 0.029512L10.5061 0.236672C10.6375 0.246766 10.7637 0.291061 10.8727 0.365337C12.6437 1.57229 13.7012 3.56961 13.7012 5.7081C13.7012 6.12408 13.3638 6.46141 12.9479 6.46141C12.5319 6.46141 12.1946 6.12408 12.1946 5.7081C12.1946 4.13324 11.4461 2.65781 10.1828 1.72295L7.6833 1.53101C6.07031 1.38893 4.55842 1.88672 3.41776 2.93126C2.20328 4.04389 1.50662 5.70012 1.50662 7.47537V38.361H5.27316C5.68914 38.361 6.02647 38.6982 6.02647 39.1143C6.02647 39.5305 5.68914 39.8676 5.27316 39.8676Z" fill="#2E2E2E"/>
<path d="M10.3178 11.2435C10.0748 11.2435 9.83596 11.1285 9.69133 10.9134C9.45931 10.568 9.54428 10.1045 9.8896 9.87243C9.89834 9.86656 9.92078 9.85179 9.92967 9.84637C11.3266 8.99016 12.1946 7.40444 12.1946 5.70814C12.1946 5.29217 12.5319 4.95483 12.9479 4.95483C13.3639 4.95483 13.7012 5.29217 13.7012 5.70814C13.7012 7.92347 12.559 10.0002 10.7203 11.1288C10.5959 11.2062 10.4561 11.2435 10.3178 11.2435Z" fill="#2E2E2E"/>
<path d="M44.4453 26.3081H11.2997C10.8837 26.3081 10.5464 25.9708 10.5464 25.5548C10.5464 25.1388 10.8837 24.8015 11.2997 24.8015H44.4453C44.8614 24.8015 45.1986 25.1388 45.1986 25.5548C45.1986 25.9708 44.8614 26.3081 44.4453 26.3081Z" fill="#2E2E2E"/>
<path d="M44.4453 32.3345H11.2997C10.8837 32.3345 10.5464 31.9972 10.5464 31.5812C10.5464 31.1652 10.8837 30.8279 11.2997 30.8279H44.4453C44.8614 30.8279 45.1986 31.1652 45.1986 31.5812C45.1986 31.9972 44.8614 32.3345 44.4453 32.3345Z" fill="#2E2E2E"/>
<path d="M44.4453 38.3611H11.2997C10.8837 38.3611 10.5464 38.0239 10.5464 37.6078C10.5464 37.1917 10.8837 36.8545 11.2997 36.8545H44.4453C44.8614 36.8545 45.1986 37.1917 45.1986 37.6078C45.1986 38.0239 44.8614 38.3611 44.4453 38.3611Z" fill="#2E2E2E"/>
<path d="M44.4453 44.3875H11.2997C10.8837 44.3875 10.5464 44.0503 10.5464 43.6342C10.5464 43.218 10.8837 42.8809 11.2997 42.8809H44.4453C44.8614 42.8809 45.1986 43.218 45.1986 43.6342C45.1986 44.0503 44.8614 44.3875 44.4453 44.3875Z" fill="#2E2E2E"/>
<path d="M44.4453 50.4138H11.2997C10.8837 50.4138 10.5464 50.0767 10.5464 49.6605C10.5464 49.2444 10.8837 48.9072 11.2997 48.9072H44.4453C44.8614 48.9072 45.1986 49.2444 45.1986 49.6605C45.1986 50.0767 44.8614 50.4138 44.4453 50.4138Z" fill="#2E2E2E"/>
<path d="M44.4453 56.4405H11.2997C10.8837 56.4405 10.5464 56.1033 10.5464 55.6871C10.5464 55.271 10.8837 54.9338 11.2997 54.9338H44.4453C44.8614 54.9338 45.1986 55.271 45.1986 55.6871C45.1986 56.1033 44.8614 56.4405 44.4453 56.4405Z" fill="#2E2E2E"/>
<path d="M44.4453 62.4668H34.6251C34.2092 62.4668 33.8718 62.1296 33.8718 61.7135C33.8718 61.2974 34.2092 60.9602 34.6251 60.9602H44.4453C44.8614 60.9602 45.1986 61.2974 45.1986 61.7135C45.1986 62.1296 44.8614 62.4668 44.4453 62.4668Z" fill="#2E2E2E"/>
<path d="M56.4982 57.947C56.0821 57.947 55.7449 57.6098 55.7449 57.1937V33.0878C55.7449 32.6718 56.0821 32.3345 56.4982 32.3345C56.9143 32.3345 57.2515 32.6718 57.2515 33.0878V57.1937C57.2515 57.6096 56.9143 57.947 56.4982 57.947Z" fill="#2E2E2E"/>
<path d="M50.4716 57.947C50.0554 57.947 49.7183 57.6098 49.7183 57.1937V33.0878C49.7183 32.6718 50.0554 32.3345 50.4716 32.3345C50.8877 32.3345 51.2249 32.6718 51.2249 33.0878V57.1937C51.2249 57.6096 50.8877 57.947 50.4716 57.947Z" fill="#2E2E2E"/>
<path d="M56.498 62.4669H50.4716C50.0554 62.4669 49.7183 62.1297 49.7183 61.7136V57.1937C49.7183 56.7776 50.0554 56.4404 50.4716 56.4404H56.498C56.9142 56.4404 57.2514 56.7776 57.2514 57.1937V61.7136C57.2514 62.1296 56.9142 62.4669 56.498 62.4669ZM51.2249 60.9603H55.7447V57.947H51.2249V60.9603Z" fill="#2E2E2E"/>
<path d="M56.4981 33.8412H50.4716C50.2295 33.8412 50.0022 33.7249 49.8604 33.5283C49.7189 33.3319 49.6804 33.0793 49.7569 32.8497L52.7701 23.81C52.8727 23.5024 53.1605 23.2949 53.4847 23.2949C53.8089 23.2949 54.0969 23.5024 54.1993 23.81L57.2125 32.8497C57.2892 33.0793 57.2507 33.332 57.109 33.5283C56.9676 33.7249 56.7402 33.8412 56.4981 33.8412ZM51.5169 32.3346H55.453L53.4849 26.4305L51.5169 32.3346Z" fill="#2E2E2E"/>
<path d="M61.018 57.947H56.4982C56.0821 57.947 55.7449 57.6098 55.7449 57.1937C55.7449 56.7775 56.0821 56.4404 56.4982 56.4404H60.2647V46.6474C60.2647 46.2312 60.6019 45.894 61.018 45.894C61.4342 45.894 61.7713 46.2312 61.7713 46.6474V57.1937C61.7713 57.6097 61.4342 57.947 61.018 57.947Z" fill="#2E2E2E"/>
</svg>
