<svg width="68" height="70" viewBox="0 0 68 70" fill="none" xmlns="http://www.w3.org/2000/svg">
<path d="M35.7704 24.0436C35.8412 24.1196 35.9268 24.1803 36.0221 24.2218C36.1173 24.2633 36.22 24.2848 36.3239 24.285C36.4065 24.2844 36.4884 24.2709 36.5668 24.245C36.7054 24.2004 36.8281 24.1167 36.9203 24.0041C37.0125 23.8915 37.0702 23.7546 37.0865 23.61C37.3941 21.0884 37.3341 20.9085 37.2864 20.7624C37.1313 20.3264 36.8118 19.9684 36.3963 19.7648C35.9808 19.5612 35.5021 19.5281 35.0625 19.6727C34.6229 19.8172 34.2573 20.1278 34.0436 20.5383C33.83 20.9488 33.7853 21.4265 33.9191 21.8695C33.9668 22.0155 34.0268 22.197 35.7704 24.0436ZM34.9816 21.0023C35.0223 20.9205 35.0789 20.8476 35.148 20.7879C35.2172 20.7283 35.2976 20.683 35.3844 20.6548C35.5531 20.5995 35.7365 20.6105 35.8973 20.6856C36.0581 20.7608 36.1843 20.8943 36.2501 21.0591C36.2501 21.2252 36.2163 21.768 36.0963 22.8181C35.3767 22.0493 35.02 21.6311 34.9293 21.4927C34.8854 21.3284 34.9041 21.1536 34.9816 21.0023Z" fill="#2E2E2E"/>
<path d="M14.9883 20.6041C15.0502 20.622 15.1146 20.6298 15.179 20.6272C15.4342 20.6272 16.0385 20.5549 17.816 20.2197C17.9581 20.1916 18.0894 20.1239 18.1947 20.0244C18.3 19.9249 18.3751 19.7977 18.4113 19.6574C18.4474 19.5171 18.4432 19.3695 18.3991 19.2315C18.355 19.0935 18.2728 18.9707 18.1619 18.8774C16.2046 17.2583 16.0201 17.2107 15.8725 17.1722C15.4231 17.0713 14.952 17.1493 14.5591 17.3896C14.1661 17.6299 13.8821 18.0137 13.7672 18.4597C13.6523 18.9058 13.7155 19.379 13.9435 19.7793C14.1714 20.1795 14.5461 20.4753 14.9883 20.6041ZM14.7608 18.7067C14.7996 18.5572 14.8869 18.4247 15.009 18.3301C15.1312 18.2355 15.2813 18.1841 15.4358 18.184C15.4802 18.1841 15.5245 18.1887 15.568 18.1978C15.711 18.2824 16.1477 18.6083 16.9657 19.2741C15.9263 19.4617 15.3881 19.5355 15.2205 19.5416C15.0521 19.487 14.9109 19.3702 14.8255 19.2151C14.7401 19.0601 14.717 18.8783 14.7608 18.7067Z" fill="#2E2E2E"/>
<path d="M14.6609 32.9185C14.9447 32.9185 15.2242 32.8499 15.4758 32.7186C15.6127 32.6479 15.7833 32.5648 17.3209 30.5398C17.408 30.4239 17.4606 30.2856 17.4724 30.141C17.4843 29.9964 17.455 29.8514 17.388 29.7228C17.3209 29.5941 17.2188 29.4871 17.0935 29.414C16.9682 29.3409 16.8247 29.3048 16.6797 29.3098C14.1412 29.4159 13.9736 29.5035 13.8367 29.5742C13.485 29.758 13.205 30.0544 13.0417 30.4161C12.8784 30.7777 12.8412 31.1838 12.936 31.5691C13.0307 31.9545 13.2521 32.2969 13.5645 32.5415C13.877 32.7862 14.2625 32.9189 14.6594 32.9185H14.6609ZM13.992 30.9365C14.0438 30.7742 14.1532 30.6364 14.2996 30.5491C14.4625 30.5168 15.0038 30.4676 16.0601 30.4153C15.4128 31.2502 15.0607 31.6669 14.9407 31.7822C14.8182 31.8371 14.6823 31.8553 14.5496 31.8348C14.4169 31.8142 14.293 31.7558 14.1927 31.6664C14.0925 31.577 14.0202 31.4606 13.9846 31.3311C13.949 31.2016 13.9516 31.0646 13.992 30.9365Z" fill="#2E2E2E"/>
<path d="M52.9467 33.9703C53.0971 34.2581 53.3236 34.4992 53.6015 34.6673C53.8794 34.8353 54.198 34.924 54.5227 34.9236C54.8067 34.9238 55.0865 34.8546 55.3377 34.7222C55.473 34.6515 55.6452 34.5684 57.1828 32.545C57.2699 32.429 57.3224 32.2907 57.3343 32.1461C57.3462 32.0015 57.3169 31.8565 57.2498 31.7279C57.1828 31.5992 57.0807 31.4922 56.9553 31.4191C56.83 31.346 56.6866 31.3099 56.5416 31.3149C54.0046 31.4195 53.8354 31.5086 53.6986 31.5794C53.2822 31.7971 52.9693 32.1712 52.8283 32.6194C52.6874 33.0676 52.7299 33.5534 52.9467 33.9703ZM54.1614 32.5542C54.3244 32.5219 54.8656 32.4727 55.9219 32.4204C55.2746 33.2553 54.9225 33.6705 54.8026 33.7873C54.6419 33.8531 54.4624 33.8565 54.2994 33.7968C54.1363 33.7371 54.0014 33.6186 53.9212 33.4646C53.8409 33.3107 53.8211 33.1323 53.8655 32.9644C53.9099 32.7966 54.0155 32.6514 54.1614 32.5573V32.5542Z" fill="#2E2E2E"/>
<path d="M26.8462 26.9726C26.7473 27.0795 26.6813 27.2127 26.6562 27.3561C26.6311 27.4996 26.648 27.6473 26.7047 27.7814C27.6765 30.1277 27.818 30.2569 27.9348 30.3599C28.2603 30.6574 28.6855 30.8219 29.1264 30.8212H29.2141C29.563 30.8037 29.8989 30.6835 30.1798 30.4757C30.4606 30.2679 30.6738 29.9818 30.7926 29.6533C30.9113 29.3248 30.9304 28.9685 30.8473 28.6291C30.7643 28.2898 30.5828 27.9826 30.3258 27.746C30.2135 27.643 30.0721 27.5154 27.6458 26.7635C27.5065 26.7173 27.3569 26.7124 27.215 26.7495C27.0731 26.7866 26.945 26.8641 26.8462 26.9726ZM29.6231 28.5656C29.7164 28.6612 29.7801 28.7818 29.8067 28.9127C29.8333 29.0437 29.8215 29.1795 29.7728 29.304C29.7241 29.4285 29.6406 29.5362 29.5322 29.6144C29.4239 29.6926 29.2953 29.7379 29.1618 29.7449C28.9913 29.7541 28.8235 29.6993 28.6913 29.5911C28.6052 29.4497 28.373 28.9576 27.961 27.9844C28.9635 28.3057 29.4739 28.4918 29.6231 28.5656Z" fill="#2E2E2E"/>
<path d="M25.9175 18.1208H25.9252C26.0702 18.1214 26.2122 18.0804 26.3346 18.0028C26.4569 17.9251 26.5545 17.814 26.6156 17.6826C27.7181 15.3947 27.7196 15.204 27.7211 15.0518C27.7256 14.5817 27.5434 14.1291 27.2145 13.7932C26.8856 13.4574 26.4368 13.2658 25.9667 13.2605H25.9498C25.4828 13.2605 25.0347 13.4447 24.7027 13.7732C24.3708 14.1017 24.1819 14.5479 24.177 15.0149C24.177 15.1686 24.177 15.3593 25.2287 17.6688C25.2877 17.8025 25.3841 17.9163 25.5063 17.9965C25.6286 18.0767 25.7714 18.1199 25.9175 18.1208ZM25.9498 14.3414C26.1272 14.3435 26.297 14.413 26.425 14.5358C26.5529 14.6586 26.6293 14.8255 26.6387 15.0026C26.5895 15.1563 26.3788 15.6637 25.9268 16.6186C25.4947 15.6545 25.2948 15.1487 25.2487 14.9887C25.2616 14.812 25.3412 14.6468 25.4714 14.5266C25.6016 14.4064 25.7726 14.3402 25.9498 14.3414Z" fill="#2E2E2E"/>
<path d="M51.4492 23.1811H51.4569C51.6011 23.1821 51.7426 23.142 51.8648 23.0654C51.9871 22.9889 52.085 22.8792 52.1472 22.7491C53.2497 20.4596 53.2512 20.2689 53.2527 20.1167C53.2573 19.6467 53.075 19.194 52.7461 18.8582C52.4172 18.5223 51.9684 18.3307 51.4984 18.3254H51.4799C51.0133 18.3262 50.5658 18.5108 50.2342 18.8391C49.9027 19.1675 49.7139 19.6132 49.7086 20.0798C49.7086 20.2336 49.7086 20.4242 50.7603 22.7337C50.82 22.8666 50.9167 22.9794 51.0389 23.0588C51.161 23.1382 51.3035 23.1806 51.4492 23.1811ZM51.4876 19.4017C51.6649 19.4038 51.8348 19.4733 51.9627 19.5961C52.0907 19.7189 52.1671 19.8858 52.1764 20.0629C52.1272 20.2167 51.9166 20.7241 51.4645 21.6789C51.0325 20.7148 50.8311 20.209 50.7865 20.0491C50.7993 19.8723 50.8789 19.7071 51.0092 19.5869C51.1394 19.4667 51.3104 19.4005 51.4876 19.4017Z" fill="#2E2E2E"/>
<path d="M42.7802 30.291C42.9068 30.3622 43.051 30.396 43.196 30.3887C43.341 30.3813 43.481 30.3331 43.5998 30.2494C45.674 28.7826 45.7678 28.6165 45.8431 28.4843C46.0753 28.0755 46.1356 27.5912 46.0108 27.1379C45.8859 26.6846 45.5861 26.2995 45.1773 26.0672C44.9749 25.9521 44.7517 25.878 44.5205 25.8493C44.2894 25.8205 44.0549 25.8376 43.8304 25.8996C43.6059 25.9616 43.3958 26.0672 43.2122 26.2105C43.0285 26.3538 42.875 26.5318 42.7602 26.7345C42.6849 26.8668 42.5911 27.0328 42.3943 29.5652C42.382 29.7105 42.4119 29.8562 42.4804 29.9849C42.5488 30.1137 42.6529 30.2199 42.7802 30.291ZM43.7182 27.2296C43.8157 27.0829 43.9653 26.9787 44.1367 26.9379C44.3081 26.8971 44.4886 26.9227 44.6418 27.0097C44.795 27.0966 44.9096 27.2384 44.9625 27.4065C45.0154 27.5745 45.0026 27.7564 44.9267 27.9154C44.8068 28.0307 44.3793 28.3674 43.5213 28.984C43.6121 27.9262 43.6797 27.3865 43.7182 27.225V27.2296Z" fill="#2E2E2E"/>
<path d="M37.8476 13.8833C37.9614 13.9848 38.1044 14.1109 40.543 14.8213C40.6828 14.862 40.8313 14.8623 40.9712 14.822C41.1111 14.7817 41.2366 14.7025 41.3333 14.5936C41.4299 14.4847 41.4937 14.3506 41.5171 14.2069C41.5405 14.0632 41.5226 13.9158 41.4656 13.7819C40.4554 11.4524 40.3124 11.3217 40.1971 11.2249C39.8449 10.9136 39.3835 10.755 38.9144 10.7839C38.4453 10.8127 38.0068 11.0266 37.6954 11.3786C37.5409 11.5531 37.4224 11.7562 37.3464 11.9765C37.2705 12.1968 37.2386 12.4299 37.2528 12.6625C37.2669 12.8951 37.3267 13.1226 37.4288 13.3321C37.5309 13.5416 37.6732 13.7289 37.8476 13.8833ZM38.4965 12.0936C38.614 11.9609 38.7775 11.8778 38.954 11.8612C39.1305 11.8447 39.3066 11.8959 39.4467 12.0044C39.5359 12.1459 39.7773 12.6333 40.2048 13.6004C39.193 13.2929 38.6795 13.1176 38.5288 13.0484C38.403 12.9232 38.3297 12.7548 38.3237 12.5774C38.3177 12.4 38.3795 12.227 38.4965 12.0936Z" fill="#2E2E2E"/>
<path d="M62.758 58.1719H61.6571C62.8057 56.9756 63.8097 55.518 63.8097 53.1716C63.8101 52.7313 63.7746 52.2916 63.7036 51.857C66.1991 51.5833 67.6737 49.0217 67.6737 46.5385C67.6737 43.7432 65.8578 41.792 63.2593 41.792H62.3137V38.9828C63.201 38.6421 63.9895 38.0856 64.6077 37.3637C65.1379 36.7425 65.5263 36.0134 65.7462 35.2269C65.966 34.4404 66.012 33.6154 65.8809 32.8094C64.271 22.9304 58.0561 14.24 49.2257 9.47657L50.2113 6.7658L60.2733 10.5313C60.3731 10.5692 60.482 10.5765 60.586 10.5521C60.6899 10.5278 60.7843 10.473 60.8569 10.3947C60.9296 10.3164 60.9772 10.2183 60.9938 10.1128C61.0103 10.0073 60.995 9.89928 60.9498 9.80253L59.3953 6.43215L62.738 4.89457C62.8345 4.84973 62.9155 4.77731 62.9709 4.68644C63.0262 4.59558 63.0534 4.49036 63.0489 4.38406C63.0445 4.27777 63.0086 4.17518 62.9459 4.08925C62.8832 4.00332 62.7964 3.93791 62.6965 3.90129L52.0903 0.0327244C51.9559 -0.0159295 51.8077 -0.00929394 51.6782 0.0511754C51.6138 0.0812794 51.5561 0.124013 51.5086 0.17684C51.4611 0.229666 51.4246 0.291508 51.4014 0.358692L49.3872 5.89399L48.2632 8.97993C43.7133 6.72541 38.698 5.56941 33.6203 5.6048C28.5425 5.6402 23.5438 6.86599 19.0258 9.18371C14.5077 11.5014 10.5962 14.8465 7.60544 18.9502C4.61468 23.0538 2.62805 27.8017 1.80512 32.8125C1.67371 33.6178 1.71925 34.4421 1.93858 35.2281C2.1579 36.014 2.54575 36.7428 3.07517 37.3637C3.68915 38.0864 4.4733 38.6449 5.35694 38.989V41.792H4.93718C2.88297 41.792 1.44225 42.4562 0.653473 43.7678C0 44.8548 0 46.1187 0 46.8737C0 49.6506 1.46839 51.4357 3.9808 51.8093C3.90451 52.2594 3.86594 52.7151 3.86549 53.1716C3.85 55.0182 4.52948 56.8031 5.76901 58.1719H4.92027C3.98173 58.1759 3.08296 58.5513 2.42031 59.2159C1.75767 59.8806 1.38504 60.7805 1.38383 61.7191V62.8615C1.38627 64.7544 2.13941 66.569 3.47803 67.9074C4.81666 69.2457 6.63147 69.9985 8.52437 70.0005H59.1662C61.059 69.9985 62.8736 69.2457 64.212 67.9073C65.5504 66.5689 66.3032 64.7542 66.3052 62.8615V61.7191C66.304 60.7787 65.9299 59.8771 65.2649 59.2122C64.6 58.5472 63.6984 58.1731 62.758 58.1719ZM52.2286 1.2305L61.1021 4.45943L58.4559 5.6895C58.3916 5.71912 58.3338 5.76113 58.2858 5.81312C58.2378 5.86511 58.2005 5.92605 58.1761 5.99246C58.1517 6.05887 58.1406 6.12944 58.1435 6.20014C58.1464 6.27084 58.1632 6.34027 58.1929 6.40447L59.423 9.07372L50.5865 5.75561L52.2286 1.2305ZM65.0706 46.5385C65.0706 48.1714 64.1388 49.2692 63.27 49.2692C63.1157 49.2704 62.9615 49.2596 62.8088 49.237C61.9068 47.6005 60.4683 46.3249 58.7357 45.6252C58.5804 45.5622 58.4144 45.5298 58.2468 45.5298C55.3084 45.5298 54.1798 46.7169 53.2742 47.6702C52.4239 48.5635 51.752 49.2692 49.1227 49.2692C46.8363 49.2692 45.3111 48.6865 43.8688 47.9731L47.2515 44.4059H63.27C64.8368 44.4059 65.0706 45.742 65.0706 46.5385ZM36.7083 45.9235L35.2107 44.4059H43.6459L40.786 47.4226L40.7767 47.4334L39.5159 48.768L36.7083 45.9235ZM7.97391 39.3718H59.7105V41.792H7.97391V39.3718ZM5.07403 35.6724C4.78955 35.3398 4.58086 34.9492 4.46244 34.5278C4.34402 34.1065 4.31871 33.6644 4.38826 33.2322C5.15 28.6022 6.99224 24.2169 9.76557 20.4319C12.5389 16.6469 16.1653 13.5688 20.3505 11.4472C24.5358 9.3257 29.1622 8.22042 33.8545 8.22104C38.5468 8.22167 43.1729 9.32817 47.3576 11.4508L45.1696 17.4628C45.1454 17.5291 45.1344 17.5996 45.1375 17.6701C45.1405 17.7407 45.1574 17.8099 45.1873 17.8739C45.2171 17.9379 45.2593 17.9954 45.3114 18.043C45.3636 18.0907 45.4246 18.1276 45.491 18.1516C45.55 18.1735 45.6125 18.1844 45.6755 18.1839C45.7859 18.184 45.8936 18.1501 45.9841 18.0868C46.0746 18.0236 46.1435 17.934 46.1813 17.8303L48.317 11.9598C52.2499 14.1525 55.6386 17.2027 58.2317 20.8839C60.8248 24.5652 62.5557 28.783 63.2962 33.2246C63.3678 33.6574 63.3441 34.1007 63.2268 34.5235C63.1094 34.9463 62.9011 35.3384 62.6166 35.6724C62.3255 36.0151 61.9634 36.2904 61.5553 36.4792C61.1472 36.668 60.7029 36.7657 60.2533 36.7656H7.43114C6.9825 36.7651 6.53932 36.6671 6.13232 36.4783C5.72531 36.2895 5.36421 36.0146 5.07403 35.6724ZM2.61389 46.8814C2.61389 45.4483 2.61389 44.4136 4.93718 44.4136H31.5374L33.0335 45.9311C31.6158 46.3309 30.5733 46.9736 29.62 47.5687C28.1455 48.4912 26.8724 49.2769 24.2185 49.2769C21.4508 49.2769 20.3515 48.4082 19.1906 47.4887C18.0574 46.5908 16.7735 45.5744 14.3195 45.5744C11.5826 45.5744 9.70677 46.8399 8.1984 47.8577C7.22357 48.5158 6.37944 49.0878 5.48764 49.2416C5.33076 49.2691 5.1718 49.283 5.01252 49.2831C3.33041 49.2692 2.61389 48.5527 2.61389 46.8737V46.8814ZM6.47938 53.1855C6.47893 52.6593 6.55402 52.1358 6.70233 51.631C7.80324 51.2835 8.74578 50.6485 9.66218 50.0303C11.0614 49.0863 12.3837 48.1945 14.3211 48.1945C15.8586 48.1945 16.5798 48.7603 17.5684 49.5429C18.8923 50.5916 20.5406 51.897 24.22 51.897C27.6196 51.897 29.4171 50.7791 31.0008 49.7936C32.2508 49.0171 33.3471 48.339 35.2583 48.1899L38.5995 51.5725C38.7197 51.6955 38.8632 51.7934 39.0216 51.8604C39.18 51.9275 39.3501 51.9624 39.5221 51.9631H39.5344C39.7099 51.9612 39.8833 51.924 40.0441 51.8538C40.205 51.7835 40.3501 51.6816 40.4707 51.5541L41.9822 49.9581C43.7812 50.8929 45.8523 51.8908 49.112 51.8908C52.8667 51.8908 54.1383 50.5531 55.1608 49.4799C55.8835 48.7203 56.3724 48.2068 57.9823 48.156C59.1832 48.7093 60.1465 49.6741 60.6977 50.876C61.0308 51.5991 61.2019 52.3863 61.1989 53.1824C61.1989 54.6554 60.6054 55.538 59.5814 56.5651C59.0689 57.0799 58.4595 57.488 57.7884 57.7659C57.1172 58.0438 56.3977 58.1859 55.6713 58.1842H12.0039C8.80267 58.1719 6.47938 56.0684 6.47938 53.1716V53.1855ZM63.6913 62.8722C63.6901 64.072 63.213 65.2223 62.3646 66.0706C61.5163 66.919 60.366 67.3961 59.1662 67.3974H8.51975C7.31879 67.3949 6.16791 66.9158 5.32 66.0653C4.47209 65.2148 3.99649 64.0625 3.99772 62.8615V61.7191C3.9977 61.4734 4.09455 61.2376 4.26726 61.0629C4.43997 60.8882 4.67461 60.7886 4.92027 60.7857H62.758C63.0056 60.7857 63.243 60.8841 63.418 61.0591C63.593 61.2341 63.6913 61.4715 63.6913 61.7191V62.8722Z" fill="#2E2E2E"/>
<path d="M11.5212 22.4491C11.4688 22.4001 11.4073 22.362 11.34 22.3371C11.2728 22.3123 11.2013 22.3011 11.1297 22.3042C11.058 22.3074 10.9878 22.3248 10.923 22.3555C10.8582 22.3862 10.8002 22.4295 10.7524 22.4829C9.10562 24.2942 6.7731 29.6081 6.13808 33.02C6.11202 33.1602 6.14274 33.3051 6.22347 33.4228C6.3042 33.5404 6.42834 33.6212 6.56861 33.6473C6.60146 33.6542 6.63499 33.6573 6.66855 33.6565C6.79466 33.6562 6.91664 33.6115 7.01308 33.5303C7.10952 33.449 7.17426 33.3364 7.19594 33.2122C7.78022 30.0739 10.0605 24.8323 11.555 23.1963C11.6474 23.0917 11.6954 22.9553 11.6891 22.8159C11.6828 22.6764 11.6226 22.5449 11.5212 22.4491Z" fill="#2E2E2E"/>
<path d="M21.9521 65.2677H8.69198C7.25434 65.2677 6.21339 64.053 6.21339 63.2335C6.21339 63.0907 6.1567 62.9539 6.05577 62.8529C5.95485 62.752 5.81797 62.6953 5.67524 62.6953C5.53251 62.6953 5.39563 62.752 5.29471 62.8529C5.19378 62.9539 5.13708 63.0907 5.13708 63.2335C5.13708 64.6711 6.69004 66.344 8.69198 66.344H21.9521C22.0948 66.344 22.2317 66.2873 22.3326 66.1864C22.4336 66.0855 22.4903 65.9486 22.4903 65.8058C22.4903 65.6631 22.4336 65.5262 22.3326 65.4253C22.2317 65.3244 22.0948 65.2677 21.9521 65.2677Z" fill="#2E2E2E"/>
</svg>
