<svg width="82" height="66" viewBox="0 0 82 66" fill="none" xmlns="http://www.w3.org/2000/svg">
<path d="M42.8027 45.0932C42.8027 37.0882 36.2901 30.5757 28.2852 30.5757V32.2052C35.3916 32.2052 41.1731 37.9866 41.1731 45.0932H42.8027Z" fill="#2E2E2E"/>
<path d="M3.16191 44.5473H16.4573V29.0537H23.1215V35.4781C23.1215 39.5881 24.8444 43.5551 27.8484 46.3624C31.0087 49.3156 32.8212 53.3997 32.8212 57.5671V65.555H34.4507V57.5671C34.4507 52.9501 32.4498 48.4319 28.9612 45.1719C26.2857 42.6716 24.7512 39.1385 24.7512 35.4783V27.1185C24.7512 24.8947 26.5604 23.0853 28.7842 23.0853H38.6959C39.1067 23.0853 39.4411 23.4197 39.4411 23.8305C39.4411 25.8824 37.7718 27.5517 35.7199 27.5517H28.3521V29.1812H35.7199C37.1733 29.1812 38.4924 28.598 39.4577 27.6543C40.2345 28.3522 41.2503 28.7551 42.3403 28.7551C43.7839 28.7551 45.0637 28.0436 45.8496 26.9538C46.6351 28.0436 47.9142 28.7551 49.357 28.7551C51.1415 28.7551 52.6766 27.669 53.3364 26.1237H54.86V41.95C54.86 43.43 54.3922 44.8374 53.5074 46.0191C51.9052 48.1572 51.0584 50.6301 51.0584 53.1709V65.5552H52.6879V53.1709C52.6879 50.9854 53.4221 48.8502 54.8116 46.996C55.9093 45.5299 56.4895 43.7849 56.4895 41.95V26.1237H64.7456V27.4244H58.7024V29.0539H64.7456V44.5475H78.041V34.7225L81.2029 30.8338V14.2688L78.041 10.3802V0.555176H64.7456V18.9789H53.6814V14.6881C53.6814 13.5339 53.2313 12.4483 52.4151 11.632C51.6 10.8141 50.5141 10.3639 49.3572 10.3639C48.3296 10.3639 47.3853 10.7251 46.6427 11.3264C46.544 10.3354 46.1103 9.41761 45.3974 8.70731C44.5804 7.89011 43.4947 7.4402 42.3403 7.4402C40.898 7.4402 39.6195 8.15115 38.8339 9.24065C38.6983 9.05309 38.5476 8.87433 38.3806 8.70747C37.5634 7.89027 36.4785 7.44036 35.3256 7.44036C33.0902 7.44036 31.2454 9.14532 31.0238 11.3233C30.2583 10.702 29.3104 10.364 28.3089 10.364C25.9244 10.364 23.9846 12.3038 23.9846 14.6883V19.7939H25.6142V14.6883C25.6142 13.2025 26.8229 11.9935 28.3089 11.9935C29.0295 11.9935 29.7055 12.2738 30.2136 12.7835C30.7217 13.2915 31.0013 13.968 31.0013 14.6883H32.6308V11.7644C32.6308 10.2786 33.8396 9.06987 35.3256 9.06987C36.0432 9.06987 36.7188 9.35048 37.2282 9.85986C37.7376 10.3692 38.0182 11.0457 38.0182 11.7644V13.8792H39.6477V11.7644C39.6477 10.2786 40.8557 9.06987 42.3401 9.06987C43.0592 9.06987 43.7355 9.35031 44.2459 9.86084C44.7546 10.3678 45.0349 11.044 45.0349 11.7646V14.6884H46.6644C46.6644 13.2026 47.8722 11.9937 49.3568 11.9937C50.0774 11.9937 50.7535 12.274 51.2616 12.7837C51.771 13.2931 52.0516 13.9695 52.0516 14.6884V24.4331C52.0516 25.9177 50.8426 27.1257 49.3568 27.1257C47.8722 27.1257 46.6644 25.9177 46.6644 24.4331V17.9786H45.0349V24.4331C45.0349 25.9177 43.8259 27.1257 42.3401 27.1257C41.6121 27.1257 40.9371 26.8374 40.4421 26.3432C40.8426 25.5935 41.0704 24.7383 41.0704 23.8307C41.0704 22.86 40.4841 22.0243 39.6477 21.6566V16.1684H38.0182V21.4558H32.6308V17.9613H31.0013V21.4558H28.7841C26.6083 21.4558 24.7166 22.6898 23.7687 24.4942H16.4573V20.6086H21.8368V18.9791H16.4573V0.555176H3.16191V10.3802L0 14.2688V30.8337L3.16191 34.7223V44.5473ZM79.5734 14.8478V30.2549L78.041 32.1396V12.9629L79.5734 14.8478ZM66.3751 2.18469H70.5786V37.492H72.2081V2.18469H76.4115V8.37603V36.7265V42.9178H72.2081V39.8252H70.5786V42.9178H66.3751V26.1235V18.9789V2.18469ZM64.7456 20.6085V24.494H53.6798C53.6801 24.4735 53.6814 24.4533 53.6814 24.4328V20.6085H64.7456ZM23.2108 26.1235C23.1531 26.4467 23.1215 26.7788 23.1215 27.1184V27.4242H16.4573V26.1235H23.2108ZM4.79142 2.18469H8.99475V5.27734H10.6243V2.18469H14.8278V18.9789V26.1235V42.9178H10.6243V7.61064H8.99475V42.918H4.79142V36.7266V8.37603V2.18469ZM1.62951 30.2547V14.8476L3.16191 12.9631V32.1394L1.62951 30.2547Z" fill="#2E2E2E"/>
</svg>
