<svg width="89" height="71" viewBox="0 0 89 71" fill="none" xmlns="http://www.w3.org/2000/svg">
<path d="M6.92148 68.3533H3.67236V70.1403H6.92148V68.3533Z" fill="#2E2E2E"/>
<path d="M21.8505 26.9053H20.0635V29.3481H21.8505V26.9053Z" fill="#2E2E2E"/>
<path d="M20.0634 68.3531H9.28125V70.1401H20.0634H47.4495H64.0913V68.3531H47.4495H21.8504V31.5735H20.0634V68.3531Z" fill="#2E2E2E"/>
<path d="M75.2161 16.8169H31.2662L27.7238 6.46503C26.4293 2.68196 22.8728 0.140137 18.8744 0.140137H9.2813C4.16352 0.140137 0 4.30366 0 9.42143C0 14.5392 4.16352 18.7027 9.2813 18.7027C13.4202 18.7027 16.9337 15.9793 18.1271 12.2306L20.0633 17.8596V24.6647H21.8503V19.8151L72.111 68.353H66.5431V70.14H73.9616H75.2161H88.1582V68.353H75.2161V16.8169ZM30.1965 18.6039L73.4291 60.6685V67.1419L23.1684 18.6039H30.1965ZM73.4291 58.1753L32.7592 18.6039H73.4291V58.1753ZM18.8742 1.92731C22.1089 1.92731 24.9858 3.98343 26.0331 7.04366L29.3775 16.8169H21.5946L18.3042 7.25166C17.7822 5.08154 16.4968 3.20644 14.7479 1.92731H18.8742ZM9.2813 16.9159C5.14887 16.9159 1.787 13.554 1.787 9.42161C1.787 5.28919 5.14887 1.92731 9.2813 1.92731C13.4137 1.92731 16.7758 5.28919 16.7758 9.42161C16.7758 13.554 13.4137 16.9159 9.2813 16.9159Z" fill="#2E2E2E"/>
<path d="M9.28122 6.08008C7.439 6.08008 5.94043 7.57883 5.94043 9.42087C5.94043 11.2629 7.439 12.7617 9.28122 12.7617C11.1234 12.7617 12.622 11.2629 12.622 9.42087C12.622 7.57883 11.1234 6.08008 9.28122 6.08008ZM9.28122 10.9748C8.42453 10.9748 7.72742 10.2779 7.72742 9.42104C7.72742 8.56418 8.42435 7.86725 9.28122 7.86725C10.1381 7.86725 10.835 8.56418 10.835 9.42104C10.835 10.2779 10.1381 10.9748 9.28122 10.9748Z" fill="#2E2E2E"/>
<path d="M71.6453 35.6161V20.5083H56.5374V35.6161H71.6453ZM58.3243 22.2953H69.8583V33.8291H58.3243V22.2953Z" fill="#2E2E2E"/>
<path d="M67.7476 24.2178H60.4348V26.0048H67.7476V24.2178Z" fill="#2E2E2E"/>
<path d="M67.7476 27.1687H60.4348V28.9557H67.7476V27.1687Z" fill="#2E2E2E"/>
<path d="M70.7518 37.5786H64.0913V39.3656H70.7518V37.5786Z" fill="#2E2E2E"/>
<path d="M70.7518 40.8936H64.0913V42.6805H70.7518V40.8936Z" fill="#2E2E2E"/>
<path d="M49.5345 52.731L44.983 49.6697L41.9139 54.2328L43.3967 55.2303L44.7071 53.2821C45.534 56.0623 44.7899 59.1381 42.6994 61.2285C41.1401 62.788 39.0924 63.5675 37.0441 63.5673C34.9962 63.5671 32.9478 62.7875 31.3888 61.2285L30.1252 62.4921C32.033 64.3999 34.5382 65.3538 37.0441 65.3534C39.5495 65.3531 42.0558 64.3995 43.963 62.4921C46.5145 59.9406 47.4268 56.1892 46.426 52.7939L48.537 54.2138L49.5345 52.731Z" fill="#2E2E2E"/>
<path d="M23.6704 57.1538L28.2217 60.2153L31.2909 55.652L29.808 54.6549L28.4978 56.6027C27.6708 53.8227 28.4149 50.7467 30.5055 48.6563C33.624 45.5382 38.6978 45.538 41.8159 48.6563L43.0795 47.3927C39.2643 43.5777 33.0568 43.5778 29.2417 47.3927C26.6903 49.9444 25.778 53.696 26.7787 57.0911L24.6676 55.6712L23.6704 57.1538Z" fill="#2E2E2E"/>
</svg>
