<svg width="70" height="70" viewBox="0 0 70 70" fill="none" xmlns="http://www.w3.org/2000/svg">
<path d="M29.0144 41.3959C28.8147 41.5903 28.5468 41.6985 28.2681 41.6974C27.9895 41.6962 27.7224 41.5858 27.5243 41.3898C27.3263 41.1938 27.213 40.9279 27.209 40.6493C27.2049 40.3707 27.3103 40.1016 27.5026 39.8999C28.4684 38.9404 30.0054 40.4301 29.0144 41.3959ZM32.9722 39.5874C32.6909 39.5874 32.4212 39.6992 32.2223 39.898C32.0234 40.0969 31.9117 40.3667 31.9117 40.6479C31.9117 40.9292 32.0234 41.1989 32.2223 41.3978C32.4212 41.5966 32.6909 41.7084 32.9722 41.7084C33.2534 41.7084 33.5232 41.5966 33.722 41.3978C33.9209 41.1989 34.0326 40.9292 34.0326 40.6479C34.0326 40.3667 33.9209 40.0969 33.722 39.898C33.5232 39.6992 33.2534 39.5874 32.9722 39.5874ZM37.6811 39.5874C37.3999 39.5874 37.1302 39.6992 36.9313 39.898C36.7324 40.0969 36.6207 40.3667 36.6207 40.6479C36.6207 40.9292 36.7324 41.1989 36.9313 41.3978C37.1302 41.5966 37.3999 41.7084 37.6811 41.7084C37.9624 41.7084 38.2321 41.5966 38.431 41.3978C38.6299 41.1989 38.7416 40.9292 38.7416 40.6479C38.7416 40.3667 38.6299 40.0969 38.431 39.898C38.2321 39.6992 37.9624 39.5874 37.6811 39.5874ZM69.9905 9.91974V68.9395C69.9897 69.2205 69.8777 69.4898 69.679 69.6885C69.4803 69.8872 69.2111 69.9992 68.9301 70H46.6414C46.3602 70 46.0904 69.8883 45.8916 69.6894C45.6927 69.4905 45.581 69.2208 45.581 68.9395C45.581 68.6583 45.6927 68.3885 45.8916 68.1897C46.0904 67.9908 46.3602 67.8791 46.6414 67.8791H67.857V10.977H60.4274V50.5487C60.4289 50.7697 60.3612 50.9857 60.2339 51.1664C60.1065 51.3471 59.9259 51.4834 59.7173 51.5565C59.5087 51.6295 59.2825 51.6355 59.0703 51.5736C58.858 51.5118 58.6705 51.3852 58.5337 51.2115L26.3506 10.977H11.2737V50.6245C11.2737 50.9057 11.162 51.1754 10.9631 51.3743C10.7642 51.5732 10.4945 51.6849 10.2133 51.6849C8.06704 51.6849 6.00872 52.5375 4.49112 54.0551C2.97351 55.5727 2.12093 57.631 2.12093 59.7773C2.12093 61.9235 2.97351 63.9818 4.49112 65.4994C6.00872 67.017 8.06704 67.8696 10.2133 67.8696H15.5314C15.8126 67.8696 16.0823 67.9813 16.2812 68.1802C16.4801 68.3791 16.5918 68.6488 16.5918 68.9301C16.5918 69.2113 16.4801 69.481 16.2812 69.6799C16.0823 69.8788 15.8126 69.9905 15.5314 69.9905H10.2133C7.50556 69.9872 4.90972 68.9101 2.99509 66.9954C1.08045 65.0808 0.00334078 62.485 0 59.7773H0V10.2133C0.00334078 7.50556 1.08045 4.90972 2.99509 2.99509C4.90972 1.08045 7.50556 0.00334078 10.2133 0C10.4945 0 10.7642 0.111727 10.9631 0.310602C11.162 0.509478 11.2737 0.77921 11.2737 1.06046V8.85612H24.6526L18.9368 1.72325C18.8139 1.5658 18.7377 1.37699 18.7168 1.17833C18.6959 0.979673 18.7312 0.779138 18.8187 0.599559C18.9062 0.419981 19.0423 0.268574 19.2116 0.162576C19.3809 0.0565782 19.5766 0.000248522 19.7764 0L59.367 0C59.648 0.000832587 59.9172 0.112827 60.1159 0.311522C60.3146 0.510217 60.4266 0.779466 60.4274 1.06046V8.85612H68.9301C69.2113 8.85612 69.481 8.96785 69.6799 9.16673C69.8788 9.3656 69.9905 9.63533 69.9905 9.91659V9.91974ZM9.1528 2.19036C7.20795 2.44947 5.4232 3.40554 4.12995 4.88104C2.83671 6.35655 2.12285 8.25123 2.12093 10.2133V53.5534C2.965 52.4552 4.02368 51.5402 5.23257 50.8642C6.44145 50.1881 7.77525 49.7651 9.1528 49.6208V2.19036ZM58.3065 2.12093H21.9825L58.3065 47.5251V2.12093ZM37.8232 8.85612H51.9627C52.102 8.85571 52.2401 8.88285 52.369 8.936C52.4978 8.98915 52.6149 9.06724 52.7135 9.1658C52.812 9.26435 52.8901 9.38142 52.9433 9.51027C52.9964 9.63912 53.0235 9.77721 53.0231 9.91659V27.591C53.0208 27.8102 52.951 28.0235 52.8232 28.2017C52.6954 28.3798 52.5158 28.5143 52.3088 28.5867C52.1018 28.6592 51.8776 28.6661 51.6665 28.6065C51.4555 28.5469 51.268 28.4237 51.1294 28.2538L36.9899 10.5794C36.8673 10.4223 36.7912 10.2341 36.77 10.036C36.7489 9.83792 36.7837 9.63786 36.8704 9.4585C36.9571 9.27915 37.0923 9.12766 37.2607 9.02119C37.4291 8.91473 37.6239 8.85755 37.8232 8.85612ZM40.0325 10.977L50.9054 24.5674V10.977H40.0325ZM43.46 37.8232V66.1022C43.4592 67.1332 43.0493 68.1217 42.3202 68.8507C41.5912 69.5798 40.6027 69.9897 39.5717 69.9905H22.6043C21.5735 69.9889 20.5855 69.5787 19.8566 68.8498C19.1278 68.121 18.7176 67.1329 18.7159 66.1022V37.8232C18.7176 36.7921 19.1277 35.8038 19.8564 35.0744C20.5852 34.3451 21.5732 33.9342 22.6043 33.9316H39.5685C40.5998 33.9333 41.5883 34.344 42.3173 35.0735C43.0462 35.803 43.456 36.7919 43.4569 37.8232H43.46ZM30.0275 58.6789H20.8305C21.0009 69.6654 19 67.7086 30.0212 67.8696L30.0275 58.6789ZM30.0275 47.3673H20.8305V56.5612H30.0275V47.3673ZM41.3454 58.6789H32.1484V67.857H39.5685C40.0376 67.857 40.4874 67.6709 40.8194 67.3395C41.1514 67.0081 41.3383 66.5586 41.3391 66.0895L41.3454 58.6789ZM41.3454 47.3673H32.1484V56.5612H41.3454V47.3673ZM41.3454 37.8232C41.3446 37.3541 41.1577 36.9046 40.8257 36.5732C40.4937 36.2418 40.0439 36.0557 39.5748 36.0557H22.6043C22.1355 36.0557 21.686 36.2419 21.3545 36.5734C21.023 36.9049 20.8368 37.3544 20.8368 37.8232V45.2464H41.3517L41.3454 37.8232Z" fill="#2E2E2E"/>
</svg>
