<svg width="69" height="71" viewBox="0 0 69 71" fill="none" xmlns="http://www.w3.org/2000/svg">
<path d="M20.877 57.5678L19.3525 56.0972L18.2272 57.2637L19.7517 58.7343L20.877 57.5678Z" fill="#2E2E2E"/>
<path d="M0.0601079 34.4881C-0.0659773 35.0212 0.00776126 35.5988 0.267549 36.1145C0.527336 36.6302 0.947728 37.0331 1.45142 37.249C1.71218 37.3606 1.98558 37.4164 2.25461 37.4164C2.54713 37.4164 2.83463 37.3506 3.09539 37.2191L3.51027 37.0102L4.27084 38.5464L3.79502 38.7861C2.79655 39.2893 2.44017 40.604 3.00075 41.7162C3.26069 42.2319 3.68092 42.6348 4.18462 42.8507C4.44538 42.9623 4.71878 43.0181 4.9878 43.0181C5.28033 43.0181 5.56783 42.9523 5.82859 42.8209L6.27572 42.5954L7.04422 44.1477L6.56792 44.3875C5.56929 44.8907 5.21291 46.2051 5.77349 47.3176C6.03343 47.8333 6.45366 48.2359 6.95736 48.4517C7.21812 48.5637 7.49152 48.6195 7.76054 48.6195C8.05307 48.6195 8.34057 48.5537 8.60133 48.4223L9.04927 48.1965L13.5841 57.356L13.6465 57.4822L14.1457 57.9631L13.846 58.2704C13.0655 59.0708 13.1556 60.4297 14.0475 61.2995C14.5174 61.7578 15.1177 61.9902 15.6948 61.9902C16.2125 61.9902 16.7115 61.8032 17.0808 61.4246L17.3989 61.0982L19.0552 62.6942L18.7214 63.036C17.9401 63.8363 18.0294 65.195 18.9205 66.0651C19.3336 66.4686 19.8621 66.7134 20.4084 66.7542C20.4613 66.7579 20.5138 66.7599 20.5663 66.7599C21.0983 66.7599 21.5973 66.5576 21.9539 66.1923L22.3086 65.8293L22.3761 65.8941C22.989 66.4848 23.7017 66.938 24.474 67.2407L24.4766 68.0972C24.477 68.2343 24.4931 68.3685 24.5224 68.498H8.23701V70.1186H26.7334C26.736 70.1186 26.7385 70.1186 26.7411 70.1186H45.8542V68.498H28.9477C28.9787 68.3625 28.9946 68.224 28.9941 68.0839L28.9929 67.6788H33.234C34.2686 67.6788 35.1102 66.8372 35.1102 65.8027V64.6629C35.1102 61.2852 32.9925 58.7692 29.9825 58.4335L28.7367 50.9002H30.4484V49.2796H28.915L29.1393 47.4427H30.9346V45.8221H29.337L29.5613 43.9856H31.2048V42.365H29.7592L29.9833 40.5281H31.637V38.9075H30.1812L30.7191 34.4994C30.782 33.9855 30.7179 33.4731 30.5442 33.0014L58.3011 10.4046L57.278 9.14785L42.7006 21.0156L34.9891 11.314L46.3877 1.33867L45.3203 0.119141L22.0236 20.507L21.9845 20.4563C21.5563 19.9012 20.7906 19.7251 20.1634 20.0378L3.51821 28.3366C1.75075 29.1061 0.876258 31.1491 1.52046 32.9536L1.06231 33.1846C0.561855 33.4367 0.196565 33.9119 0.0601079 34.4881ZM2.36611 35.7721C2.26741 35.822 2.15056 35.7855 2.09011 35.7594C1.93875 35.6946 1.80213 35.5582 1.71494 35.3852C1.62791 35.2123 1.59955 35.0212 1.63731 34.8611C1.65254 34.7968 1.69289 34.6816 1.79159 34.6316L2.22462 34.4135L2.79104 35.5578L2.36611 35.7721ZM5.09914 41.3735C5.00028 41.4232 4.88392 41.3871 4.82315 41.3612C4.67178 41.2963 4.53516 41.1599 4.44797 40.9869C4.28348 40.6606 4.35284 40.3201 4.52463 40.2334L4.99007 39.9992L5.55648 41.1432L5.09914 41.3735ZM7.87172 46.975C7.77302 47.0251 7.65617 46.9886 7.59572 46.9627C7.44436 46.8979 7.30774 46.7614 7.22055 46.5885C7.05605 46.2621 7.12542 45.9216 7.2972 45.8349L7.7633 45.6001L8.32987 46.7444L7.87172 46.975ZM8.61413 43.666L8.71769 43.0022C9.48943 38.0599 8.90147 33.0259 7.02542 28.399L10.9159 26.4594C11.0934 29.7268 11.8115 32.916 13.0607 35.9609L13.4049 36.7996C16.0326 43.2041 16.6987 50.1178 15.3524 56.8756L14.9738 56.5107L8.61413 43.666ZM15.9201 60.2934C15.7854 60.4311 15.4399 60.3944 15.1787 60.1396C14.9171 59.8845 14.8717 59.5398 15.0062 59.402L15.3125 59.088L16.2318 59.974L15.9201 60.2934ZM20.794 65.0606C20.7169 65.1397 20.5945 65.1433 20.5289 65.1384C20.3647 65.1261 20.1911 65.0415 20.0526 64.906C19.7911 64.6509 19.7461 64.3062 19.8804 64.1685L20.2217 63.8191L21.1413 64.7051L20.794 65.0606ZM27.3736 68.0891C27.3739 68.1996 27.2893 68.2876 27.2389 68.3303C27.1133 68.4366 26.9302 68.4977 26.7364 68.4983C26.7354 68.4983 26.7344 68.4983 26.7334 68.4983C26.3696 68.4983 26.0974 68.2847 26.0967 68.0928L26.0954 67.6392C26.328 67.6645 26.5625 67.6791 26.7994 67.6791H27.3723L27.3736 68.0891ZM22.6033 23.9494C22.9613 23.7348 23.2117 23.3776 23.2911 22.9675C23.371 22.5547 23.2702 22.1272 23.0146 21.7935L30.3698 15.3565L37.9247 24.9038L29.6141 31.6695C28.8255 30.9974 27.7608 30.7459 26.7537 30.9982L25.7374 31.2528C23.802 31.7375 21.785 30.7063 21.0445 28.8542C20.1866 26.7082 20.6817 25.1493 22.6033 23.9494ZM41.4439 22.0388L39.1817 23.8805L31.591 14.288L33.7683 12.3826L41.4439 22.0388ZM20.7762 21.5434L21.6283 22.649C19.1638 24.2474 18.4219 26.6594 19.5398 29.4558C20.5799 32.0574 23.4133 33.5056 26.1314 32.825L27.1477 32.5704C27.6624 32.4414 28.1867 32.5687 28.585 32.9204C28.9834 33.2721 29.1749 33.7763 29.1106 34.3036L28.5486 38.9082H25.9649V40.5288H28.3508L28.1267 42.3656H25.9649V43.9863H27.9288L27.7047 45.8228H25.9649V47.4434H27.507L27.2828 49.2802H25.9649V50.9008H27.0947L28.6019 60.0166H29.2892C31.1075 60.0166 32.5531 61.1076 33.1683 62.782H27.7483C26.9013 62.782 26.0768 62.4868 25.4225 61.9495L22.1616 58.8039L21.0364 59.9702L24.3195 63.1371L24.3633 63.1763C25.3117 63.967 26.5139 64.4025 27.7485 64.4025H33.4844C33.4881 64.4886 33.4902 64.5756 33.4902 64.6633V65.803C33.4902 65.9439 33.3756 66.0585 33.2346 66.0585H26.8001C25.5632 66.0585 24.3915 65.5856 23.5009 64.7274L16.726 58.199C18.4117 50.8093 17.785 43.2045 14.9048 36.1844L14.5606 35.3457C13.2911 32.2516 12.6017 28.9995 12.5049 25.6674L20.7762 21.5434ZM4.17813 29.8171L4.20018 29.8077L5.57139 29.1241C7.08847 32.918 7.68599 36.9987 7.32249 41.0576L3.06298 32.4543C2.66868 31.4281 3.16443 30.2499 4.17813 29.8171Z" fill="#2E2E2E"/>
<path d="M22.8673 50.5101L24.5966 56.521L26.1538 56.0728L24.4797 50.2531L23.9162 34.5706L22.2964 34.6287L22.8636 50.4106L22.8673 50.5101Z" fill="#2E2E2E"/>
<path d="M42.3268 36.2246C35.5071 40.8032 33.6837 50.077 38.2625 56.8969C41.1342 61.1743 45.8514 63.4861 50.6532 63.4854C53.5073 63.4854 56.3922 62.6682 58.9348 60.9612C65.7545 56.3822 67.5779 47.1088 62.9991 40.2888C58.4205 33.4692 49.1468 31.6459 42.3268 36.2246ZM61.6535 41.1924C62.0903 41.8432 62.4579 42.5198 62.7655 43.2128L60.099 42.236L60.2045 39.3949C60.7301 39.9424 61.2163 40.5412 61.6535 41.1924ZM58.6346 38.0007L58.4729 42.3518L53.8544 45.4525L49.5315 43.8687L45.847 39.7925L47.3362 35.7316C48.4151 35.4564 49.5152 35.3205 50.6107 35.3205C53.4763 35.3203 56.3079 36.2457 58.6346 38.0007ZM49.8053 45.6946L53.1319 46.9135L53.0007 50.4543L49.5776 49.2999L49.8053 45.6946ZM43.2302 37.5702C43.9159 37.1097 44.6301 36.723 45.3625 36.406L44.3593 39.1414L41.4217 39.0329C41.9727 38.5028 42.5738 38.0109 43.2302 37.5702ZM40.0304 40.6033L44.5463 40.77L48.2345 44.8504L47.9464 49.4192L41.9883 53.4192L37.7672 51.873C36.7789 47.9815 37.6149 43.8144 40.0304 40.6033ZM39.6081 55.9936C39.1444 55.3029 38.7582 54.5832 38.4401 53.8453L41.2657 54.8807L41.154 57.8922C40.5881 57.3128 40.069 56.6801 39.6081 55.9936ZM48.0696 61.6201C46.1028 61.2333 44.288 60.4265 42.7246 59.2665L42.8918 54.7648L48.8497 50.7648L53.1877 52.2274L55.5681 57.1859L54.0097 61.4368C52.0925 61.9428 50.0714 62.0136 48.0696 61.6201ZM58.0313 59.6155C57.3786 60.0539 56.6954 60.4262 55.9912 60.7386L57.0041 57.9756L59.9122 58.0826C59.342 58.6401 58.7166 59.1556 58.0313 59.6155ZM61.2853 56.5114L56.9652 56.3526L54.5873 51.3986L54.7577 46.7981L59.3762 43.6974L63.462 45.1939C64.4906 49.0903 63.6842 53.2774 61.2853 56.5114Z" fill="#2E2E2E"/>
<path d="M68.6777 68.4985H55.9287V70.1192H68.6777V68.4985Z" fill="#2E2E2E"/>
<path d="M52.6875 68.4985H49.0647V70.1192H52.6875V68.4985Z" fill="#2E2E2E"/>
<path d="M5.04753 68.4985H0.810547V70.1192H5.04753V68.4985Z" fill="#2E2E2E"/>
</svg>
