<svg width="69" height="73" viewBox="0 0 69 73" fill="none" xmlns="http://www.w3.org/2000/svg">
<path d="M40.4494 13.0548H32.6926C30.4543 13.0548 28.6387 14.875 28.6387 17.1242V20.9221V21.6721H29.3887H35.2555C36.8938 21.6721 38.3361 22.5569 39.1177 23.8816L39.3353 24.2504H39.7636H44.1174H57.6573C57.8452 24.2504 57.988 24.3933 57.988 24.5812C57.988 24.7691 57.8452 24.9119 57.6573 24.9119H54.8474H54.0974V25.6619V27.1903C54.0974 27.3782 53.9546 27.5211 53.7667 27.5211C53.5788 27.5211 53.436 27.3782 53.436 27.1903V25.6619V24.9119H52.686H40.6591L40.6388 24.9119L40.6274 24.9118L40.5661 24.8965H40.4738H40.4584H39.6371L39.7114 25.7144C39.7274 25.89 39.7392 26.0258 39.7392 26.1559V33.088V33.838H40.4892H48.0234C50.8372 33.838 53.1402 36.1281 53.1402 38.9548V67.7947C53.1402 69.0187 52.7111 70.134 51.982 71.0251L50.9798 72.25H52.5625H63.3388C65.5748 72.25 67.3927 70.4321 67.3927 68.1961L67.3928 17.0933L67.3927 17.0869C67.3738 14.8571 65.5606 13.0394 63.3234 13.0394H56.2304V7.45909C57.6129 7.01511 58.6235 5.7297 58.6235 4.18637C58.6235 2.29002 57.0834 0.75 55.1871 0.75H41.6626C39.7663 0.75 38.2262 2.29002 38.2262 4.18637C38.2262 5.6629 39.1509 6.91121 40.4494 7.40748V13.0548ZM44.1109 13.0394V7.62274H52.569V13.0394H44.1109Z" stroke="#2E2E2E" stroke-width="1.5"/>
<path d="M10.8928 72.2191H11.6428V71.4691V35.2185V34.4685H10.8928H5.70534C3.23775 34.4685 1.25 36.4563 1.25 38.9238V67.7637C1.25 70.2313 3.23775 72.2191 5.70534 72.2191H10.8928Z" stroke="#2E2E2E" stroke-width="1.5"/>
<path d="M42.8206 34.4685H42.0706V35.2185V71.4536V72.2036H42.8206H48.008C50.4581 72.2036 52.4634 70.2179 52.4634 67.7483V38.9238C52.4634 36.4542 50.4581 34.4685 48.008 34.4685H42.8206Z" stroke="#2E2E2E" stroke-width="1.5"/>
<path d="M32.3927 35.2185V34.4685H31.6427H22.0552H21.3052V35.2185V71.4536V72.2036H22.0552H31.6427H32.3927V71.4536V35.2185Z" stroke="#2E2E2E" stroke-width="1.5"/>
<path d="M19.8936 34.4686H18.2969V26.1251C18.2969 26.072 18.3163 26.0343 18.3416 26.0089C18.367 25.9835 18.4048 25.9642 18.4578 25.9642H35.2399C35.293 25.9642 35.3307 25.9835 35.3561 26.0089C35.3814 26.0343 35.4008 26.072 35.4008 26.1251V34.4686H33.8041H33.0541V35.2186V71.4537V72.2037H33.8041H40.6435H41.3935V71.4537V35.2186V34.4686H40.6435H39.0623V26.1251C39.0623 24.0126 37.3524 22.3027 35.2399 22.3027H18.4733C16.3608 22.3027 14.6509 24.0126 14.6509 26.1251V34.4686H13.0542H12.3042V35.2186V71.4537V72.2037H13.0542H19.8936H20.6436V71.4537V35.2186V34.4686H19.8936Z" stroke="#2E2E2E" stroke-width="1.5"/>
</svg>
