<svg width="35" height="30" viewBox="0 0 35 30" fill="none" xmlns="http://www.w3.org/2000/svg">
<path d="M31.0714 0.000366211L22.5 0.000366211C20.7254 0.000366211 19.2857 1.4401 19.2857 3.21465V11.7861C19.2857 13.5606 20.7254 15.0004 22.5 15.0004H27.8571V19.2861C27.8571 21.6499 25.9353 23.5718 23.5714 23.5718H23.0357C22.1451 23.5718 21.4286 24.2883 21.4286 25.1789V28.3932C21.4286 29.2838 22.1451 30.0004 23.0357 30.0004H23.5714C29.4911 30.0004 34.2857 25.2057 34.2857 19.2861V3.21465C34.2857 1.4401 32.846 0.000366211 31.0714 0.000366211ZM11.7857 0.000366211L3.21429 0.000366211C1.43973 0.000366211 0 1.4401 0 3.21465L0 11.7861C0 13.5606 1.43973 15.0004 3.21429 15.0004L8.57143 15.0004V19.2861C8.57143 21.6499 6.64955 23.5718 4.28571 23.5718H3.75C2.85938 23.5718 2.14286 24.2883 2.14286 25.1789L2.14286 28.3932C2.14286 29.2838 2.85938 30.0004 3.75 30.0004H4.28571C10.2054 30.0004 15 25.2057 15 19.2861L15 3.21465C15 1.4401 13.5603 0.000366211 11.7857 0.000366211Z" fill="url(#paint0_linear_407_3981)"/>
<defs>
<linearGradient id="paint0_linear_407_3981" x1="17.1429" y1="0.000366211" x2="17.1429" y2="30.0004" gradientUnits="userSpaceOnUse">
<stop stop-color="#EE3F59"/>
<stop offset="1" stop-color="#F0562D"/>
</linearGradient>
</defs>
</svg>
