<svg width="35" height="31" viewBox="0 0 35 31" fill="none" xmlns="http://www.w3.org/2000/svg">
<path d="M3.92857 30.7504L12.5 30.7504C14.2746 30.7504 15.7143 29.3106 15.7143 27.5361L15.7143 18.9647C15.7143 17.1901 14.2746 15.7504 12.5 15.7504L7.14286 15.7504L7.14286 11.4647C7.14286 9.10081 9.06473 7.17894 11.4286 7.17894L11.9643 7.17894C12.8549 7.17894 13.5714 6.46242 13.5714 5.57179L13.5714 2.35751C13.5714 1.46688 12.8549 0.750364 11.9643 0.750364L11.4286 0.750364C5.50893 0.750364 0.714285 5.54501 0.714285 11.4647L0.714283 27.5361C0.714283 29.3106 2.15401 30.7504 3.92857 30.7504ZM23.2143 30.7504L31.7857 30.7504C33.5603 30.7504 35 29.3106 35 27.5361L35 18.9647C35 17.1901 33.5603 15.7504 31.7857 15.7504L26.4286 15.7504L26.4286 11.4647C26.4286 9.10081 28.3504 7.17894 30.7143 7.17894L31.25 7.17894C32.1406 7.17894 32.8571 6.46242 32.8571 5.5718L32.8571 2.35751C32.8571 1.46688 32.1406 0.750366 31.25 0.750366L30.7143 0.750366C24.7946 0.750365 20 5.54501 20 11.4647L20 27.5361C20 29.3106 21.4397 30.7504 23.2143 30.7504Z" fill="url(#paint0_linear_407_3980)"/>
<defs>
<linearGradient id="paint0_linear_407_3980" x1="17.8571" y1="30.7504" x2="17.8571" y2="0.750365" gradientUnits="userSpaceOnUse">
<stop stop-color="#EE3F59"/>
<stop offset="1" stop-color="#F0562D"/>
</linearGradient>
</defs>
</svg>
