<svg width="31" height="29" viewBox="0 0 31 29" fill="none" xmlns="http://www.w3.org/2000/svg">
<path d="M18.5242 14.7318L29.2654 4.847C29.7357 4.41311 30 3.82465 30 3.21105C30 2.59744 29.7357 2.00898 29.2654 1.57509C28.795 1.14121 28.157 0.897461 27.4918 0.897461C26.8266 0.897461 26.1887 1.14121 25.7183 1.57509L15.0021 11.483L4.28596 1.57509C3.81559 1.14121 3.17763 0.897461 2.51243 0.897461C1.84722 0.897461 1.20926 1.14121 0.738887 1.57509C0.268515 2.00898 0.00426299 2.59744 0.00426299 3.21105C0.00426298 3.82465 0.268515 4.41311 0.738887 4.847L11.48 14.7318L0.738887 24.6167C0.504759 24.8309 0.318927 25.0857 0.19211 25.3665C0.0652924 25.6473 0 25.9484 0 26.2526C0 26.5568 0.0652924 26.8579 0.19211 27.1387C0.318927 27.4195 0.504759 27.6744 0.738887 27.8886C0.971103 28.1045 1.24738 28.2759 1.55177 28.3929C1.85617 28.5099 2.18267 28.5701 2.51243 28.5701C2.84218 28.5701 3.16868 28.5099 3.47308 28.3929C3.77747 28.2759 4.05375 28.1045 4.28596 27.8886L15.0021 17.9807L25.7183 27.8886C25.9505 28.1045 26.2268 28.2759 26.5312 28.3929C26.8356 28.5099 27.1621 28.5701 27.4918 28.5701C27.8216 28.5701 28.1481 28.5099 28.4525 28.3929C28.7569 28.2759 29.0332 28.1045 29.2654 27.8886C29.4995 27.6744 29.6853 27.4195 29.8122 27.1387C29.939 26.8579 30.0043 26.5568 30.0043 26.2526C30.0043 25.9484 29.939 25.6473 29.8122 25.3665C29.6853 25.0857 29.4995 24.8309 29.2654 24.6167L18.5242 14.7318Z" fill="#EE3F59"/>
</svg>
