<svg width="9" height="16" viewBox="0 0 9 16" fill="none" xmlns="http://www.w3.org/2000/svg">
<path d="M6.53636 7.29375L3.16136 6.30625C2.77074 6.19375 2.49886 5.82812 2.49886 5.42188C2.49886 4.9125 2.91136 4.5 3.42074 4.5H5.49261C5.87386 4.5 6.24886 4.61562 6.56136 4.82812C6.75199 4.95625 7.00824 4.925 7.17074 4.76562L8.25824 3.70312C8.48011 3.4875 8.44886 3.12812 8.20199 2.9375C7.43636 2.3375 6.48011 2.00312 5.49886 2V0.5C5.49886 0.225 5.27386 0 4.99886 0H3.99886C3.72386 0 3.49886 0.225 3.49886 0.5V2H3.42074C1.43011 2 -0.169888 3.70938 0.0144865 5.7375C0.145737 7.17813 1.24574 8.35 2.63324 8.75625L5.83636 9.69375C6.22699 9.80938 6.49886 10.1719 6.49886 10.5781C6.49886 11.0875 6.08636 11.5 5.57699 11.5H3.50511C3.12386 11.5 2.74886 11.3844 2.43636 11.1719C2.24574 11.0437 1.98949 11.075 1.82699 11.2344L0.739487 12.2969C0.517612 12.5125 0.548862 12.8719 0.795736 13.0625C1.56136 13.6625 2.51761 13.9969 3.49886 14V15.5C3.49886 15.775 3.72386 16 3.99886 16H4.99886C5.27386 16 5.49886 15.775 5.49886 15.5V13.9937C6.95511 13.9656 8.32074 13.1 8.80199 11.7219C9.47386 9.79688 8.34574 7.82187 6.53636 7.29375Z" fill="#EE3F59"/>
</svg>
