<svg width="21" height="16" viewBox="0 0 21 16" fill="none" xmlns="http://www.w3.org/2000/svg">
<path d="M14.8571 5.71429C14.8571 2.55714 11.5321 0 7.42857 0C3.325 0 0 2.55714 0 5.71429C0 6.93929 0.503572 8.06786 1.35714 9C0.878572 10.0786 0.0892857 10.9357 0.0785714 10.9464C0 11.0286 -0.0214286 11.15 0.025 11.2571C0.0714286 11.3643 0.171429 11.4286 0.285714 11.4286C1.59286 11.4286 2.675 10.9893 3.45357 10.5357C4.60357 11.0964 5.96429 11.4286 7.42857 11.4286C11.5321 11.4286 14.8571 8.87143 14.8571 5.71429ZM19.2143 13.5714C20.0679 12.6429 20.5714 11.5107 20.5714 10.2857C20.5714 7.89643 18.6607 5.85 15.9536 4.99643C15.9857 5.23214 16 5.47143 16 5.71429C16 9.49643 12.1536 12.5714 7.42857 12.5714C7.04286 12.5714 6.66786 12.5429 6.29643 12.5036C7.42143 14.5571 10.0643 16 13.1429 16C14.6071 16 15.9679 15.6714 17.1179 15.1071C17.8964 15.5607 18.9786 16 20.2857 16C20.4 16 20.5036 15.9321 20.5464 15.8286C20.5929 15.725 20.5714 15.6036 20.4929 15.5179C20.4821 15.5071 19.6929 14.6536 19.2143 13.5714Z" fill="#EE3F59"/>
</svg>
