<svg width="120" height="120" viewBox="0 0 120 120" fill="none" xmlns="http://www.w3.org/2000/svg">
<circle cx="60.001" cy="60" r="60" fill="white" fill-opacity="0.15"/>
<circle cx="60.001" cy="60" r="59.5" stroke="#EE3F59" stroke-opacity="0.2"/>
<path d="M81.273 84L87.1213 83.9451C88.3942 83.9394 89.6134 83.4312 90.5135 82.5311C91.4136 81.631 91.9218 80.4118 91.9275 79.1389V40.8062C91.9218 39.5332 91.4136 38.3141 90.5135 37.414C89.6134 36.5139 88.3942 36.0057 87.1213 36L81.273 36.0549M38.6552 36L32.5289 36.0549C29.8852 36.0549 28.0007 38.2191 28.0007 40.8611V79.1955C28.0007 81.8375 29.8852 84 32.5289 84L38.6552 83.9451M81.273 49.3181V70.627M70.6186 43.9908V75.9542M59.9641 46.6545V73.2906M49.3097 43.9908V75.9542M38.6552 49.3181V70.627" stroke="#EE3F59" stroke-width="2" stroke-linecap="round" stroke-linejoin="round"/>
</svg>
