<svg width="70" height="70" viewBox="0 0 70 70" fill="none" xmlns="http://www.w3.org/2000/svg">
<circle cx="35" cy="35" r="35" fill="#EE3F59" fill-opacity="0.15"/>
<path d="M47.3761 27.3C47.1197 30.8586 44.4798 33.6 41.6011 33.6C38.7223 33.6 36.0781 30.8595 35.8261 27.3C35.5636 23.5979 38.1334 21 41.6011 21C45.0687 21 47.6386 23.6653 47.3761 27.3Z" stroke="#EE3F59" stroke-width="2" stroke-linecap="round" stroke-linejoin="round"/>
<path d="M41.6011 39.2002C35.8987 39.2002 30.4151 42.0326 29.0414 47.5486C28.8594 48.2783 29.317 49.0002 30.0669 49.0002H53.1362C53.8861 49.0002 54.3411 48.2783 54.1617 47.5486C52.788 41.9442 47.3044 39.2002 41.6011 39.2002Z" stroke="#EE3F59" stroke-width="2" stroke-miterlimit="10"/>
<path d="M29.7011 28.8696C29.4964 31.7116 27.3631 33.9498 25.0636 33.9498C22.7641 33.9498 20.6274 31.7124 20.4261 28.8696C20.217 25.9129 22.2934 23.7998 25.0636 23.7998C27.8339 23.7998 29.9103 25.9672 29.7011 28.8696Z" stroke="#EE3F59" stroke-width="2" stroke-linecap="round" stroke-linejoin="round"/>
<path d="M30.2259 39.3749C28.6465 38.6513 26.907 38.373 25.0634 38.373C20.5134 38.373 16.1296 40.6349 15.0315 45.0405C14.8871 45.6233 15.2529 46.1999 15.8514 46.1999H25.6759" stroke="#EE3F59" stroke-width="2" stroke-miterlimit="10" stroke-linecap="round"/>
</svg>
