<svg width="120" height="120" viewBox="0 0 120 120" fill="none" xmlns="http://www.w3.org/2000/svg">
<circle cx="60" cy="60" r="60" fill="white"/>
<circle cx="60" cy="60" r="59.5" stroke="#EE3F59" stroke-opacity="0.2"/>
<path d="M69.4288 62.5714L78.8574 53.1428M57.4288 55.7143L64.2859 62.5714M41.1431 66.8571L52.2859 55.7143" stroke="#EE3F59" stroke-width="2" stroke-linecap="round" stroke-linejoin="round"/>
<path d="M81.4284 53.1429C82.8485 53.1429 83.9998 51.9916 83.9998 50.5714C83.9998 49.1513 82.8485 48 81.4284 48C80.0082 48 78.8569 49.1513 78.8569 50.5714C78.8569 51.9916 80.0082 53.1429 81.4284 53.1429Z" stroke="#EE3F59" stroke-width="2" stroke-linecap="round" stroke-linejoin="round"/>
<path d="M66.8571 67.7144C68.2772 67.7144 69.4285 66.5631 69.4285 65.143C69.4285 63.7228 68.2772 62.5715 66.8571 62.5715C65.4369 62.5715 64.2856 63.7228 64.2856 65.143C64.2856 66.5631 65.4369 67.7144 66.8571 67.7144Z" stroke="#EE3F59" stroke-width="2" stroke-linecap="round" stroke-linejoin="round"/>
<path d="M54.8571 55.7144C56.2772 55.7144 57.4285 54.5631 57.4285 53.143C57.4285 51.7228 56.2772 50.5715 54.8571 50.5715C53.4369 50.5715 52.2856 51.7228 52.2856 53.143C52.2856 54.5631 53.4369 55.7144 54.8571 55.7144Z" stroke="#EE3F59" stroke-width="2" stroke-linecap="round" stroke-linejoin="round"/>
<path d="M38.5714 72C39.9916 72 41.1429 70.8488 41.1429 69.4286C41.1429 68.0084 39.9916 66.8572 38.5714 66.8572C37.1513 66.8572 36 68.0084 36 69.4286C36 70.8488 37.1513 72 38.5714 72Z" stroke="#EE3F59" stroke-width="2" stroke-linecap="round" stroke-linejoin="round"/>
</svg>
