<svg width="120" height="120" viewBox="0 0 120 120" fill="none" xmlns="http://www.w3.org/2000/svg">
<circle cx="60.001" cy="60" r="60" fill="white" fill-opacity="0.15"/>
<circle cx="60.001" cy="60" r="59.5" stroke="#EE3F59" stroke-opacity="0.2"/>
<path d="M82.3127 69.8501V50.1452C82.3119 49.5002 82.1422 48.8667 81.8205 48.3077C81.4988 47.7488 81.0363 47.2838 80.479 46.9591L62.9389 36.7512C62.0938 36.2592 61.1334 36 60.1555 36C59.1777 36 58.2173 36.2592 57.3722 36.7512L39.8344 46.9591C39.2771 47.2838 38.8146 47.7488 38.4929 48.3077C38.1712 48.8667 38.0015 49.5002 38.0007 50.1452V69.8501C38.0011 70.4955 38.1706 71.1294 38.4923 71.6888C38.8141 72.2483 39.2768 72.7136 39.8344 73.0385L57.3745 83.2464C58.2198 83.7377 59.1801 83.9965 60.1578 83.9965C61.1356 83.9965 62.0959 83.7377 62.9412 83.2464L80.4813 73.0385C81.0385 72.7133 81.5007 72.2479 81.822 71.6885C82.1434 71.129 82.3125 70.4952 82.3127 69.8501Z" stroke="#EE3F59" stroke-width="2" stroke-linecap="round" stroke-linejoin="round"/>
<path d="M38.5767 48.2273L60.1556 60.9208L81.7346 48.2273M60.1556 83.9999V60.9208" stroke="#EE3F59" stroke-width="2" stroke-linecap="round" stroke-linejoin="round"/>
</svg>
