<svg width="120" height="120" viewBox="0 0 120 120" fill="none" xmlns="http://www.w3.org/2000/svg">
<circle cx="60" cy="60" r="60" fill="white" fill-opacity="0.15"/>
<circle cx="60" cy="60" r="59.5" stroke="#EE3F59" stroke-opacity="0.2"/>
<path d="M31.1817 70.9092L87.909 70.9092C89.114 70.9092 90.0908 69.9323 90.0908 68.7274V38.1819C90.0908 36.9769 89.114 36.0001 87.909 36.0001L31.1817 36.0001C29.9767 36.0001 28.9999 36.9769 28.9999 38.1819L28.9999 68.7274C28.9999 69.9323 29.9767 70.9092 31.1817 70.9092Z" stroke="#EE3F59" stroke-width="2" stroke-linejoin="round"/>
<path d="M33.3635 77.4546H85.7272M37.7272 84H81.3635" stroke="#EE3F59" stroke-width="2" stroke-linecap="round" stroke-linejoin="round"/>
<path d="M59.5456 64.3636C65.5705 64.3636 70.4547 59.4794 70.4547 53.4545C70.4547 47.4296 65.5705 42.5454 59.5456 42.5454C53.5206 42.5454 48.6365 47.4296 48.6365 53.4545C48.6365 59.4794 53.5206 64.3636 59.5456 64.3636Z" stroke="#EE3F59" stroke-width="2" stroke-linecap="round" stroke-linejoin="round"/>
<path d="M90.0909 46.9091C87.1976 46.9091 84.4229 45.7597 82.377 43.7139C80.3312 41.668 79.1818 38.8933 79.1818 36M29 46.9091C30.4326 46.9091 31.8512 46.6269 33.1747 46.0787C34.4983 45.5305 35.7009 44.7269 36.7139 43.7139C37.7269 42.7009 38.5305 41.4983 39.0787 40.1747C39.6269 38.8512 39.9091 37.4326 39.9091 36M90.0909 60C87.1976 60 84.4229 61.1493 82.377 63.1952C80.3312 65.2411 79.1818 68.0158 79.1818 70.9091M29 60C30.4326 60 31.8512 60.2822 33.1747 60.8304C34.4983 61.3786 35.7009 62.1822 36.7139 63.1952C37.7269 64.2082 38.5305 65.4108 39.0787 66.7344C39.6269 68.0579 39.9091 69.4765 39.9091 70.9091" stroke="#EE3F59" stroke-width="2" stroke-linecap="round" stroke-linejoin="round"/>
</svg>
