<svg width="121" height="120" viewBox="0 0 121 120" fill="none" xmlns="http://www.w3.org/2000/svg">
<circle cx="60.0015" cy="60" r="60" fill="white" fill-opacity="0.15"/>
<circle cx="60.0015" cy="60" r="59.5" stroke="#EE3F59" stroke-opacity="0.2"/>
<path d="M36.0015 36V82.2857C36.0015 82.7404 36.1821 83.1764 36.5036 83.4979C36.8251 83.8194 37.2611 84 37.7158 84H84.0015" stroke="#EE3F59" stroke-width="2" stroke-linecap="round" stroke-linejoin="round"/>
<path d="M49.2855 56.5713H44.9998C43.8163 56.5713 42.8569 57.5307 42.8569 58.7141V74.9999C42.8569 76.1833 43.8163 77.1427 44.9998 77.1427H49.2855C50.469 77.1427 51.4284 76.1833 51.4284 74.9999V58.7141C51.4284 57.5307 50.469 56.5713 49.2855 56.5713Z" stroke="#EE3F59" stroke-width="2" stroke-linecap="round" stroke-linejoin="round"/>
<path d="M64.7152 51.4287H60.4295C59.246 51.4287 58.2866 52.3881 58.2866 53.5716V75.0001C58.2866 76.1836 59.246 77.143 60.4295 77.143H64.7152C65.8987 77.143 66.858 76.1836 66.858 75.0001V53.5716C66.858 52.3881 65.8987 51.4287 64.7152 51.4287Z" stroke="#EE3F59" stroke-width="2" stroke-linecap="round" stroke-linejoin="round"/>
<path d="M80.1058 44.5713H75.8201C74.6366 44.5713 73.6772 45.5307 73.6772 46.7141V74.9999C73.6772 76.1833 74.6366 77.1427 75.8201 77.1427H80.1058C81.2893 77.1427 82.2487 76.1833 82.2487 74.9999V46.7141C82.2487 45.5307 81.2893 44.5713 80.1058 44.5713Z" stroke="#EE3F59" stroke-width="2" stroke-linecap="round" stroke-linejoin="round"/>
</svg>
