<svg width="70" height="70" viewBox="0 0 70 70" fill="none" xmlns="http://www.w3.org/2000/svg">
<circle cx="35" cy="35" r="35" fill="#EE3F59" fill-opacity="0.15"/>
<path d="M18.2728 41.3638L51.3637 41.3638C52.0667 41.3638 52.6365 40.794 52.6365 40.091V22.2729C52.6365 21.57 52.0667 21.0001 51.3637 21.0001L18.2728 21.0001C17.5699 21.0001 17.0001 21.57 17.0001 22.2729V40.091C17.0001 40.794 17.5699 41.3638 18.2728 41.3638Z" stroke="#EE3F59" stroke-width="2" stroke-linejoin="round"/>
<path d="M19.5454 45.1816H50.0909M22.0909 48.9998H47.5454" stroke="#EE3F59" stroke-width="2" stroke-linecap="round" stroke-linejoin="round"/>
<path d="M34.8182 37.5456C38.3328 37.5456 41.1819 34.6965 41.1819 31.182C41.1819 27.6675 38.3328 24.8184 34.8182 24.8184C31.3037 24.8184 28.4546 27.6675 28.4546 31.182C28.4546 34.6965 31.3037 37.5456 34.8182 37.5456Z" stroke="#EE3F59" stroke-width="2" stroke-linecap="round" stroke-linejoin="round"/>
<path d="M52.6364 27.3636C50.9486 27.3636 49.33 26.6932 48.1366 25.4998C46.9432 24.3064 46.2727 22.6877 46.2727 21M17 27.3636C17.8357 27.3636 18.6632 27.199 19.4353 26.8792C20.2073 26.5594 20.9089 26.0907 21.4998 25.4998C22.0907 24.9089 22.5594 24.2073 22.8792 23.4353C23.199 22.6632 23.3636 21.8357 23.3636 21M52.6364 35C50.9486 35 49.33 35.6705 48.1366 36.8639C46.9432 38.0573 46.2727 39.6759 46.2727 41.3636M17 35C17.8357 35 18.6632 35.1646 19.4353 35.4844C20.2073 35.8042 20.9089 36.2729 21.4998 36.8639C22.0907 37.4548 22.5594 38.1563 22.8792 38.9284C23.199 39.7004 23.3636 40.528 23.3636 41.3636" stroke="#EE3F59" stroke-width="2" stroke-linecap="round" stroke-linejoin="round"/>
</svg>
