<svg width="70" height="70" viewBox="0 0 70 70" fill="none" xmlns="http://www.w3.org/2000/svg">
<circle cx="35" cy="35" r="35" fill="#EE3F59" fill-opacity="0.15"/>
<path d="M47.8486 40.7459V29.2514C47.8482 28.8751 47.7492 28.5056 47.5615 28.1795C47.3739 27.8534 47.1041 27.5822 46.779 27.3928L36.5473 21.4382C36.0543 21.1512 35.4941 21 34.9236 21C34.3532 21 33.793 21.1512 33.3 21.4382L23.0696 27.3928C22.7446 27.5822 22.4748 27.8534 22.2871 28.1795C22.0994 28.5056 22.0005 28.8751 22 29.2514V40.7459C22.0002 41.1224 22.0991 41.4922 22.2868 41.8185C22.4744 42.1448 22.7444 42.4163 23.0696 42.6058L33.3014 48.5604C33.7945 48.847 34.3547 48.998 34.925 48.998C35.4953 48.998 36.0555 48.847 36.5486 48.5604L46.7804 42.6058C47.1054 42.4161 47.375 42.1446 47.5625 41.8183C47.7499 41.492 47.8486 41.1222 47.8486 40.7459Z" stroke="#EE3F59" stroke-width="2" stroke-linecap="round" stroke-linejoin="round"/>
<path d="M22.3367 28.1328L34.9244 35.5374L47.5122 28.1328M34.9244 49.0002V35.5374" stroke="#EE3F59" stroke-width="2" stroke-linecap="round" stroke-linejoin="round"/>
</svg>
