<svg width="120" height="120" viewBox="0 0 120 120" fill="none" xmlns="http://www.w3.org/2000/svg">
<circle cx="60" cy="60" r="60" fill="white" fill-opacity="0.15"/>
<circle cx="60" cy="60" r="59.5" stroke="#EE3F59" stroke-opacity="0.2"/>
<path d="M84 60C84 46.75 73.25 36 60 36C46.75 36 36 46.75 36 60C36 73.25 46.75 84 60 84C73.25 84 84 73.25 84 60Z" stroke="#EE3F59" stroke-width="2" stroke-miterlimit="10"/>
<path d="M59.2825 48.7561L60 63.9999L60.7162 48.7561C60.7207 48.6587 60.7052 48.5614 60.6707 48.4701C60.6362 48.3788 60.5835 48.2956 60.5158 48.2254C60.448 48.1552 60.3667 48.0995 60.2767 48.0618C60.1867 48.0241 60.09 48.0052 59.9925 48.0061V48.0061C59.8961 48.007 59.8009 48.0274 59.7125 48.0659C59.6241 48.1044 59.5445 48.1603 59.4782 48.2303C59.4119 48.3003 59.3604 48.383 59.3268 48.4733C59.2932 48.5637 59.2781 48.6598 59.2825 48.7561V48.7561Z" stroke="#EE3F59" stroke-width="2" stroke-linecap="round" stroke-linejoin="round"/>
<path d="M60 73.9888C59.5055 73.9888 59.0222 73.8422 58.6111 73.5674C58.2 73.2927 57.8795 72.9023 57.6903 72.4455C57.5011 71.9887 57.4516 71.486 57.548 71.001C57.6445 70.5161 57.8826 70.0706 58.2322 69.721C58.5819 69.3714 59.0273 69.1333 59.5123 69.0368C59.9972 68.9403 60.4999 68.9899 60.9567 69.1791C61.4135 69.3683 61.804 69.6887 62.0787 70.0998C62.3534 70.511 62.5 70.9943 62.5 71.4888C62.5 72.1518 62.2366 72.7877 61.7678 73.2565C61.2989 73.7254 60.663 73.9888 60 73.9888Z" fill="#EE3F59"/>
</svg>
