<svg width="40" height="40" viewBox="0 0 40 40" fill="none" xmlns="http://www.w3.org/2000/svg">
<g clip-path="url(#clip0_289_3326)">
<path d="M20 40C31.0457 40 40 31.0457 40 20C40 8.9543 31.0457 0 20 0C8.9543 0 0 8.9543 0 20C0 31.0457 8.9543 40 20 40Z" fill="#FFE000"/>
<path d="M29.9884 24.2578C29.6642 19.2148 26.7892 11.293 20.5509 11.293C15.7775 11.293 12.254 14.4375 10.0821 20.6211C9.8634 21.0547 10.1368 21.5977 10.6251 21.7617C11.1134 21.9805 11.6564 21.707 11.8165 21.2188C13.6642 15.9883 16.4962 13.2891 20.2501 13.1484C20.3282 13.1719 20.4103 13.1914 20.4962 13.1914C25.1056 13.1914 27.6564 19.4844 28.09 24.1484C26.5157 26.4805 22.6642 26.8594 20.4962 26.8594C18.0001 26.9141 15.5587 25.9375 13.7696 24.1484C14.4767 22.3594 15.504 20.6758 15.9923 20.6211C16.2111 20.6211 16.7501 21.2187 17.0236 21.4883C17.6212 22.1406 18.215 22.7891 19.0861 22.7891C19.5196 22.7891 20.6603 22.7891 22.8282 18.0703C23.047 17.582 22.8829 17.0391 22.3946 16.8242C21.9064 16.6055 21.3634 16.7695 21.1486 17.2578C20.4454 18.832 19.5196 20.3477 19.0314 20.8359C18.8126 20.6719 18.5431 20.4023 18.379 20.1836C17.7814 19.5312 17.0236 18.7188 15.9923 18.7188C13.9845 18.7734 12.4142 22.4063 11.8165 23.9805C11.7071 24.3047 11.7618 24.6875 12.0353 24.9023C14.1525 27.2891 17.1876 28.6445 20.3321 28.6445C20.3868 28.6445 20.4962 28.6445 20.5509 28.6992C25.1056 28.6992 28.4142 27.2891 29.879 24.793L29.8907 24.7461C29.9689 24.6016 30.0079 24.4297 29.9884 24.2578Z" fill="white"/>
</g>
<defs>
<clipPath id="clip0_289_3326">
<rect width="40" height="40" fill="white"/>
</clipPath>
</defs>
</svg>
