<svg width="40" height="46" viewBox="0 0 40 46" fill="none" xmlns="http://www.w3.org/2000/svg">
<path d="M3.63902 40.8312L0 0H40L36.3561 40.8247L19.9757 45.3662L3.63902 40.8312Z" fill="#1572B6"/>
<path d="M20 41.8955L33.2372 38.2257L36.3513 3.33911H20V41.8955Z" fill="#33A9DC"/>
<path d="M20 18.1319H26.6267L27.0836 13.004H20V7.99585H20.0178H32.5567L32.4368 9.33901L31.2071 23.14H20V18.1319Z" fill="white"/>
<path d="M20.0303 31.1372L20.0077 31.1437L14.4309 29.6369L14.0744 25.6431H11.3638H9.04688L9.74843 33.506L20.006 36.3543L20.0303 36.3479V31.1372Z" fill="#EBEBEB"/>
<path d="M26.1993 22.9276L25.5966 29.6337L20.0117 31.1405V36.3511L30.2774 33.506L30.3536 32.6603L31.2236 22.9276H26.1993Z" fill="white"/>
<path d="M20.018 7.99585V11.1067V12.991V13.004H7.93766H7.92146L7.821 11.8779L7.59255 9.33901L7.47266 7.99585H20.018Z" fill="#EBEBEB"/>
<path d="M20.0012 18.1318V21.2427V23.127V23.1399H14.5103H14.4941L14.3936 22.0139L14.1668 19.475L14.0469 18.1318H20.0012Z" fill="#EBEBEB"/>
</svg>
