<svg width="138" height="138" viewBox="0 0 138 138" fill="none" xmlns="http://www.w3.org/2000/svg">
<g filter="url(#filter0_d_306_6)">
<circle cx="69" cy="61" r="50" fill="#EE3F59"/>
</g>
<path d="M62.6526 73.4682C62.1824 75.8614 60.0731 77.6668 57.542 77.6668H53.3754C52.8001 77.6668 52.3337 77.2004 52.3337 76.6251V72.4584C52.3337 69.9274 54.1391 67.8181 56.5323 67.3479L56.5569 66.6337C56.5986 65.4262 56.7229 64.241 56.9244 63.0834H49.2087C48.4718 63.0834 47.9679 62.3391 48.2415 61.6549L52.4082 51.2382C52.5664 50.8428 52.9494 50.5834 53.3754 50.5834H62.7504C62.8033 50.5834 62.8552 50.5874 62.906 50.595C67.811 45.0031 75.0935 41.5771 83.1072 41.8534C84.3795 41.8973 85.6467 42.0357 86.8984 42.2675C87.3226 42.3461 87.6544 42.6779 87.733 43.1021C89.4424 52.3332 85.9843 61.3247 79.406 67.0982C79.4133 67.1478 79.417 67.1985 79.417 67.2501V76.6251C79.417 77.051 79.1577 77.4341 78.7622 77.5923L68.3456 81.7589C67.6613 82.0326 66.917 81.5287 66.917 80.7918V73.0729C65.7437 73.2786 64.5574 73.4025 63.3667 73.4435L62.6526 73.4682ZM60.641 72.8638L57.1366 69.3595C55.6023 69.5583 54.417 70.8699 54.417 72.4584V75.5834H57.542C59.1305 75.5834 60.4422 74.3982 60.641 72.8638ZM69.0004 72.6189V79.2532L77.3337 75.9199V68.736C74.871 70.4836 72.0657 71.8179 69.0004 72.6189ZM57.377 61.0001C58.1713 57.9615 59.5057 55.1489 61.2686 52.6668H54.0806L50.7473 61.0001H57.377ZM62.1252 71.4018L63.2949 71.3615C64.464 71.3211 65.6284 71.194 66.7785 70.981C79.3549 68.652 87.7415 56.7501 85.8056 44.1952C84.8883 44.0543 83.9633 43.9675 83.0354 43.9355C70.0108 43.4864 59.0882 53.6809 58.639 66.7055L58.5987 67.8753L62.1252 71.4018ZM73.167 63.0834C69.7153 63.0834 66.917 60.2852 66.917 56.8334C66.917 53.3817 69.7153 50.5834 73.167 50.5834C76.6188 50.5834 79.417 53.3817 79.417 56.8334C79.417 60.2852 76.6188 63.0834 73.167 63.0834ZM73.167 61.0001C75.4682 61.0001 77.3337 59.1346 77.3337 56.8334C77.3337 54.5322 75.4682 52.6668 73.167 52.6668C70.8659 52.6668 69.0004 54.5322 69.0004 56.8334C69.0004 59.1346 70.8659 61.0001 73.167 61.0001Z" fill="white"/>
<defs>
<filter id="filter0_d_306_6" x="0" y="0" width="138" height="138" filterUnits="userSpaceOnUse" color-interpolation-filters="sRGB">
<feFlood flood-opacity="0" result="BackgroundImageFix"/>
<feColorMatrix in="SourceAlpha" type="matrix" values="0 0 0 0 0 0 0 0 0 0 0 0 0 0 0 0 0 0 127 0" result="hardAlpha"/>
<feOffset dy="8"/>
<feGaussianBlur stdDeviation="9.5"/>
<feComposite in2="hardAlpha" operator="out"/>
<feColorMatrix type="matrix" values="0 0 0 0 0.933333 0 0 0 0 0.247059 0 0 0 0 0.34902 0 0 0 0.15 0"/>
<feBlend mode="normal" in2="BackgroundImageFix" result="effect1_dropShadow_306_6"/>
<feBlend mode="normal" in="SourceGraphic" in2="effect1_dropShadow_306_6" result="shape"/>
</filter>
</defs>
</svg>
