<svg width="138" height="138" viewBox="0 0 138 138" fill="none" xmlns="http://www.w3.org/2000/svg">
<g filter="url(#filter0_d_306_3)">
<circle cx="69" cy="61" r="50" fill="#1B2B7C"/>
</g>
<path d="M48.6897 65.8276C48.309 65.8276 48 65.5186 48 65.1379V43.069C48 41.9283 48.9283 41 50.069 41H87.3103C88.451 41 89.3793 41.9283 89.3793 43.069V45.1379C89.3793 45.5186 89.0703 45.8276 88.6897 45.8276C88.309 45.8276 88 45.5186 88 45.1379V43.069C88 42.6897 87.6897 42.3793 87.3103 42.3793H50.069C49.6897 42.3793 49.3793 42.6897 49.3793 43.069V65.1379C49.3793 65.5186 49.0703 65.8276 48.6897 65.8276Z" fill="white"/>
<path d="M68.6899 81H61.1037C60.723 81 60.4141 80.6911 60.4141 80.3104C60.4141 79.9297 60.723 79.6207 61.1037 79.6207H62.483C63.6237 79.6207 64.552 78.6924 64.552 77.5517V74.1035C64.552 73.7228 64.861 73.4138 65.2416 73.4138C65.6223 73.4138 65.9313 73.7228 65.9313 74.1035V77.5517C65.9313 78.3283 65.6734 79.0442 65.2403 79.6207H68.6899C69.0706 79.6207 69.3796 79.9297 69.3796 80.3104C69.3796 80.6911 69.0706 81 68.6899 81Z" fill="white"/>
<path d="M68 74.1033H50.069C48.9283 74.1033 48 73.1751 48 72.0344V67.8964C48 67.5158 48.309 67.2068 48.6897 67.2068H68C68.3807 67.2068 68.6897 67.5158 68.6897 67.8964C68.6897 68.2771 68.3807 68.5861 68 68.5861H49.3793V72.0344C49.3793 72.4137 49.6897 72.724 50.069 72.724H68C68.3807 72.724 68.6897 73.033 68.6897 73.4137C68.6897 73.7944 68.3807 74.1033 68 74.1033Z" fill="white"/>
<path d="M76.2756 50.6552H83.1721C83.5528 50.6552 83.8618 50.3462 83.8618 49.9655C83.8618 49.5848 83.5528 49.2759 83.1721 49.2759H76.2756C75.8949 49.2759 75.5859 49.5848 75.5859 49.9655C75.5859 50.3462 75.8949 50.6552 76.2756 50.6552Z" fill="white"/>
<path d="M79.0334 78.2416H80.4127C80.7934 78.2416 81.1024 77.9326 81.1024 77.552C81.1024 77.1713 80.7934 76.8623 80.4127 76.8623H79.0334C78.6527 76.8623 78.3438 77.1713 78.3438 77.552C78.3438 77.9326 78.6527 78.2416 79.0334 78.2416Z" fill="white"/>
<path d="M85.9304 81.0001H73.5166C71.6146 81.0001 70.0684 79.4539 70.0684 77.5518V49.9656C70.0684 48.0635 71.6146 46.5173 73.5166 46.5173H85.9304C87.8325 46.5173 89.3787 48.0635 89.3787 49.9656V77.5518C89.3787 79.4539 87.8325 81.0001 85.9304 81.0001ZM73.5166 47.8966C72.3759 47.8966 71.4477 48.8249 71.4477 49.9656V77.5518C71.4477 78.6925 72.3759 79.6208 73.5166 79.6208H85.9304C87.0711 79.6208 87.9994 78.6925 87.9994 77.5518V49.9656C87.9994 48.8249 87.0711 47.8966 85.9304 47.8966H73.5166Z" fill="white"/>
<defs>
<filter id="filter0_d_306_3" x="0" y="0" width="138" height="138" filterUnits="userSpaceOnUse" color-interpolation-filters="sRGB">
<feFlood flood-opacity="0" result="BackgroundImageFix"/>
<feColorMatrix in="SourceAlpha" type="matrix" values="0 0 0 0 0 0 0 0 0 0 0 0 0 0 0 0 0 0 127 0" result="hardAlpha"/>
<feOffset dy="8"/>
<feGaussianBlur stdDeviation="9.5"/>
<feComposite in2="hardAlpha" operator="out"/>
<feColorMatrix type="matrix" values="0 0 0 0 0.105882 0 0 0 0 0.168627 0 0 0 0 0.486275 0 0 0 0.15 0"/>
<feBlend mode="normal" in2="BackgroundImageFix" result="effect1_dropShadow_306_3"/>
<feBlend mode="normal" in="SourceGraphic" in2="effect1_dropShadow_306_3" result="shape"/>
</filter>
</defs>
</svg>
