<svg width="138" height="138" viewBox="0 0 138 138" fill="none" xmlns="http://www.w3.org/2000/svg">
<g filter="url(#filter0_d_306_4)">
<circle cx="69" cy="61" r="50" fill="#EE3F59"/>
</g>
<path d="M67.0937 73.5765C66.9299 73.5765 66.7704 73.5158 66.6474 73.4057L60.0333 67.4886C59.7646 67.2485 59.7352 66.8385 59.9657 66.5612L79.6994 42.8405C80.5939 41.7658 81.8541 41.1174 83.2487 41.0143C84.645 40.9112 85.985 41.3688 87.0268 42.3005C89.0844 44.1415 89.3132 47.2461 87.5468 49.3696L67.6086 73.3355C67.4924 73.4751 67.3243 73.5618 67.1431 73.5748C67.1267 73.5765 67.1102 73.5765 67.0937 73.5765ZM61.4071 66.9217L67.0226 71.9453L86.5163 48.5132C87.819 46.9479 87.6508 44.658 86.1323 43.2999C85.3635 42.6125 84.3798 42.2728 83.3458 42.3508C82.3178 42.4262 81.3878 42.9046 80.7283 43.6977L61.4071 66.9217Z" fill="white"/>
<path d="M58.1193 77.4662C57.965 77.4662 57.8116 77.4125 57.6886 77.3094C57.4944 77.1464 57.4086 76.8873 57.4675 76.6402L59.8086 66.8549C59.8632 66.626 60.0348 66.4423 60.2593 66.3721C60.4838 66.3027 60.729 66.3539 60.905 66.5108L67.5372 72.4071C67.7088 72.5588 67.7894 72.7876 67.7539 73.0138C67.7175 73.2401 67.5684 73.4316 67.3587 73.5226L58.3845 77.4116C58.3005 77.448 58.2095 77.4662 58.1193 77.4662ZM60.8521 68.2546L59.0831 75.6487L65.8644 72.7105L60.8521 68.2546Z" fill="white"/>
<path d="M90.5333 80.9998H47.67C47.2999 80.9998 47 80.6999 47 80.3298V46.3228C47 45.9527 47.2999 45.6528 47.67 45.6528H77.6719C78.042 45.6528 78.3418 45.9527 78.3418 46.3228C78.3418 46.6929 78.042 46.9928 77.6719 46.9928H48.3391V79.6599H90.5333C90.9034 79.6599 91.2033 79.9598 91.2033 80.3298C91.2033 80.6999 90.9034 80.9998 90.5333 80.9998Z" fill="white"/>
<path d="M90.534 80.9998C90.1639 80.9998 89.864 80.6999 89.864 80.3298V46.9928H88.0508C87.6807 46.9928 87.3809 46.6929 87.3809 46.3228C87.3809 45.9527 87.6807 45.6528 88.0508 45.6528H90.534C90.9041 45.6528 91.204 45.9527 91.204 46.3228V80.3298C91.204 80.6999 90.9041 80.9998 90.534 80.9998Z" fill="white"/>
<path d="M90.5306 56.3378H81.4317C81.0616 56.3378 80.7617 56.0379 80.7617 55.6678C80.7617 55.2977 81.0616 54.9978 81.4317 54.9978H90.5306C90.9007 54.9978 91.2006 55.2977 91.2006 55.6678C91.2006 56.0379 90.9007 56.3378 90.5306 56.3378Z" fill="white"/>
<path d="M69.8964 56.338H47.67C47.2999 56.338 47 56.0381 47 55.668C47 55.2979 47.2999 54.998 47.67 54.998H69.8964C70.2665 54.998 70.5664 55.2979 70.5664 55.668C70.5664 56.0381 70.2665 56.338 69.8964 56.338Z" fill="white"/>
<path d="M53.0121 53.8976C51.4112 53.8976 50.1094 52.5958 50.1094 50.995C50.1094 49.3941 51.4112 48.0923 53.0121 48.0923C54.612 48.0923 55.9139 49.3941 55.9139 50.995C55.9139 52.5958 54.612 53.8976 53.0121 53.8976ZM53.0121 49.4323C52.1505 49.4323 51.4493 50.1334 51.4493 50.995C51.4493 51.8565 52.1505 52.5577 53.0121 52.5577C53.8736 52.5577 54.5748 51.8565 54.5748 50.995C54.5748 50.1334 53.8736 49.4323 53.0121 49.4323Z" fill="white"/>
<path d="M60.1566 53.8974C58.5557 53.8974 57.2539 52.5956 57.2539 50.9947C57.2539 49.3939 58.5557 48.092 60.1566 48.092C61.7574 48.092 63.0593 49.3939 63.0593 50.9947C63.0593 52.5956 61.7574 53.8974 60.1566 53.8974ZM60.1566 49.432C59.2951 49.432 58.5939 50.1332 58.5939 50.9947C58.5939 51.8563 59.2951 52.5574 60.1566 52.5574C61.0181 52.5574 61.7193 51.8563 61.7193 50.9947C61.7193 50.1332 61.0181 49.432 60.1566 49.432Z" fill="white"/>
<path d="M67.3011 53.8976C65.7003 53.8976 64.3984 52.5958 64.3984 50.995C64.3984 49.3941 65.7003 48.0923 67.3011 48.0923C68.902 48.0923 70.2029 49.3941 70.2029 50.995C70.2029 52.5958 68.9011 53.8976 67.3011 53.8976ZM67.3011 49.4323C66.4387 49.4323 65.7384 50.1334 65.7384 50.995C65.7384 51.8565 66.4396 52.5577 67.3011 52.5577C68.1626 52.5577 68.8638 51.8565 68.8638 50.995C68.8638 50.1334 68.1626 49.4323 67.3011 49.4323Z" fill="white"/>
<path d="M81.8142 55.8815C81.6556 55.8815 81.5013 55.8252 81.3799 55.7212L74.6281 49.9713C74.349 49.7338 74.3126 49.3152 74.5475 49.0335L77.7674 45.1609C77.8818 45.0231 78.0465 44.9373 78.2259 44.9217C78.3958 44.9061 78.5821 44.9633 78.7173 45.0803L85.4544 50.8493C85.7327 51.0876 85.7673 51.5054 85.5333 51.7862L82.3281 55.6388C82.2137 55.7758 82.0491 55.8624 81.8714 55.8772C81.8523 55.8807 81.8332 55.8815 81.8142 55.8815ZM76.001 49.381L81.7327 54.2625L84.0824 51.4378L78.3629 46.5399L76.001 49.381Z" fill="white"/>
<defs>
<filter id="filter0_d_306_4" x="0" y="0" width="138" height="138" filterUnits="userSpaceOnUse" color-interpolation-filters="sRGB">
<feFlood flood-opacity="0" result="BackgroundImageFix"/>
<feColorMatrix in="SourceAlpha" type="matrix" values="0 0 0 0 0 0 0 0 0 0 0 0 0 0 0 0 0 0 127 0" result="hardAlpha"/>
<feOffset dy="8"/>
<feGaussianBlur stdDeviation="9.5"/>
<feComposite in2="hardAlpha" operator="out"/>
<feColorMatrix type="matrix" values="0 0 0 0 0.933333 0 0 0 0 0.247059 0 0 0 0 0.34902 0 0 0 0.15 0"/>
<feBlend mode="normal" in2="BackgroundImageFix" result="effect1_dropShadow_306_4"/>
<feBlend mode="normal" in="SourceGraphic" in2="effect1_dropShadow_306_4" result="shape"/>
</filter>
</defs>
</svg>
