<svg width="40" height="46" viewBox="0 0 40 46" fill="none" xmlns="http://www.w3.org/2000/svg">
<path fill-rule="evenodd" clip-rule="evenodd" d="M8.00791 13.7221L16.0158 18.3192L8.00791 22.8174L0 18.3192L8.00791 13.7221Z" fill="#C9B191"/>
<path fill-rule="evenodd" clip-rule="evenodd" d="M8.00791 22.8176V32.1107L0 27.5136L0 18.3193L8.00791 22.8176Z" fill="#EC8F2F"/>
<path fill-rule="evenodd" clip-rule="evenodd" d="M8.00977 22.8177L16.0177 18.3194V27.5136L8.00977 32.1107V22.8177Z" fill="#0D0F06"/>
<path fill-rule="evenodd" clip-rule="evenodd" d="M31.9903 27.5236L39.9982 32.1207L31.9903 36.6189L23.9824 32.1207L31.9903 27.5236Z" fill="#C9B191"/>
<path fill-rule="evenodd" clip-rule="evenodd" d="M31.9903 36.6188V45.9119L23.9824 41.3148L23.9824 32.1205L31.9903 36.6188Z" fill="#EC8F2F"/>
<path fill-rule="evenodd" clip-rule="evenodd" d="M31.9902 36.6188L39.9981 32.1205V41.3147L31.9902 45.9118V36.6188Z" fill="#0D0F06"/>
<path fill-rule="evenodd" clip-rule="evenodd" d="M31.9903 0L39.9982 4.59711L31.9903 9.09532L23.9824 4.59711L31.9903 0Z" fill="#C9B191"/>
<path fill-rule="evenodd" clip-rule="evenodd" d="M31.9903 9.09534V18.3884L23.9824 13.7913L23.9824 4.59705L31.9903 9.09534Z" fill="#EC8F2F"/>
<path fill-rule="evenodd" clip-rule="evenodd" d="M31.9902 9.09534L39.9981 4.59705V13.7913L31.9902 18.3884V9.09534Z" fill="#0D0F06"/>
<path fill-rule="evenodd" clip-rule="evenodd" d="M23.9843 32.1305L15.9764 27.5334L23.9843 23.0352L31.9922 27.5334L23.9843 32.1305Z" fill="#C9B191"/>
<path fill-rule="evenodd" clip-rule="evenodd" d="M23.9843 23.035V13.742L31.9922 18.3391L31.9922 27.5333L23.9843 23.035Z" fill="#EC8F2F"/>
<path fill-rule="evenodd" clip-rule="evenodd" d="M23.9844 23.035L15.9765 27.5333L15.9765 18.3391L23.9844 13.742V23.035Z" fill="#0D0F06"/>
</svg>
