<svg width="40" height="29" viewBox="0 0 40 29" fill="none" xmlns="http://www.w3.org/2000/svg">
<path d="M24.7879 19.8955C25.305 20.9435 26.1072 21.8245 27.1024 22.4371C28.0976 23.0496 29.2455 23.369 30.4141 23.3585C32.7773 23.3585 34.2871 22.1769 34.2871 20.5454C34.2871 18.5906 32.7356 17.8973 30.1358 16.759L28.7093 16.1474C24.5946 14.3942 21.8598 12.1978 21.8598 7.55481C21.8598 3.27684 25.1196 0.0221076 30.2125 0.0221076C31.8654 -0.0978315 33.5171 0.27215 34.9609 1.0858C36.4047 1.89944 37.5766 3.12065 38.3301 4.59673L33.8888 7.44815C33.598 6.71671 33.0915 6.09108 32.4367 5.65439C31.7818 5.2177 31.0095 4.99063 30.2225 5.00336C29.8794 4.96884 29.533 5.00619 29.2051 5.11303C28.8773 5.21986 28.5754 5.39384 28.3185 5.62386C28.0617 5.85389 27.8556 6.13491 27.7134 6.44901C27.5712 6.76311 27.4961 7.10339 27.4927 7.44815C27.4927 9.15968 28.5526 9.85129 30.9924 10.9112L32.419 11.5211C37.2652 13.5993 40 15.7175 40 20.4804C40 25.615 35.967 28.4281 30.5491 28.4281C28.4388 28.5623 26.3346 28.083 24.4906 27.048C22.6465 26.0131 21.1414 24.4666 20.1567 22.5952L24.7879 19.8955ZM4.64295 20.3954C5.53954 21.9853 6.35447 23.3285 8.30931 23.3285C10.1825 23.3285 11.3657 22.5952 11.3657 19.7455V0.355413H17.0686V19.8255C17.0686 25.73 13.6055 28.4181 8.55262 28.4181C6.76775 28.5147 4.99545 28.0687 3.46887 27.1389C1.9423 26.209 0.732972 24.8388 0 23.2085L4.64295 20.3954Z" fill="#F5DE19"/>
</svg>
