<svg width="40" height="40" viewBox="0 0 40 40" fill="none" xmlns="http://www.w3.org/2000/svg">
<g clip-path="url(#clip0_289_3320)">
<path d="M39.52 18.88L21.725 1.6675L20 0L6.605 12.9575L0.48 18.8825C0.329124 19.027 0.208875 19.2005 0.126412 19.3925C0.0439497 19.5844 0.000959064 19.7911 0 20C0 20.42 0.1725 20.8225 0.48 21.12L12.7175 32.9575L20 40L33.395 27.0425L33.6025 26.8425L39.52 21.1175C39.6709 20.9729 39.7911 20.7995 39.8736 20.6075C39.9561 20.4156 39.999 20.2089 40 20C39.9994 19.7906 39.9565 19.5835 39.8741 19.3911C39.7916 19.1987 39.6712 19.0248 39.52 18.88ZM20 25.9125L13.885 20L20 14.0875L26.115 20L20 25.9125Z" fill="#2684FF"/>
<path d="M19.9992 14.0849C19.0532 13.1776 18.2989 12.0897 17.781 10.8856C17.2631 9.68148 16.9922 8.38567 16.9842 7.07492C16.9838 5.76382 17.2467 4.46598 17.7573 3.25839C18.268 2.0508 19.0159 0.958043 19.9567 0.0449219L6.57422 12.9824L13.8567 20.0249L19.9992 14.0849Z" fill="url(#paint0_linear_289_3320)"/>
<path d="M26.13 19.985L20 25.9125C20.9575 26.8375 21.715 27.9375 22.2325 29.145C22.749 30.3497 23.0153 31.6467 23.0153 32.9575C23.0153 34.2682 22.749 35.5653 22.2325 36.77C21.715 37.9775 20.9575 39.075 20 40L33.4125 27.0275L26.13 19.985Z" fill="url(#paint1_linear_289_3320)"/>
</g>
<defs>
<linearGradient id="paint0_linear_289_3320" x1="18.9067" y1="8.10242" x2="10.6542" y2="16.6349" gradientUnits="userSpaceOnUse">
<stop offset="0.18" stop-color="#0052CC"/>
<stop offset="1" stop-color="#2684FF"/>
</linearGradient>
<linearGradient id="paint1_linear_289_3320" x1="540.137" y1="1226.54" x2="829.117" y2="1032.9" gradientUnits="userSpaceOnUse">
<stop offset="0.18" stop-color="#0052CC"/>
<stop offset="1" stop-color="#2684FF"/>
</linearGradient>
<clipPath id="clip0_289_3320">
<rect width="40" height="40" fill="white"/>
</clipPath>
</defs>
</svg>
