<svg width="42" height="40" viewBox="0 0 42 40" fill="none" xmlns="http://www.w3.org/2000/svg">
<g clip-path="url(#clip0_289_3314)">
<path d="M41.4517 5.51327C41.4517 2.62841 39.0156 0.289795 36.0105 0.289795C33.2667 0.289795 30.9985 2.23985 30.6248 4.77491C30.5899 4.75715 30.5696 4.74711 30.5696 4.74711C26.1199 2.82037 22.3716 6.23294 22.3716 6.23294L12.457 15.7976L16.3745 19.4193L24.3547 11.8928C28.0811 8.31534 30.1101 10.7367 30.1101 10.7367C32.9154 13.0117 30.2068 15.7048 30.2068 15.7048L34.2212 19.4193C37.4992 16.0204 37.6894 13.054 36.6929 10.6943C39.3756 10.3718 41.4517 8.17604 41.4517 5.51327Z" fill="#F9AE41"/>
<path d="M36.7448 29.5359C36.7633 29.5025 36.7737 29.4831 36.7737 29.4831C38.7809 25.2112 35.226 21.613 35.226 21.613L25.2626 12.0947L21.4902 15.8557L29.3302 23.5166C33.0568 27.0941 30.5345 29.042 30.5345 29.042C28.1647 31.7351 25.3595 29.1348 25.3595 29.1348L21.4902 32.9885C25.0305 36.1354 28.1207 36.3179 30.5786 35.3614C30.9145 37.9369 33.2019 39.9299 35.9756 39.9299C38.9807 39.9299 41.4166 37.5913 41.4166 34.7064C41.4166 32.0723 39.3854 29.8948 36.7448 29.5359Z" fill="#EE4035"/>
<path d="M25.3468 20.6263L17.3667 28.1526C13.6401 31.7303 11.611 29.309 11.611 29.309C8.80579 27.0339 11.5144 24.341 11.5144 24.341L7.50017 20.6265C4.22211 24.0252 4.03197 26.9916 5.02824 29.3513C2.3454 29.6738 0.269531 31.8694 0.269531 34.5323C0.269531 37.4172 2.70559 39.7556 5.71065 39.7556C8.45445 39.7558 10.7227 37.8059 11.0964 35.2708C11.1313 35.2886 11.1516 35.2985 11.1516 35.2985C15.6014 37.2255 19.3496 33.8127 19.3496 33.8127L29.2643 24.2479L25.3468 20.6263Z" fill="#4F91CD"/>
<path d="M12.3931 16.529C8.66659 12.9515 11.1886 11.0036 11.1886 11.0036C13.5587 8.31053 16.3637 10.9108 16.3637 10.9108L20.233 7.05729C16.6927 3.91036 13.6027 3.72781 11.1448 4.68423C10.8087 2.10856 8.52164 0.115723 5.7476 0.115723C2.7427 0.115723 0.306801 2.45434 0.306641 5.33919C0.306641 7.9734 2.33779 10.1509 4.97848 10.5097C4.95998 10.5432 4.94968 10.5627 4.94968 10.5627C2.94218 14.8344 6.49725 18.4324 6.49725 18.4324L16.4608 27.9507L20.2332 24.1899L12.3931 16.529Z" fill="#7AC043"/>
</g>
<defs>
<clipPath id="clip0_289_3314">
<rect width="41.6667" height="40" fill="white"/>
</clipPath>
</defs>
</svg>
