<svg width="40" height="40" viewBox="0 0 40 40" fill="none" xmlns="http://www.w3.org/2000/svg">
<path fill-rule="evenodd" clip-rule="evenodd" d="M10.9812 8.58126C10.6501 8.58021 10.3203 8.62223 10 8.70626V8.75001H10.0475C10.2769 9.09628 10.5326 9.42433 10.8125 9.73126C11.005 10.1138 11.1725 10.495 11.3637 10.8775C11.3875 10.8538 11.4112 10.8288 11.4112 10.8288C11.5888 10.6878 11.7278 10.5042 11.8152 10.295C11.9027 10.0858 11.9357 9.8579 11.9113 9.63251C11.8066 9.47109 11.7106 9.30418 11.6237 9.13251C11.48 8.89376 11.1687 8.77376 10.9775 8.58251" fill="#5D87A1"/>
<path fill-rule="evenodd" clip-rule="evenodd" d="M34.7255 29.4413C33.1487 29.3305 31.5665 29.559 30.0855 30.1113C29.7268 30.255 29.1543 30.255 29.1043 30.7088C29.2968 30.9 29.3193 31.2088 29.488 31.475C29.8154 32.0293 30.2362 32.5229 30.7318 32.9338C31.2318 33.3163 31.7318 33.6975 32.263 34.0325C33.1943 34.6088 34.248 34.9425 35.1555 35.5163C35.683 35.8513 36.208 36.2813 36.7355 36.6413C36.998 36.8325 37.1643 37.1413 37.4993 37.2663V37.1938C37.4008 36.9281 37.2791 36.6717 37.1355 36.4275C36.8968 36.19 36.6568 35.9738 36.4168 35.735C35.7156 34.8079 34.8767 33.9935 33.9293 33.32C33.163 32.7925 31.488 32.07 31.1793 31.195L31.1305 31.1463C31.6912 31.0668 32.2438 30.938 32.7818 30.7613C33.5943 30.5463 34.3355 30.595 35.1718 30.3863C35.5555 30.29 36.2493 30.0513 36.2493 30.0513V29.6763C35.8218 29.2513 35.5155 28.6825 35.0655 28.2813C33.8413 27.2126 32.5366 26.2397 31.163 25.3713C30.4293 24.8975 29.483 24.5925 28.7018 24.1888C28.4193 24.0463 27.9518 23.9763 27.7805 23.7388C27.392 23.1687 27.0667 22.5581 26.8105 21.9175C26.1255 20.6175 25.4618 19.1763 24.8718 17.8013C24.5225 16.8798 24.1198 15.9795 23.6655 15.105C21.4734 11.3781 18.3093 8.31728 14.5118 6.25002C13.5536 5.78622 12.5348 5.45968 11.4855 5.28002C10.893 5.25502 10.303 5.20877 9.71177 5.18627C9.3301 4.93623 8.96706 4.65884 8.62552 4.35627C7.27302 3.50002 3.79802 1.66002 2.80302 4.09627C2.16552 5.63502 3.75052 7.14752 4.29427 7.92877C4.75276 8.47963 5.15674 9.07366 5.50052 9.70252C5.66677 10.105 5.71427 10.5313 5.87552 10.9525C6.2225 12.0339 6.6345 13.0933 7.10927 14.125C7.3632 14.6349 7.65572 15.1247 7.98427 15.59C8.17552 15.8513 8.50552 15.965 8.57677 16.3963C8.31463 16.9597 8.13124 17.5566 8.03177 18.17C7.61858 19.4749 7.46651 20.8484 7.58426 22.212C7.70201 23.5757 8.08726 24.9028 8.71802 26.1175C9.09302 26.7088 9.99552 28.01 11.2018 27.5125C12.2655 27.0875 12.0293 25.7388 12.3368 24.5575C12.4068 24.2713 12.3605 24.0838 12.5018 23.895V24.125C12.5018 24.125 13.1055 25.4513 13.4055 26.125C14.2214 27.3613 15.2349 28.455 16.4055 29.3625C16.8686 29.7668 17.2416 30.2638 17.5005 30.8213V31.25H18.0343C18.0232 31.0567 17.9696 30.8682 17.8773 30.698C17.7851 30.5277 17.6564 30.3799 17.5005 30.265C17.0628 29.8145 16.662 29.3296 16.3018 28.815C15.3233 27.4215 14.4605 25.9504 13.7218 24.4163C13.3468 23.6663 13.0305 22.8438 12.7305 22.095C12.593 21.8063 12.593 21.37 12.3618 21.22C11.9348 21.7252 11.5642 22.2756 11.2568 22.8613C10.8835 24.0451 10.6663 25.2725 10.6105 26.5125C10.5193 26.5375 10.5643 26.5125 10.5193 26.56C9.78302 26.3663 9.52927 25.57 9.25177 24.895C8.53491 22.8132 8.46259 20.5636 9.04427 18.44C9.20427 17.9338 9.89802 16.3388 9.62052 15.855C9.48177 15.3938 9.02052 15.13 8.76802 14.7663C8.44567 14.2769 8.16829 13.7594 7.93927 13.22C7.39052 11.875 7.11302 10.375 6.51552 9.02002C6.18477 8.36835 5.79965 7.74573 5.36427 7.15877C4.88266 6.57244 4.45784 5.94169 4.09552 5.27502C3.98052 5.00877 3.81927 4.57377 4.00302 4.28377C4.01542 4.20322 4.05373 4.1289 4.11215 4.07206C4.17056 4.01522 4.24591 3.97896 4.32677 3.96877C4.62427 3.70377 5.47802 4.04127 5.77677 4.18627C6.57971 4.50237 7.34453 4.90784 8.05677 5.39502C8.37927 5.63752 9.13927 6.25127 9.13927 6.25127H9.36427C10.1293 6.41752 10.9893 6.29752 11.7093 6.51377C12.9216 6.91789 14.0785 7.4722 15.153 8.16377C18.3201 10.1827 20.8948 13.0059 22.6143 16.345C22.9018 16.8938 23.023 17.3975 23.2855 17.97C23.7855 19.145 24.4105 20.345 24.9105 21.4875C25.3516 22.6179 25.9221 23.6934 26.6105 24.6925C26.968 25.1925 28.4043 25.4575 29.0505 25.72C29.6117 25.9142 30.1625 26.1374 30.7005 26.3888C31.5143 26.8888 32.3255 27.465 33.0918 28.0138C33.473 28.3013 34.6693 28.8988 34.7418 29.3775" fill="#00758F"/>
</svg>
