<svg width="40" height="21" viewBox="0 0 40 21" fill="none" xmlns="http://www.w3.org/2000/svg">
<path d="M20 20.9851C31.0457 20.9851 40 16.2874 40 10.4925C40 4.69767 31.0457 0 20 0C8.95431 0 0 4.69767 0 10.4925C0 16.2874 8.95431 20.9851 20 20.9851Z" fill="url(#paint0_radial_289_3207)"/>
<path d="M20.0001 20.2054C30.6143 20.2054 39.2189 15.8567 39.2189 10.4922C39.2189 5.12779 30.6143 0.779053 20.0001 0.779053C9.3858 0.779053 0.78125 5.12779 0.78125 10.4922C0.78125 15.8567 9.3858 20.2054 20.0001 20.2054Z" fill="#6181B6"/>
<path d="M23.8899 13.6319L24.8447 8.73921C25.0617 7.63511 24.8808 6.81244 24.3094 6.29287C23.7597 5.78772 22.8266 5.54237 21.4523 5.54237H19.8031L20.2733 3.11768C20.2877 3.02387 20.266 2.93006 20.2082 2.85789C20.1503 2.78573 20.0635 2.74243 19.9695 2.74243H17.691C17.5391 2.74243 17.4161 2.85068 17.3872 2.995L16.3745 8.19076C16.2805 7.60624 16.0563 7.1011 15.6946 6.68977C15.0291 5.92484 13.9658 5.54237 12.5554 5.54237H8.13582C7.98393 5.54237 7.86096 5.65061 7.83203 5.79494L5.77778 16.3091C5.76331 16.403 5.78501 16.4968 5.84288 16.5689C5.90074 16.6411 5.98754 16.6844 6.08157 16.6844H8.38176C8.53365 16.6844 8.65662 16.5761 8.68555 16.4318L9.18465 13.8845H10.8917C11.7886 13.8845 12.5409 13.7906 13.134 13.5958C13.7344 13.401 14.2913 13.069 14.776 12.6144C15.1738 12.2536 15.4993 11.8494 15.7452 11.4092L15.3329 13.5092C15.3185 13.603 15.3402 13.6968 15.398 13.769C15.4559 13.8412 15.5427 13.8845 15.6367 13.8845H17.9152C18.0671 13.8845 18.1901 13.7762 18.219 13.6319L19.3402 7.85881H20.9025C21.568 7.85881 21.7633 7.98871 21.8139 8.04644C21.8646 8.09695 21.9658 8.28458 21.8501 8.85467L20.9604 13.5164C20.9459 13.6102 20.9676 13.704 21.0255 13.7762C21.0834 13.8484 21.1702 13.8917 21.2642 13.8917H23.5789C23.7308 13.8845 23.861 13.7834 23.8899 13.6319ZM13.3293 9.59073C13.1846 10.3268 12.917 10.8464 12.5264 11.1495C12.1286 11.4525 11.4993 11.6041 10.6458 11.6041H9.62588L10.3637 7.82273H11.6801C12.6494 7.82273 13.04 8.032 13.1919 8.2052C13.4089 8.44334 13.4595 8.91961 13.3293 9.59073Z" fill="white"/>
<path d="M33.6327 6.68988C32.9672 5.92495 31.9039 5.54248 30.4934 5.54248H26.0739C25.922 5.54248 25.799 5.65073 25.7701 5.79505L23.7231 16.3165C23.7086 16.4103 23.7303 16.5041 23.7882 16.5763C23.8461 16.6484 23.9329 16.6917 24.0269 16.6917H26.3271C26.479 16.6917 26.6019 16.5835 26.6309 16.4391L27.13 13.8918H28.837C29.7339 13.8918 30.4862 13.798 31.0793 13.6031C31.6797 13.4083 32.2367 13.0763 32.7213 12.6217C33.1263 12.2465 33.4663 11.8279 33.7195 11.3733C33.9726 10.9186 34.1535 10.4135 34.262 9.87228C34.5151 8.53004 34.3054 7.46203 33.6327 6.68988ZM31.2529 9.59084C31.1083 10.3269 30.8406 10.8465 30.45 11.1496C30.0522 11.4527 29.4229 11.6042 28.5694 11.6042H27.5495L28.2873 7.82284H29.6037C30.573 7.82284 30.9636 8.03212 31.1155 8.20531C31.3397 8.44345 31.3831 8.91972 31.2529 9.59084Z" fill="white"/>
<path d="M11.6812 7.51219C12.5564 7.51219 13.135 7.67095 13.4244 7.99568C13.7137 8.32042 13.786 8.86886 13.6341 9.64822C13.475 10.4637 13.1712 11.041 12.7155 11.3946C12.2598 11.741 11.5727 11.9141 10.6468 11.9141H9.25078L10.1115 7.51219H11.6812ZM6.08984 16.3738H8.39002L8.93252 13.5739H10.9C11.768 13.5739 12.4841 13.4801 13.041 13.2997C13.6052 13.1193 14.1115 12.8162 14.5672 12.3832C14.9506 12.0296 15.2616 11.6399 15.5003 11.2142C15.739 10.7884 15.9054 10.3193 16.0067 9.80698C16.2526 8.55856 16.0645 7.59157 15.4569 6.89158C14.8493 6.19881 13.8801 5.84521 12.5492 5.84521H8.13686L6.08984 16.3738Z" fill="black"/>
<path d="M17.6988 3.05981H19.9773L19.4348 5.85975H21.4673C22.7476 5.85975 23.6228 6.08346 24.1075 6.52365C24.5921 6.97107 24.7368 7.68548 24.5415 8.68134L23.5867 13.574H21.272L22.1762 8.91948C22.2774 8.39268 22.2413 8.03187 22.0604 7.83703C21.8796 7.64219 21.5035 7.54837 20.9176 7.54837H19.0948L17.923 13.574H15.6445L17.6988 3.05981Z" fill="black"/>
<path d="M29.605 7.51231C30.4802 7.51231 31.0589 7.67107 31.3482 7.9958C31.6375 8.32054 31.7099 8.86898 31.558 9.64834C31.3988 10.4638 31.095 11.0411 30.6393 11.3947C30.1837 11.7411 29.4965 11.9143 28.5706 11.9143H27.1746L28.0354 7.51231H29.605ZM24.0137 16.374H26.3139L26.8563 13.574H28.8238C29.6918 13.574 30.4079 13.4802 30.9648 13.2998C31.529 13.1194 32.0354 12.8163 32.4911 12.3833C32.8744 12.0297 33.1855 11.64 33.4242 11.2143C33.6629 10.7885 33.8292 10.3195 33.9305 9.8071C34.1764 8.55868 33.9884 7.59169 33.3808 6.8917C32.7732 6.19894 31.8039 5.84534 30.473 5.84534H26.0535L24.0137 16.374Z" fill="black"/>
<defs>
<radialGradient id="paint0_radial_289_3207" cx="0" cy="0" r="1" gradientUnits="userSpaceOnUse" gradientTransform="translate(12.0087 3.68776) scale(26.2609 26.1994)">
<stop stop-color="white"/>
<stop offset="0.5" stop-color="#4C6B97"/>
<stop offset="1"/>
</radialGradient>
</defs>
</svg>
