<svg width="138" height="138" viewBox="0 0 138 138" fill="none" xmlns="http://www.w3.org/2000/svg">
<g filter="url(#filter0_d_289_3757)">
<circle cx="69" cy="61" r="50" fill="#EE3F59"/>
</g>
<path d="M62.3333 54.3334V56.0001H72.3333C72.8333 56.0001 73.1667 55.6667 73.1667 55.1667V51.0001C73.1667 50.5001 72.8333 50.1667 72.3333 50.1667H49.8333C46.5833 50.1667 44 52.7501 44 56.0001V67.6667H45.6667V56.0001C45.6667 53.6667 47.5 51.8334 49.8333 51.8334H50.9167L53.25 58.0001C53.3333 58.2501 53.6667 58.5001 54 58.5001C54.3333 58.5001 54.6667 58.2501 54.9167 58.0001L57.25 51.8334H71.5V54.3334H62.3333ZM54.0833 55.3334L52.75 51.8334H55.4167L54.0833 55.3334Z" fill="white"/>
<path d="M58.166 84.3333H54.8327V68.4999H53.166V84.3333H49.8327V56.8333H48.166V85.1666C48.166 85.6666 48.4993 85.9999 48.9993 85.9999H53.9993H58.9993C59.4993 85.9999 59.8327 85.6666 59.8327 85.1666V56.8333H58.166V84.3333Z" fill="white"/>
<path d="M54.8327 60.1667H53.166V61.8334H54.8327V60.1667Z" fill="white"/>
<path d="M54.8327 63.5H53.166V65.1667H54.8327V63.5Z" fill="white"/>
<path d="M53.1667 49.3333H54.8333C57.1667 49.3333 59 47.5 59 45.1667V42.6667C59 40.3333 57.1667 38.5 54.8333 38.5H53.1667C50.8333 38.5 49 40.3333 49 42.6667V45.1667C49 47.5 50.8333 49.3333 53.1667 49.3333ZM50.6667 42.6667C50.6667 41.25 51.75 40.1667 53.1667 40.1667H54.8333C56.25 40.1667 57.3333 41.25 57.3333 42.6667V45.1667C57.3333 46.5833 56.25 47.6667 54.8333 47.6667H53.1667C51.75 47.6667 50.6667 46.5833 50.6667 45.1667V42.6667Z" fill="white"/>
<path d="M68.9993 47.6667H87.3327C87.8327 47.6667 88.166 47.3333 88.166 46.8333V36.8333C88.166 36.3333 87.8327 36 87.3327 36H68.9993C68.4993 36 68.166 36.3333 68.166 36.8333V46.8333C68.166 47.3333 68.4993 47.6667 68.9993 47.6667ZM69.8327 37.6667H86.4993V46H69.8327V37.6667Z" fill="white"/>
<path d="M75.666 66.8333H63.9993C63.4993 66.8333 63.166 67.1666 63.166 67.6666V74.3333C63.166 74.8333 63.4993 75.1666 63.9993 75.1666H68.9993V77.6666H63.9993C63.4993 77.6666 63.166 77.9999 63.166 78.4999V85.1666C63.166 85.6666 63.4993 85.9999 63.9993 85.9999H75.666C76.166 85.9999 76.4993 85.6666 76.4993 85.1666V78.4999C76.4993 77.9999 76.166 77.6666 75.666 77.6666H70.666V75.1666H75.666C76.166 75.1666 76.4993 74.8333 76.4993 74.3333V67.6666C76.4993 67.1666 76.166 66.8333 75.666 66.8333ZM74.8327 84.3333H64.8327V79.3333H74.8327V84.3333ZM74.8327 73.4999H64.8327V68.4999H74.8327V73.4999Z" fill="white"/>
<path d="M93.166 75.1666C93.666 75.1666 93.9993 74.8333 93.9993 74.3333V67.6666C93.9993 67.1666 93.666 66.8333 93.166 66.8333H81.4993C80.9993 66.8333 80.666 67.1666 80.666 67.6666V74.3333C80.666 74.8333 80.9993 75.1666 81.4993 75.1666H86.4993V77.6666H81.4993C80.9993 77.6666 80.666 77.9999 80.666 78.4999V85.1666C80.666 85.6666 80.9993 85.9999 81.4993 85.9999H93.166C93.666 85.9999 93.9993 85.6666 93.9993 85.1666V78.4999C93.9993 77.9999 93.666 77.6666 93.166 77.6666H88.166V75.1666H93.166ZM92.3327 84.3333H82.3327V79.3333H92.3327V84.3333ZM82.3327 68.4999H92.3327V73.4999H82.3327V68.4999Z" fill="white"/>
<path d="M88.1667 65.1666V62.6666C88.1667 62.1666 87.8333 61.8333 87.3333 61.8333H79V49.3333H77.3333V61.8333H69.8333C69.3333 61.8333 69 62.1666 69 62.6666V65.1666H70.6667V63.4999H86.5V65.1666H88.1667Z" fill="white"/>
<path d="M81.5 39.3333H71.5V40.9999H81.5V39.3333Z" fill="white"/>
<path d="M84.8333 42.6667H71.5V44.3334H84.8333V42.6667Z" fill="white"/>
<path d="M69.0007 70.1667H67.334V71.8334H69.0007V70.1667Z" fill="white"/>
<path d="M72.3327 70.1667H70.666V71.8334H72.3327V70.1667Z" fill="white"/>
<path d="M69.0007 81H67.334V82.6667H69.0007V81Z" fill="white"/>
<path d="M72.3327 81H70.666V82.6667H72.3327V81Z" fill="white"/>
<path d="M86.5007 81H84.834V82.6667H86.5007V81Z" fill="white"/>
<path d="M89.8327 81H88.166V82.6667H89.8327V81Z" fill="white"/>
<path d="M86.5007 70.1667H84.834V71.8334H86.5007V70.1667Z" fill="white"/>
<path d="M89.8327 70.1667H88.166V71.8334H89.8327V70.1667Z" fill="white"/>
<defs>
<filter id="filter0_d_289_3757" x="0" y="0" width="138" height="138" filterUnits="userSpaceOnUse" color-interpolation-filters="sRGB">
<feFlood flood-opacity="0" result="BackgroundImageFix"/>
<feColorMatrix in="SourceAlpha" type="matrix" values="0 0 0 0 0 0 0 0 0 0 0 0 0 0 0 0 0 0 127 0" result="hardAlpha"/>
<feOffset dy="8"/>
<feGaussianBlur stdDeviation="9.5"/>
<feComposite in2="hardAlpha" operator="out"/>
<feColorMatrix type="matrix" values="0 0 0 0 0.933333 0 0 0 0 0.247059 0 0 0 0 0.34902 0 0 0 0.15 0"/>
<feBlend mode="normal" in2="BackgroundImageFix" result="effect1_dropShadow_289_3757"/>
<feBlend mode="normal" in="SourceGraphic" in2="effect1_dropShadow_289_3757" result="shape"/>
</filter>
</defs>
</svg>
