<svg width="40" height="40" viewBox="0 0 40 40" fill="none" xmlns="http://www.w3.org/2000/svg">
<path d="M23.9999 6.66635V5.33301V6.66635ZM15.9999 6.6664V7.99973V6.6664ZM34.2816 31.7925L33.3469 30.8416L32.8032 31.3763L32.988 32.1157L34.2816 31.7925ZM36 38.6664L35.6768 39.96C36.1312 40.0736 36.6117 39.9403 36.9429 39.6091C37.2741 39.2781 37.4072 38.7973 37.2936 38.3429L36 38.6664ZM25.3335 36L24.3906 35.0571L22.7254 36.7224L25.0101 37.2933L25.3335 36ZM25.3995 35.9339L26.3423 36.8765C26.74 36.4789 26.8453 35.8747 26.6059 35.3661C26.3665 34.8573 25.8336 34.5533 25.2739 34.6064L25.3995 35.9339ZM1.33333 21.333H0H1.33333ZM18.6667 0V6.66667H21.3333V0H18.6667ZM23.9999 5.33301L15.9998 5.33307L15.9999 7.99973L23.9999 7.99968L23.9999 5.33301ZM40 21.333C40 12.4964 32.8365 5.33293 23.9999 5.33301L23.9999 7.99968C31.3637 7.9996 37.3333 13.9692 37.3333 21.333H40ZM35.2163 32.7432C38.1675 29.8421 40 25.8003 40 21.333H37.3333C37.3333 25.0563 35.8091 28.4211 33.3469 30.8416L35.2163 32.7432ZM37.2936 38.3429L35.5752 31.4691L32.988 32.1157L34.7067 38.9899L37.2936 38.3429ZM25.0101 37.2933L35.6768 39.96L36.3235 37.3728L25.6568 34.7064L25.0101 37.2933ZM24.4567 34.9909L24.3906 35.0571L26.2763 36.9427L26.3423 36.8765L24.4567 34.9909ZM24 37.3331C24.5141 37.3331 25.0229 37.3088 25.5252 37.2613L25.2739 34.6064C24.855 34.6461 24.4301 34.6664 24 34.6664V37.3331ZM16 37.3331H24V34.6664H16V37.3331ZM0 21.333C-2.44776e-05 30.1696 7.16341 37.3331 16 37.3331V34.6664C8.63619 34.6664 2.66665 28.6968 2.66667 21.333H0ZM15.9998 5.33307C7.16336 5.33315 2.44777e-05 12.4965 0 21.333H2.66667C2.66669 13.9693 8.63613 7.99981 15.9999 7.99973L15.9998 5.33307ZM20 21.3333C17.7909 21.3333 16 19.5425 16 17.3333H13.3333C13.3333 21.0152 16.3181 24 20 24V21.3333ZM24 17.3333C24 19.5425 22.2091 21.3333 20 21.3333V24C23.6819 24 26.6667 21.0152 26.6667 17.3333H24ZM20 13.3333C22.2091 13.3333 24 15.1242 24 17.3333H26.6667C26.6667 13.6514 23.6819 10.6667 20 10.6667V13.3333ZM20 10.6667C16.3181 10.6667 13.3333 13.6514 13.3333 17.3333H16C16 15.1242 17.7909 13.3333 20 13.3333V10.6667ZM20 32C22.8365 32 25.4464 31.0141 27.5005 29.3675L25.8326 27.2869C24.2345 28.568 22.2085 29.3333 20 29.3333V32ZM12.4994 29.3675C14.5535 31.0141 17.1634 32 20 32V29.3333C17.7915 29.3333 15.7654 28.568 14.1673 27.2869L12.4994 29.3675Z" fill="#43D0CA"/>
</svg>
