<svg width="138" height="138" viewBox="0 0 138 138" fill="none" xmlns="http://www.w3.org/2000/svg">
<g filter="url(#filter0_d_306_5)">
<circle cx="69" cy="61" r="50" fill="#1B2B7C"/>
</g>
<path d="M84.6393 37.7279H82.8575V36.8099C82.8575 36.3625 82.4949 36 82.0475 36C81.6001 36 81.2376 36.3625 81.2376 36.8099V37.7279H77.6739V36.8099C77.6739 36.3625 77.3113 36 76.8639 36C76.4165 36 76.054 36.3625 76.054 36.8099V37.7279H72.4903V36.8099C72.4903 36.3625 72.1278 36 71.6803 36C71.2329 36 70.8704 36.3625 70.8704 36.8099V37.7279H67.3067V36.8099C67.3067 36.3625 66.9442 36 66.4968 36C66.0494 36 65.6868 36.3625 65.6868 36.8099V37.7279H62.1231V36.8099C62.1231 36.3625 61.7606 36 61.3132 36C60.8658 36 60.5032 36.3625 60.5032 36.8099V37.7279H56.9395V36.8099C56.9395 36.3625 56.577 36 56.1296 36C55.6822 36 55.3197 36.3625 55.3197 36.8099V37.7279H53.5378C52.1384 37.7279 51 38.8663 51 40.2657V83.4622C51 84.8616 52.1384 86 53.5378 86H84.6393C86.0387 86 87.1771 84.8616 87.1771 83.4622V40.2657C87.1771 38.8663 86.0387 37.7279 84.6393 37.7279ZM85.5572 83.4622C85.5572 83.9684 85.1455 84.3801 84.6393 84.3801H53.5378C53.0316 84.3801 52.6199 83.9684 52.6199 83.4622V40.2657C52.6199 39.7595 53.0316 39.3477 53.5378 39.3477H55.3197V40.2657C55.3197 40.7131 55.6822 41.0756 56.1296 41.0756C56.577 41.0756 56.9395 40.7131 56.9395 40.2657V39.3477H60.5032V40.2657C60.5032 40.7131 60.8658 41.0756 61.3132 41.0756C61.7606 41.0756 62.1231 40.7131 62.1231 40.2657V39.3477H65.6868V40.2657C65.6868 40.7131 66.0494 41.0756 66.4968 41.0756C66.9442 41.0756 67.3067 40.7131 67.3067 40.2657V39.3477H70.8704V40.2657C70.8704 40.7131 71.2329 41.0756 71.6803 41.0756C72.1278 41.0756 72.4903 40.7131 72.4903 40.2657V39.3477H76.054V40.2657C76.054 40.7131 76.4165 41.0756 76.8639 41.0756C77.3113 41.0756 77.6739 40.7131 77.6739 40.2657V39.3477H81.2376V40.2657C81.2376 40.7131 81.6001 41.0756 82.0475 41.0756C82.4949 41.0756 82.8575 40.7131 82.8575 40.2657V39.3477H84.6393C85.1455 39.3477 85.5572 39.7595 85.5572 40.2657V83.4622Z" fill="white"/>
<path d="M66.4974 48.8511H78.5925C79.0399 48.8511 79.4024 48.4885 79.4024 48.0411C79.4024 47.5937 79.0399 47.2312 78.5925 47.2312H66.4974C66.05 47.2312 65.6875 47.5937 65.6875 48.0411C65.6875 48.4885 66.05 48.8511 66.4974 48.8511Z" fill="white"/>
<path d="M82.0482 50.6868H66.4974C66.05 50.6868 65.6875 51.0493 65.6875 51.4967C65.6875 51.9441 66.05 52.3066 66.4974 52.3066H82.0482C82.4956 52.3066 82.8581 51.9441 82.8581 51.4967C82.8581 51.0493 82.4956 50.6868 82.0482 50.6868Z" fill="white"/>
<path d="M62.4689 46.6042L58.722 50.3513L56.703 48.3322C56.3866 48.016 55.8738 48.016 55.5575 48.3322C55.2412 48.6486 55.2412 49.1614 55.5575 49.4777L58.1493 52.0695C58.3075 52.2276 58.5149 52.3066 58.7221 52.3066C58.9294 52.3066 59.1367 52.2276 59.2949 52.0695L63.6146 47.7498C63.9309 47.4334 63.9309 46.9207 63.6146 46.6044C63.298 46.2882 62.7853 46.2882 62.4689 46.6042Z" fill="white"/>
<path d="M66.4974 57.4902H78.5925C79.0399 57.4902 79.4024 57.1277 79.4024 56.6803C79.4024 56.2329 79.0399 55.8704 78.5925 55.8704H66.4974C66.05 55.8704 65.6875 56.2329 65.6875 56.6803C65.6875 57.1277 66.05 57.4902 66.4974 57.4902Z" fill="white"/>
<path d="M82.0482 59.3262H66.4974C66.05 59.3262 65.6875 59.6887 65.6875 60.1361C65.6875 60.5835 66.05 60.946 66.4974 60.946H82.0482C82.4956 60.946 82.8581 60.5835 82.8581 60.1361C82.8581 59.6887 82.4956 59.3262 82.0482 59.3262Z" fill="white"/>
<path d="M62.4689 55.2436L58.722 58.9907L56.703 56.9716C56.3866 56.6554 55.8738 56.6554 55.5575 56.9716C55.2412 57.288 55.2412 57.8008 55.5575 58.1171L58.1493 60.7089C58.3075 60.867 58.5149 60.946 58.7221 60.946C58.9294 60.946 59.1367 60.867 59.2949 60.7089L63.6146 56.3892C63.9309 56.0728 63.9309 55.5601 63.6146 55.2438C63.298 54.9276 62.7853 54.9276 62.4689 55.2436Z" fill="white"/>
<path d="M66.4974 66.1296H78.5925C79.0399 66.1296 79.4024 65.7671 79.4024 65.3197C79.4024 64.8723 79.0399 64.5098 78.5925 64.5098H66.4974C66.05 64.5098 65.6875 64.8723 65.6875 65.3197C65.6875 65.7671 66.05 66.1296 66.4974 66.1296Z" fill="white"/>
<path d="M82.0482 67.9653H66.4974C66.05 67.9653 65.6875 68.3279 65.6875 68.7753C65.6875 69.2227 66.05 69.5852 66.4974 69.5852H82.0482C82.4956 69.5852 82.8581 69.2227 82.8581 68.7753C82.8581 68.3279 82.4956 67.9653 82.0482 67.9653Z" fill="white"/>
<path d="M62.4689 63.8831L58.722 67.6301L56.703 65.611C56.3866 65.2948 55.8738 65.2948 55.5575 65.611C55.2412 65.9274 55.2412 66.4402 55.5575 66.7565L58.1493 69.3483C58.3075 69.5064 58.5149 69.5854 58.7221 69.5854C58.9294 69.5854 59.1367 69.5064 59.2949 69.3483L63.6146 65.0286C63.9309 64.7122 63.9309 64.1995 63.6146 63.8832C63.298 63.567 62.7853 63.567 62.4689 63.8831Z" fill="white"/>
<path d="M66.4974 74.7688H78.5925C79.0399 74.7688 79.4024 74.4063 79.4024 73.9589C79.4024 73.5115 79.0399 73.1489 78.5925 73.1489H66.4974C66.05 73.1489 65.6875 73.5115 65.6875 73.9589C65.6875 74.4063 66.05 74.7688 66.4974 74.7688Z" fill="white"/>
<path d="M82.0482 76.6047H66.4974C66.05 76.6047 65.6875 76.9673 65.6875 77.4147C65.6875 77.8621 66.05 78.2246 66.4974 78.2246H82.0482C82.4956 78.2246 82.8581 77.8621 82.8581 77.4147C82.8581 76.9673 82.4956 76.6047 82.0482 76.6047Z" fill="white"/>
<path d="M62.4689 72.5222L58.722 76.2693L56.703 74.2502C56.3866 73.934 55.8738 73.934 55.5575 74.2502C55.2412 74.5666 55.2412 75.0793 55.5575 75.3956L58.1493 77.9874C58.3075 78.1455 58.5149 78.2246 58.7221 78.2246C58.9294 78.2246 59.1367 78.1455 59.2949 77.9874L63.6146 73.6678C63.9309 73.3514 63.9309 72.8386 63.6146 72.5223C63.298 72.2061 62.7853 72.2061 62.4689 72.5222Z" fill="white"/>
<defs>
<filter id="filter0_d_306_5" x="0" y="0" width="138" height="138" filterUnits="userSpaceOnUse" color-interpolation-filters="sRGB">
<feFlood flood-opacity="0" result="BackgroundImageFix"/>
<feColorMatrix in="SourceAlpha" type="matrix" values="0 0 0 0 0 0 0 0 0 0 0 0 0 0 0 0 0 0 127 0" result="hardAlpha"/>
<feOffset dy="8"/>
<feGaussianBlur stdDeviation="9.5"/>
<feComposite in2="hardAlpha" operator="out"/>
<feColorMatrix type="matrix" values="0 0 0 0 0.105882 0 0 0 0 0.168627 0 0 0 0 0.486275 0 0 0 0.15 0"/>
<feBlend mode="normal" in2="BackgroundImageFix" result="effect1_dropShadow_306_5"/>
<feBlend mode="normal" in="SourceGraphic" in2="effect1_dropShadow_306_5" result="shape"/>
</filter>
</defs>
</svg>
