<svg width="50" height="24" viewBox="0 0 50 24" fill="none" xmlns="http://www.w3.org/2000/svg">
<path d="M4.55877 13.9319C3.07726 13.9319 1.64084 13.4547 0.705773 12.9751L0 15.8471C0.865894 16.3259 2.59924 16.7814 4.35434 16.7814C8.57188 16.7814 10.5547 14.5934 10.5547 12.0175C10.5547 9.85195 9.27765 8.43885 6.56571 7.43538C4.58208 6.68219 3.71619 6.25002 3.71619 5.26987C3.71619 4.4716 4.44528 3.78759 5.9501 3.78759C7.45492 3.78759 8.54934 4.22131 9.16417 4.51746L9.9399 1.71379C9.02737 1.30339 7.75107 0.938843 6.0185 0.938843C2.39403 0.938843 0.205203 2.94423 0.205203 5.56601C0.205203 7.79992 1.86937 9.21302 4.42274 10.1022C6.26879 10.7637 6.99866 11.3109 6.99866 12.267C6.99866 13.2704 6.15453 13.9319 4.55877 13.9319Z" fill="#4385F3"/>
<path d="M22.7047 13.7042H16.3908V10.0572H22.0432V7.23025H16.3908V4.03873H22.386V1.18921H12.9023V16.5538H22.7047V13.7042Z" fill="#FABC05"/>
<path d="M34.4544 17.7197C36.6114 17.7197 38.588 16.9432 40.127 15.6576L43.1872 18.5133C43.1825 18.832 43.2983 19.1476 43.5486 19.3816L48.039 23.5742C48.2636 23.7841 48.5481 23.8875 48.8334 23.8875C49.1451 23.8875 49.4567 23.7631 49.686 23.5159C50.1252 23.0464 50.0996 22.3065 49.6301 21.8681L45.1397 17.6762C44.8894 17.4422 44.5645 17.3497 44.2489 17.3754L41.2292 14.5577C42.528 13.0164 43.3154 11.0281 43.3154 8.8587C43.3154 3.97347 39.342 0 34.4567 0C29.5715 0 25.5957 3.97503 25.5957 8.85948C25.5949 13.7455 29.5692 17.7197 34.4544 17.7197Z" fill="#EC4235"/>
</svg>
