<svg width="40" height="29" viewBox="0 0 40 29" fill="none" xmlns="http://www.w3.org/2000/svg">
<path d="M20.8205 2.6084V5.54284H0V26.5031V28.9485H30.7417V25.1057V11.1322L34.6543 12.1104V11.2021V0.442505L25.9907 2.6084H20.8205ZM22.2179 4.00575H25.4318V8.47727H22.2179V4.00575ZM29.3444 27.5511H1.39735V26.5031H29.3444V27.5511ZM26.7593 3.86601L33.1871 2.25906V10.2938L26.7593 8.68687V3.86601ZM29.3444 10.7829V25.1057H1.39735V6.94019H20.8205V9.94449H21.5192H25.9907L29.3444 10.7829Z" fill="#ED5565"/>
<path d="M15.3696 9.03601C11.5269 9.03601 8.38281 12.18 8.38281 16.0228C8.38281 19.8655 11.5269 23.0095 15.3696 23.0095C19.2123 23.0095 22.3563 19.8655 22.3563 16.0228C22.3563 12.18 19.2123 9.03601 15.3696 9.03601ZM19.352 20.0052C18.304 20.9834 16.9765 21.6122 15.3696 21.6122C13.8325 21.6122 12.4351 20.9834 11.3871 20.0052C10.409 18.9572 9.78016 17.6297 9.78016 16.0228C9.78016 14.4857 10.409 13.0883 11.3871 12.0403C12.4351 11.0622 13.7626 10.4334 15.3696 10.4334C16.9067 10.4334 18.304 11.0622 19.352 12.0403C20.3302 13.0883 20.959 14.4158 20.959 16.0228C20.959 17.5598 20.3302 18.9572 19.352 20.0052Z" fill="#ED5565"/>
<path d="M13.4844 13.0886V20.7042L18.1655 16.023L13.4844 11.3419V13.0886ZM14.8817 14.7654L16.1393 16.023L14.8817 17.2807V14.7654Z" fill="#ED5565"/>
<path d="M39.8243 5.54272H36.4707V6.94008H39.8243V5.54272Z" fill="#ED5565"/>
<path d="M39.3834 8.15729e-06L36.1953 1.4281L36.7665 2.70332L39.9546 1.27523L39.3834 8.15729e-06Z" fill="#ED5565"/>
<path d="M36.8115 9.82988L36.2402 11.1051L39.4283 12.5332L39.9995 11.258L36.8115 9.82988Z" fill="#ED5565"/>
</svg>
