<svg width="40" height="16" viewBox="0 0 40 16" fill="none" xmlns="http://www.w3.org/2000/svg">
<path d="M14.0215 3.5C15.4317 7.81241 15.9659 15.5054 20.0896 15.5054C20.4036 15.5054 20.7208 15.4746 21.0392 15.4141C17.2906 14.54 16.8463 6.93077 14.5589 2.99023C14.3795 3.15323 14.2014 3.32314 14.0215 3.5Z" fill="url(#paint0_linear_730_41875)"/>
<path d="M14.5605 2.99037C16.848 6.93091 17.2922 14.5402 21.0408 15.4142C21.3353 15.3601 21.6305 15.2783 21.9262 15.1751C18.5615 13.5264 17.6314 6.1374 15.0338 2.58008C14.8764 2.71102 14.7185 2.8482 14.5605 2.99037Z" fill="url(#paint1_linear_730_41875)"/>
<path d="M17.855 0.646973C17.5416 0.646973 17.2238 0.677675 16.9048 0.738245C16.0703 0.89556 15.2227 1.25485 14.3682 1.79855C14.6016 2.02886 14.8237 2.29251 15.0326 2.58011C15.9017 1.85896 16.7651 1.32598 17.6253 1.00566C17.9481 0.886099 18.2697 0.796135 18.5925 0.736986C18.3596 0.677775 18.1142 0.646973 17.855 0.646973Z" fill="#14559A"/>
<path d="M24.5511 13.6554C24.8953 13.3817 25.2401 13.079 25.5856 12.7487C24.1527 8.45636 23.6399 0.65332 19.4873 0.65332C19.1902 0.65332 18.8907 0.681006 18.5918 0.736378C22.3744 1.67718 22.8589 9.90687 24.5511 13.6554Z" fill="url(#paint2_linear_730_41875)"/>
<path d="M18.592 0.736924C18.3592 0.677775 18.1138 0.646973 17.8545 0.646973L19.4875 0.652956C19.1904 0.652956 18.8909 0.680642 18.592 0.736675" fill="#3092C4"/>
<path d="M24.479 14.5675C24.3167 14.4127 24.1625 14.2428 24.0108 14.0615C23.3123 14.5561 22.6164 14.9312 21.9248 15.1753C22.1708 15.2956 22.4288 15.3849 22.7026 15.4403C22.9146 15.4836 23.1343 15.5057 23.3652 15.5057C24.1411 15.5057 24.7546 15.4139 25.2769 15.1634C24.9894 15.008 24.7257 14.8066 24.479 14.5675Z" fill="#1969BC"/>
<path d="M17.625 1.00632C21.013 2.77835 21.3075 10.8029 24.0109 14.0613C24.1921 13.9336 24.3715 13.7983 24.5508 13.6554C22.8587 9.90681 22.3748 1.67647 18.5928 0.736328C18.27 0.796736 17.9478 0.886151 17.625 1.00632Z" fill="url(#paint3_linear_730_41875)"/>
<path d="M15.0322 2.58014C17.6299 6.13747 18.56 13.5265 21.9247 15.1752C22.6163 14.931 23.3123 14.5559 24.0108 14.0613C21.3074 10.8029 21.0129 2.77838 17.6248 1.00635C16.7646 1.32601 15.9013 1.85899 15.0322 2.58014Z" fill="url(#paint4_linear_730_41875)"/>
<path d="M12.3591 3.3964C11.9519 4.31706 11.536 5.52713 11.0332 7.10662C12.0331 5.69764 13.0299 4.48379 14.021 3.50026C13.8845 3.08051 13.7378 2.69352 13.5799 2.34863C13.1746 2.65889 12.7662 3.00816 12.3591 3.3964Z" fill="url(#paint5_linear_730_41875)"/>
<path d="M13.9426 2.08301C13.823 2.16858 13.7028 2.25608 13.582 2.34856C13.74 2.69341 13.8859 3.08044 14.0225 3.50014C14.2025 3.32394 14.3812 3.15342 14.5599 2.99042C14.368 2.66067 14.1641 2.3561 13.9426 2.08301Z" fill="#2B74B1"/>
<path d="M14.3681 1.79883C14.2258 1.88884 14.0843 1.98383 13.9414 2.08325C14.1629 2.35636 14.3668 2.66093 14.5594 2.99133C14.7173 2.84846 14.8752 2.71067 15.0326 2.58039C14.8237 2.29284 14.6015 2.02914 14.3681 1.79883Z" fill="#125A9E"/>
<path d="M37.4791 0.318627C35.5629 7.70821 31.5607 13.6436 28.2054 15.14H28.1991C28.138 15.1677 28.0776 15.1928 28.0179 15.2174C28.0096 15.2223 28.0021 15.223 27.9958 15.226C27.9782 15.2331 27.9618 15.2385 27.9442 15.2456C27.936 15.2506 27.9285 15.2522 27.9209 15.2552C27.8926 15.2653 27.8649 15.2738 27.8373 15.2849C27.8253 15.2899 27.814 15.293 27.8026 15.297C27.79 15.302 27.7755 15.3066 27.7611 15.3106C27.7485 15.3156 27.7353 15.3192 27.7208 15.3247C27.7088 15.3297 27.6962 15.3318 27.685 15.3368C27.6604 15.3439 27.6378 15.3499 27.6132 15.3584C27.6031 15.3584 27.5937 15.3639 27.583 15.3665C27.5679 15.3715 27.5509 15.3751 27.5345 15.3796C27.5232 15.3846 27.5138 15.3862 27.5018 15.3887C27.4848 15.3937 27.4659 15.3983 27.449 15.4023C27.4263 15.4073 27.4062 15.4119 27.3848 15.4164C27.5364 15.4724 27.6944 15.5007 27.8649 15.5007C31.0465 15.5007 34.2545 9.79886 39.5625 0.316895H37.4784L37.4791 0.318627Z" fill="url(#paint6_linear_730_41875)"/>
<path d="M10.3432 0.94708C10.3452 0.94708 10.3477 0.942094 10.3489 0.942094C10.3514 0.942094 10.3553 0.942094 10.3565 0.937107H10.3605C10.3781 0.931124 10.3945 0.924019 10.4121 0.917474C10.4166 0.917474 10.419 0.917474 10.4222 0.912488C10.4267 0.912488 10.431 0.907502 10.4354 0.906878C10.4543 0.900895 10.4732 0.89379 10.4908 0.887245H10.4938C10.536 0.874668 10.575 0.859061 10.6159 0.844464C10.6216 0.844464 10.6272 0.839477 10.6341 0.839477C10.6511 0.833993 10.6687 0.827884 10.6863 0.823871C10.6946 0.818884 10.7027 0.818884 10.7102 0.816267C10.7285 0.810782 10.7461 0.804674 10.7631 0.80066C10.7707 0.80066 10.7776 0.795674 10.7832 0.795175C10.8418 0.779069 10.8997 0.763961 10.9582 0.749863C10.9664 0.749863 10.9733 0.744877 10.9821 0.744378C10.9991 0.739392 11.0148 0.736774 11.0331 0.734281C11.0407 0.729295 11.0494 0.729295 11.0582 0.726677C11.0752 0.721691 11.0916 0.721192 11.1098 0.717078H11.1218C11.157 0.709973 11.1929 0.70399 11.2282 0.697445H11.2496C11.2665 0.692459 11.2816 0.69196 11.2986 0.688844C11.308 0.688844 11.3175 0.683858 11.3263 0.683858C11.342 0.683858 11.3578 0.678872 11.3735 0.676752C11.3817 0.676752 11.3899 0.676753 11.3993 0.671766C11.4364 0.66678 11.4748 0.664786 11.5138 0.661669C11.4037 0.651074 11.2905 0.644043 11.1753 0.644043C7.59219 0.644043 2.65551 7.29234 0.431641 15.9021H0.860179C1.57189 14.6329 2.21124 13.4322 2.79584 12.3052C4.3533 6.20686 7.52549 2.04794 10.3434 0.946095" fill="url(#paint7_linear_730_41875)"/>
<path d="M12.3613 3.39631C12.7685 3.00807 13.1769 2.6588 13.5821 2.34859C13.4896 2.14596 13.394 1.95843 13.2914 1.78662C12.9636 2.18432 12.664 2.70914 12.3613 3.39631Z" fill="#0D82CA"/>
<path d="M12.6537 0.997382C12.8878 1.19371 13.0973 1.46369 13.2893 1.78715C13.3497 1.71289 13.4108 1.64428 13.4743 1.5801C13.2081 1.33155 12.9205 1.12766 12.6084 0.974121C12.621 0.981102 12.6336 0.986711 12.6467 0.992246C12.6467 0.992246 12.6516 0.997232 12.6538 0.997232" fill="#0D82CA"/>
<path d="M2.79395 12.3054C6.06115 6.00946 7.60918 2.02487 10.3415 0.946289C7.52423 2.04883 4.35141 6.2077 2.79395 12.3054Z" fill="url(#paint8_linear_730_41875)"/>
<path d="M13.476 1.58008C13.4125 1.64492 13.3521 1.71289 13.291 1.78714C13.3936 1.95891 13.4892 2.14583 13.5824 2.34906C13.7032 2.25658 13.8234 2.16909 13.9429 2.08351C13.7951 1.90102 13.639 1.73176 13.476 1.58008Z" fill="#127BCA"/>
<path d="M4.27841 15.8742C4.25827 15.8792 4.23813 15.8792 4.21925 15.8813H4.20792C4.19091 15.8813 4.17329 15.8863 4.15758 15.8863H4.14938C4.1085 15.8913 4.0682 15.8913 4.02919 15.8944H4.0166C7.32346 15.8019 8.83498 14.1462 9.58508 11.7449C10.1552 9.92443 10.6234 8.39086 11.0337 7.104C9.64864 9.05351 8.2573 11.3774 6.85842 13.9807C6.18383 15.2355 5.15811 15.7597 4.27838 15.8718" fill="url(#paint9_linear_730_41875)"/>
<path d="M4.28027 15.873C5.16 15.7609 6.18573 15.2374 6.86031 13.982C8.25919 11.3793 9.65115 9.05475 11.0349 7.10524C11.5384 5.5251 11.9537 4.31569 12.3615 3.39502C9.60334 6.02037 6.83451 10.3857 4.28027 15.8717" fill="url(#paint10_linear_730_41875)"/>
<path d="M2.79601 12.3057C2.21144 13.4327 1.57209 14.6334 0.860352 15.9026H2.10698C2.27185 14.6421 2.50594 13.4402 2.79601 12.3063" fill="#05A1E6"/>
<path d="M11.3997 0.674775C11.3896 0.674775 11.3821 0.679761 11.3733 0.679761C11.3582 0.684748 11.3424 0.684748 11.3267 0.686368C11.3174 0.686368 11.3085 0.686368 11.2991 0.691354C11.282 0.696341 11.2663 0.696839 11.25 0.699956C11.2424 0.699956 11.2349 0.699956 11.2286 0.704942C11.1927 0.710925 11.1575 0.717532 11.1222 0.723565H11.1103C11.092 0.728551 11.0756 0.731169 11.0587 0.733662C11.0498 0.738649 11.041 0.738649 11.0328 0.740643C11.0159 0.745629 10.9988 0.747748 10.9825 0.75074C10.9736 0.755726 10.9668 0.755726 10.9586 0.756225C10.9001 0.770323 10.8422 0.785432 10.7836 0.801537C10.7774 0.801537 10.7711 0.806523 10.7635 0.807521C10.7459 0.812507 10.7289 0.817618 10.7106 0.823127C10.703 0.828114 10.6943 0.828114 10.6867 0.830108C10.6691 0.835094 10.6515 0.840205 10.6345 0.845715C10.6276 0.845715 10.6219 0.850701 10.6156 0.850701C10.5753 0.865797 10.5357 0.880905 10.4942 0.893495C10.4766 0.89898 10.4577 0.906073 10.4388 0.912617C10.4312 0.917604 10.4243 0.918725 10.4155 0.922216C10.3979 0.927701 10.3803 0.934806 10.3639 0.94135C10.3577 0.946337 10.3514 0.946835 10.347 0.949453C7.61464 2.02803 6.06662 6.01262 2.79941 12.3086C2.50931 13.4425 2.27459 14.6444 2.11035 15.9049H2.28529C2.77801 15.9049 2.91709 15.8999 3.48406 15.8999H3.51301H3.59733H3.62628H3.63448H3.66343H3.67979H3.69112H3.71378H3.78426H3.85473H3.91389H3.92959H4.03342C4.07244 15.8949 4.11271 15.8949 4.15362 15.8918H4.16117C4.17819 15.8918 4.19515 15.8868 4.21151 15.8868H4.22344C4.24167 15.8868 4.26246 15.8818 4.28259 15.8797C6.83683 10.3937 9.60565 6.02833 12.3638 3.40298C12.6671 2.71582 12.966 2.19099 13.2932 1.79394C13.1019 1.4705 12.8924 1.19991 12.6583 1.00353C12.6583 1.00353 12.6519 1.00353 12.6514 0.998542C12.6382 0.993057 12.6257 0.986451 12.6124 0.979919C12.5992 0.972813 12.5879 0.967329 12.5741 0.960286C12.5621 0.955299 12.5482 0.948693 12.5363 0.942161C12.5199 0.937174 12.5067 0.930069 12.4923 0.923525C12.4803 0.918538 12.4696 0.913428 12.4576 0.908429C12.433 0.89883 12.4085 0.888796 12.3853 0.878225C12.3745 0.873239 12.3645 0.870621 12.3544 0.866632C12.3374 0.860524 12.3179 0.852534 12.3003 0.844979C12.2914 0.839993 12.2814 0.838996 12.2713 0.835381C12.2455 0.82678 12.2204 0.817767 12.1964 0.809702H12.1902C12.1612 0.800104 12.1329 0.793098 12.1034 0.785033C12.0965 0.780047 12.0908 0.780047 12.0839 0.779049C12.058 0.771944 12.0354 0.764951 12.0109 0.758406C12.0046 0.758406 11.9989 0.75342 11.9939 0.75342C11.9348 0.737813 11.8737 0.725236 11.812 0.713655C11.8057 0.713655 11.7995 0.708669 11.7932 0.708669C11.7667 0.703683 11.7409 0.699071 11.7145 0.696079C11.7082 0.691093 11.7044 0.691093 11.6988 0.691093C11.6673 0.686106 11.6365 0.682491 11.6057 0.679001H11.5893C11.5641 0.674015 11.5409 0.673516 11.5176 0.670898C11.4779 0.675885 11.4402 0.678004 11.403 0.681494" fill="url(#paint11_linear_730_41875)"/>
<path d="M29.9928 4.40967C29.3642 6.42337 28.8551 8.08466 28.4121 9.45146C30.137 7.07782 31.836 4.09187 33.4539 0.645996C31.5667 1.23872 30.5598 2.59549 29.9928 4.40967Z" fill="url(#paint12_linear_730_41875)"/>
<path d="M28.4662 15.0144C28.3781 15.0592 28.29 15.1018 28.2031 15.1402C31.5584 13.6438 35.5606 7.70843 37.4768 0.318848H37.0885C32.6861 8.18291 31.2702 13.4474 28.4662 15.0144Z" fill="url(#paint13_linear_730_41875)"/>
<path d="M26.2759 14.3532C27.0058 13.4622 27.6005 11.9475 28.4123 9.45117C27.4759 10.7374 26.5333 11.8431 25.5899 12.7448C25.5899 12.7498 25.5899 12.7498 25.585 12.7529C25.7908 13.3696 26.0166 13.9139 26.274 14.3531" fill="#079AE1"/>
<path d="M26.2747 14.3535C26.0261 14.6568 25.7631 14.8878 25.4705 15.059C25.4063 15.0962 25.3415 15.1313 25.2754 15.1634C25.5844 15.3302 25.9216 15.4416 26.2992 15.4862C26.3545 15.4917 26.4093 15.4968 26.4666 15.5008H26.4767C26.5024 15.5008 26.5296 15.5008 26.5572 15.5058H26.5683H26.6508H26.7396H26.7673H26.8302C26.8403 15.5058 26.8508 15.5058 26.8609 15.5008C26.8805 15.5008 26.9012 15.5008 26.9213 15.4958H26.9284H26.951C26.9717 15.4958 26.9943 15.4908 27.0165 15.4887H27.0215C27.0281 15.4887 27.0351 15.4837 27.0416 15.4837C27.0648 15.4788 27.0889 15.4766 27.1115 15.4731H27.1321C27.1578 15.4682 27.1843 15.465 27.2108 15.4601H27.2157H27.2234C27.2762 15.45 27.3278 15.4399 27.38 15.4268C26.9471 15.2682 26.5846 14.8945 26.2725 14.3621" fill="#1969BC"/>
<path d="M20.0898 15.5057C20.4039 15.5057 20.721 15.475 21.0394 15.4138C21.334 15.3604 21.6291 15.2785 21.9248 15.1753C22.1709 15.2955 22.4289 15.3849 22.702 15.4402C22.914 15.4835 23.1343 15.5057 23.3653 15.5057H20.0898Z" fill="#1E5CB3"/>
<path d="M23.3675 15.5059C24.1427 15.5059 24.7569 15.414 25.2786 15.1636C25.5875 15.3303 25.9248 15.4417 26.3024 15.4864C26.3578 15.4919 26.4126 15.497 26.4698 15.501H26.4799C26.5056 15.501 26.5328 15.501 26.5604 15.506H26.572H26.6545H23.3652L23.3675 15.5059Z" fill="#1E5CB3"/>
<path d="M26.6543 15.5057H26.7437H26.7713H26.8337C26.8443 15.5057 26.8543 15.5057 26.8644 15.5007C26.884 15.5007 26.9047 15.5007 26.9254 15.4957H26.9321H26.9552C26.9758 15.4957 26.9985 15.4907 27.02 15.4887H27.0255C27.0321 15.4887 27.0386 15.4838 27.0452 15.4838C27.0683 15.4788 27.0925 15.4768 27.115 15.4732C27.1226 15.4732 27.1286 15.4732 27.1366 15.4682C27.1623 15.4632 27.1889 15.4606 27.2153 15.4556H27.2203H27.2279C27.2808 15.4455 27.3324 15.4355 27.3846 15.4224C27.5362 15.4783 27.6942 15.5067 27.8647 15.5067L26.6552 15.5117L26.6543 15.5057Z" fill="#1D60B5"/>
<path d="M25.5868 12.753V12.748C25.2413 13.0784 24.8965 13.3811 24.5522 13.6548C24.3723 13.7977 24.1929 13.933 24.0117 14.0607C24.1633 14.242 24.3175 14.4119 24.4799 14.5667C24.7266 14.8057 24.9902 15.0072 25.2778 15.1626C25.3433 15.1303 25.4087 15.0952 25.4722 15.0581C25.7655 14.8869 26.0285 14.656 26.2771 14.3527C26.0197 13.9135 25.7938 13.3691 25.588 12.7524" fill="#175FAB"/>
<path d="M35.8595 0.318848H34.2272H34.0648H33.9113H33.9053C33.7996 0.323834 33.6971 0.327449 33.5957 0.333956C33.5479 0.43656 33.4988 0.539151 33.4516 0.642353C31.8337 4.08822 30.1347 7.07418 28.4098 9.44781C27.5987 11.9441 27.0034 13.4588 26.2734 14.3499C26.5856 14.8823 26.9487 15.2566 27.3803 15.4152C27.3929 15.4102 27.403 15.4102 27.4143 15.4076H27.4213C27.4289 15.4076 27.437 15.4026 27.4452 15.4026C27.4628 15.3977 27.4817 15.3945 27.4993 15.3891C27.5107 15.3841 27.5201 15.3836 27.5315 15.38C27.5478 15.375 27.5648 15.3714 27.5799 15.3674C27.59 15.3624 27.6 15.3608 27.6101 15.3588C27.6353 15.3507 27.6579 15.3447 27.6818 15.3371C27.6932 15.3321 27.7051 15.328 27.7177 15.325C27.7316 15.32 27.7454 15.3164 27.758 15.3104C27.7725 15.3054 27.7869 15.3028 27.7995 15.2973C27.8109 15.2923 27.8228 15.2892 27.8335 15.2847C27.8618 15.2746 27.8895 15.2661 27.9178 15.255C27.9254 15.255 27.9329 15.2481 27.9411 15.2464C27.9581 15.2393 27.9757 15.2338 27.9927 15.2263C27.999 15.2213 28.0066 15.2208 28.0147 15.2182C28.0739 15.1935 28.1349 15.1684 28.196 15.1408H28.2023C28.2892 15.1026 28.3773 15.0596 28.4647 15.015C31.2694 13.4481 32.6853 8.18352 37.0878 0.319458H35.8581L35.8595 0.318848Z" fill="url(#paint14_linear_730_41875)"/>
<path d="M11.5146 0.664108C11.5216 0.664108 11.5279 0.664108 11.5348 0.669094C11.5517 0.669094 11.5688 0.669094 11.5858 0.674579H11.6028C11.6336 0.679565 11.6644 0.682183 11.6959 0.68667C11.7016 0.68667 11.7066 0.68667 11.7116 0.691657C11.7374 0.696643 11.7638 0.700756 11.7903 0.704745C11.796 0.704745 11.8035 0.709732 11.8098 0.709732C11.8702 0.721823 11.9319 0.734401 11.991 0.750008C11.9966 0.750008 12.0024 0.754994 12.0074 0.754994C12.0326 0.760977 12.0552 0.768581 12.0804 0.775624C12.088 0.775624 12.0936 0.780611 12.1005 0.781732C12.1301 0.789336 12.1578 0.796841 12.1867 0.806402C12.188 0.806402 12.1897 0.806402 12.1931 0.811388C12.2176 0.818867 12.2428 0.828503 12.2686 0.837054C12.2787 0.842041 12.2881 0.84416 12.2975 0.846653C12.3152 0.854257 12.3347 0.861749 12.3517 0.868804C12.3618 0.868804 12.3718 0.875785 12.3825 0.8794C12.4057 0.889996 12.4303 0.899532 12.4542 0.909604C12.4668 0.91459 12.4775 0.9202 12.4895 0.9247C12.5033 0.931805 12.5177 0.938299 12.5329 0.943336C12.5454 0.949319 12.5593 0.955913 12.5712 0.961448C12.5845 0.968553 12.597 0.974038 12.6096 0.981081C12.9217 1.13463 13.2093 1.33917 13.4755 1.5871C13.5737 1.4839 13.6762 1.39137 13.7826 1.30831C13.2005 0.895505 12.541 0.660156 11.7802 0.660156C11.6921 0.660156 11.604 0.665142 11.5147 0.671749" fill="#7DCBEC"/>
<path d="M13.4746 1.57957C13.6376 1.7312 13.7937 1.90051 13.9415 2.08301C14.0844 1.98358 14.226 1.88792 14.3682 1.79857C14.1819 1.61229 13.9856 1.44491 13.7811 1.30078C13.6747 1.38324 13.5728 1.47637 13.4746 1.57957Z" fill="#5EC5ED"/>
<path d="M11.5134 0.663952C11.6027 0.656401 11.6908 0.653254 11.7789 0.653254C12.5397 0.653254 13.1992 0.888604 13.7813 1.30078C14.3954 0.816237 15.138 0.646962 16.1694 0.646962H11.1748C11.29 0.646962 11.4026 0.653884 11.5134 0.663952Z" fill="url(#paint15_linear_730_41875)"/>
<path d="M16.1703 0.64725C15.1389 0.64725 14.3964 0.816526 13.7822 1.30107C13.9861 1.44517 14.1824 1.61256 14.3687 1.79883C15.2239 1.25513 16.0709 0.895185 16.906 0.737866C17.2244 0.678084 17.5422 0.64725 17.8555 0.64725H16.1703Z" fill="url(#paint16_linear_730_41875)"/>
<path d="M28.4135 9.45252C28.8571 8.08446 29.3649 6.42383 29.9948 4.40948C30.5625 2.59465 31.5674 1.23792 33.4546 0.645799C33.5045 0.544455 33.5515 0.439994 33.6 0.337402C30.5234 0.521805 29.0855 2.08679 28.3619 4.40445C27.0964 8.4507 26.3299 11.0735 25.5918 12.7449C26.5345 11.8438 27.4771 10.7375 28.4135 9.45252Z" fill="url(#paint17_linear_730_41875)"/>
<path d="M32.9257 14.4278H32.5771V15.5114H32.4348V14.4278H32.085V14.2988H32.9257V14.4278Z" fill="black"/>
<path d="M34.3516 15.5114H34.21V14.6971C34.21 14.6329 34.215 14.5543 34.2216 14.4618C34.207 14.5172 34.1949 14.5556 34.1839 14.5801L33.771 15.5114H33.7018L33.2878 14.587C33.2757 14.5614 33.2636 14.5197 33.2505 14.4618H33.2455C33.2505 14.5106 33.2521 14.5895 33.2521 14.699V15.5114H33.1162V14.2988H33.3037L33.6756 15.1452C33.7038 15.2088 33.7214 15.2578 33.7304 15.2906H33.7359C33.7605 15.2239 33.7807 15.1741 33.7944 15.1414L34.1738 14.2988H34.3526V15.5114H34.3516Z" fill="black"/>
<defs>
<linearGradient id="paint0_linear_730_41875" x1="17.5301" y1="0.547777" x2="17.5301" y2="19.213" gradientUnits="userSpaceOnUse">
<stop stop-color="#0994DC"/>
<stop offset="0.350006" stop-color="#66CEF5"/>
<stop offset="0.846161" stop-color="#127BCA"/>
<stop offset="1" stop-color="#127BCA"/>
</linearGradient>
<linearGradient id="paint1_linear_730_41875" x1="18.2434" y1="0.0753434" x2="18.2434" y2="19.2162" gradientUnits="userSpaceOnUse">
<stop stop-color="#0E76BC"/>
<stop offset="0.360001" stop-color="#36AEE8"/>
<stop offset="0.846161" stop-color="#00ADEF"/>
<stop offset="1" stop-color="#00ADEF"/>
</linearGradient>
<linearGradient id="paint2_linear_730_41875" x1="22.0886" y1="15.0755" x2="22.0886" y2="-0.154626" gradientUnits="userSpaceOnUse">
<stop stop-color="#1C63B7"/>
<stop offset="0.5" stop-color="#33BDF2"/>
<stop offset="1" stop-color="#33BDF2" stop-opacity="0.419608"/>
</linearGradient>
<linearGradient id="paint3_linear_730_41875" x1="21.088" y1="-1.86404" x2="21.088" y2="18.0091" gradientUnits="userSpaceOnUse">
<stop stop-color="#166AB8"/>
<stop offset="0.399994" stop-color="#36AEE8"/>
<stop offset="0.846161" stop-color="#0798DD"/>
<stop offset="1" stop-color="#0798DD"/>
</linearGradient>
<linearGradient id="paint4_linear_730_41875" x1="19.5214" y1="-1.75956" x2="19.5214" y2="19.3729" gradientUnits="userSpaceOnUse">
<stop stop-color="#124379"/>
<stop offset="0.389999" stop-color="#1487CB"/>
<stop offset="0.780228" stop-color="#165197"/>
<stop offset="1" stop-color="#165197"/>
</linearGradient>
<linearGradient id="paint5_linear_730_41875" x1="11.0332" y1="4.72765" x2="14.021" y2="4.72765" gradientUnits="userSpaceOnUse">
<stop stop-color="#33BDF2" stop-opacity="0.698039"/>
<stop offset="1" stop-color="#1DACD8"/>
</linearGradient>
<linearGradient id="paint6_linear_730_41875" x1="33.4748" y1="14.6939" x2="33.4748" y2="-0.142352" gradientUnits="userSpaceOnUse">
<stop stop-color="#136AB4"/>
<stop offset="0.6" stop-color="#59CAF5" stop-opacity="0.54902"/>
<stop offset="1" stop-color="#59CAF5" stop-opacity="0.235294"/>
</linearGradient>
<linearGradient id="paint7_linear_730_41875" x1="0.431556" y1="8.27304" x2="11.5138" y2="8.27304" gradientUnits="userSpaceOnUse">
<stop stop-color="#05A1E6" stop-opacity="0.247059"/>
<stop offset="1" stop-color="#05A1E6"/>
</linearGradient>
<linearGradient id="paint8_linear_730_41875" x1="6.5676" y1="15.0672" x2="6.5676" y2="-0.123896" gradientUnits="userSpaceOnUse">
<stop stop-color="#318ED5"/>
<stop offset="1" stop-color="#38A7E4"/>
</linearGradient>
<linearGradient id="paint9_linear_730_41875" x1="7.52504" y1="15.1209" x2="7.52504" y2="0.35425" gradientUnits="userSpaceOnUse">
<stop stop-color="#05A1E6"/>
<stop offset="1" stop-color="#05A1E6" stop-opacity="0.54902"/>
</linearGradient>
<linearGradient id="paint10_linear_730_41875" x1="8.32087" y1="15.8743" x2="8.32087" y2="3.39629" gradientUnits="userSpaceOnUse">
<stop stop-color="#1959A6"/>
<stop offset="0.5" stop-color="#05A1E6"/>
<stop offset="0.917587" stop-color="#7EC5EA"/>
<stop offset="1" stop-color="#7EC5EA"/>
</linearGradient>
<linearGradient id="paint11_linear_730_41875" x1="8.79817" y1="15.0773" x2="4.56845" y2="2.15105" gradientUnits="userSpaceOnUse">
<stop stop-color="#165096"/>
<stop offset="1" stop-color="#0D82CA"/>
</linearGradient>
<linearGradient id="paint12_linear_730_41875" x1="30.9327" y1="7.42603" x2="30.9327" y2="0.35551" gradientUnits="userSpaceOnUse">
<stop stop-color="#05A1E6"/>
<stop offset="0.873627" stop-color="#0495D6"/>
<stop offset="1" stop-color="#0495D6"/>
</linearGradient>
<linearGradient id="paint13_linear_730_41875" x1="34.2554" y1="-0.297934" x2="27.6657" y2="14.3332" gradientUnits="userSpaceOnUse">
<stop stop-color="#38A7E4" stop-opacity="0.329412"/>
<stop offset="0.961533" stop-color="#0E88D3"/>
<stop offset="1" stop-color="#0E88D3"/>
</linearGradient>
<linearGradient id="paint14_linear_730_41875" x1="31.6824" y1="0.274196" x2="31.6824" y2="15.6993" gradientUnits="userSpaceOnUse">
<stop stop-color="#168CD4"/>
<stop offset="0.5" stop-color="#1C87CC"/>
<stop offset="1" stop-color="#154B8D"/>
</linearGradient>
<linearGradient id="paint15_linear_730_41875" x1="12.0076" y1="-0.0432426" x2="12.0744" y2="1.57451" gradientUnits="userSpaceOnUse">
<stop stop-color="#97D6EE"/>
<stop offset="0.703293" stop-color="#55C1EA"/>
<stop offset="1" stop-color="#55C1EA"/>
</linearGradient>
<linearGradient id="paint16_linear_730_41875" x1="14.0629" y1="1.72627" x2="14.365" y2="0.0126303" gradientUnits="userSpaceOnUse">
<stop stop-color="#7ACCEC"/>
<stop offset="1" stop-color="#3FB7ED"/>
</linearGradient>
<linearGradient id="paint17_linear_730_41875" x1="29.5956" y1="1.12687" x2="29.5956" y2="16.2142" gradientUnits="userSpaceOnUse">
<stop stop-color="#1DA7E7"/>
<stop offset="1" stop-color="#37ABE7" stop-opacity="0"/>
</linearGradient>
</defs>
</svg>
