<svg width="40" height="48" viewBox="0 0 40 48" fill="none" xmlns="http://www.w3.org/2000/svg">
<path d="M3.86621 13.4678C2.21021 13.4678 0.866211 14.8118 0.866211 16.4678V28.4678C0.866211 30.1238 2.21021 31.4678 3.86621 31.4678C5.52221 31.4678 6.86621 30.1238 6.86621 28.4678V16.4678C6.86621 14.8103 5.52221 13.4678 3.86621 13.4678Z" fill="#97C024"/>
<path d="M36.8662 13.4678C35.2102 13.4678 33.8662 14.8118 33.8662 16.4678V28.4678C33.8662 30.1238 35.2102 31.4678 36.8662 31.4678C38.5222 31.4678 39.8662 30.1238 39.8662 28.4678V16.4678C39.8662 14.8103 38.5222 13.4678 36.8662 13.4678Z" fill="#97C024"/>
<path d="M8.36621 37.4678H11.3662V44.9678C11.3662 46.6238 12.7102 47.9678 14.3662 47.9678C16.0222 47.9678 17.3662 46.6238 17.3662 44.9678V37.4678H23.3662V44.9678C23.3662 46.6238 24.7102 47.9678 26.3662 47.9678C28.0222 47.9678 29.3662 46.6238 29.3662 44.9678V37.4678H32.3662V14.9678H8.36621V37.4678Z" fill="#97C024"/>
<path d="M27.4507 3.79596L28.9912 1.12746C29.1997 0.767456 29.0767 0.309956 28.7152 0.101456C28.3582 -0.107044 27.8977 0.0159561 27.6907 0.377456L26.1892 2.97846C24.4642 2.01846 22.4812 1.46796 20.3662 1.46796C18.2527 1.46796 16.2697 2.01846 14.5432 2.97996L13.0402 0.375956C12.8317 0.0174562 12.3757 -0.105544 12.0142 0.101456C11.6572 0.308456 11.5342 0.765956 11.7397 1.12596L13.2817 3.79596C10.3072 5.97996 8.36621 9.49296 8.36621 13.468H32.3662C32.3662 9.49296 30.4252 5.97996 27.4507 3.79596ZM15.8662 8.96796C15.0367 8.96796 14.3662 8.29746 14.3662 7.46796C14.3662 6.63846 15.0367 5.96796 15.8662 5.96796C16.6957 5.96796 17.3662 6.63846 17.3662 7.46796C17.3662 8.29746 16.6957 8.96796 15.8662 8.96796ZM24.8662 8.96796C24.0367 8.96796 23.3662 8.29746 23.3662 7.46796C23.3662 6.63846 24.0367 5.96796 24.8662 5.96796C25.6957 5.96796 26.3662 6.63846 26.3662 7.46796C26.3662 8.29746 25.6957 8.96796 24.8662 8.96796Z" fill="#97C024"/>
</svg>
