<svg width="48" height="48" viewBox="0 0 48 48" fill="none" xmlns="http://www.w3.org/2000/svg">
<path d="M23.9298 0.0605469L1.39526 7.99104L4.95633 37.5149L23.9537 47.9562L43.0491 37.3734L46.6088 7.85059L23.9298 0.0605469Z" fill="#B3B3B3"/>
<path d="M44.3612 9.55702L23.8773 2.57178V45.4617L41.0437 35.9611L44.361 9.55702H44.3612Z" fill="#A6120D"/>
<path d="M3.92395 9.68262L6.97551 36.0871L23.8768 45.4615V2.5708L3.92413 9.68244L3.92395 9.68262Z" fill="#DD1B16"/>
<path d="M29.5158 25.4042L23.8772 28.041H17.9343L15.1407 35.0286L9.94458 35.1246L23.8772 4.12939L29.5158 25.4044V25.4042ZM28.9707 24.0768L23.9147 14.0674L19.7673 23.9045H23.877L28.9707 24.077V24.0768Z" fill="#F2F2F2"/>
<path d="M23.8772 4.12891L23.9145 14.067L28.6203 23.9118H23.8879L23.8772 28.0343L30.4212 28.0406L33.4797 35.1254L38.4516 35.2174L23.8772 4.12891Z" fill="#B3B3B3"/>
</svg>
