<svg width="39" height="48" viewBox="0 0 39 48" fill="none" xmlns="http://www.w3.org/2000/svg">
<path d="M32.4625 25.3624C32.4023 19.3165 37.3927 16.4167 37.6158 16.2703C34.8112 12.1695 30.4417 11.6068 28.8865 11.5428C25.1709 11.1654 21.6328 13.7314 19.7478 13.7314C17.8667 13.7314 14.9544 11.5981 11.8732 11.6524C7.82 11.7125 4.08399 14.0098 1.9982 17.6381C-2.21123 24.9404 0.921346 35.7623 5.02309 41.6888C7.02836 44.5856 9.41975 47.8453 12.5572 47.726C15.5811 47.6067 16.722 45.7702 20.3775 45.7702C24.0329 45.7702 25.0593 47.726 28.2579 47.6649C31.5098 47.6057 33.5713 44.7127 35.5601 41.8043C37.8622 38.4389 38.8101 35.1802 38.8663 35.0152C38.7955 34.9823 32.5275 32.5812 32.4625 25.3624Z" fill="#1C1C1A"/>
<path d="M26.4523 7.62043C28.1161 5.6006 29.2434 2.794 28.9369 0C26.5358 0.0970137 23.6292 1.59588 21.9053 3.61376C20.3608 5.40463 19.0104 8.25587 19.3723 10.9994C22.0508 11.207 24.7827 9.63637 26.4523 7.62043Z" fill="#1C1C1A"/>
</svg>
