<svg width="61" height="36" viewBox="0 0 61 36" fill="none" xmlns="http://www.w3.org/2000/svg">
<path d="M16.9647 13.0746C16.9647 13.8155 17.0448 14.4161 17.185 14.8566C17.3451 15.2971 17.5454 15.7777 17.8257 16.2982C17.9258 16.4584 17.9658 16.6186 17.9658 16.7587C17.9658 16.959 17.8457 17.1592 17.5854 17.3594L16.324 18.2004C16.1438 18.3205 15.9636 18.3806 15.8034 18.3806C15.6032 18.3806 15.403 18.2805 15.2027 18.1003C14.9224 17.7999 14.6822 17.4796 14.4819 17.1592C14.2817 16.8188 14.0815 16.4384 13.8612 15.9779C12.2995 17.8199 10.3373 18.741 7.97466 18.741C6.29278 18.741 4.95128 18.2604 3.97018 17.2994C2.98909 16.3383 2.48853 15.0568 2.48853 13.4551C2.48853 11.7532 3.0892 10.3716 4.31056 9.33044C5.53193 8.28928 7.15374 7.76869 9.21605 7.76869C9.89681 7.76869 10.5976 7.82876 11.3384 7.92887C12.0793 8.02898 12.8401 8.18916 13.641 8.36936V6.90773C13.641 5.38603 13.3206 4.32484 12.6999 3.70414C12.0592 3.08345 10.978 2.78311 9.4363 2.78311C8.73551 2.78311 8.01471 2.8632 7.27388 3.04341C6.53305 3.22361 5.81224 3.44385 5.11146 3.72417C4.7911 3.86432 4.55083 3.94441 4.41068 3.98446C4.27052 4.0245 4.17041 4.04453 4.09032 4.04453C3.81 4.04453 3.66985 3.8443 3.66985 3.42383V2.44273C3.66985 2.12237 3.70989 1.88211 3.81 1.74195C3.91012 1.60179 4.09032 1.46164 4.37063 1.32148C5.07141 0.961075 5.91236 0.660739 6.89345 0.42047C7.87455 0.160179 8.91571 0.0400448 10.0169 0.0400448C12.3996 0.0400448 14.1416 0.58065 15.2628 1.66186C16.364 2.74307 16.9247 4.38491 16.9247 6.58737V13.0746H16.9647ZM8.83563 16.118C9.49636 16.118 10.1771 15.9979 10.8979 15.7576C11.6187 15.5174 12.2595 15.0769 12.8001 14.4762C13.1204 14.0958 13.3607 13.6753 13.4808 13.1948C13.601 12.7142 13.681 12.1336 13.681 11.4528V10.6119C13.1004 10.4717 12.4797 10.3516 11.839 10.2715C11.1983 10.1914 10.5776 10.1514 9.95688 10.1514C8.61538 10.1514 7.63428 10.4116 6.97354 10.9523C6.3128 11.4929 5.99245 12.2537 5.99245 13.2548C5.99245 14.1959 6.23271 14.8967 6.73327 15.3772C7.21381 15.8778 7.91459 16.118 8.83563 16.118ZM24.9136 18.2805C24.5532 18.2805 24.3129 18.2204 24.1528 18.0802C23.9926 17.9601 23.8524 17.6798 23.7323 17.2994L19.027 1.82204C18.9069 1.42159 18.8468 1.1613 18.8468 1.02114C18.8468 0.700784 19.007 0.520582 19.3274 0.520582H21.2896C21.67 0.520582 21.9303 0.58065 22.0704 0.720806C22.2306 0.840941 22.3507 1.12125 22.4709 1.50168L25.8346 14.7565L28.9581 1.50168C29.0582 1.10123 29.1784 0.840941 29.3386 0.720806C29.4987 0.600672 29.7791 0.520582 30.1395 0.520582H31.7412C32.1217 0.520582 32.382 0.58065 32.5421 0.720806C32.7023 0.840941 32.8425 1.12125 32.9226 1.50168L36.0861 14.9167L39.55 1.50168C39.6701 1.10123 39.8103 0.840941 39.9504 0.720806C40.1106 0.600672 40.3709 0.520582 40.7313 0.520582H42.5934C42.9137 0.520582 43.094 0.680762 43.094 1.02114C43.094 1.12125 43.0739 1.22137 43.0539 1.3415C43.0339 1.46164 42.9938 1.62181 42.9137 1.84206L38.0883 17.3194C37.9682 17.7198 37.8281 17.9801 37.6679 18.1003C37.5077 18.2204 37.2474 18.3005 36.907 18.3005H35.1851C34.8047 18.3005 34.5444 18.2404 34.3842 18.1003C34.224 17.9601 34.0839 17.6998 34.0038 17.2994L30.9003 4.38491L27.8169 17.2793C27.7167 17.6798 27.5966 17.9401 27.4364 18.0802C27.2763 18.2204 26.9959 18.2805 26.6355 18.2805H24.9136ZM50.6424 18.8211C49.6012 18.8211 48.5601 18.7009 47.5589 18.4607C46.5578 18.2204 45.777 17.9601 45.2564 17.6598C44.936 17.4796 44.7158 17.2793 44.6357 17.0991C44.5556 16.9189 44.5155 16.7187 44.5155 16.5385V15.5174C44.5155 15.0969 44.6757 14.8967 44.9761 14.8967C45.0962 14.8967 45.2163 14.9167 45.3365 14.9567C45.4566 14.9968 45.6368 15.0769 45.837 15.157C46.5178 15.4573 47.2586 15.6976 48.0395 15.8577C48.8404 16.0179 49.6213 16.098 50.4221 16.098C51.6836 16.098 52.6647 15.8778 53.3454 15.4373C54.0262 14.9968 54.3866 14.3561 54.3866 13.5351C54.3866 12.9745 54.2064 12.514 53.846 12.1336C53.4856 11.7531 52.8048 11.4128 51.8237 11.0924L48.9205 10.1914C47.4588 9.73089 46.3776 9.05013 45.7169 8.14912C45.0561 7.26813 44.7158 6.28703 44.7158 5.24587C44.7158 4.40493 44.896 3.6641 45.2564 3.02338C45.6168 2.38267 46.0973 1.82204 46.698 1.38155C47.2987 0.921031 47.9794 0.58065 48.7803 0.340381C49.5812 0.100112 50.4221 0 51.3031 0C51.7436 0 52.2041 0.0200224 52.6446 0.0800896C53.1051 0.140157 53.5256 0.220246 53.9461 0.300336C54.3465 0.400448 54.727 0.50056 55.0874 0.620694C55.4478 0.740829 55.7281 0.860963 55.9283 0.981098C56.2086 1.14128 56.4088 1.30146 56.529 1.48166C56.6491 1.64184 56.7092 1.86208 56.7092 2.1424V3.08345C56.7092 3.50392 56.549 3.72417 56.2487 3.72417C56.0885 3.72417 55.8282 3.64408 55.4878 3.4839C54.3465 2.96332 53.0651 2.70302 51.6435 2.70302C50.5022 2.70302 49.6012 2.88323 48.9805 3.26365C48.3598 3.64408 48.0395 4.22473 48.0395 5.04565C48.0395 5.60627 48.2397 6.08681 48.6402 6.46724C49.0406 6.84766 49.7814 7.22809 50.8426 7.56847L53.6858 8.46948C55.1274 8.92999 56.1686 9.57071 56.7893 10.3916C57.41 11.2125 57.7103 12.1536 57.7103 13.1948C57.7103 14.0557 57.5301 14.8366 57.1897 15.5174C56.8293 16.1981 56.3488 16.7988 55.7281 17.2793C55.1074 17.7799 54.3666 18.1403 53.5056 18.4006C52.6046 18.6809 51.6635 18.8211 50.6424 18.8211Z" fill="#252F3E"/>
<path d="M54.4273 28.5513C47.8399 33.4167 38.2692 35.9996 30.04 35.9996C18.5071 35.9996 8.11548 31.7348 0.266702 24.6469C-0.353993 24.0863 0.206635 23.3254 0.947463 23.7659C9.43696 28.6914 19.9087 31.6747 30.7408 31.6747C38.049 31.6747 46.0779 30.153 53.4662 27.0296C54.5674 26.529 55.5085 27.7504 54.4273 28.5513ZM57.1704 25.4278C56.3294 24.3466 51.6041 24.9072 49.4617 25.1675C48.821 25.2476 48.7209 24.6869 49.3016 24.2665C53.0658 21.6235 59.2527 22.3844 59.9735 23.2653C60.6943 24.1664 59.7733 30.3533 56.2493 33.3166C55.7087 33.7771 55.1881 33.5368 55.4284 32.9362C56.2293 30.9539 58.0113 26.4889 57.1704 25.4278Z" fill="#FF9900"/>
</svg>
