<svg width="42" height="48" viewBox="0 0 42 48" fill="none" xmlns="http://www.w3.org/2000/svg">
<path fill-rule="evenodd" clip-rule="evenodd" d="M8.37211 14.3462L16.7442 19.1524L8.37211 23.8552L0 19.1524L8.37211 14.3462Z" fill="#C9B191"/>
<path fill-rule="evenodd" clip-rule="evenodd" d="M8.37211 23.8552V33.5709L0 28.7647L0 19.1523L8.37211 23.8552Z" fill="#EC8F2F"/>
<path fill-rule="evenodd" clip-rule="evenodd" d="M8.37219 23.8552L16.7443 19.1523V28.7647L8.37219 33.5709V23.8552Z" fill="#0D0F06"/>
<path fill-rule="evenodd" clip-rule="evenodd" d="M33.4471 28.7754L41.8192 33.5816L33.4471 38.2844L25.075 33.5816L33.4471 28.7754Z" fill="#C9B191"/>
<path fill-rule="evenodd" clip-rule="evenodd" d="M33.4468 38.2844V48.0001L25.0747 43.1939L25.0747 33.5815L33.4468 38.2844Z" fill="#EC8F2F"/>
<path fill-rule="evenodd" clip-rule="evenodd" d="M33.4469 38.2844L41.819 33.5815V43.1939L33.4469 48.0001V38.2844Z" fill="#0D0F06"/>
<path fill-rule="evenodd" clip-rule="evenodd" d="M33.4471 0L41.8192 4.80619L33.4471 9.50898L25.075 4.80619L33.4471 0Z" fill="#C9B191"/>
<path fill-rule="evenodd" clip-rule="evenodd" d="M33.4468 9.50903V19.2247L25.0747 14.4185L25.0747 4.80615L33.4468 9.50903Z" fill="#EC8F2F"/>
<path fill-rule="evenodd" clip-rule="evenodd" d="M33.4469 9.50903L41.819 4.80615V14.4185L33.4469 19.2247V9.50903Z" fill="#0D0F06"/>
<path fill-rule="evenodd" clip-rule="evenodd" d="M25.0749 33.5918L16.7028 28.7856L25.0749 24.0828L33.447 28.7856L25.0749 33.5918Z" fill="#C9B191"/>
<path fill-rule="evenodd" clip-rule="evenodd" d="M25.0747 24.0828V14.3671L33.4468 19.1733L33.4468 28.7856L25.0747 24.0828Z" fill="#EC8F2F"/>
<path fill-rule="evenodd" clip-rule="evenodd" d="M25.0747 24.0828L16.7026 28.7856V19.1733L25.0747 14.3671V24.0828Z" fill="#0D0F06"/>
</svg>
