<svg width="48" height="48" viewBox="0 0 48 48" fill="none" xmlns="http://www.w3.org/2000/svg">
<path d="M28.8 7.99965V6.39965V7.99965ZM19.1999 7.99972V9.59972V7.99972ZM41.1381 38.1512L40.0165 37.0101L39.364 37.6517L39.5858 38.5391L41.1381 38.1512ZM43.2002 46.3999L42.8124 47.9522C43.3576 48.0885 43.9343 47.9285 44.3317 47.5311C44.7292 47.134 44.8888 46.557 44.7525 46.0117L43.2002 46.3999ZM30.4003 43.2002L29.2689 42.0687L27.2707 44.0671L30.0123 44.7522L30.4003 43.2002ZM30.4796 43.1208L31.611 44.252C32.0881 43.7749 32.2145 43.0498 31.9273 42.4396C31.6399 41.829 31.0005 41.4642 30.3288 41.5279L30.4796 43.1208ZM1.60001 25.5997H0H1.60001ZM22.4001 0V8.00004H25.6001V0H22.4001ZM28.8 6.39965L19.1999 6.39971L19.1999 9.59972L28.8 9.59966L28.8 6.39965ZM48.0002 25.5997C48.0002 14.9957 39.404 6.39955 28.8 6.39965L28.8 9.59966C37.6367 9.59956 44.8002 16.7631 44.8002 25.5997H48.0002ZM42.2597 39.292C45.8012 35.8107 48.0002 30.9606 48.0002 25.5997H44.8002C44.8002 30.0677 42.9711 34.1054 40.0165 37.0101L42.2597 39.292ZM44.7525 46.0117L42.6904 37.7631L39.5858 38.5391L41.6482 46.7881L44.7525 46.0117ZM30.0123 44.7522L42.8124 47.9522L43.5884 44.8476L30.7883 41.6479L30.0123 44.7522ZM29.3482 41.9893L29.2689 42.0687L31.5317 44.3314L31.611 44.252L29.3482 41.9893ZM28.8002 44.7999C29.417 44.7999 30.0276 44.7708 30.6304 44.7138L30.3288 41.5279C29.8261 41.5756 29.3162 41.5999 28.8002 41.5999V44.7999ZM19.2001 44.7999H28.8002V41.5999H19.2001V44.7999ZM0 25.5997C-2.93732e-05 36.2037 8.59614 44.7999 19.2001 44.7999V41.5999C10.3635 41.5999 3.19999 34.4363 3.20001 25.5997H0ZM19.1999 6.39971C8.59607 6.39981 2.93734e-05 14.9959 0 25.5997H3.20001C3.20005 16.7632 10.3634 9.59982 19.1999 9.59972L19.1999 6.39971ZM24.0001 25.6001C21.3491 25.6001 19.2001 23.4511 19.2001 20.8001H16.0001C16.0001 25.2184 19.5818 28.8001 24.0001 28.8001V25.6001ZM28.8001 20.8001C28.8001 23.4511 26.6511 25.6001 24.0001 25.6001V28.8001C28.4184 28.8001 32.0001 25.2184 32.0001 20.8001H28.8001ZM24.0001 16.0001C26.6511 16.0001 28.8001 18.1491 28.8001 20.8001H32.0001C32.0001 16.3818 28.4184 12.8001 24.0001 12.8001V16.0001ZM24.0001 12.8001C19.5818 12.8001 16.0001 16.3818 16.0001 20.8001H19.2001C19.2001 18.1491 21.3491 16.0001 24.0001 16.0001V12.8001ZM24.0001 38.4002C27.4039 38.4002 30.5359 37.2171 33.0008 35.2411L30.9993 32.7445C29.0816 34.2818 26.6503 35.2002 24.0001 35.2002V38.4002ZM14.9993 35.2411C17.4643 37.2171 20.5962 38.4002 24.0001 38.4002V35.2002C21.3499 35.2002 18.9186 34.2818 17.0008 32.7445L14.9993 35.2411Z" fill="#43D0CA"/>
</svg>
