<svg width="67" height="31" viewBox="0 0 67 31" fill="none" xmlns="http://www.w3.org/2000/svg">
<path d="M21.4114 22.9702L26.2666 23.3278V27.4747C26.2666 27.4747 17.1948 36.4095 3.9762 25.8308H8.48071L8.97992 21.7559C8.97992 21.7559 14.1206 26.9732 21.4114 22.9702Z" fill="#0D2C40"/>
<path d="M4.96672 3.81226C4.96672 3.81226 -4.89908 12.9977 3.17885 24.7582L7.68801 25.1878L8.11756 20.8272C8.11756 20.8272 3.97295 14.0356 9.32728 8.67434L4.52556 8.30283L4.96672 3.81226Z" fill="#0D2C40"/>
<path d="M6.04036 3.16881C6.04036 3.16881 18.3465 -4.76517 27.7015 4.81272L23.5545 4.52713L23.125 9.17095C23.125 9.17095 18.4069 3.4544 10.5449 7.88693L5.75476 7.67332L6.04036 3.16881Z" fill="#0D2C40"/>
<path d="M24.2007 10.3189L24.4863 5.52881L28.8468 5.95836L42.0005 20.612H37.4983L37.0687 24.6869L24.2007 10.3189Z" fill="#0D2C40"/>
<path d="M22.6216 22.1848L39.2767 3.81152L43.7092 4.24108L43.4236 8.74559L27.0541 26.9726L27.1238 22.2545L22.6216 22.1848Z" fill="#02D35F"/>
<path d="M39.9209 3.15082L44.5322 3.52697L44.2118 7.92468C44.2118 7.92468 51.0196 3.58037 56.0071 8.19169L60.8831 8.40531L61.322 4.1237C61.322 4.1237 53.7015 -4.46738 39.9209 3.15082Z" fill="#02D35F"/>
<path d="M56.7031 8.8885L61.5791 9.17409L61.9553 4.86694C61.9553 4.86694 72.6245 16.7528 61.0962 26.9739L56.3804 26.6465L56.8099 21.7705C56.8099 21.7705 63.1905 14.6259 56.7031 8.8885Z" fill="#02D35F"/>
<path d="M43.1364 21.7557L38.2116 21.3262L37.9353 25.6705C37.9353 25.6705 46.675 35.7499 59.8635 27.7068L55.3589 27.3422L55.7885 22.6775C55.7885 22.6775 50.051 27.2772 43.1364 21.7557Z" fill="#02D35F"/>
<path d="M49.3712 14.2477V15.873C49.3571 15.9363 49.3501 16.0009 49.3503 16.0657C49.3501 16.1313 49.3571 16.1967 49.3712 16.2608V18.8799H48.1545V14.2361L49.3712 14.2477Z" fill="#0D2C40"/>
<path d="M50.4444 14.249C50.0437 14.3009 49.6694 14.4771 49.374 14.7528C49.1704 14.9108 49.0018 15.1095 48.8791 15.3361C48.7564 15.5628 48.6822 15.8125 48.6612 16.0694C48.6792 16.3378 48.7516 16.5998 48.8742 16.8393C48.9968 17.0789 49.1668 17.2909 49.374 17.4625C49.6327 17.7092 49.9676 17.8607 50.3237 17.8921C51.4545 17.9199 52.0117 16.947 52.0117 16.0717C52.0117 15.1963 51.3198 14.1979 50.4444 14.249ZM50.0753 16.8751C49.907 16.8676 49.7464 16.8031 49.6197 16.6921C49.4931 16.5811 49.4081 16.4302 49.3787 16.2644C49.3646 16.2004 49.3576 16.1349 49.3578 16.0694C49.3576 16.0046 49.3646 15.9399 49.3787 15.8766C49.4081 15.7108 49.4931 15.56 49.6197 15.449C49.7464 15.338 49.907 15.2734 50.0753 15.266C50.2757 15.2847 50.462 15.3775 50.5976 15.5263C50.7332 15.6751 50.8083 15.8692 50.8083 16.0705C50.8083 16.2719 50.7332 16.4659 50.5976 16.6147C50.462 16.7636 50.2757 16.8564 50.0753 16.8751ZM54.4312 15.6352C54.2547 15.5794 53.6022 15.4773 53.6022 15.2312C53.6022 15.0918 53.8019 15.0756 53.8995 15.0802C54.1781 15.0802 54.596 15.4123 54.8282 15.3496C55.0349 15.2962 55.216 14.7621 55.2926 14.581C54.7061 14.2463 54.023 14.1218 53.3561 14.2281C53.1914 14.2595 53.0354 14.3262 52.8989 14.4237C52.7624 14.5212 52.6486 14.647 52.5654 14.7927C52.4822 14.9383 52.4316 15.1002 52.417 15.2673C52.4024 15.4344 52.4241 15.6027 52.4808 15.7606C52.7756 16.5245 53.6812 16.2249 54.1386 16.6893C54.3267 16.8844 53.9389 16.9726 53.8112 16.9679C53.4185 16.9097 53.043 16.7671 52.7106 16.55C52.5969 16.7125 52.2462 17.1003 52.288 17.3023C52.3298 17.5043 52.7919 17.6552 52.9846 17.7156C53.6301 17.9246 54.6262 18.0035 55.1115 17.4161C55.7175 16.7102 55.1881 15.8813 54.4312 15.6352ZM44.9833 12.9626C44.4781 12.9626 43.9843 13.1124 43.5643 13.3931C43.1443 13.6737 42.8169 14.0726 42.6236 14.5393C42.4303 15.006 42.3797 15.5196 42.4783 16.015C42.5768 16.5105 42.8201 16.9656 43.1773 17.3228C43.5345 17.68 43.9896 17.9232 44.485 18.0218C44.9805 18.1203 45.494 18.0697 45.9607 17.8764C46.4274 17.6831 46.8263 17.3558 47.107 16.9357C47.3876 16.5157 47.5374 16.0219 47.5374 15.5168C47.5374 14.8394 47.2683 14.1897 46.7893 13.7107C46.3103 13.2317 45.6607 12.9626 44.9833 12.9626ZM44.9833 16.8193C44.7244 16.8189 44.4714 16.7417 44.2564 16.5975C44.0413 16.4533 43.8738 16.2487 43.7751 16.0093C43.6763 15.77 43.6507 15.5068 43.7015 15.2529C43.7523 14.999 43.8772 14.7659 44.0604 14.583C44.2437 14.4001 44.477 14.2756 44.731 14.2252C44.985 14.1749 45.2482 14.2009 45.4873 14.3001C45.7265 14.3993 45.9309 14.5672 46.0746 14.7825C46.2184 14.9978 46.2952 15.2509 46.2952 15.5098C46.2952 15.6822 46.2612 15.8528 46.1951 16.012C46.129 16.1712 46.0321 16.3158 45.91 16.4374C45.7879 16.5591 45.643 16.6555 45.4836 16.721C45.3241 16.7865 45.1533 16.82 44.981 16.8193H44.9833Z" fill="#0D2C40"/>
<path d="M20.7959 14.1881H19.34L20.8794 18.2143H21.5435V16.4984L20.7959 14.1881ZM22.2935 14.1951H23.7493L22.2076 18.2213H21.5435V16.5054L22.2935 14.1951ZM13.728 13.6216C13.239 13.282 12.6717 13.0727 12.0794 13.0132C11.2946 12.9389 10.4541 13.0341 9.72729 13.0341V18.2097H9.76212C9.90144 18.2259 10.0408 18.2398 10.1824 18.2491C10.7405 18.2954 11.3016 18.2907 11.8588 18.2352C12.9246 18.1168 13.6095 17.7708 14.0298 17.3204C14.4022 16.9012 14.6122 16.3625 14.6219 15.8018V15.6788V15.6138C14.6126 14.8777 14.4013 14.137 13.728 13.6216ZM12.5438 16.784C12.1049 17.0301 11.5709 16.9698 11.0879 16.9698V14.274C11.6011 14.274 12.1792 14.2067 12.6297 14.5225C13.3773 15.0495 13.3495 16.3289 12.5368 16.784H12.5438ZM18.7015 17.188C18.5831 17.0882 18.4321 16.9187 18.2719 16.8908C18.0165 16.856 17.6984 17.1996 17.4151 17.2275C16.974 17.2716 16.6559 16.9674 16.4864 16.6006H19.1705C19.1705 15.8576 19.1078 15.0751 18.4739 14.5643C17.2967 13.603 15.3649 14.3135 15.149 15.8297C14.9168 17.4272 16.1729 18.4581 17.7031 18.2584C18.0825 18.2048 18.4386 18.0437 18.7294 17.794C18.8338 17.7012 18.9871 17.5735 18.9105 17.4225C18.8557 17.3322 18.7849 17.2528 18.7015 17.188ZM17.8447 15.8715H16.4748C16.5044 15.7114 16.5891 15.5668 16.7142 15.4627C16.8393 15.3586 16.997 15.3016 17.1597 15.3016C17.3225 15.3016 17.4801 15.3586 17.6053 15.4627C17.7304 15.5668 17.8151 15.7114 17.8447 15.8715Z" fill="#02D35F"/>
</svg>
