<svg width="42" height="42" viewBox="0 0 42 42" fill="none" xmlns="http://www.w3.org/2000/svg">
<path d="M28.6923 13.3076H37.9231C39.6154 13.3076 41 14.6922 41 16.3845V37.923C41 39.6153 39.6154 40.9999 37.9231 40.9999H4.07692C2.38462 40.9999 1 39.6153 1 37.923V16.3845C1 14.6922 2.38462 13.3076 4.07692 13.3076H13.3077" stroke="#FFCE54" stroke-width="2" stroke-miterlimit="10" stroke-linecap="round" stroke-linejoin="round"/>
<path d="M8.69226 21L21 31.7692L33.3076 21" stroke="#FFCE54" stroke-width="2" stroke-miterlimit="10" stroke-linecap="round" stroke-linejoin="round"/>
<path d="M15.7692 27.1538L8.69226 33.3077" stroke="#FFCE54" stroke-width="2" stroke-miterlimit="10" stroke-linecap="round" stroke-linejoin="round"/>
<path d="M33.3075 33.3077L26.2306 27.1538" stroke="#FFCE54" stroke-width="2" stroke-miterlimit="10" stroke-linecap="round" stroke-linejoin="round"/>
<path d="M15.6154 5C13.4616 5 11.7693 6.84615 11.7693 9C11.7693 11.1538 13.4616 13 15.6154 13C19.0001 13 22.3847 13.7692 25.4616 15.3077L28.5385 16.8462V7.92308V1L25.4616 2.53846C22.5385 4.07692 19.1539 5 15.6154 5Z" stroke="#FFCE54" stroke-width="2" stroke-miterlimit="10" stroke-linecap="round" stroke-linejoin="round"/>
<path d="M13.3077 12.0772L17 19.4618H20.8462V5.00024" stroke="#FFCE54" stroke-width="2" stroke-miterlimit="10" stroke-linecap="round" stroke-linejoin="round"/>
</svg>
