<svg width="49" height="48" viewBox="0 0 49 48" fill="none" xmlns="http://www.w3.org/2000/svg">
<path d="M10.7987 34.7635C11.5446 34.7635 12.1499 34.1582 12.1499 33.4123C12.1499 32.6665 11.5446 32.0611 10.7987 32.0611C6.33439 32.0611 2.70239 28.4291 2.70239 23.9648C2.70239 19.5004 6.33439 15.8684 10.7987 15.8684H10.8041C11.6094 15.8684 12.2742 15.2198 12.2904 14.4145C12.3553 11.2744 13.6308 8.32876 15.8738 6.12901C18.1222 3.92387 21.0948 2.70779 24.2458 2.70779H24.2674C27.4184 2.70779 30.391 3.92387 32.6394 6.12901C34.8824 8.32876 36.1579 11.2744 36.2228 14.4145C36.239 15.2198 36.9038 15.8684 37.7091 15.8684H37.7145C42.1788 15.8684 45.8108 19.5004 45.8108 23.9648C45.8108 28.4291 42.1788 32.0611 37.7145 32.0611C36.9686 32.0611 36.3633 32.6665 36.3633 33.4123C36.3633 34.1582 36.9686 34.7635 37.7145 34.7635C43.6705 34.7635 48.5132 29.9208 48.5132 23.9648C48.5132 18.3979 44.2813 13.7984 38.8603 13.2255C38.5252 9.80426 37.0173 6.63166 34.5311 4.1941C31.7746 1.49172 28.1264 0 24.2674 0H24.2458C20.3814 0 16.7386 1.49172 13.9821 4.1941C11.4959 6.63166 9.98261 9.80426 9.65292 13.2255C4.23734 13.7984 0 18.3979 0 23.9648C0 29.9208 4.84808 34.7635 10.7987 34.7635Z" fill="#282C37"/>
<path d="M24.5217 8.57764C21.8734 8.57764 19.7169 10.7341 19.7169 13.3825C19.7169 15.566 21.1762 17.409 23.1705 17.9982V38.0553C22.0193 38.5525 21.214 39.6983 21.214 41.0333C21.214 42.8223 22.6679 44.2762 24.4569 44.2762C26.2459 44.2762 27.6997 42.8223 27.6997 41.0333C27.6997 39.7524 26.9539 38.639 25.8729 38.1147V17.9982C27.8673 17.4144 29.3266 15.566 29.3266 13.3825C29.3266 10.7341 27.1701 8.57764 24.5217 8.57764ZM24.5217 15.4903C23.3597 15.4903 22.4193 14.5445 22.4193 13.3879C22.4193 12.2313 23.3651 11.2854 24.5217 11.2854C25.6784 11.2854 26.6242 12.2313 26.6242 13.3879C26.6242 14.5445 25.6784 15.4903 24.5217 15.4903ZM15.5714 17.0469C13.7824 17.0469 12.3286 18.5008 12.3286 20.2898C12.3286 21.6896 13.2149 22.8841 14.4634 23.3381V39.9848C14.4634 41.0063 13.6311 41.844 12.6042 41.844H10.572C9.9883 39.8497 8.13986 38.3904 5.95633 38.3904C3.30799 38.3904 1.15149 40.5469 1.15149 43.1952C1.15149 45.8436 3.30799 48.0001 5.95633 48.0001C8.13986 48.0001 9.98289 46.5408 10.572 44.5464H12.6042C15.1174 44.5464 17.1658 42.5034 17.1658 39.9848V23.1111C18.1495 22.5544 18.8143 21.5005 18.8143 20.2844C18.8143 18.4954 17.3604 17.0469 15.5714 17.0469ZM5.95633 45.2977C4.79431 45.2977 3.85388 44.3518 3.85388 43.1952C3.85388 42.0386 4.79971 41.0928 5.95633 41.0928C7.11296 41.0928 8.05879 42.0386 8.05879 43.1952C8.05879 44.3518 7.11836 45.2977 5.95633 45.2977ZM42.7034 38.385C40.5199 38.385 38.6768 39.8443 38.0877 41.8386H36.0555C35.034 41.8386 34.1963 41.0063 34.1963 39.9794V23.2732C35.3529 22.776 36.169 21.6302 36.169 20.2898C36.169 18.5008 34.7151 17.0469 32.9262 17.0469C31.1372 17.0469 29.6833 18.5008 29.6833 20.2898C29.6833 21.5653 30.4237 22.6733 31.4939 23.203V39.9848C31.4939 42.498 33.5369 44.5464 36.0555 44.5464H38.0877C38.6714 46.5408 40.5199 48.0001 42.7034 48.0001C45.3517 48.0001 47.5082 45.8436 47.5082 43.1952C47.5082 40.5469 45.3571 38.385 42.7034 38.385ZM42.7034 45.2977C41.5414 45.2977 40.6009 44.3518 40.6009 43.1952C40.6009 42.0386 41.5468 41.0928 42.7034 41.0928C43.86 41.0928 44.8059 42.0386 44.8059 43.1952C44.8059 44.3518 43.8654 45.2977 42.7034 45.2977Z" fill="#282C37"/>
</svg>
