<svg width="31" height="42" viewBox="0 0 31 42" fill="none" xmlns="http://www.w3.org/2000/svg">
<path d="M22.6976 25.2567C23.4888 24.7158 24.5863 24.2477 24.5863 24.2477C24.5863 24.2477 21.4627 24.8128 18.355 25.0711C14.5533 25.3858 10.469 25.4504 8.41877 25.176C3.56756 24.5303 11.0824 22.7462 11.0824 22.7462C11.0824 22.7462 8.16847 22.5527 4.57651 24.2799C0.338937 26.3302 15.0698 27.2665 22.6976 25.2567Z" fill="#5382A1"/>
<path d="M15.8046 22.6655C14.271 19.2189 9.09695 16.1919 15.8046 10.8969C24.1751 4.29426 19.8808 0 19.8808 0C21.6162 6.82067 13.7786 8.88707 10.9453 13.1247C9.01609 16.0225 11.8897 19.1302 15.8046 22.6655Z" fill="#F8981D"/>
<path d="M25.0546 8.44287C25.0627 8.44287 10.9129 11.9783 17.669 19.7594C19.6627 22.0519 17.1443 24.1183 17.1443 24.1183C17.1443 24.1183 22.2054 21.5031 19.8807 18.2339C17.7093 15.1828 16.0465 13.6653 25.0546 8.44287Z" fill="#F8981D"/>
<path d="M24.5626 30.2774C24.5222 30.3742 24.4011 30.4793 24.4011 30.4873C34.7571 27.7671 30.9472 20.8898 25.9992 22.6335C25.5633 22.7869 25.3375 23.142 25.3375 23.142C25.3375 23.142 25.6118 23.0289 26.2254 22.8998C28.7275 22.3752 32.3195 26.2496 24.5626 30.2774Z" fill="#5382A1"/>
<path d="M28.3722 35.3061C28.3722 35.3061 29.5425 36.2667 27.0887 37.0173C22.4152 38.4298 7.65203 38.8576 3.55156 37.0739C2.07444 36.4361 4.84298 35.5401 5.71482 35.3546C6.61874 35.1608 7.14343 35.193 7.14343 35.193C5.50486 34.0387 -3.45481 37.4612 2.59095 38.438C19.0735 41.1177 32.6503 37.2352 28.3722 35.3061Z" fill="#5382A1"/>
<path d="M10.3241 31.9644C3.97157 33.7402 14.1905 37.4048 22.2782 33.9419C20.9547 33.4255 20.0021 32.8281 20.0021 32.8281C16.394 33.5143 14.7233 33.5626 11.446 33.1914C8.74201 32.8846 10.3241 31.9644 10.3241 31.9644Z" fill="#5382A1"/>
<path d="M24.8368 39.8099C18.4844 41.0045 10.6468 40.8675 6.00537 40.1004C6.00537 40.0925 6.95789 40.8834 11.8493 41.1983C19.2915 41.6746 30.7211 40.9318 30.9875 37.4126C30.9876 37.4126 30.471 38.7445 24.8368 39.8099Z" fill="#5382A1"/>
<path d="M21.3177 28.4933C16.5391 29.4136 13.7705 29.3893 10.2755 29.0261C7.57141 28.7435 9.33917 27.436 9.33917 27.436C2.33298 29.7606 13.2298 32.3922 23.0207 29.5266C21.9796 29.1633 21.3177 28.4933 21.3177 28.4933Z" fill="#5382A1"/>
</svg>
