<svg width="95" height="23" viewBox="0 0 95 23" fill="none" xmlns="http://www.w3.org/2000/svg">
<path fill-rule="evenodd" clip-rule="evenodd" d="M55.6041 1.114C55.9011 0.594131 56.3467 0.167099 56.9223 0C57.1822 0 57.4421 0 57.7021 0C58.0548 0.167099 58.3705 0.427033 58.5561 0.761232C58.7047 1.114 58.6304 1.46676 58.5561 1.81953C58.4633 2.02376 58.3705 2.24656 58.2962 2.46936C58.2405 2.59933 58.1848 2.74786 58.1291 2.87782C58.0734 3.00779 58.0177 3.15632 57.962 3.28629C57.9063 3.41626 57.8506 3.56479 57.7949 3.69476C57.7392 3.82472 57.6835 3.97326 57.6278 4.10322C57.5721 4.23319 57.5164 4.38172 57.4607 4.51169C57.405 4.64165 57.3493 4.79018 57.2936 4.92015C57.2379 5.05012 57.1822 5.19865 57.1265 5.32862C57.0708 5.45858 57.0151 5.60712 56.9594 5.73708C56.9037 5.86705 56.848 6.01558 56.7923 6.14555C56.7366 6.27551 56.6809 6.42405 56.6252 6.55401C56.5695 6.68398 56.5138 6.83251 56.4581 6.96248C56.4024 7.09244 56.3467 7.24098 56.291 7.37094C56.2353 7.50091 56.1796 7.64944 56.1239 7.77941C56.0682 7.90938 56.0125 8.05791 55.9568 8.18788C55.9011 8.31784 55.8454 8.46637 55.7897 8.59634C55.734 8.72631 55.6783 8.87484 55.6226 9.0048C55.5669 9.13477 55.5112 9.2833 55.4555 9.41327C55.3998 9.54324 55.3441 9.69177 55.2884 9.82174C55.2513 9.91457 55.2327 9.98884 55.1956 10.0817C56.2353 9.30187 57.2379 8.50351 58.2962 7.77941C58.4076 7.72371 58.519 7.66801 58.6304 7.61231C58.9832 7.46378 59.3916 7.48234 59.763 7.51948C60.0415 7.66801 60.2828 7.85368 60.4499 8.13218C60.6542 8.63347 60.5613 9.2276 60.2271 9.65464C60.0229 9.91457 59.763 10.1374 59.5216 10.3416C59.4102 10.4159 59.2988 10.5087 59.1874 10.583C58.6304 10.9729 58.092 11.3999 57.535 11.8084C57.6278 11.9383 57.7206 12.0869 57.8135 12.2168C57.8692 12.3097 57.9249 12.3839 57.9806 12.4768C58.1105 12.6996 58.2405 12.9224 58.389 13.1266C58.5561 13.4422 58.7604 13.7393 58.9646 14.0364C59.0389 14.1663 59.1131 14.3149 59.206 14.4448C59.2617 14.5191 59.3174 14.6119 59.3731 14.6862C59.5402 14.9833 59.7073 15.2803 59.8001 15.596C59.8558 15.8373 59.763 16.0787 59.7073 16.3015C59.4659 16.6914 59.1317 17.0441 58.7047 17.2298C58.4076 17.3226 58.1105 17.3412 57.8135 17.2298C57.6278 17.0998 57.4421 16.9699 57.3307 16.7842C56.9223 16.153 56.5138 15.5403 56.0868 14.909C56.0311 14.8347 55.9754 14.7419 55.9197 14.6676C55.864 14.5934 55.8083 14.5005 55.7526 14.4263C55.6969 14.352 55.6412 14.2592 55.5855 14.1849C55.5298 14.1106 55.4741 14.0178 55.4184 13.9435C55.0656 13.3494 54.6386 12.7924 54.2858 12.1983C54.2858 12.2168 54.3044 12.2725 54.3044 12.3097C54.2301 12.4396 54.1744 12.5882 54.1187 12.7181C54.063 12.8481 54.0073 12.9966 53.9516 13.1266C53.8959 13.2566 53.8402 13.4051 53.7845 13.5351C53.7288 13.665 53.6731 13.8136 53.6174 13.9435C53.5617 14.0735 53.506 14.222 53.4503 14.352C53.1533 15.039 52.9305 15.7631 52.5591 16.4129C52.2435 16.7471 51.9464 17.137 51.4823 17.2484C51.278 17.2669 51.0738 17.3783 50.8696 17.3226C50.7025 17.2855 50.5354 17.2484 50.3683 17.2298C50.1269 17.0256 49.8298 16.8213 49.737 16.4871C49.5328 16.023 49.8113 15.5403 49.9412 15.1132C49.9969 14.9833 50.0526 14.8347 50.1083 14.7048C50.164 14.5748 50.2197 14.4263 50.2754 14.2963C50.3311 14.1663 50.3868 14.0178 50.4425 13.8878C50.4982 13.7579 50.5539 13.6093 50.6096 13.4794C50.6653 13.3494 50.721 13.2009 50.7767 13.0709C50.8324 12.9409 50.8881 12.7924 50.9438 12.6624C50.9995 12.5325 51.0552 12.3839 51.1109 12.254C51.1666 12.124 51.2223 11.9755 51.278 11.8455C51.3337 11.7155 51.3894 11.567 51.4451 11.437C51.5008 11.3071 51.5565 11.1585 51.6122 11.0286C51.6679 10.8986 51.7236 10.7501 51.7793 10.6201C51.835 10.4901 51.8907 10.3416 51.9464 10.2116C52.0021 10.0817 52.0578 9.93314 52.1135 9.80317C52.1692 9.6732 52.2249 9.52467 52.2806 9.3947C52.3363 9.26474 52.392 9.11621 52.4477 8.98624C52.5034 8.85627 52.5591 8.70774 52.6148 8.57777C52.6705 8.44781 52.7262 8.29927 52.7819 8.16931C52.8376 8.03934 52.8933 7.89081 52.949 7.76084C53.0047 7.63088 53.0604 7.48234 53.1161 7.35238C53.1718 7.22241 53.2275 7.07388 53.2832 6.94391C53.3389 6.81395 53.3946 6.66541 53.4503 6.53545C53.506 6.40548 53.5617 6.25695 53.6174 6.12698C53.6731 5.99701 53.7288 5.84848 53.7845 5.71852C53.8402 5.58855 53.8959 5.44002 53.9516 5.31005C54.063 5.03155 54.1744 4.77162 54.2858 4.49312C54.3415 4.36315 54.3972 4.21462 54.4529 4.08465C54.5086 3.95469 54.5643 3.80616 54.62 3.67619C54.6757 3.54622 54.7314 3.39769 54.7871 3.26772C54.8428 3.13776 54.8985 2.98923 54.9542 2.85926C55.0099 2.72929 55.0656 2.58076 55.1213 2.45079C55.177 2.32083 55.2327 2.17229 55.2884 2.04233C55.3627 1.70813 55.4927 1.41106 55.6041 1.114ZM4.91725 2.04233C5.86415 1.72669 6.86674 1.74526 7.85077 1.7824C8.01787 1.81953 8.1664 1.85666 8.3335 1.87523C8.87193 2.04233 9.41037 2.24656 9.8931 2.54362C10.5058 2.98922 11.0628 3.54622 11.4341 4.21462C11.527 4.45599 11.6198 4.69735 11.7126 4.93872C11.8426 5.49572 11.824 6.07128 11.8055 6.64685C11.7498 7.27811 11.5641 7.89081 11.3784 8.50351C11.2856 8.70774 11.1928 8.93054 11.1371 9.15334C11.0071 9.41327 10.9143 9.69177 10.7843 9.93314C11.0442 9.59894 11.3599 9.32044 11.6384 9.02337C12.1025 8.46637 12.6224 8.00221 13.1051 7.46378C13.6807 6.77681 14.3491 6.20125 14.9246 5.51428C15.9458 4.51169 16.8556 3.41626 17.9139 2.45079C18.081 2.33939 18.2481 2.22799 18.4152 2.1166C18.8422 1.87523 19.3249 1.8938 19.7891 1.93093C20.1604 2.1166 20.5132 2.37653 20.6617 2.76643C20.7917 3.08206 20.736 3.41626 20.736 3.75045C20.606 3.97325 20.5132 4.19605 20.3832 4.41885C20.3275 4.49312 20.2718 4.58595 20.2161 4.67878C19.8819 5.01298 19.5849 5.42145 19.2321 5.73708C18.8236 6.14555 18.3966 6.55401 18.0438 6.99961C17.4868 7.59374 16.8927 8.13217 16.3728 8.76344C15.9644 9.19047 15.5373 9.6175 15.1289 10.0445C14.6833 10.583 14.182 11.0471 13.6992 11.5484C13.7549 11.6598 13.7921 11.7712 13.8478 11.8826C13.9406 12.1797 14.0334 12.4953 14.1634 12.7924C14.2748 13.0895 14.3676 13.4051 14.4976 13.6836C14.609 13.9807 14.7018 14.2963 14.8318 14.5748C14.9432 14.8719 15.036 15.1875 15.166 15.466C15.2774 15.7631 15.3702 16.0787 15.5002 16.3572C15.593 16.6542 15.7044 16.9699 15.8344 17.2484C15.9087 17.4712 15.9829 17.694 16.0943 17.9168C16.0943 17.9539 16.1129 18.0282 16.1315 18.0653C16.2243 18.3067 16.2986 18.5666 16.41 18.808C16.4471 18.9194 16.5028 19.0308 16.5585 19.1422C16.8184 19.5506 17.3197 19.7363 17.7839 19.7549C41.9576 19.7549 66.1127 19.7549 90.2865 19.7549C90.5092 19.7549 90.7135 19.8291 90.9363 19.8477C91.1034 19.9405 91.2705 20.0148 91.4561 20.1076C91.5861 20.2562 91.6975 20.4418 91.8089 20.6275C91.8275 20.9431 91.8275 21.2588 91.8089 21.5744C91.7718 21.6672 91.7346 21.7415 91.7161 21.8343C91.5118 22.1871 91.2148 22.4656 90.8806 22.6698C90.5278 22.7812 90.1936 22.9298 89.8223 22.9298C65.4072 22.9298 40.9921 22.9298 16.5771 22.9298C16.28 22.9298 16.0015 22.8184 15.7044 22.8369C15.4074 22.7255 15.0732 22.6513 14.8132 22.4656C14.4605 22.2614 14.2748 21.89 14.0334 21.5744C13.9406 21.3702 13.8292 21.1845 13.7364 20.9803C13.6807 20.8132 13.6064 20.6461 13.5321 20.4975C13.5321 20.4604 13.5136 20.3861 13.495 20.349C13.3094 19.8848 13.1608 19.4021 12.9752 18.9379C12.8638 18.6409 12.7895 18.3252 12.641 18.0282C12.641 17.991 12.6224 17.9168 12.6038 17.8796C12.511 17.6383 12.4367 17.3783 12.3253 17.137C12.2511 16.9142 12.1768 16.6914 12.084 16.4871C11.9726 16.1901 11.8797 15.8745 11.7498 15.596C11.6569 15.2989 11.5455 14.9833 11.4156 14.7048C11.3413 14.482 11.267 14.2592 11.1556 14.0364C11.1556 13.9992 11.1371 13.925 11.1185 13.8878C11.0257 13.6465 10.9514 13.3865 10.84 13.1452C10.7657 12.9224 10.6915 12.6996 10.5986 12.4953C10.4872 12.1426 10.3573 11.7898 10.2087 11.437C10.1902 11.5484 10.1716 11.6413 10.153 11.7527C10.0788 11.8826 10.0231 12.0312 9.96736 12.1611C9.91166 12.2911 9.85596 12.4396 9.80026 12.5696C9.74456 12.6996 9.68886 12.8481 9.63316 12.9781C9.57746 13.108 9.52176 13.2566 9.46607 13.3865C9.41037 13.5165 9.35466 13.665 9.29897 13.795C9.24327 13.925 9.18757 14.0735 9.13187 14.2035C8.98333 14.5191 8.85337 14.8533 8.7234 15.1875C8.6677 15.3175 8.612 15.466 8.5563 15.596C8.5006 15.7259 8.4449 15.8744 8.3892 16.0044C8.3335 16.1344 8.2778 16.2829 8.2221 16.4129C8.1664 16.5429 8.1107 16.6914 8.055 16.8213C7.9993 16.9513 7.9436 17.0998 7.8879 17.2298C7.8322 17.3598 7.7765 17.5083 7.7208 17.6383C7.64654 17.8054 7.59084 17.9539 7.51657 18.121C7.46087 18.2324 7.40517 18.3438 7.34947 18.4552C7.08954 18.8822 6.79247 19.2907 6.38401 19.5506C6.34688 19.5692 6.25404 19.6249 6.21691 19.6435C5.90128 19.7363 5.58565 19.8663 5.25145 19.8106C5.12148 19.7734 4.97295 19.7363 4.84298 19.7177C4.60162 19.5878 4.36025 19.4207 4.17459 19.2164C4.11889 19.105 4.04462 18.9751 3.98892 18.8637C3.91465 18.3067 4.02605 17.7497 4.24885 17.2484C4.30455 17.1184 4.36025 16.9699 4.41595 16.8399C4.47165 16.7099 4.52735 16.5614 4.58305 16.4315C4.63875 16.3015 4.69445 16.153 4.75015 16.023C4.80585 15.893 4.86155 15.7445 4.91725 15.6145C4.97295 15.4845 5.02865 15.336 5.08435 15.2061C5.14005 15.0761 5.19575 14.9276 5.25145 14.7976C5.30715 14.6676 5.36285 14.5191 5.41855 14.3891C5.47425 14.2592 5.52995 14.1106 5.58565 13.9807C5.64135 13.8507 5.69705 13.7022 5.75275 13.5722C5.95698 13.1266 6.14264 12.6439 6.32831 12.1797C6.38401 12.0497 6.43971 11.9012 6.49541 11.7712C6.55111 11.6413 6.60681 11.4927 6.66251 11.3628C6.71821 11.2328 6.77391 11.0843 6.82961 10.9543C6.88531 10.8243 6.94101 10.6758 6.99671 10.5458C7.05241 10.4159 7.10811 10.2673 7.16381 10.1374C7.21951 10.0074 7.27521 9.85887 7.33091 9.7289C7.38661 9.59894 7.44231 9.4504 7.49801 9.32044C7.55371 9.19047 7.60941 9.04194 7.66511 8.91197C7.90647 8.35497 8.1107 7.77941 8.25924 7.18528C8.37064 6.75824 8.4449 6.27551 8.2778 5.84848C8.01787 5.40288 7.59084 5.06868 7.08954 4.95728C6.56968 4.88302 6.01268 4.92015 5.52995 5.14295C5.41855 5.19865 5.30715 5.25435 5.19575 5.31005C4.36025 5.84848 3.63615 6.66541 3.41335 7.66801C3.33909 7.90938 3.37622 8.15074 3.33909 8.39211C3.35766 8.72631 3.37622 9.04194 3.54332 9.339C3.76612 9.7289 4.11889 10.0445 4.52735 10.2302C4.69445 10.3045 4.86155 10.3787 5.04721 10.4344C5.28858 10.5644 5.52995 10.7315 5.71561 10.9357C5.73418 10.9729 5.77131 11.0657 5.78988 11.1214C5.82701 11.2142 5.86415 11.2885 5.90128 11.3813C6.01268 12.1611 5.49281 12.8852 4.80585 13.1823C4.17459 13.368 3.48762 13.3308 2.85636 13.1823C2.72639 13.1266 2.57786 13.0709 2.44789 13.0152C2.31793 12.9224 2.16939 12.8481 2.02086 12.7738C1.37103 12.3468 0.906865 11.697 0.516966 11.0471C0.4427 10.8429 0.368433 10.6572 0.2756 10.4716C0.0528013 9.71034 -0.0400317 8.93054 0.0156681 8.15074C0.127068 7.53804 0.201334 6.90678 0.4427 6.33121C0.535533 6.14555 0.609799 5.94131 0.684066 5.75565C0.795465 5.56998 0.906865 5.38432 1.01826 5.18009C1.12966 5.01299 1.24106 4.84589 1.35246 4.69735C1.89089 4.01039 2.52216 3.37912 3.24626 2.89639C3.32052 2.84069 3.41335 2.78499 3.48762 2.72929C3.80325 2.56219 4.13745 2.39509 4.47165 2.22799C4.60162 2.17229 4.75015 2.11659 4.91725 2.04233ZM88.1142 4.27032C88.5226 4.10322 88.9682 4.12179 89.4138 4.15892C89.6738 4.28889 89.8966 4.47455 90.1008 4.67878C90.1194 4.71592 90.1565 4.80875 90.175 4.84589C90.2122 4.93872 90.2493 5.01298 90.2865 5.10582C90.305 5.36575 90.2493 5.62568 90.1936 5.88561C90.1379 6.05271 90.0822 6.21982 90.0265 6.38692C89.8966 6.64685 89.7666 6.92535 89.6552 7.20384C89.5995 7.27811 89.5624 7.37094 89.5252 7.44521C89.8594 7.50091 90.2122 7.48234 90.5649 7.51948C90.6578 7.55661 90.732 7.59374 90.8249 7.61231C91.0477 7.76084 91.289 7.90938 91.3633 8.18788C91.5118 8.52207 91.419 8.91197 91.3447 9.26474C91.1405 9.7289 90.6949 9.98884 90.2493 10.1931C89.6552 10.3416 89.0425 10.2859 88.4298 10.2859C88.4298 10.3416 88.4112 10.4344 88.3927 10.4716C88.3184 10.6015 88.2627 10.7501 88.207 10.88C88.1513 11.01 88.0956 11.1585 88.0399 11.2885C87.9842 11.4185 87.9285 11.567 87.8728 11.697C87.8171 11.8269 87.7614 11.9755 87.7057 12.1054C87.65 12.2354 87.5943 12.3839 87.5386 12.5139C87.4829 12.6439 87.4272 12.7924 87.3715 12.9224C87.3158 13.0523 87.2601 13.2009 87.2044 13.3308C87.1487 13.4608 87.093 13.6093 87.0373 13.7393C86.9816 13.8878 86.9259 14.0178 86.8702 14.1663C86.8516 14.1849 86.7959 14.2406 86.7588 14.2777C87.4643 14.3149 88.1884 14.222 88.894 14.3706C89.0611 14.4634 89.2282 14.5377 89.3953 14.6305C89.4881 14.779 89.5809 14.909 89.6738 15.0575C89.6738 15.3917 89.7295 15.7259 89.5995 16.0416C89.5252 16.2087 89.4138 16.3758 89.321 16.5243C89.0982 16.6728 88.894 16.8399 88.6526 16.9513C87.9656 17.137 87.2415 17.0441 86.536 17.0627C85.8305 17.0441 85.1064 17.137 84.4008 16.9513C83.9738 16.7656 83.6025 16.4686 83.3982 16.023C83.3611 15.6888 83.2311 15.336 83.3611 14.9833C83.4354 14.5934 83.5839 14.2592 83.751 13.8878C83.8067 13.7579 83.8624 13.6093 83.9181 13.4794C83.9738 13.3494 84.0295 13.2009 84.0852 13.0709C84.1409 12.9409 84.1966 12.7924 84.2523 12.6624C84.308 12.5325 84.3637 12.3839 84.4194 12.254C84.4751 12.124 84.5308 11.9755 84.5865 11.8455C84.8093 11.3071 84.995 10.7686 85.2363 10.2488C84.6979 10.2859 84.0295 10.1745 83.751 9.63607C83.7139 9.43184 83.621 9.20904 83.6582 9.0048C83.6953 8.83771 83.7324 8.67061 83.751 8.50351C83.9552 8.07648 84.3266 7.76084 84.7536 7.57518C85.2178 7.42664 85.7191 7.46378 86.2018 7.44521C86.4803 7.33381 86.4803 6.94391 86.6103 6.70255C86.666 6.57258 86.7217 6.42405 86.7774 6.29408C86.8331 6.16412 86.8888 6.01558 86.9445 5.88561C87.0002 5.75565 87.0559 5.60712 87.1116 5.47715C87.1858 5.31005 87.2787 5.14295 87.3529 4.97585C87.5943 4.75305 87.8357 4.49312 88.1142 4.27032ZM24.932 7.35238C25.3219 7.31524 25.7304 7.33381 26.1203 7.35238C26.4731 7.48234 26.8073 7.59374 27.1229 7.77941C27.4571 8.07648 27.7542 8.39211 27.9584 8.78201C28.0512 9.15334 28.1812 9.54324 28.1441 9.93314C28.0884 10.3787 27.9398 10.8058 27.7913 11.2328C27.3457 12.2354 26.9558 13.2751 26.5473 14.3149C27.29 14.3334 28.0327 14.2592 28.7568 14.4077C29.0167 14.5191 29.2581 14.7048 29.4437 14.9276C29.6108 15.3546 29.5366 15.8002 29.4252 16.2272C29.2209 16.4872 28.961 16.7285 28.6825 16.9142C28.5154 16.9699 28.3483 17.0256 28.1812 17.0998C26.8815 17.137 25.5819 17.137 24.3008 17.0998C24.0223 16.9513 23.7252 16.8399 23.5024 16.6171C23.3353 16.4315 23.2239 16.2086 23.1125 15.9858C23.0939 15.8002 23.0754 15.6331 23.0382 15.4474C23.0939 15.2803 23.1125 15.0947 23.1125 14.9276C23.1311 14.909 23.1496 14.8719 23.1682 14.8533C23.2053 14.7233 23.2425 14.5748 23.2982 14.4448C23.4281 14.1849 23.521 13.9064 23.6324 13.6279C23.6881 13.4979 23.7438 13.3494 23.7995 13.2194C23.8552 13.0895 23.9109 12.9409 23.9666 12.811C24.0223 12.681 24.078 12.5325 24.1337 12.4025C24.1894 12.2725 24.2451 12.124 24.3008 11.994C24.3565 11.8641 24.4122 11.7155 24.4679 11.5856C24.635 11.2514 24.7278 10.88 24.6907 10.5087C24.5607 10.3787 24.4122 10.2488 24.2451 10.1559C24.1337 10.1559 24.0223 10.1374 23.9109 10.1188C23.2425 10.0631 22.7226 10.5644 22.3513 11.0843C22.2584 11.2328 22.1656 11.3999 22.0914 11.567C21.4415 13.0152 20.9031 14.5191 20.2904 15.9858C20.179 16.1529 20.0862 16.32 19.9933 16.4871C19.7148 16.8028 19.3992 17.0998 18.9907 17.2484C18.8422 17.2669 18.6937 17.2855 18.5637 17.3226C18.3595 17.3783 18.1552 17.2669 17.9324 17.2484C17.6725 17.137 17.4497 16.9513 17.264 16.7285C17.2455 16.6914 17.1898 16.5985 17.1526 16.5428C17.0969 16.0787 17.1526 15.6145 17.3383 15.1689C17.394 15.039 17.4497 14.8904 17.5054 14.7605C17.5611 14.6305 17.6168 14.482 17.6725 14.352C17.7282 14.222 17.7839 14.0735 17.8396 13.9435C17.8953 13.8136 17.951 13.665 18.0067 13.5351C18.0624 13.4051 18.1181 13.2566 18.1738 13.1266C18.2295 12.9966 18.2852 12.8481 18.3409 12.7181C18.3966 12.5882 18.4523 12.4396 18.508 12.3097C19.0093 11.0843 19.492 9.85887 19.9748 8.63347C20.0305 8.52207 20.0862 8.41067 20.1419 8.29927C20.3647 7.94651 20.6989 7.68658 21.0702 7.51948C21.4972 7.50091 21.9428 7.44521 22.3698 7.61231C22.6298 7.77941 22.8526 8.00221 23.0197 8.28071C23.1311 8.20644 23.261 8.11361 23.3724 8.03934C23.5952 7.90938 23.818 7.77941 24.0408 7.64944C24.2822 7.53804 24.6164 7.40808 24.932 7.35238ZM34.3453 7.44521C34.9766 7.29668 35.645 7.33381 36.2948 7.35238C36.6476 7.38951 37.0003 7.50091 37.3531 7.61231C37.7059 7.76084 38.0215 7.98364 38.3371 8.18788C38.5414 8.37354 38.727 8.57777 38.9127 8.76344C39.0241 8.93054 39.1355 9.09764 39.2469 9.26474C39.3397 9.43184 39.414 9.59894 39.5068 9.76604C39.6182 10.1188 39.6925 10.4716 39.7667 10.8243C39.7853 11.14 39.7668 11.4742 39.7853 11.8084C39.8039 12.2168 39.6368 12.6067 39.5996 13.0152C39.5068 13.2566 39.4325 13.5165 39.3583 13.7579C38.9498 14.6862 38.3928 15.5588 37.6316 16.2272C37.186 16.5614 36.6847 16.8214 36.1463 16.9884C35.1994 17.1555 34.2339 17.0998 33.287 17.0813C32.6372 17.007 31.9502 16.8956 31.4118 16.4871C30.9105 16.0601 30.5206 15.5217 30.2421 14.909C30.2235 14.8162 30.1864 14.7419 30.1493 14.6676C29.8522 13.5722 29.9079 12.4211 30.2235 11.3442C30.2792 11.2142 30.3349 11.0657 30.3906 10.9357C30.502 10.7129 30.6134 10.4901 30.7248 10.2859C31.189 9.50611 31.8202 8.85627 32.5443 8.31784C32.6372 8.26214 32.7114 8.20644 32.8043 8.15074C33.0642 8.00221 33.3427 7.87224 33.6212 7.74228C33.8626 7.61231 34.1039 7.53804 34.3453 7.44521ZM43.4986 7.81654C44.0185 7.59374 44.5384 7.38951 45.1139 7.35238C45.7823 7.33381 46.4507 7.29668 47.082 7.53804C47.5833 7.76084 48.0474 8.05791 48.4002 8.44781C48.9943 9.2276 49.1614 10.2859 48.9015 11.2142C48.8458 11.3442 48.7901 11.4742 48.7344 11.6227C48.6787 11.7155 48.623 11.7898 48.5673 11.8826C48.4559 11.994 48.3445 12.1054 48.2331 12.2168C48.1217 12.2725 48.0103 12.3282 47.8989 12.3839C47.3605 12.5882 46.6921 12.4953 46.3208 12.0312C46.1537 11.6784 46.2465 11.2699 46.1908 10.8986C46.1722 10.7501 46.1537 10.6015 46.1537 10.453C46.0423 10.2488 45.8937 10.0631 45.6524 10.026C45.3367 10.026 45.0025 9.97027 44.724 10.1559C44.3341 10.3416 44.0742 10.6944 43.8328 11.0286C43.7586 11.14 43.7029 11.2328 43.6472 11.3442C43.5172 11.6227 43.3872 11.9383 43.3687 12.254C43.2387 12.7553 43.3315 13.3308 43.6472 13.7579C43.9814 14.1106 44.5198 14.1849 44.984 14.2592C46.0423 14.2777 47.1191 14.2592 48.1774 14.2592C48.4559 14.2963 48.7158 14.3706 48.9943 14.4448C49.1429 14.5562 49.2914 14.6676 49.4214 14.779C49.4399 14.8162 49.4956 14.909 49.5142 14.9647C49.5328 15.1318 49.5699 15.2803 49.607 15.4474C49.5699 15.6888 49.5142 15.9301 49.4399 16.1715C49.3471 16.2829 49.2543 16.3943 49.18 16.5243C49.0686 16.5986 48.9572 16.6914 48.8458 16.7842C48.8087 16.8028 48.7158 16.8585 48.6787 16.877C48.3816 16.9699 48.0846 17.0998 47.7689 17.0627C46.2279 17.0627 44.6869 17.0998 43.1644 17.0441C43.053 17.007 42.9416 16.9699 42.8302 16.9513C42.6631 16.877 42.496 16.8213 42.3475 16.7656C42.1247 16.6171 41.9019 16.4686 41.6791 16.3015C41.4377 16.1158 41.2892 15.8559 41.085 15.6331C40.9364 15.3732 40.8065 15.0947 40.6765 14.8162C40.2309 13.5165 40.3609 12.0869 40.8436 10.8243C40.955 10.6015 41.0664 10.3787 41.1778 10.1745C41.2706 10.0445 41.3449 9.896 41.4192 9.76604C41.8833 9.13477 42.4403 8.57777 43.0716 8.11361C43.183 8.02077 43.3315 7.90938 43.4986 7.81654ZM65.6486 7.35238C66.5026 7.31524 67.3753 7.27811 68.1736 7.61231C68.9906 7.96508 69.6775 8.59634 70.1231 9.35757C70.1603 9.43184 70.1974 9.52467 70.2345 9.59894C70.2902 9.74747 70.3459 9.87744 70.4016 10.0074C70.7358 11.1585 70.6059 12.3839 70.2345 13.4979C70.1788 13.6279 70.1231 13.7764 70.0674 13.9064C69.9375 14.1849 69.8075 14.4634 69.659 14.7233C69.2134 15.4474 68.6564 16.0972 67.9323 16.5428C67.7652 16.6171 67.5981 16.7099 67.4495 16.7842C67.2824 16.8399 67.1153 16.8956 66.9482 16.9513C66.0199 17.1184 65.0545 17.0627 64.1076 17.0441C63.8291 17.0627 63.5877 16.9513 63.3092 16.9513C63.0493 16.8585 62.7708 16.7842 62.5108 16.6357C62.0467 16.3572 61.6939 15.9487 61.3783 15.5217C61.2669 15.2989 61.1555 15.0947 61.0441 14.8719C60.7099 13.9064 60.7099 12.8667 60.877 11.8826C60.9141 11.7712 60.9327 11.6598 60.9698 11.5484C61.0255 11.3813 61.0812 11.2142 61.1369 11.0471C61.2854 10.7129 61.4525 10.3973 61.6382 10.0631C61.6939 9.98883 61.7496 9.896 61.8053 9.82174C61.8981 9.71034 61.9724 9.59894 62.0467 9.48754C62.4551 9.04194 62.8636 8.59634 63.3649 8.26214C63.4392 8.20644 63.532 8.15074 63.6063 8.09504C64.2375 7.74228 64.9245 7.48234 65.6486 7.35238ZM74.3934 7.44521C74.8947 7.27811 75.526 7.22241 75.953 7.61231C76.1573 7.76084 76.2687 8.00221 76.3801 8.20644C76.3986 8.55921 76.3801 8.91197 76.2872 9.24617C76.1573 9.5061 76.0644 9.7846 75.953 10.0631C75.8973 10.1931 75.8416 10.3416 75.7859 10.4716C75.7302 10.6015 75.6745 10.7501 75.6188 10.88C75.5074 11.1585 75.396 11.4185 75.2846 11.697C75.2289 11.8269 75.1732 11.9755 75.1175 12.1054C75.0618 12.2354 75.0061 12.3839 74.9504 12.5139C74.9133 12.6067 74.8762 12.681 74.839 12.7738C74.8205 12.8481 74.7833 12.9224 74.7648 12.9966C74.7462 13.0709 74.7091 13.1637 74.6905 13.238C74.6534 13.3123 74.6348 13.4051 74.5977 13.4794C74.5234 13.6836 74.5048 13.925 74.6348 14.1106C74.839 14.2963 75.1175 14.2592 75.3589 14.2592C75.7302 14.2777 76.1016 14.1478 76.4358 13.9807C76.8071 13.7207 77.1042 13.368 77.2341 12.9224C77.2898 12.7924 77.3455 12.6439 77.4012 12.5139C77.4569 12.3839 77.5126 12.2354 77.5683 12.1054C77.624 11.9755 77.6797 11.8269 77.7354 11.697C77.7911 11.567 77.8468 11.4185 77.9025 11.2885C77.9582 11.1585 78.0139 11.01 78.0696 10.88C78.1253 10.7501 78.181 10.6015 78.2367 10.4716C78.2924 10.3416 78.3481 10.1931 78.4038 10.0631C78.4595 9.93314 78.5152 9.7846 78.5709 9.65464C78.6266 9.52467 78.6823 9.37614 78.738 9.24617C78.868 8.96767 78.998 8.68917 79.1465 8.42924C79.2022 8.33641 79.2579 8.26214 79.3136 8.16931C79.5735 7.87224 79.8892 7.64944 80.2419 7.48234C80.5576 7.46378 80.8918 7.46378 81.2074 7.48234C81.4673 7.61231 81.6901 7.79798 81.8943 8.00221C81.9129 8.03934 81.9501 8.13217 81.9686 8.16931C82.0058 8.26214 82.0429 8.33641 82.08 8.42924C82.1357 8.96767 81.8758 9.45041 81.7272 9.9517C81.6715 10.0817 81.6159 10.2302 81.5602 10.3602C81.5044 10.4901 81.4488 10.6387 81.3931 10.7686C81.3374 10.8986 81.2817 11.0471 81.226 11.1771C81.1703 11.3071 81.1145 11.4556 81.0589 11.5856C81.0032 11.7155 80.9474 11.8641 80.8918 11.994C80.8361 12.124 80.7804 12.2725 80.7247 12.4025C80.4462 13.0152 80.2048 13.6279 79.982 14.2592C80.7989 14.2777 81.6344 14.1849 82.4328 14.4448C82.5813 14.5934 82.767 14.7233 82.8412 14.9276C82.8969 15.0761 82.8969 15.2432 82.9526 15.4103C82.8969 15.6702 82.8784 15.9301 82.7855 16.1901C82.637 16.4314 82.4328 16.6357 82.1914 16.7842C82.08 16.8399 81.9686 16.8956 81.8572 16.9513C81.3374 17.1184 80.7803 17.0627 80.2234 17.0627C79.4993 17.0627 78.7566 17.0813 78.0325 17.0441C77.7169 16.9142 77.4755 16.6914 77.2527 16.4315C77.2527 16.3943 77.2341 16.32 77.2341 16.2829C77.067 16.45 76.8999 16.6171 76.7143 16.7656C76.6029 16.8213 76.4915 16.877 76.3801 16.9327C76.2872 16.9699 76.213 16.9884 76.1201 17.0256C75.099 17.0627 74.0778 17.0627 73.0567 17.0256C72.9638 16.9884 72.8895 16.9513 72.7967 16.9327C72.4625 16.7842 72.1283 16.6171 71.887 16.3572C71.627 16.0972 71.4599 15.7631 71.3114 15.4474C71.2 15.0575 71.2 14.6305 71.2186 14.222C71.2928 13.8321 71.4414 13.4608 71.5528 13.0895C71.6085 12.9595 71.6642 12.811 71.7199 12.681C71.7756 12.551 71.8313 12.4025 71.887 12.2725C71.9427 12.1426 71.9984 11.994 72.0541 11.8641C72.1097 11.7341 72.1655 11.5856 72.2212 11.4556C72.2769 11.3256 72.3326 11.1771 72.3883 11.0471C72.444 10.9172 72.4996 10.7686 72.5554 10.6387C72.6111 10.5087 72.6667 10.3602 72.7225 10.2302C72.7782 10.1002 72.8338 9.9517 72.8895 9.82174C72.9453 9.69177 73.001 9.54324 73.0567 9.41327C73.1124 9.2833 73.1681 9.13477 73.2238 9.0048C73.3352 8.78201 73.4465 8.55921 73.5579 8.35497C73.7065 8.00221 74.0221 7.68658 74.3934 7.44521ZM34.3267 10.4159C34.6238 10.2116 34.958 10.1002 35.3108 10.0445C35.515 10.0445 35.7007 10.1188 35.8863 10.1374C36.2205 10.3045 36.4805 10.5644 36.6476 10.88C36.8889 11.7341 36.7033 12.6996 36.202 13.4237C35.9977 13.7393 35.7378 13.9992 35.4036 14.1478C34.8466 14.3706 34.2153 14.3706 33.6583 14.1478C33.4355 13.9807 33.2127 13.8136 33.1199 13.5536C32.9157 12.9038 33.0456 12.1983 33.3241 11.6041C33.5655 11.14 33.8997 10.7129 34.3267 10.4159ZM65.4444 10.2116C65.7785 10.1002 66.1499 9.97027 66.5026 10.1002C66.9482 10.1559 67.2639 10.5273 67.4681 10.8986C67.6723 11.567 67.5795 12.2911 67.301 12.9409C67.2453 13.0523 67.171 13.1637 67.1153 13.2751C67.0596 13.3494 67.0039 13.4422 66.9482 13.5165C66.7811 13.7579 66.5769 13.9621 66.317 14.1106C66.0199 14.2777 65.7043 14.2963 65.3886 14.3334C64.8873 14.2963 64.2932 14.222 64.0333 13.7207C63.662 13.0523 63.8476 12.2354 64.1632 11.5856C64.4232 11.0286 64.8688 10.5087 65.4444 10.2116ZM92.2731 14.1478C92.6815 13.8878 93.1643 13.8321 93.6284 13.8878C93.7213 13.925 93.8141 13.9621 93.9069 13.9807C94.2783 14.1663 94.6125 14.4634 94.8167 14.8162C95.0209 15.2803 95.0581 15.8002 94.9095 16.2829C94.8538 16.3943 94.7981 16.5057 94.7424 16.6171C94.5568 16.8214 94.3525 17.0256 94.1483 17.2112C93.647 17.4712 93.0343 17.4712 92.5144 17.3041C92.4773 17.2855 92.3845 17.2298 92.3473 17.2112C91.9017 16.9327 91.6047 16.4686 91.4933 15.9673C91.4747 15.7259 91.4933 15.5031 91.4933 15.2618C91.5304 15.1689 91.5676 15.0947 91.6047 15.0018C91.6604 14.8904 91.7161 14.779 91.7718 14.6676C91.9389 14.482 92.106 14.3149 92.2731 14.1478Z" fill="#E42E16"/>
</svg>
