<svg width="59" height="37" viewBox="0 0 59 37" fill="none" xmlns="http://www.w3.org/2000/svg">
<path d="M2.83569 18.7231C2.68497 18.565 2.50129 18.4394 2.29876 18.351C2.09624 18.2626 1.87959 18.2207 1.65822 18.2207C1.43686 18.2161 1.22021 18.2626 1.01768 18.3463C0.815159 18.4347 0.631474 18.5603 0.480759 18.7185C0.325334 18.872 0.202878 19.0534 0.12281 19.2534C0.0427425 19.4581 0.00035383 19.6721 0.00035383 19.8861C-0.00435602 20.1047 0.0380327 20.3187 0.12281 20.5187C0.207587 20.7187 0.330044 20.9001 0.485469 21.0536C0.636228 21.2119 0.818921 21.3371 1.02174 21.4212C1.22456 21.5053 1.443 21.5465 1.66293 21.5421C1.8824 21.5433 2.09984 21.5006 2.30219 21.4167C2.50454 21.3327 2.68761 21.2092 2.8404 21.0536C3.00053 20.9048 3.12299 20.7234 3.20776 20.5233C3.29254 20.3233 3.33493 20.1093 3.33493 19.8907C3.33493 19.6721 3.29254 19.4581 3.20776 19.2581C3.11828 19.0534 2.99582 18.872 2.83569 18.7231ZM22.5464 14.9459C22.5229 15.9879 22.5747 17.0346 22.6971 18.0719H22.6406C22.5087 17.816 22.2167 17.3416 21.7693 16.6485L11.0308 0H7.77161V21.2537H10.2773V5.88906C10.3055 4.91686 10.2631 3.94465 10.1595 2.97244H10.2537C10.4327 3.43761 10.6635 3.88418 10.9366 4.30283L21.9671 21.2537H25.0521V0H22.5464V14.9459ZM42.0405 18.9185H33.186V11.5548H40.9337V9.31272H33.186V2.25143H41.4989V0H30.6191V21.2537H42.0264L42.0405 18.9185ZM43.9574 0V2.25143H50.1273V21.2537H52.633V2.25143H58.8735V0H43.9574ZM19.4002 26.538C18.7744 26.7846 18.2092 27.1605 17.7424 27.6405C17.262 28.1475 16.8852 28.7429 16.6403 29.3988C16.3954 30.0547 16.287 30.7478 16.3153 31.4409C16.2682 32.7248 16.7203 33.9807 17.587 34.939C18.0203 35.3902 18.5478 35.7391 19.1318 35.9717C19.7158 36.2043 20.3422 36.3066 20.9686 36.2787C21.9106 36.3112 22.8479 36.1159 23.7003 35.7065L23.7098 34.6227C22.9279 35.0739 22.0378 35.2972 21.1335 35.2739C20.6484 35.2925 20.1632 35.2088 19.7158 35.0274C19.2684 34.846 18.8633 34.5669 18.5336 34.2133C17.8442 33.4224 17.4899 32.3994 17.5446 31.3572C17.488 30.2547 17.8695 29.1755 18.6043 28.3475C18.9528 27.9661 19.3814 27.6684 19.8571 27.4637C20.3346 27.2631 20.8502 27.1663 21.369 27.1799C22.1932 27.166 23.0033 27.366 23.7239 27.7614V26.5938C22.9765 26.2962 22.1743 26.1567 21.369 26.1845C20.6955 26.1752 20.0219 26.2915 19.4002 26.538ZM31.1419 29.8686C30.8271 29.5416 30.4444 29.2858 30.02 29.1188C29.5956 28.9518 29.1396 28.8775 28.6834 28.9011C28.1983 28.8778 27.7178 28.9569 27.2657 29.129C26.8136 29.3011 26.4038 29.5616 26.0553 29.8919C25.7162 30.264 25.4571 30.6966 25.2876 31.1711C25.118 31.6456 25.0474 32.1433 25.0803 32.6457C25.0332 33.5993 25.3676 34.5343 26.0082 35.246C26.3284 35.5856 26.7146 35.8554 27.148 36.0368C27.5813 36.2136 28.0475 36.3019 28.5138 36.2833C28.9895 36.2973 29.4652 36.2089 29.9079 36.0275C30.3507 35.8461 30.7463 35.5716 31.0713 35.2227C31.7318 34.4873 32.0734 33.5251 32.0227 32.5434C32.0792 31.5665 31.7636 30.6129 31.1419 29.8686ZM30.28 34.6459C30.0728 34.8822 29.8135 35.0684 29.522 35.1901C29.2305 35.3119 28.9146 35.366 28.5986 35.3483C28.2736 35.3623 27.9533 35.3018 27.6566 35.1809C27.3599 35.0553 27.0961 34.8692 26.8795 34.6273C26.4281 34.0755 26.2014 33.3772 26.2437 32.669C26.2013 31.9386 26.4273 31.2176 26.8795 30.6408C27.0914 30.3989 27.3552 30.2082 27.6519 30.078C27.9486 29.9524 28.2736 29.8919 28.5939 29.9058C28.9142 29.8872 29.2297 29.9477 29.5217 30.0733C29.8137 30.1989 30.0728 30.3896 30.28 30.6315C30.7081 31.2163 30.9162 31.9303 30.8687 32.6503C30.9158 33.3574 30.7086 34.0691 30.28 34.6459ZM35.7387 29.4128C35.3855 29.7244 35.1264 30.1291 34.9993 30.5803V29.1197H33.8218V36.1159H34.9993V32.548C34.9616 31.9014 35.1312 31.2548 35.4797 30.7059C35.6069 30.5059 35.7764 30.3384 35.9836 30.2222C36.1909 30.1059 36.4217 30.0361 36.6572 30.0314C36.9586 30.0082 37.26 30.0873 37.5143 30.2547V29.1011C37.2977 29.0313 37.0716 28.9988 36.8455 29.0081C36.4405 29.0034 36.0496 29.1476 35.7387 29.4128ZM44.4049 32.3015C44.4614 31.413 44.1929 30.5385 43.6513 29.8314C43.3828 29.5337 43.0531 29.2965 42.6811 29.143C42.309 28.9895 41.9086 28.9197 41.5083 28.9429C41.0656 28.929 40.6228 29.0174 40.2131 29.1941C39.808 29.3709 39.4454 29.636 39.1534 29.971C38.5139 30.7079 38.1822 31.6575 38.2255 32.6271C38.1643 33.5946 38.4704 34.5529 39.0827 35.3065C39.3794 35.6274 39.7468 35.8786 40.1519 36.0461C40.5569 36.2136 40.9996 36.2833 41.4377 36.2647C42.309 36.3066 43.1709 36.074 43.8962 35.5995V34.5482C43.2765 35.0455 42.5046 35.321 41.7061 35.3297C41.4 35.3483 41.0891 35.3018 40.8018 35.1902C40.5145 35.0785 40.2508 34.9157 40.0341 34.6971C39.6133 34.1941 39.3998 33.553 39.436 32.9015H44.4143L44.4049 32.3015ZM39.4265 31.9758C39.4878 31.4223 39.7327 30.9013 40.1189 30.4966C40.292 30.3129 40.5021 30.1671 40.7357 30.0686C40.9694 29.97 41.2213 29.9209 41.4753 29.9244C41.7202 29.9105 41.9604 29.9524 42.1865 30.0454C42.4126 30.1384 42.6104 30.278 42.7705 30.4594C43.1002 30.892 43.2651 31.4223 43.2415 31.9619L39.4265 31.9758Z" fill="#621EE5"/>
</svg>
