<svg width="44" height="49" viewBox="0 0 44 49" fill="none" xmlns="http://www.w3.org/2000/svg">
<path d="M21.4971 48.5154C20.852 48.5154 20.1974 48.3422 19.6294 48.0149L13.6895 44.5011C12.8039 44.0004 13.2371 43.8272 13.5259 43.7308C14.7099 43.3169 14.9506 43.2304 16.2117 42.5082C16.3466 42.4313 16.5199 42.46 16.6546 42.5468L21.2178 45.2519C21.3815 45.3481 21.6123 45.3481 21.7664 45.2519L39.5476 34.9894C39.7114 34.8931 39.8171 34.7006 39.8171 34.5081V13.9833C39.8171 13.7811 39.7114 13.5982 39.5381 13.4924L21.7665 3.23947C21.603 3.14318 21.3816 3.14318 21.2179 3.23947L3.456 13.5019C3.28261 13.5982 3.17682 13.7907 3.17682 13.9929V34.5081C3.17682 34.7006 3.28261 34.8931 3.456 34.9799L8.32739 37.7909C10.9749 39.1097 12.5921 37.5598 12.5921 35.9908V15.7353C12.5921 15.4465 12.8231 15.2252 13.1121 15.2252H15.3648C15.644 15.2252 15.8845 15.4465 15.8845 15.7353V36.0004C15.8845 39.5238 13.9591 41.5455 10.6187 41.5455C9.58848 41.5455 8.77985 41.5455 6.52714 40.4288L1.86764 37.7428C0.712336 37.0785 0 35.8366 0 34.4986V13.9833C0 12.6548 0.712336 11.4033 1.86764 10.739L19.6294 0.476508C20.7557 -0.158836 22.248 -0.158836 23.3647 0.476508L41.1461 10.7485C42.3013 11.4128 43.0136 12.6547 43.0136 13.9929V34.5081C43.0136 35.8366 42.3013 37.0785 41.1461 37.7524L23.3647 48.0149C22.7966 48.3422 22.1515 48.5154 21.4971 48.5154ZM35.8511 28.2891C35.8511 24.4479 33.2518 23.4275 27.7933 22.7055C22.2672 21.9738 21.7089 21.5983 21.7089 20.3083C21.7089 19.2398 22.1807 17.8149 26.2722 17.8149C29.921 17.8149 31.2687 18.6044 31.827 21.069C31.8752 21.2999 32.0872 21.4732 32.3275 21.4732H34.6384C34.7825 21.4732 34.9173 21.4155 35.0137 21.3095C35.1101 21.2038 35.1581 21.0593 35.1482 20.9148C34.7922 16.6694 31.9714 14.6958 26.2722 14.6958C21.1988 14.6958 18.176 16.833 18.176 20.4239C18.176 24.3132 21.1891 25.3916 26.0507 25.8726C31.8752 26.4408 32.3275 27.2976 32.3275 28.4432C32.3275 30.4266 30.7297 31.2735 26.9847 31.2735C22.2771 31.2735 21.2469 30.0894 20.9003 27.7502C20.8618 27.4999 20.6499 27.317 20.3902 27.317H18.0892C17.8004 27.317 17.5791 27.5481 17.5791 27.8271C17.5791 30.8213 19.2061 34.3929 26.9944 34.3929C32.6164 34.3832 35.8511 32.159 35.8511 28.2891Z" fill="#539E43"/>
</svg>
