<svg width="55" height="29" viewBox="0 0 55 29" fill="none" xmlns="http://www.w3.org/2000/svg">
<path d="M27.2606 28.6033C42.3162 28.6033 54.5211 22.2002 54.5211 14.3016C54.5211 6.40306 42.3162 0 27.2606 0C12.205 0 0 6.40306 0 14.3016C0 22.2002 12.205 28.6033 27.2606 28.6033Z" fill="url(#paint0_radial_407_3024)"/>
<path d="M27.2602 27.5407C41.7278 27.5407 53.456 21.6132 53.456 14.3014C53.456 6.98947 41.7278 1.06201 27.2602 1.06201C12.7927 1.06201 1.06445 6.98947 1.06445 14.3014C1.06445 21.6132 12.7927 27.5407 27.2602 27.5407Z" fill="#6181B6"/>
<path d="M32.5643 18.5804L33.8657 11.9116C34.1615 10.4066 33.915 9.28534 33.1362 8.57714C32.3869 7.88861 31.115 7.55419 29.2418 7.55419H26.9939L27.6348 4.24927C27.6545 4.1214 27.6249 3.99353 27.546 3.89517C27.4671 3.79681 27.3488 3.73779 27.2207 3.73779H24.115C23.908 3.73779 23.7404 3.88533 23.7009 4.08206L22.3207 11.164C22.1925 10.3673 21.8869 9.67878 21.3939 9.11812C20.4869 8.0755 19.0376 7.55419 17.115 7.55419H11.0911C10.8841 7.55419 10.7164 7.70173 10.677 7.89845L7.87701 22.2296C7.85729 22.3575 7.88687 22.4853 7.96574 22.5837C8.04461 22.6821 8.16292 22.7411 8.29109 22.7411H11.4263C11.6333 22.7411 11.801 22.5935 11.8404 22.3968L12.5207 18.9247H14.8474C16.07 18.9247 17.0953 18.7968 17.9038 18.5312C18.7221 18.2657 19.4812 17.8132 20.1418 17.1935C20.684 16.7017 21.1277 16.1509 21.4629 15.5509L20.901 18.4132C20.8812 18.5411 20.9108 18.6689 20.9897 18.7673C21.0686 18.8657 21.1869 18.9247 21.315 18.9247H24.4207C24.6277 18.9247 24.7953 18.7771 24.8348 18.5804L26.3629 10.7116H28.4925C29.3995 10.7116 29.6657 10.8886 29.7348 10.9673C29.8038 11.0362 29.9418 11.2919 29.784 12.0689L28.5714 18.423C28.5517 18.5509 28.5812 18.6788 28.6601 18.7771C28.739 18.8755 28.8573 18.9345 28.9855 18.9345H32.1404C32.3474 18.9247 32.5249 18.787 32.5643 18.5804ZM18.17 13.0722C17.9728 14.0755 17.608 14.7837 17.0756 15.1968C16.5333 15.6099 15.6756 15.8165 14.5122 15.8165H13.1221L14.1277 10.6624H15.9221C17.2432 10.6624 17.7756 10.9476 17.9826 11.1837C18.2784 11.5083 18.3474 12.1575 18.17 13.0722Z" fill="white"/>
<path d="M45.8447 9.11813C44.9377 8.07551 43.4884 7.5542 41.5659 7.5542H35.5419C35.3349 7.5542 35.1673 7.70174 35.1278 7.89846L32.3377 22.2394C32.318 22.3673 32.3476 22.4952 32.4264 22.5935C32.5053 22.6919 32.6236 22.7509 32.7518 22.7509H35.887C36.094 22.7509 36.2616 22.6034 36.3011 22.4067L36.9814 18.9345H39.3081C40.5307 18.9345 41.556 18.8067 42.3645 18.5411C43.1828 18.2755 43.9419 17.8231 44.6025 17.2034C45.1546 16.6919 45.618 16.1214 45.9631 15.5017C46.3081 14.8821 46.5546 14.1935 46.7025 13.4558C47.0476 11.6263 46.7616 10.1706 45.8447 9.11813ZM42.6011 13.0722C42.4039 14.0755 42.0391 14.7837 41.5067 15.1968C40.9645 15.6099 40.1067 15.8165 38.9433 15.8165H37.5532L38.5588 10.6624H40.3532C41.6743 10.6624 42.2067 10.9476 42.4138 11.1837C42.7194 11.5083 42.7785 12.1575 42.6011 13.0722Z" fill="white"/>
<path d="M15.9224 10.2394C17.1154 10.2394 17.9041 10.4558 18.2985 10.8984C18.6928 11.3411 18.7914 12.0886 18.5844 13.1509C18.3675 14.2624 17.9534 15.0492 17.3323 15.5312C16.7111 16.0033 15.7745 16.2394 14.5125 16.2394H12.6097L13.783 10.2394H15.9224ZM8.30127 22.3181H11.4365L12.1759 18.5017H14.8576C16.0407 18.5017 17.0168 18.3738 17.7759 18.1279C18.5449 17.882 19.2351 17.4689 19.8562 16.8788C20.3787 16.3968 20.8027 15.8656 21.128 15.2853C21.4534 14.705 21.6801 14.0656 21.8182 13.3673C22.1534 11.6656 21.897 10.3476 21.0689 9.39351C20.2407 8.44925 18.9196 7.96729 17.1055 7.96729H11.0914L8.30127 22.3181Z" fill="black"/>
<path d="M24.1252 4.17041H27.2308L26.4914 7.9868H29.2618C31.0069 7.9868 32.1998 8.29172 32.8604 8.89172C33.521 9.50156 33.7182 10.4753 33.452 11.8327L32.1506 18.5016H28.9956L30.228 12.1573C30.366 11.4393 30.3167 10.9475 30.0703 10.6819C29.8238 10.4163 29.3111 10.2884 28.5125 10.2884H26.028L24.4308 18.5016H21.3252L24.1252 4.17041Z" fill="black"/>
<path d="M40.3534 10.2394C41.5464 10.2394 42.3351 10.4558 42.7295 10.8984C43.1238 11.3411 43.2224 12.0886 43.0154 13.1509C42.7985 14.2624 42.3844 15.0492 41.7633 15.5312C41.1422 16.0033 40.2055 16.2394 38.9436 16.2394H37.0408L38.214 10.2394H40.3534ZM32.7323 22.3181H35.8675L36.6069 18.5017H39.2886C40.4717 18.5017 41.4478 18.3738 42.2069 18.1279C42.976 17.882 43.6661 17.4689 44.2872 16.8788C44.8098 16.3968 45.2337 15.8656 45.5591 15.2853C45.8844 14.705 46.1112 14.0656 46.2492 13.3673C46.5844 11.6656 46.3281 10.3476 45.4999 9.39351C44.6717 8.44925 43.3506 7.96729 41.5365 7.96729H35.5126L32.7323 22.3181Z" fill="black"/>
<defs>
<radialGradient id="paint0_radial_407_3024" cx="0" cy="0" r="1" gradientUnits="userSpaceOnUse" gradientTransform="translate(16.3682 5.02652) scale(35.7943 35.7105)">
<stop stop-color="white"/>
<stop offset="0.5" stop-color="#4C6B97"/>
<stop offset="1"/>
</radialGradient>
</defs>
</svg>
