<svg width="39" height="40" viewBox="0 0 39 40" fill="none" xmlns="http://www.w3.org/2000/svg">
<path d="M21.1447 32.5985C21.0821 32.3649 20.8545 32.2156 20.6153 32.2513C12.3411 33.4881 4.76465 27.0448 4.76465 18.5822C4.76465 10.9632 10.9632 4.76465 18.5822 4.76465C27.8968 4.76465 34.6002 13.868 31.7441 22.7835C31.6608 23.0434 31.8096 23.3201 32.0732 23.3907L35.2068 24.2303C35.3681 24.2736 35.5245 24.3288 35.6751 24.395C35.9358 24.5095 36.2397 24.376 36.3244 24.104C40.0638 12.0909 31.0143 0 18.5822 0C8.33593 0 0 8.33601 0 18.5822C0 30.3933 10.7552 38.8576 21.7617 36.9033C22.0371 36.8544 22.2118 36.58 22.1395 36.3098L21.1447 32.5985Z" fill="#194F82"/>
<path d="M18.6455 13.5998C19.783 13.5998 20.371 14.3791 20.3589 15.1363C20.346 15.9429 21.0014 16.5995 21.8073 16.5889C22.6204 16.5782 23.2352 15.8682 23.2162 15.0552C23.1703 13.0851 21.828 11.4309 20.0115 10.9116V10.2793C20.0115 9.50957 19.42 8.84737 18.6512 8.8112C17.8303 8.77253 17.1527 9.4266 17.1527 10.2389V10.9882C15.2545 11.6256 13.908 13.3966 13.9476 15.4664C13.9956 17.9728 16.0746 20.0119 18.5821 20.0119C19.2947 20.0119 19.9169 20.4415 20.1984 21.055C20.3089 21.2958 20.6042 21.3905 20.84 21.2697C21.3529 21.0068 21.9243 20.8849 22.4911 20.9085C22.8299 20.9225 23.069 20.5807 22.9559 20.2609C22.3205 18.4635 20.5999 17.1628 18.6042 17.1531C17.8134 17.1492 17.099 16.6288 16.8767 15.8699C16.5316 14.6903 17.4886 13.5998 18.6455 13.5998Z" fill="#FFC10D"/>
<path d="M19.6704 27.8508C19.7687 27.735 19.7984 27.5757 19.7592 27.429C19.0975 24.9603 18.9913 24.7506 19.0292 24.0661C19.0431 23.8121 18.8542 23.5651 18.5189 23.5651C17.3814 23.5651 16.7934 22.7858 16.8055 22.0286C16.8184 21.2221 16.163 20.5654 15.3571 20.5761C14.544 20.5868 13.9292 21.2968 13.9482 22.1097C13.9941 24.0799 15.3364 25.7341 17.1529 26.2534V26.8867C17.1528 28.2515 18.8088 28.8658 19.6704 27.8508Z" fill="#FFC10D"/>
<path d="M37.6993 34.0856L33.7165 30.1017L35.3553 28.4624C36.1316 27.6856 35.7763 26.3556 34.7142 26.0712L22.7284 22.8598C21.6676 22.5757 20.693 23.5483 20.9777 24.6105C21.0034 24.7065 24.0979 36.2519 24.1364 36.3957C24.5241 37.845 25.8862 37.9326 26.5814 37.2371L28.2203 35.5983L32.2034 39.5813C32.7617 40.1396 33.6667 40.1395 34.2249 39.5813L37.6993 36.1069C38.2575 35.5488 38.2576 34.644 37.6993 34.0856Z" fill="#56ACE0"/>
</svg>
