<svg width="45" height="41" viewBox="0 0 45 41" fill="none" xmlns="http://www.w3.org/2000/svg">
<path d="M22.5 16.146C21.9733 16.146 21.4518 16.2507 20.9652 16.454C20.4786 16.6573 20.0365 16.9552 19.6641 17.3309C19.2916 17.7065 18.9962 18.1525 18.7947 18.6433C18.5931 19.1341 18.4894 19.6602 18.4894 20.1914C18.4894 20.7226 18.5931 21.2487 18.7947 21.7395C18.9962 22.2303 19.2916 22.6763 19.6641 23.0519C20.0365 23.4275 20.4786 23.7255 20.9652 23.9288C21.4518 24.1321 21.9733 24.2368 22.5 24.2368C23.0267 24.2368 23.5482 24.1321 24.0348 23.9288C24.5214 23.7255 24.9635 23.4275 25.3359 23.0519C25.7084 22.6763 26.0038 22.2303 26.2053 21.7395C26.4069 21.2487 26.5106 20.7226 26.5106 20.1914C26.5106 19.6602 26.4069 19.1341 26.2053 18.6433C26.0038 18.1525 25.7084 17.7065 25.3359 17.3309C24.9635 16.9552 24.5214 16.6573 24.0348 16.454C23.5482 16.2507 23.0267 16.146 22.5 16.146ZM11.265 28.2386L10.38 28.0117C3.78375 26.3304 0 23.4765 0 20.1838C0 16.8912 3.78375 14.0373 10.38 12.356L11.265 12.1309L11.5144 13.016C12.1826 15.3379 13.0373 17.601 14.07 19.7829L14.2594 20.1857L14.07 20.5886C13.0356 22.7697 12.1808 25.0329 11.5144 27.3554L11.265 28.2386ZM9.96937 14.4231C4.95562 15.8434 1.87875 18.0165 1.87875 20.1838C1.87875 22.3493 4.95562 24.5223 9.96937 25.9445C10.5825 23.9775 11.3229 22.0532 12.1856 20.1838C11.3219 18.3149 10.5815 16.3905 9.96937 14.4231ZM33.735 28.2386L33.4856 27.3516C32.8181 25.0298 31.9627 22.7673 30.9281 20.5867L30.7387 20.1838L30.9281 19.781C31.9623 17.5996 32.8177 15.3364 33.4856 13.0141L33.735 12.129L34.6219 12.3541C41.2163 14.0354 45 16.8893 45 20.1838C45 23.4784 41.2163 26.3304 34.6219 28.0117L33.735 28.2386ZM32.8144 20.1838C33.7144 22.1488 34.4588 24.0798 35.0306 25.9445C40.0462 24.5223 43.1213 22.3493 43.1213 20.1838C43.1213 18.0165 40.0444 15.8453 35.0306 14.4231C34.4183 16.3904 33.6779 18.3148 32.8144 20.1838ZM9.95625 14.4137L9.70687 13.5305C7.8525 6.9376 8.415 2.21329 11.25 0.564129C14.0306 -1.05477 18.495 0.85727 23.1731 5.70073L23.8106 6.36077L23.1731 7.02081C21.5109 8.76379 19.9921 10.6404 18.6319 12.6321L18.3787 12.9971L17.9381 13.035C15.5455 13.2252 13.172 13.611 10.8413 14.1886L9.95625 14.4137ZM13.5112 1.87476C13.0087 1.87476 12.5644 1.98445 12.1894 2.20194C10.3256 3.28562 9.99562 7.05297 11.28 12.1366C13.2781 11.6883 15.303 11.3718 17.3419 11.1891C18.5183 9.5019 19.8036 7.89465 21.1894 6.37779C18.2644 3.505 15.495 1.87476 13.5112 1.87476ZM31.4906 40.3841C31.4888 40.3841 31.4888 40.3841 31.4906 40.3841C28.8188 40.3841 25.3875 38.3548 21.8269 34.6669L21.1894 34.0069L21.8269 33.3468C23.4887 31.6033 25.0069 29.726 26.3663 27.7337L26.6194 27.3686L27.0581 27.3308C29.452 27.1416 31.8267 26.7564 34.1588 26.1791L35.0438 25.954L35.295 26.8391C37.1456 33.4282 36.585 38.1544 33.75 39.8016C33.0614 40.1944 32.2816 40.3954 31.4906 40.3841ZM23.8106 33.9899C26.7356 36.8627 29.505 38.4929 31.4888 38.4929H31.4906C31.9913 38.4929 32.4375 38.3832 32.8106 38.1657C34.6744 37.082 35.0062 33.3128 33.72 28.2292C31.7214 28.6781 29.6958 28.9946 27.6562 29.1767C26.4813 30.865 25.1966 32.473 23.8106 33.9899ZM35.0438 14.4137L34.1588 14.1886C31.827 13.6094 29.4522 13.2235 27.0581 13.035L26.6194 12.9971L26.3663 12.6321C25.0076 10.6398 23.4894 8.76309 21.8269 7.02081L21.1894 6.36077L21.8269 5.70073C26.5031 0.859162 30.9656 -1.05288 33.75 0.564129C36.585 2.21329 37.1475 6.9376 35.295 13.5286L35.0438 14.4137ZM27.6562 11.1891C29.7975 11.3858 31.8319 11.7054 33.72 12.1366C35.0062 7.05297 34.6744 3.28562 32.8106 2.20194C30.9581 1.12204 27.4763 2.77688 23.8106 6.37779C25.1958 7.89472 26.4804 9.50196 27.6562 11.1891ZM13.5112 40.3841C12.7196 40.3957 11.9392 40.1947 11.25 39.8016C8.415 38.1544 7.8525 33.4301 9.70687 26.8391L9.95438 25.954L10.8394 26.1791C13.005 26.7294 15.3938 27.1171 17.9363 27.3308L18.3769 27.3686L18.6281 27.7337C19.9885 29.7258 21.5073 31.603 23.1694 33.3468L23.8069 34.0069L23.1694 34.6669C19.6106 38.3548 16.1794 40.3841 13.5112 40.3841ZM11.28 28.2292C9.99375 33.3128 10.3256 37.082 12.1894 38.1657C14.04 39.2305 17.52 37.5889 21.1894 33.9899C19.8041 32.4719 18.5189 30.864 17.3419 29.1767C15.3029 28.9948 13.2779 28.6783 11.28 28.2292ZM22.5 29.4169C20.9569 29.4169 19.3706 29.3488 17.7825 29.2164L17.3419 29.1786L17.0888 28.8135C16.1905 27.5116 15.346 26.1727 14.5575 24.8003C13.7714 23.4268 13.042 22.0211 12.3713 20.5867L12.1838 20.1838L12.3713 19.781C13.0419 18.3465 13.7713 16.9408 14.5575 15.5673C15.3337 14.2132 16.1869 12.8628 17.0888 11.5541L17.3419 11.1891L17.7825 11.1513C20.9225 10.8827 24.0794 10.8827 27.2194 11.1513L27.6581 11.1891L27.9094 11.5541C29.7078 14.1585 31.2865 16.9104 32.6287 19.781L32.8181 20.1838L32.6287 20.5867C31.2897 23.4589 29.7109 26.2112 27.9094 28.8135L27.6581 29.1786L27.2194 29.2164C25.6313 29.3488 24.0431 29.4169 22.5 29.4169ZM18.3806 27.3668C21.1556 27.5767 23.8444 27.5767 26.6213 27.3668C28.1716 25.0807 29.548 22.6796 30.7387 20.1838C29.5501 17.6866 28.1729 15.2852 26.6194 13.0009C23.8771 12.791 21.1229 12.791 18.3806 13.0009C16.8264 15.2848 15.4492 17.6862 14.2612 20.1838C15.4533 22.6792 16.8303 25.0804 18.3806 27.3668Z" fill="#61D9FB"/>
</svg>
