<svg width="54" height="40" viewBox="0 0 54 40" fill="none" xmlns="http://www.w3.org/2000/svg">
<path d="M46.129 22.9944C44.2682 23.0042 42.651 23.4523 41.2968 24.1148C40.8 23.1308 40.3031 22.254 40.2154 21.611C40.118 20.8609 40.0011 20.403 40.118 19.5067C40.2349 18.6104 40.761 17.3342 40.7512 17.2367C40.7415 17.1393 40.6343 16.6814 39.5627 16.6717C38.491 16.6619 37.5655 16.8763 37.4583 17.1588C37.3512 17.4413 37.1466 18.0843 37.0102 18.7468C36.8251 19.721 34.8669 23.199 33.7465 25.0208C33.3861 24.3097 33.0743 23.6861 33.0061 23.1893C32.9087 22.4391 32.7918 21.9812 32.9087 21.0849C33.0256 20.1887 33.5517 18.9124 33.5419 18.815C33.5322 18.7176 33.425 18.2597 32.3534 18.2499C31.2817 18.2402 30.3562 18.4545 30.249 18.737C30.1419 19.0196 30.025 19.682 29.8009 20.325C29.5768 20.968 26.9756 26.7745 26.2936 28.2748C25.9429 29.0444 25.6409 29.6582 25.4266 30.0771C25.4266 30.0771 25.4168 30.1063 25.3876 30.155C25.2025 30.5155 25.0953 30.7104 25.0953 30.7104C25.0953 30.7104 25.0953 30.7104 25.0953 30.7201C24.9492 30.9831 24.7933 31.2267 24.7154 31.2267C24.6569 31.2267 24.5498 30.5252 24.7349 29.5705C25.1246 27.5538 26.0501 24.4168 26.0403 24.3097C26.0403 24.2512 26.2157 23.7056 25.4363 23.4231C24.6764 23.1406 24.4036 23.6082 24.3354 23.6082C24.2672 23.6082 24.2185 23.7738 24.2185 23.7738C24.2185 23.7738 25.0661 20.2471 22.6013 20.2471C21.062 20.2471 18.9382 21.9325 17.886 23.4523C17.2236 23.8128 15.8109 24.5824 14.3009 25.4105C13.7261 25.732 13.1318 26.0535 12.5765 26.3555C12.5375 26.3166 12.4985 26.2679 12.4596 26.2289C9.47841 23.0431 3.96426 20.7927 4.19808 16.5158C4.28576 14.957 4.82158 10.8653 14.788 5.89667C22.991 1.85361 29.5184 2.97398 30.6485 5.45827C32.2657 9.00447 27.151 15.5903 18.6752 16.545C15.4407 16.9055 13.7455 15.6585 13.3169 15.1908C12.8687 14.7037 12.8005 14.6745 12.6349 14.7719C12.3621 14.9181 12.5375 15.3565 12.6349 15.6098C12.8882 16.2722 13.9306 17.4413 15.694 18.0161C17.2528 18.5227 21.0425 18.8052 25.6312 17.0321C30.7654 15.0447 34.7792 9.52081 33.6004 4.89321C32.4216 0.197416 24.6277 -1.35161 17.2528 1.26907C12.8687 2.82784 8.11449 5.28291 4.69493 8.47838C0.632388 12.2779 -0.0106047 15.5805 0.252438 16.9639C1.19744 21.8741 7.96835 25.0695 10.6767 27.4369C10.5403 27.5149 10.4137 27.5831 10.3065 27.6415C8.95233 28.3137 3.7889 31.0124 2.50291 33.8669C1.04157 37.1013 2.73673 39.42 3.85709 39.7317C7.3351 40.6962 10.9105 38.9621 12.8298 36.0979C14.749 33.2336 14.5152 29.512 13.6286 27.8071C13.6189 27.7877 13.6092 27.7682 13.5897 27.7487C13.9404 27.5441 14.3009 27.3298 14.6516 27.1252C15.3433 26.716 16.0252 26.3361 16.6098 26.0243C16.2785 26.9303 16.035 28.0117 15.9181 29.5705C15.7719 31.4021 16.5221 33.7792 17.5061 34.7144C17.9445 35.1236 18.4608 35.1334 18.7921 35.1334C19.9417 35.1334 20.458 34.1786 21.0328 33.0485C21.7342 31.6651 22.3675 30.0576 22.3675 30.0576C22.3675 30.0576 21.5784 34.4027 23.7217 34.4027C24.5011 34.4027 25.2902 33.3895 25.6409 32.8731V32.8829C25.6409 32.8829 25.6604 32.8537 25.6994 32.7855C25.7773 32.6588 25.826 32.5809 25.826 32.5809V32.5614C26.1378 32.0158 26.8392 30.7785 27.8816 28.7229C29.2261 26.073 30.5218 22.7606 30.5218 22.7606C30.5218 22.7606 30.6387 23.5692 31.0382 24.9137C31.272 25.7028 31.7591 26.5699 32.1488 27.4077C31.837 27.8461 31.6422 28.0897 31.6422 28.0897C31.6422 28.0897 31.6422 28.0897 31.6519 28.0994C31.3986 28.4306 31.1258 28.7911 30.8238 29.1418C29.7619 30.4083 28.4954 31.8599 28.3201 32.2789C28.1155 32.7757 28.1642 33.1362 28.5539 33.4285C28.8364 33.6428 29.343 33.672 29.8593 33.6428C30.8141 33.5746 31.4863 33.3408 31.8175 33.1946C32.3339 33.0095 32.9379 32.727 33.503 32.3081C34.5454 31.5384 35.1786 30.4376 35.1202 28.986C35.091 28.1871 34.8279 27.3882 34.5064 26.6381C34.6038 26.5017 34.6915 26.3653 34.7889 26.2289C36.4354 23.8225 37.7116 21.1824 37.7116 21.1824C37.7116 21.1824 37.8285 21.991 38.228 23.3354C38.4228 24.0174 38.8223 24.7578 39.173 25.4787C37.624 26.7355 36.6692 28.1968 36.3282 29.1516C35.7145 30.9247 36.1918 31.7236 37.0979 31.9087C37.5071 31.9963 38.0916 31.8015 38.5203 31.6164C39.0658 31.441 39.7088 31.139 40.3226 30.6909C41.365 29.9212 42.3685 28.8496 42.31 27.398C42.2808 26.7355 42.1054 26.0828 41.8619 25.4495C43.1771 24.9039 44.8722 24.6019 47.035 24.8552C51.6724 25.4008 52.5882 28.2943 52.4128 29.512C52.2374 30.7298 51.2632 31.3923 50.9417 31.5969C50.6202 31.8015 50.513 31.8697 50.5423 32.0158C50.5812 32.2301 50.7371 32.2204 51.0099 32.1814C51.3899 32.1132 53.4455 31.1975 53.5332 28.9567C53.6793 26.0925 50.9515 22.9652 46.129 22.9944ZM10.3552 35.0554C8.81593 36.7311 6.67262 37.3643 5.7471 36.8285C4.75339 36.2537 5.14308 33.7792 7.03309 32.0061C8.18268 30.9247 9.66352 29.9212 10.6475 29.3075C10.8716 29.1711 11.2028 28.9762 11.6022 28.7327C11.6704 28.6937 11.7094 28.6742 11.7094 28.6742C11.7873 28.6255 11.8653 28.5768 11.9432 28.5281C12.6349 31.0611 11.9724 33.2921 10.3552 35.0554ZM21.5589 27.4369C21.0231 28.7424 19.9027 32.084 19.2207 31.8989C18.6362 31.743 18.2757 29.21 19.1038 26.7063C19.5227 25.4495 20.4093 23.9492 20.9256 23.3646C21.7635 22.4294 22.689 22.1176 22.9131 22.4976C23.1956 22.9944 21.8901 26.6186 21.5589 27.4369ZM30.8043 31.8599C30.5803 31.9769 30.3659 32.0548 30.2685 31.9963C30.2003 31.9574 30.3659 31.8015 30.3659 31.8015C30.3659 31.8015 31.5253 30.5545 31.9832 29.9894C32.2462 29.6582 32.558 29.2685 32.8892 28.8301V28.9567C32.8892 30.4473 31.4473 31.4508 30.8043 31.8599ZM37.9357 30.233C37.7701 30.1161 37.7993 29.7264 38.3546 28.5086C38.569 28.0312 39.0756 27.2323 39.9426 26.4627C40.0401 26.7745 40.1083 27.0765 40.0985 27.359C40.0888 29.2393 38.7443 29.9407 37.9357 30.233Z" fill="#CD6799"/>
</svg>
