<svg width="65" height="31" viewBox="0 0 65 31" fill="none" xmlns="http://www.w3.org/2000/svg">
<path d="M5.865 17.924C3.959 17.924 2.111 17.31 0.908 16.693L0 20.388C1.114 21.004 3.344 21.59 5.602 21.59C11.028 21.59 13.579 18.775 13.579 15.461C13.579 12.675 11.936 10.857 8.447 9.56601C5.895 8.59701 4.781 8.04101 4.781 6.78001C4.781 5.75301 5.719 4.87301 7.655 4.87301C9.591 4.87301 10.999 5.43101 11.79 5.81201L12.788 2.20501C11.614 1.67701 9.972 1.20801 7.743 1.20801C3.08 1.20801 0.264 3.78801 0.264 7.16101C0.264 10.035 2.405 11.853 5.69 12.997C8.065 13.848 9.004 14.552 9.004 15.782C9.004 17.073 7.918 17.924 5.865 17.924Z" fill="#4385F3"/>
<path d="M29.211 17.631H21.088V12.939H28.36V9.30203H21.088V5.19603H28.801V1.53003H16.6V21.297H29.211V17.631Z" fill="#FABC05"/>
<path d="M44.326 22.797C47.101 22.797 49.644 21.798 51.624 20.144L55.561 23.818C55.555 24.228 55.704 24.634 56.026 24.935L61.803 30.329C62.092 30.599 62.458 30.732 62.825 30.732C63.226 30.732 63.627 30.572 63.922 30.254C64.487 29.65 64.454 28.698 63.85 28.134L58.073 22.741C57.751 22.44 57.333 22.321 56.927 22.354L53.042 18.729C54.713 16.746 55.726 14.188 55.726 11.397C55.726 5.112 50.614 0 44.329 0C38.044 0 32.929 5.114 32.929 11.398C32.928 17.684 38.041 22.797 44.326 22.797Z" fill="#EC4235"/>
</svg>
