<svg width="56" height="40" viewBox="0 0 56 40" fill="none" xmlns="http://www.w3.org/2000/svg">
<path d="M28.7691 3.60409V7.6588H0V36.621V39.9999H42.4779V34.6902V15.3821L47.8842 16.7336V15.4786V0.611328L35.9131 3.60409H28.7691ZM30.6999 5.5349H35.1408V11.7135H30.6999V5.5349ZM40.5471 38.0691H1.93081V36.621H40.5471V38.0691ZM36.9751 5.34182L45.8568 3.12139V14.2236L36.9751 12.0031V5.34182ZM40.5471 14.8994V34.6902H1.93081V9.58961H28.7691V13.7409H29.7345H35.9131L40.5471 14.8994Z" fill="#ED5565"/>
<path d="M21.2389 12.4856C15.9292 12.4856 11.5848 16.8299 11.5848 22.1397C11.5848 27.4494 15.9292 31.7937 21.2389 31.7937C26.5486 31.7937 30.893 27.4494 30.893 22.1397C30.893 16.8299 26.5486 12.4856 21.2389 12.4856ZM26.7417 27.6425C25.2936 28.9941 23.4593 29.8629 21.2389 29.8629C19.115 29.8629 17.1842 28.9941 15.7361 27.6425C14.3845 26.1944 13.5157 24.3601 13.5157 22.1397C13.5157 20.0158 14.3845 18.085 15.7361 16.6368C17.1842 15.2853 19.0185 14.4164 21.2389 14.4164C23.3628 14.4164 25.2936 15.2853 26.7417 16.6368C28.0933 18.085 28.9622 19.9192 28.9622 22.1397C28.9622 24.2636 28.0933 26.1944 26.7417 27.6425Z" fill="#ED5565"/>
<path d="M18.6322 18.0854V28.6083L25.1004 22.1401L18.6322 15.6719V18.0854ZM20.563 20.4024L22.3007 22.1401L20.563 23.8778V20.4024Z" fill="#ED5565"/>
<path d="M55.0284 7.65869H50.3944V9.58951H55.0284V7.65869Z" fill="#ED5565"/>
<path d="M54.4192 -0.000147385L50.014 1.97314L50.8034 3.73521L55.2085 1.76191L54.4192 -0.000147385Z" fill="#ED5565"/>
<path d="M50.8656 13.5827L50.0763 15.3447L54.4814 17.318L55.2708 15.556L50.8656 13.5827Z" fill="#ED5565"/>
</svg>
