<svg width="33" height="32" viewBox="0 0 33 32" fill="none" xmlns="http://www.w3.org/2000/svg">
<circle cx="16.1426" cy="16" r="16" fill="#55ACEE"/>
<path d="M26.9999 9.89583C26.2497 10.2218 25.4559 10.4366 24.6437 10.5333C25.4973 10.0335 26.1392 9.23941 26.4491 8.30001C25.6421 8.77192 24.7606 9.10303 23.8424 9.27917C23.4558 8.87398 22.9908 8.55163 22.4758 8.33173C21.9607 8.11183 21.4063 7.99897 20.8462 8.00001C18.5787 8.00001 16.7437 9.80833 16.7437 12.0375C16.7421 12.3476 16.7776 12.6567 16.8496 12.9583C15.2236 12.8821 13.6314 12.4673 12.175 11.7405C10.7185 11.0137 9.42978 9.9909 8.39125 8.7375C8.0269 9.35172 7.83422 10.0525 7.83333 10.7667C7.83333 12.1667 8.56375 13.4042 9.66666 14.1292C9.01321 14.1136 8.37316 13.9407 7.80083 13.625V13.675C7.80083 15.6333 9.21749 17.2625 11.0925 17.6333C10.7399 17.7273 10.3766 17.7749 10.0117 17.775C9.75273 17.7754 9.4944 17.7503 9.24041 17.7C9.76166 19.3041 11.2787 20.4708 13.0758 20.5041C11.6156 21.6295 9.82275 22.2378 7.97916 22.2333C7.65192 22.2328 7.32498 22.2133 7 22.175C8.87549 23.3726 11.0556 24.006 13.2808 24C20.8375 24 24.9658 17.8458 24.9658 12.5083C24.9658 12.3333 24.9612 12.1583 24.9529 11.9875C25.7541 11.4175 26.4474 10.7092 26.9999 9.89583Z" fill="white"/>
</svg>
