<svg width="33" height="32" viewBox="0 0 33 32" fill="none" xmlns="http://www.w3.org/2000/svg">
<circle cx="16.4286" cy="16" r="16" fill="#0077B5"/>
<path d="M23.1489 8H9.79572C9.06607 8 8.42857 8.525 8.42857 9.24607V22.6289C8.42857 23.3539 9.06607 24 9.79572 24H23.145C23.8786 24 24.4286 23.3496 24.4286 22.6289V9.24607C24.4329 8.525 23.8786 8 23.1489 8ZM13.3882 21.3368H11.0961V14.21H13.3882V21.3368ZM12.3214 13.1264H12.305C11.5714 13.1264 11.0964 12.5804 11.0964 11.8968C11.0964 11.2007 11.5839 10.6675 12.3339 10.6675C13.0839 10.6675 13.5429 11.1968 13.5593 11.8968C13.5589 12.5804 13.0839 13.1264 12.3214 13.1264ZM21.7654 21.3368H19.4732V17.44C19.4732 16.5064 19.1396 15.8686 18.3104 15.8686C17.6768 15.8686 17.3018 16.2971 17.135 16.7146C17.0725 16.8646 17.0557 17.0689 17.0557 17.2775V21.3368H14.7636V14.21H17.0557V15.2018C17.3893 14.7268 17.9104 14.0432 19.1229 14.0432C20.6275 14.0432 21.7657 15.035 21.7657 17.1732L21.7654 21.3368Z" fill="white"/>
</svg>
