<svg width="32" height="32" viewBox="0 0 32 32" fill="none" xmlns="http://www.w3.org/2000/svg">
<circle cx="16" cy="16" r="16" fill="#F04D3C"/>
<path d="M23.6039 14.7671L23.5232 14.4246H16.0789V17.5754H20.5268C20.065 19.7682 17.9221 20.9225 16.1718 20.9225C14.8982 20.9225 13.5557 20.3868 12.6671 19.5257C12.1983 19.0642 11.8252 18.5147 11.569 17.9087C11.3128 17.3027 11.1787 16.6522 11.1743 15.9943C11.1743 14.6671 11.7707 13.3396 12.6386 12.4664C13.5064 11.5932 14.8171 11.1046 16.1204 11.1046C17.6129 11.1046 18.6825 11.8971 19.0825 12.2586L21.3214 10.0314C20.6646 9.45429 18.8604 8 16.0482 8C13.8786 8 11.7982 8.83107 10.2775 10.3468C8.77679 11.8393 8 13.9975 8 16C8 18.0025 8.735 20.0529 10.1893 21.5571C11.7432 23.1614 13.9439 24 16.21 24C18.2718 24 20.2261 23.1921 21.6189 21.7264C22.9882 20.2836 23.6964 18.2871 23.6964 16.1943C23.6964 15.3132 23.6079 14.79 23.6039 14.7671Z" fill="white"/>
</svg>
