<svg width="32" height="32" viewBox="0 0 32 32" fill="none" xmlns="http://www.w3.org/2000/svg">
<circle cx="16" cy="16" r="16" fill="#3B5998"/>
<path fill-rule="evenodd" clip-rule="evenodd" d="M24.0967 16.0483C24.0967 11.6038 20.4929 8 16.0483 8C11.6038 8 8 11.6038 8 16.0483C8 20.0653 10.9427 23.3949 14.7908 23.9993V18.3755H12.7467V16.0483H14.7908V14.2752C14.7908 12.2584 15.9926 11.1435 17.8308 11.1435C18.7115 11.1435 19.6327 11.3009 19.6327 11.3009V13.2817H18.6173C17.6181 13.2817 17.3055 13.9019 17.3055 14.5393V16.0483H19.5375L19.1811 18.3755H17.3059V24C21.154 23.396 24.0967 20.0664 24.0967 16.0483Z" fill="white"/>
</svg>
