<svg width="18" height="18" viewBox="0 0 18 18" fill="none" xmlns="http://www.w3.org/2000/svg">
<path d="M7.65316 1.17501L8.54503 0.283147C8.92266 -0.0944885 9.53331 -0.0944886 9.90693 0.283147L17.7168 8.08897C18.0944 8.46661 18.0944 9.07725 17.7168 9.45087L9.90693 17.2607C9.52929 17.6384 8.91865 17.6384 8.54503 17.2607L7.65316 16.3689C7.27151 15.9872 7.27954 15.3645 7.66923 14.9909L12.5102 10.3789L0.964178 10.3789C0.429862 10.3789 -3.31984e-07 9.94903 -3.5534e-07 9.41472L-4.11534e-07 8.12915C-4.3489e-07 7.59483 0.429862 7.16497 0.964178 7.16497L12.5102 7.16497L7.66923 2.55298C7.27553 2.17936 7.26749 1.55667 7.65316 1.17501Z" fill="white"/>
</svg>
