<svg width="64" height="60" viewBox="0 0 64 60" fill="none" xmlns="http://www.w3.org/2000/svg">
<path d="M60.6043 23.4025C59.5557 22.0979 58.227 21.0459 56.7168 20.3243C55.2066 19.6026 53.5533 19.2299 51.8796 19.2336H39.4646L41.732 10.3757C42.1941 8.53787 42.0173 6.59749 41.2305 4.87349C40.4437 3.14949 39.0937 1.74446 37.4026 0.889357C35.5514 -0.0468008 33.4158 -0.252492 31.42 0.313134C29.4241 0.878761 27.714 2.17433 26.6292 3.94254L17.1514 19.2327H14.2138C13.6995 18.0134 12.8373 16.9726 11.7349 16.2404C10.6326 15.5082 9.33894 15.1171 8.01557 15.1158H6.7241C4.94134 15.1177 3.23214 15.8267 1.97154 17.0873C0.710938 18.3479 0.00189857 20.0571 0 21.8399V53.2759C0.00189857 55.0587 0.710938 56.7679 1.97154 58.0285C3.23214 59.2891 4.94134 59.9981 6.7241 60H8.01557C9.17248 59.997 10.3089 59.6947 11.3144 59.1225C12.3199 58.5502 13.1601 57.7275 13.7535 56.7343H48.6157C51.1732 56.7232 53.6508 55.8422 55.6414 54.2364C57.6319 52.6305 59.0169 50.3953 59.5688 47.898L62.8345 32.8104C63.1925 31.1755 63.178 29.4808 62.7919 27.8522C62.4058 26.2236 61.6582 24.7028 60.6043 23.4025ZM8.01557 55.515H6.7241C6.12987 55.5143 5.56018 55.2779 5.14 54.8578C4.71982 54.4376 4.48344 53.8679 4.48273 53.2737V21.8399C4.48344 21.2456 4.71982 20.6759 5.14 20.2558C5.56018 19.8356 6.12987 19.5992 6.7241 19.5985H8.01557C8.6098 19.5992 9.17949 19.8356 9.59967 20.2558C10.0199 20.6759 10.2562 21.2456 10.2569 21.8399V53.2759C10.2556 53.8697 10.019 54.4389 9.59888 54.8586C9.17876 55.2783 8.60942 55.5143 8.01557 55.515ZM58.4548 31.8601L55.1892 46.9458C54.8574 48.4447 54.0258 49.7861 52.8309 50.7499C51.6361 51.7136 50.149 52.2424 48.6139 52.2494H14.7397V23.7154H18.3994C18.781 23.7157 19.1563 23.6183 19.4896 23.4325C19.823 23.2467 20.1032 22.9786 20.3036 22.6539L30.4378 6.3036C30.9188 5.52758 31.6617 4.94939 32.5321 4.67368C33.4025 4.39797 34.3428 4.44296 35.1829 4.80049C36.023 5.15803 36.7074 5.80449 37.1121 6.62289C37.5169 7.44128 37.6153 8.37753 37.3896 9.2622L34.4086 20.9173C34.3238 21.2483 34.3159 21.5943 34.3853 21.9288C34.4548 22.2633 34.5998 22.5775 34.8093 22.8474C35.0187 23.1173 35.2871 23.3357 35.594 23.486C35.9008 23.6363 36.2379 23.7145 36.5795 23.7145H51.8796C52.8834 23.7141 53.8747 23.9384 54.7805 24.3711C55.6864 24.8037 56.4838 25.4337 57.1144 26.2148C57.745 26.9959 58.1927 27.9083 58.4247 28.885C58.6566 29.8617 58.6669 30.878 58.4548 31.8592V31.8601Z" fill="white"/>
</svg>
