<svg width="159" height="140" viewBox="0 0 159 140" fill="none" xmlns="http://www.w3.org/2000/svg">
<rect width="6.34783" height="6.34783" rx="2" fill="#EE3F59" fill-opacity="0.5"/>
<rect y="76.1738" width="6.34783" height="6.34783" rx="2" fill="#EE3F59" fill-opacity="0.5"/>
<rect y="38.0869" width="6.34783" height="6.34783" rx="2" fill="#EE3F59" fill-opacity="0.5"/>
<rect y="114.261" width="6.34783" height="6.34783" rx="2" fill="#EE3F59" fill-opacity="0.5"/>
<rect y="19.0435" width="6.34783" height="6.34783" rx="2" fill="#EE3F59" fill-opacity="0.5"/>
<rect y="95.2173" width="6.34783" height="6.34783" rx="2" fill="#EE3F59" fill-opacity="0.5"/>
<rect y="57.1304" width="6.34783" height="6.34783" rx="2" fill="#EE3F59" fill-opacity="0.5"/>
<rect y="133.304" width="6.34783" height="6.34783" rx="2" fill="#EE3F59" fill-opacity="0.5"/>
<rect x="152.348" width="6.34783" height="6.34783" rx="2" fill="#EE3F59" fill-opacity="0.5"/>
<rect x="152.348" y="76.1738" width="6.34783" height="6.34783" rx="2" fill="#EE3F59" fill-opacity="0.5"/>
<rect x="152.348" y="38.0869" width="6.34783" height="6.34783" rx="2" fill="#EE3F59" fill-opacity="0.5"/>
<rect x="152.348" y="114.261" width="6.34783" height="6.34783" rx="2" fill="#EE3F59" fill-opacity="0.5"/>
<rect x="152.348" y="19.0435" width="6.34783" height="6.34783" rx="2" fill="#EE3F59" fill-opacity="0.5"/>
<rect x="152.348" y="95.2173" width="6.34783" height="6.34783" rx="2" fill="#EE3F59" fill-opacity="0.5"/>
<rect x="152.348" y="57.1304" width="6.34783" height="6.34783" rx="2" fill="#EE3F59" fill-opacity="0.5"/>
<rect x="152.348" y="133.304" width="6.34783" height="6.34783" rx="2" fill="#EE3F59" fill-opacity="0.5"/>
<rect x="76.1738" width="6.34783" height="6.34783" rx="2" fill="#EE3F59" fill-opacity="0.5"/>
<rect x="76.1738" y="76.1738" width="6.34783" height="6.34783" rx="2" fill="#EE3F59" fill-opacity="0.5"/>
<rect x="76.1738" y="38.0869" width="6.34783" height="6.34783" rx="2" fill="#EE3F59" fill-opacity="0.5"/>
<rect x="76.1738" y="114.261" width="6.34783" height="6.34783" rx="2" fill="#EE3F59" fill-opacity="0.5"/>
<rect x="76.1738" y="19.0435" width="6.34783" height="6.34783" rx="2" fill="#EE3F59" fill-opacity="0.5"/>
<rect x="76.1738" y="95.2173" width="6.34783" height="6.34783" rx="2" fill="#EE3F59" fill-opacity="0.5"/>
<rect x="76.1738" y="57.1304" width="6.34783" height="6.34783" rx="2" fill="#EE3F59" fill-opacity="0.5"/>
<rect x="76.1738" y="133.304" width="6.34783" height="6.34783" rx="2" fill="#EE3F59" fill-opacity="0.5"/>
<rect x="38.0869" width="6.34783" height="6.34783" rx="2" fill="#EE3F59" fill-opacity="0.5"/>
<rect x="38.0869" y="76.1738" width="6.34783" height="6.34783" rx="2" fill="#EE3F59" fill-opacity="0.5"/>
<rect x="38.0869" y="38.0869" width="6.34783" height="6.34783" rx="2" fill="#EE3F59" fill-opacity="0.5"/>
<rect x="38.0869" y="114.261" width="6.34783" height="6.34783" rx="2" fill="#EE3F59" fill-opacity="0.5"/>
<rect x="38.0869" y="19.0435" width="6.34783" height="6.34783" rx="2" fill="#EE3F59" fill-opacity="0.5"/>
<rect x="38.0869" y="95.2173" width="6.34783" height="6.34783" rx="2" fill="#EE3F59" fill-opacity="0.5"/>
<rect x="38.0869" y="57.1304" width="6.34783" height="6.34783" rx="2" fill="#EE3F59" fill-opacity="0.5"/>
<rect x="38.0869" y="133.304" width="6.34783" height="6.34783" rx="2" fill="#EE3F59" fill-opacity="0.5"/>
<rect x="114.261" width="6.34783" height="6.34783" rx="2" fill="#EE3F59" fill-opacity="0.5"/>
<rect x="114.261" y="76.1738" width="6.34783" height="6.34783" rx="2" fill="#EE3F59" fill-opacity="0.5"/>
<rect x="114.261" y="38.0869" width="6.34783" height="6.34783" rx="2" fill="#EE3F59" fill-opacity="0.5"/>
<rect x="114.261" y="114.261" width="6.34783" height="6.34783" rx="2" fill="#EE3F59" fill-opacity="0.5"/>
<rect x="114.261" y="19.0435" width="6.34783" height="6.34783" rx="2" fill="#EE3F59" fill-opacity="0.5"/>
<rect x="114.261" y="95.2173" width="6.34783" height="6.34783" rx="2" fill="#EE3F59" fill-opacity="0.5"/>
<rect x="114.261" y="57.1304" width="6.34783" height="6.34783" rx="2" fill="#EE3F59" fill-opacity="0.5"/>
<rect x="114.261" y="133.304" width="6.34783" height="6.34783" rx="2" fill="#EE3F59" fill-opacity="0.5"/>
<rect x="19.043" width="6.34783" height="6.34783" rx="2" fill="#EE3F59" fill-opacity="0.5"/>
<rect x="19.043" y="76.1738" width="6.34783" height="6.34783" rx="2" fill="#EE3F59" fill-opacity="0.5"/>
<rect x="19.043" y="38.0869" width="6.34783" height="6.34783" rx="2" fill="#EE3F59" fill-opacity="0.5"/>
<rect x="19.043" y="114.261" width="6.34783" height="6.34783" rx="2" fill="#EE3F59" fill-opacity="0.5"/>
<rect x="19.043" y="19.0435" width="6.34783" height="6.34783" rx="2" fill="#EE3F59" fill-opacity="0.5"/>
<rect x="19.043" y="95.2173" width="6.34783" height="6.34783" rx="2" fill="#EE3F59" fill-opacity="0.5"/>
<rect x="19.043" y="57.1304" width="6.34783" height="6.34783" rx="2" fill="#EE3F59" fill-opacity="0.5"/>
<rect x="19.043" y="133.304" width="6.34783" height="6.34783" rx="2" fill="#EE3F59" fill-opacity="0.5"/>
<rect x="95.2168" width="6.34783" height="6.34783" rx="2" fill="#EE3F59" fill-opacity="0.5"/>
<rect x="95.2168" y="76.1738" width="6.34783" height="6.34783" rx="2" fill="#EE3F59" fill-opacity="0.5"/>
<rect x="95.2168" y="38.0869" width="6.34783" height="6.34783" rx="2" fill="#EE3F59" fill-opacity="0.5"/>
<rect x="95.2168" y="114.261" width="6.34783" height="6.34783" rx="2" fill="#EE3F59" fill-opacity="0.5"/>
<rect x="95.2168" y="19.0435" width="6.34783" height="6.34783" rx="2" fill="#EE3F59" fill-opacity="0.5"/>
<rect x="95.2168" y="95.2173" width="6.34783" height="6.34783" rx="2" fill="#EE3F59" fill-opacity="0.5"/>
<rect x="95.2168" y="57.1304" width="6.34783" height="6.34783" rx="2" fill="#EE3F59" fill-opacity="0.5"/>
<rect x="95.2168" y="133.304" width="6.34783" height="6.34783" rx="2" fill="#EE3F59" fill-opacity="0.5"/>
<rect x="57.1309" width="6.34783" height="6.34783" rx="2" fill="#EE3F59" fill-opacity="0.5"/>
<rect x="57.1309" y="76.1738" width="6.34783" height="6.34783" rx="2" fill="#EE3F59" fill-opacity="0.5"/>
<rect x="57.1309" y="38.0869" width="6.34783" height="6.34783" rx="2" fill="#EE3F59" fill-opacity="0.5"/>
<rect x="57.1309" y="114.261" width="6.34783" height="6.34783" rx="2" fill="#EE3F59" fill-opacity="0.5"/>
<rect x="57.1309" y="19.0435" width="6.34783" height="6.34783" rx="2" fill="#EE3F59" fill-opacity="0.5"/>
<rect x="57.1309" y="95.2173" width="6.34783" height="6.34783" rx="2" fill="#EE3F59" fill-opacity="0.5"/>
<rect x="57.1309" y="57.1304" width="6.34783" height="6.34783" rx="2" fill="#EE3F59" fill-opacity="0.5"/>
<rect x="57.1309" y="133.304" width="6.34783" height="6.34783" rx="2" fill="#EE3F59" fill-opacity="0.5"/>
<rect x="133.305" width="6.34783" height="6.34783" rx="2" fill="#EE3F59" fill-opacity="0.5"/>
<rect x="133.305" y="76.1738" width="6.34783" height="6.34783" rx="2" fill="#EE3F59" fill-opacity="0.5"/>
<rect x="133.305" y="38.0869" width="6.34783" height="6.34783" rx="2" fill="#EE3F59" fill-opacity="0.5"/>
<rect x="133.305" y="114.261" width="6.34783" height="6.34783" rx="2" fill="#EE3F59" fill-opacity="0.5"/>
<rect x="133.305" y="19.0435" width="6.34783" height="6.34783" rx="2" fill="#EE3F59" fill-opacity="0.5"/>
<rect x="133.305" y="95.2173" width="6.34783" height="6.34783" rx="2" fill="#EE3F59" fill-opacity="0.5"/>
<rect x="133.305" y="57.1304" width="6.34783" height="6.34783" rx="2" fill="#EE3F59" fill-opacity="0.5"/>
<rect x="133.305" y="133.304" width="6.34783" height="6.34783" rx="2" fill="#EE3F59" fill-opacity="0.5"/>
</svg>
