<svg width="108" height="35" viewBox="0 0 108 35" fill="none" xmlns="http://www.w3.org/2000/svg">
<path d="M104.118 21.3739L107.082 23.3501C106.12 24.7672 103.819 27.1985 99.8406 27.1985C94.9001 27.1985 91.2207 23.3761 91.2207 18.5136C91.2207 13.339 94.9391 9.82861 99.4246 9.82861C103.936 9.82861 106.146 13.417 106.861 15.3542L107.251 16.3423L95.6282 21.1528C96.5123 22.895 97.8904 23.7791 99.8406 23.7791C101.791 23.7791 103.143 22.817 104.118 21.3739ZM95.0041 18.2405L102.766 15.0162C102.337 13.9371 101.063 13.17 99.5416 13.17C97.6044 13.17 94.9131 14.8862 95.0041 18.2405Z" fill="#FF302F"/>
<path d="M85.6165 0.975098H89.3609V26.4059H85.6165V0.975098Z" fill="#20B15A"/>
<path d="M79.7149 10.5055H83.3293V25.9512C83.3293 32.3609 79.5459 35.0002 75.0734 35.0002C70.861 35.0002 68.3257 32.1658 67.3766 29.8646L70.6919 28.4864C71.29 29.9036 72.7332 31.5808 75.0734 31.5808C77.9467 31.5808 79.7149 29.7996 79.7149 26.4712V25.2231H79.5849C78.7268 26.2632 77.0886 27.1993 75.0084 27.1993C70.6659 27.1993 66.6875 23.4159 66.6875 18.5404C66.6875 13.6388 70.6659 9.81641 75.0084 9.81641C77.0756 9.81641 78.7268 10.7395 79.5849 11.7536H79.7149V10.5055ZM79.9749 18.5404C79.9749 15.472 77.9337 13.2358 75.3334 13.2358C72.7072 13.2358 70.4969 15.472 70.4969 18.5404C70.4969 21.5697 72.7072 23.7669 75.3334 23.7669C77.9337 23.7799 79.9749 21.5697 79.9749 18.5404Z" fill="#3686F7"/>
<path d="M46.1306 18.4753C46.1306 23.4808 42.2302 27.1602 37.4457 27.1602C32.6612 27.1602 28.7607 23.4678 28.7607 18.4753C28.7607 13.4437 32.6612 9.77734 37.4457 9.77734C42.2302 9.77734 46.1306 13.4437 46.1306 18.4753ZM42.3342 18.4753C42.3342 15.355 40.072 13.2097 37.4457 13.2097C34.8194 13.2097 32.5572 15.355 32.5572 18.4753C32.5572 21.5696 34.8194 23.7409 37.4457 23.7409C40.072 23.7409 42.3342 21.5696 42.3342 18.4753Z" fill="#FF302F"/>
<path d="M65.1004 18.5136C65.1004 23.5191 61.1999 27.1985 56.4154 27.1985C51.6309 27.1985 47.7305 23.5191 47.7305 18.5136C47.7305 13.482 51.6309 9.82861 56.4154 9.82861C61.1999 9.82861 65.1004 13.469 65.1004 18.5136ZM61.2909 18.5136C61.2909 15.3932 59.0287 13.248 56.4024 13.248C53.7761 13.248 51.5139 15.3932 51.5139 18.5136C51.5139 21.6079 53.7761 23.7791 56.4024 23.7791C59.0417 23.7791 61.2909 21.5949 61.2909 18.5136Z" fill="#FFBA40"/>
<path d="M14.4866 23.3895C9.03904 23.3895 4.77458 18.9951 4.77458 13.5475C4.77458 8.09988 9.03904 3.7054 14.4866 3.7054C17.425 3.7054 19.5702 4.86253 21.1564 6.34469L23.7696 3.73141C21.5594 1.61218 18.6081 0 14.4866 0C7.02382 0 0.744141 6.08466 0.744141 13.5475C0.744141 21.0103 7.02382 27.0949 14.4866 27.0949C18.5171 27.0949 21.5594 25.7688 23.9387 23.2985C26.3829 20.8543 27.137 17.4219 27.137 14.6396C27.137 13.7685 27.033 12.8714 26.916 12.2083H14.4866V15.8227H23.3406C23.0806 18.085 22.3655 19.6321 21.3124 20.6852C20.0382 21.9724 18.023 23.3895 14.4866 23.3895Z" fill="#3686F7"/>
</svg>
