<svg width="159" height="156" viewBox="0 0 159 156" fill="none" xmlns="http://www.w3.org/2000/svg">
<rect width="6.34783" height="6.34783" rx="2" fill="#E59E33" fill-opacity="0.5"/>
<rect y="76.1738" width="6.34783" height="6.34783" rx="2" fill="#E59E33" fill-opacity="0.5"/>
<rect y="38.0869" width="6.34783" height="6.34783" rx="2" fill="#E59E33" fill-opacity="0.5"/>
<rect y="114.261" width="6.34783" height="6.34783" rx="2" fill="#E59E33" fill-opacity="0.5"/>
<rect y="19.0435" width="6.34783" height="6.34783" rx="2" fill="#E59E33" fill-opacity="0.5"/>
<rect y="95.2173" width="6.34783" height="6.34783" rx="2" fill="#E59E33" fill-opacity="0.5"/>
<rect y="57.1304" width="6.34783" height="6.34783" rx="2" fill="#E59E33" fill-opacity="0.5"/>
<rect y="133.304" width="6.34783" height="6.34783" rx="2" fill="#E59E33" fill-opacity="0.5"/>
<rect x="152.348" width="6.34783" height="6.34783" rx="2" fill="#E59E33" fill-opacity="0.5"/>
<rect x="152.348" y="76.1738" width="6.34783" height="6.34783" rx="2" fill="#E59E33" fill-opacity="0.5"/>
<rect x="152.348" y="38.0869" width="6.34783" height="6.34783" rx="2" fill="#E59E33" fill-opacity="0.5"/>
<rect x="152.348" y="114.261" width="6.34783" height="6.34783" rx="2" fill="#E59E33" fill-opacity="0.5"/>
<rect x="152.348" y="19.0435" width="6.34783" height="6.34783" rx="2" fill="#E59E33" fill-opacity="0.5"/>
<rect x="152.348" y="95.2173" width="6.34783" height="6.34783" rx="2" fill="#E59E33" fill-opacity="0.5"/>
<rect x="152.348" y="57.1304" width="6.34783" height="6.34783" rx="2" fill="#E59E33" fill-opacity="0.5"/>
<rect x="152.348" y="133.304" width="6.34783" height="6.34783" rx="2" fill="#E59E33" fill-opacity="0.5"/>
<rect x="76.1738" width="6.34783" height="6.34783" rx="2" fill="#E59E33" fill-opacity="0.5"/>
<rect x="76.1738" y="76.1738" width="6.34783" height="6.34783" rx="2" fill="#E59E33" fill-opacity="0.5"/>
<rect x="76.1738" y="38.0869" width="6.34783" height="6.34783" rx="2" fill="#E59E33" fill-opacity="0.5"/>
<rect x="76.1738" y="114.261" width="6.34783" height="6.34783" rx="2" fill="#E59E33" fill-opacity="0.5"/>
<rect x="76.1738" y="19.0435" width="6.34783" height="6.34783" rx="2" fill="#E59E33" fill-opacity="0.5"/>
<rect x="76.1738" y="95.2173" width="6.34783" height="6.34783" rx="2" fill="#E59E33" fill-opacity="0.5"/>
<rect x="76.1738" y="57.1304" width="6.34783" height="6.34783" rx="2" fill="#E59E33" fill-opacity="0.5"/>
<rect x="76.1738" y="133.304" width="6.34783" height="6.34783" rx="2" fill="#E59E33" fill-opacity="0.5"/>
<rect x="38.0869" width="6.34783" height="6.34783" rx="2" fill="#E59E33" fill-opacity="0.5"/>
<rect x="38.0869" y="76.1738" width="6.34783" height="6.34783" rx="2" fill="#E59E33" fill-opacity="0.5"/>
<rect x="38.0869" y="38.0869" width="6.34783" height="6.34783" rx="2" fill="#E59E33" fill-opacity="0.5"/>
<rect x="38.0869" y="114.261" width="6.34783" height="6.34783" rx="2" fill="#E59E33" fill-opacity="0.5"/>
<rect x="38.0869" y="19.0435" width="6.34783" height="6.34783" rx="2" fill="#E59E33" fill-opacity="0.5"/>
<rect x="38.0869" y="95.2173" width="6.34783" height="6.34783" rx="2" fill="#E59E33" fill-opacity="0.5"/>
<rect x="38.0869" y="57.1304" width="6.34783" height="6.34783" rx="2" fill="#E59E33" fill-opacity="0.5"/>
<rect x="38.0869" y="133.304" width="6.34783" height="6.34783" rx="2" fill="#E59E33" fill-opacity="0.5"/>
<rect x="114.261" width="6.34783" height="6.34783" rx="2" fill="#E59E33" fill-opacity="0.5"/>
<rect x="114.261" y="76.1738" width="6.34783" height="6.34783" rx="2" fill="#E59E33" fill-opacity="0.5"/>
<rect x="114.261" y="38.0869" width="6.34783" height="6.34783" rx="2" fill="#E59E33" fill-opacity="0.5"/>
<rect x="114.261" y="114.261" width="6.34783" height="6.34783" rx="2" fill="#E59E33" fill-opacity="0.5"/>
<rect x="114.261" y="19.0435" width="6.34783" height="6.34783" rx="2" fill="#E59E33" fill-opacity="0.5"/>
<rect x="114.261" y="95.2173" width="6.34783" height="6.34783" rx="2" fill="#E59E33" fill-opacity="0.5"/>
<rect x="114.261" y="57.1304" width="6.34783" height="6.34783" rx="2" fill="#E59E33" fill-opacity="0.5"/>
<rect x="114.261" y="133.304" width="6.34783" height="6.34783" rx="2" fill="#E59E33" fill-opacity="0.5"/>
<rect x="19.043" width="6.34783" height="6.34783" rx="2" fill="#E59E33" fill-opacity="0.5"/>
<rect x="19.043" y="76.1738" width="6.34783" height="6.34783" rx="2" fill="#E59E33" fill-opacity="0.5"/>
<rect x="19.043" y="38.0869" width="6.34783" height="6.34783" rx="2" fill="#E59E33" fill-opacity="0.5"/>
<rect x="19.043" y="114.261" width="6.34783" height="6.34783" rx="2" fill="#E59E33" fill-opacity="0.5"/>
<rect x="19.043" y="19.0435" width="6.34783" height="6.34783" rx="2" fill="#E59E33" fill-opacity="0.5"/>
<rect x="19.043" y="95.2173" width="6.34783" height="6.34783" rx="2" fill="#E59E33" fill-opacity="0.5"/>
<rect x="19.043" y="57.1304" width="6.34783" height="6.34783" rx="2" fill="#E59E33" fill-opacity="0.5"/>
<rect x="19.043" y="133.304" width="6.34783" height="6.34783" rx="2" fill="#E59E33" fill-opacity="0.5"/>
<rect x="95.2178" width="6.34783" height="6.34783" rx="2" fill="#E59E33" fill-opacity="0.5"/>
<rect x="95.2178" y="76.1738" width="6.34783" height="6.34783" rx="2" fill="#E59E33" fill-opacity="0.5"/>
<rect x="95.2178" y="38.0869" width="6.34783" height="6.34783" rx="2" fill="#E59E33" fill-opacity="0.5"/>
<rect x="95.2178" y="114.261" width="6.34783" height="6.34783" rx="2" fill="#E59E33" fill-opacity="0.5"/>
<rect x="95.2178" y="19.0435" width="6.34783" height="6.34783" rx="2" fill="#E59E33" fill-opacity="0.5"/>
<rect x="95.2178" y="95.2173" width="6.34783" height="6.34783" rx="2" fill="#E59E33" fill-opacity="0.5"/>
<rect x="95.2178" y="57.1304" width="6.34783" height="6.34783" rx="2" fill="#E59E33" fill-opacity="0.5"/>
<rect x="95.2178" y="133.304" width="6.34783" height="6.34783" rx="2" fill="#E59E33" fill-opacity="0.5"/>
<rect x="57.1309" width="6.34783" height="6.34783" rx="2" fill="#E59E33" fill-opacity="0.5"/>
<rect x="57.1309" y="76.1738" width="6.34783" height="6.34783" rx="2" fill="#E59E33" fill-opacity="0.5"/>
<rect x="57.1309" y="38.0869" width="6.34783" height="6.34783" rx="2" fill="#E59E33" fill-opacity="0.5"/>
<rect x="57.1309" y="114.261" width="6.34783" height="6.34783" rx="2" fill="#E59E33" fill-opacity="0.5"/>
<rect x="57.1309" y="19.0435" width="6.34783" height="6.34783" rx="2" fill="#E59E33" fill-opacity="0.5"/>
<rect x="57.1309" y="95.2173" width="6.34783" height="6.34783" rx="2" fill="#E59E33" fill-opacity="0.5"/>
<rect x="57.1309" y="57.1304" width="6.34783" height="6.34783" rx="2" fill="#E59E33" fill-opacity="0.5"/>
<rect x="57.1309" y="133.304" width="6.34783" height="6.34783" rx="2" fill="#E59E33" fill-opacity="0.5"/>
<rect x="133.305" width="6.34783" height="6.34783" rx="2" fill="#E59E33" fill-opacity="0.5"/>
<rect x="133.305" y="76.1738" width="6.34783" height="6.34783" rx="2" fill="#E59E33" fill-opacity="0.5"/>
<rect x="133.305" y="38.0869" width="6.34783" height="6.34783" rx="2" fill="#E59E33" fill-opacity="0.5"/>
<rect x="133.305" y="114.261" width="6.34783" height="6.34783" rx="2" fill="#E59E33" fill-opacity="0.5"/>
<rect x="133.305" y="19.0435" width="6.34783" height="6.34783" rx="2" fill="#E59E33" fill-opacity="0.5"/>
<rect x="133.305" y="95.2173" width="6.34783" height="6.34783" rx="2" fill="#E59E33" fill-opacity="0.5"/>
<rect x="133.305" y="57.1304" width="6.34783" height="6.34783" rx="2" fill="#E59E33" fill-opacity="0.5"/>
<rect x="133.305" y="133.304" width="6.34783" height="6.34783" rx="2" fill="#E59E33" fill-opacity="0.5"/>
<g filter="url(#filter0_d_442_3)">
<ellipse cx="79.5" cy="70" rx="62.5" ry="62" fill="#E59E33"/>
</g>
<path d="M49.9998 65.001C50.164 65.0013 50.3267 64.9692 50.4786 64.9066C50.6304 64.8439 50.7685 64.752 50.8848 64.636L53.3847 62.1361C53.6124 61.9003 53.7384 61.5846 53.7355 61.2568C53.7327 60.9291 53.6012 60.6156 53.3695 60.3838C53.1377 60.1521 52.8242 60.0206 52.4965 60.0178C52.1687 60.0149 51.853 60.1409 51.6172 60.3686L49.1173 62.8685C48.943 63.0433 48.8244 63.2658 48.7764 63.5079C48.7284 63.75 48.7532 64.0009 48.8476 64.229C48.9419 64.4571 49.1017 64.6521 49.3068 64.7895C49.5118 64.9268 49.753 65.0004 49.9998 65.001ZM56.6371 44.019C56.8036 44.0186 56.9684 43.9854 57.1221 43.9215L57.8721 43.604C59.0754 43.0912 60.0656 42.1798 60.6761 41.023C61.2866 39.8661 61.4803 38.5344 61.2245 37.2516V37.1991C61.0926 36.4942 61.2037 35.7655 61.5398 35.1319C61.8758 34.4984 62.4169 33.9977 63.0745 33.7117L63.862 33.3742C64.013 33.3097 64.1498 33.2161 64.2647 33.0987C64.3795 32.9813 64.4701 32.8424 64.5312 32.69C64.5924 32.5376 64.623 32.3747 64.6212 32.2105C64.6194 32.0462 64.5852 31.884 64.5207 31.733C64.4562 31.582 64.3626 31.4451 64.2452 31.3303C64.1278 31.2155 63.9889 31.1249 63.8365 31.0637C63.6841 31.0025 63.5212 30.972 63.357 30.9738C63.1928 30.9756 63.0305 31.0097 62.8795 31.0742L62.0795 31.4192C60.8867 31.9367 59.9075 32.8478 59.3056 34.0003C58.7036 35.1528 58.5153 36.477 58.7721 37.7516V37.8041C58.9061 38.5142 58.7929 39.2488 58.4513 39.8856C58.1097 40.5223 57.5603 41.0229 56.8946 41.304L56.1446 41.6215C55.8784 41.7333 55.6591 41.9338 55.524 42.189C55.3888 42.4442 55.3462 42.7383 55.4034 43.0213C55.4605 43.3044 55.6139 43.5589 55.8374 43.7417C56.061 43.9245 56.3409 44.0242 56.6296 44.024L56.6371 44.019ZM47.4998 65.001C47.4998 64.2593 47.2799 63.5343 46.8679 62.9177C46.4558 62.301 45.8702 61.8203 45.1849 61.5365C44.4997 61.2527 43.7458 61.1784 43.0183 61.3231C42.2909 61.4678 41.6228 61.825 41.0983 62.3494C40.5739 62.8738 40.2167 63.542 40.0721 64.2694C39.9274 64.9968 40.0016 65.7508 40.2854 66.436C40.5693 67.1212 41.0499 67.7069 41.6666 68.1189C42.2832 68.531 43.0083 68.7509 43.7499 68.7509C44.7445 68.7509 45.6983 68.3558 46.4015 67.6526C47.1048 66.9493 47.4998 65.9955 47.4998 65.001ZM43.7499 66.251C43.5027 66.251 43.261 66.1777 43.0555 66.0403C42.8499 65.903 42.6897 65.7077 42.5951 65.4793C42.5005 65.2509 42.4757 64.9996 42.524 64.7571C42.5722 64.5147 42.6912 64.2919 42.8661 64.1171C43.0409 63.9423 43.2636 63.8233 43.5061 63.775C43.7485 63.7268 43.9999 63.7516 44.2283 63.8462C44.4567 63.9408 44.6519 64.101 44.7892 64.3065C44.9266 64.5121 44.9999 64.7538 44.9999 65.001C44.9999 65.3325 44.8682 65.6504 44.6338 65.8849C44.3994 66.1193 44.0814 66.251 43.7499 66.251ZM66.9394 37.3691C67.0863 37.4426 67.2462 37.4863 67.4101 37.4979C67.5739 37.5095 67.7384 37.4887 67.8942 37.4367C68.05 37.3847 68.194 37.3025 68.318 37.1948C68.442 37.0872 68.5435 36.9561 68.6169 36.8091L71.1168 31.8092C71.265 31.5125 71.2892 31.1691 71.1842 30.8545C71.0792 30.5399 70.8535 30.28 70.5568 30.1318C70.2601 29.9836 69.9167 29.9593 69.6021 30.0643C69.2875 30.1694 69.0275 30.3951 68.8794 30.6918L66.3794 35.6916C66.306 35.8385 66.2622 35.9985 66.2506 36.1623C66.239 36.3261 66.2598 36.4906 66.3118 36.6464C66.3638 36.8022 66.446 36.9462 66.5537 37.0702C66.6614 37.1942 66.7924 37.2958 66.9394 37.3691ZM51.2248 74.7508V74.6983C51.0928 73.9934 51.2039 73.2646 51.54 72.6311C51.876 71.9976 52.4171 71.4969 53.0747 71.2109L53.8622 70.8734C54.0132 70.8089 54.15 70.7152 54.2649 70.5978C54.3797 70.4804 54.4703 70.3416 54.5315 70.1892C54.5926 70.0368 54.6232 69.8738 54.6214 69.7096C54.6196 69.5454 54.5854 69.3832 54.5209 69.2321C54.4564 69.0811 54.3628 68.9443 54.2454 68.8295C54.128 68.7146 53.9892 68.624 53.8367 68.5629C53.6843 68.5017 53.5214 68.4712 53.3572 68.473C53.193 68.4748 53.0307 68.5089 52.8797 68.5734L52.0897 68.9134C50.8941 69.4294 49.912 70.3405 49.3081 71.4943C48.7041 72.648 48.515 73.9742 48.7723 75.2508V75.3033C48.9063 76.0134 48.7931 76.7479 48.4515 77.3847C48.1099 78.0215 47.5606 78.5221 46.8948 78.8032L46.1449 79.1207C45.8786 79.2325 45.6593 79.433 45.5242 79.6882C45.3891 79.9434 45.3464 80.2375 45.4036 80.5205C45.4607 80.8035 45.6141 81.0581 45.8376 81.2408C46.0612 81.4236 46.3411 81.5234 46.6299 81.5231C46.7963 81.5227 46.9611 81.4896 47.1148 81.4256L47.8648 81.1081C49.0705 80.5965 50.063 79.6848 50.675 78.5268C51.2871 77.3688 51.4812 76.0352 51.2248 74.7508ZM106.381 44.3115C106.529 44.6082 106.789 44.8338 107.104 44.9389C107.418 45.0439 107.762 45.0196 108.058 44.8714C108.355 44.7233 108.581 44.4633 108.686 44.1487C108.791 43.8341 108.767 43.4907 108.618 43.194L106.119 38.1941C106.045 38.0472 105.944 37.9162 105.82 37.8085C105.696 37.7009 105.552 37.6187 105.396 37.5667C105.24 37.5147 105.076 37.4939 104.912 37.5054C104.748 37.517 104.588 37.5607 104.441 37.6341C104.294 37.7075 104.163 37.8091 104.055 37.9331C103.948 38.0571 103.866 38.2011 103.814 38.3569C103.762 38.5126 103.741 38.6771 103.752 38.8409C103.764 39.0047 103.808 39.1647 103.881 39.3116L106.381 44.3115ZM91.1439 33.3817L91.9288 33.7167C92.6022 34.0159 93.1513 34.5389 93.483 35.1969C93.8148 35.8548 93.9087 36.6073 93.7488 37.3266C93.5089 38.5999 93.7116 39.9169 94.3232 41.0592C94.9348 42.2014 95.9185 43.1002 97.1112 43.6065L97.8612 43.924C98.166 44.0476 98.5072 44.0461 98.8109 43.9198C99.1146 43.7935 99.3562 43.5527 99.4835 43.2494C99.6108 42.9461 99.6135 42.6049 99.4909 42.2997C99.3683 41.9946 99.1304 41.75 98.8287 41.619L98.0787 41.3015C97.4094 41.0122 96.8598 40.5016 96.5221 39.8553C96.1844 39.209 96.079 38.4663 96.2237 37.7516C96.4812 36.4766 96.2931 35.1519 95.6912 33.9988C95.0892 32.8458 94.1096 31.9343 92.9163 31.4167L92.1313 31.0817C91.8263 30.9508 91.4818 30.9464 91.1736 31.0694C90.8653 31.1925 90.6186 31.433 90.4876 31.738C90.3567 32.043 90.3522 32.3875 90.4753 32.6958C90.5984 33.004 90.8389 33.2507 91.1439 33.3817ZM103.706 106.75L102.956 106.408C102.295 106.097 101.76 105.569 101.441 104.911C101.122 104.254 101.04 103.507 101.206 102.795C101.505 101.53 101.36 100.201 100.796 99.0306C100.232 97.8597 99.2837 96.9179 98.1087 96.3628L97.3312 95.9978C97.0309 95.8572 96.687 95.8418 96.3752 95.9548C96.0634 96.0677 95.8093 96.2999 95.6688 96.6003C95.5282 96.9007 95.5127 97.2445 95.6257 97.5563C95.7387 97.8681 95.9709 98.1222 96.2713 98.2628L97.0487 98.6277C97.7136 98.9473 98.2472 99.4874 98.559 100.156C98.8707 100.825 98.9413 101.58 98.7587 102.295C98.4767 103.56 98.636 104.883 99.2099 106.044C99.7838 107.206 100.738 108.136 101.914 108.68L102.664 109.023C102.963 109.15 103.3 109.156 103.604 109.039C103.907 108.922 104.153 108.691 104.289 108.395C104.425 108.1 104.441 107.763 104.332 107.456C104.224 107.149 104 106.897 103.709 106.753L103.706 106.75ZM96.6137 92.1429L99.1137 94.6428C99.3494 94.8705 99.6652 94.9965 99.9929 94.9937C100.321 94.9908 100.634 94.8594 100.866 94.6276C101.098 94.3959 101.229 94.0823 101.232 93.7546C101.235 93.4269 101.109 93.1111 100.881 92.8754L98.3812 90.3754C98.1455 90.1477 97.8297 90.0217 97.502 90.0246C97.1742 90.0274 96.8607 90.1589 96.629 90.3907C96.3972 90.6224 96.2658 90.9359 96.2629 91.2637C96.2601 91.5914 96.386 91.9071 96.6137 92.1429ZM106.614 65.376L104.114 67.8759C103.994 67.9912 103.899 68.1292 103.833 68.2817C103.768 68.4342 103.733 68.5982 103.732 68.7642C103.731 68.9301 103.762 69.0947 103.825 69.2483C103.888 69.402 103.981 69.5415 104.098 69.6589C104.215 69.7762 104.355 69.8691 104.509 69.9319C104.662 69.9948 104.827 70.0264 104.993 70.0249C105.159 70.0235 105.323 69.989 105.475 69.9235C105.628 69.858 105.766 69.7628 105.881 69.6434L108.381 67.1434C108.609 66.9077 108.735 66.592 108.732 66.2642C108.729 65.9365 108.598 65.623 108.366 65.3912C108.134 65.1595 107.82 65.028 107.493 65.0252C107.165 65.0223 106.849 65.1483 106.614 65.376ZM106.206 81.7506L105.456 81.4081C104.794 81.0978 104.26 80.5696 103.941 79.912C103.622 79.2543 103.539 78.5072 103.706 77.7957C104.005 76.5309 103.86 75.202 103.296 74.0311C102.732 72.8603 101.784 71.9185 100.609 71.3634L99.8312 70.9984C99.6824 70.9288 99.5215 70.8891 99.3574 70.8818C99.1934 70.8744 99.0295 70.8994 98.8752 70.9553C98.7208 71.0112 98.5789 71.097 98.4577 71.2078C98.3365 71.3186 98.2383 71.4521 98.1687 71.6008C98.0991 71.7496 98.0595 71.9105 98.0521 72.0746C98.0447 72.2386 98.0697 72.4025 98.1256 72.5569C98.1816 72.7112 98.2674 72.8531 98.3782 72.9743C98.4889 73.0955 98.6225 73.1937 98.7712 73.2633L99.5487 73.6283C100.214 73.9479 100.747 74.4879 101.059 75.1565C101.371 75.8251 101.441 76.581 101.259 77.2957C100.977 78.5602 101.136 79.8832 101.71 81.0447C102.284 82.2062 103.238 83.1363 104.414 83.6806L105.164 84.0231C105.463 84.1506 105.8 84.1565 106.104 84.0394C106.407 83.9223 106.653 83.6914 106.789 83.3959C106.925 83.1004 106.941 82.7634 106.832 82.4567C106.724 82.1499 106.5 81.8975 106.209 81.7531L106.206 81.7506ZM57.8696 96.0803L57.0796 96.4203C55.8873 96.9377 54.9085 97.8484 54.3066 99.0004C53.7047 100.152 53.516 101.476 53.7722 102.75V102.803C53.9062 103.513 53.793 104.247 53.4514 104.884C53.1098 105.521 52.5605 106.021 51.8947 106.303L51.1448 106.62C50.8785 106.732 50.6592 106.932 50.5241 107.188C50.389 107.443 50.3463 107.737 50.4035 108.02C50.4606 108.303 50.614 108.557 50.8375 108.74C51.0611 108.923 51.341 109.023 51.6297 109.023C51.7962 109.022 51.961 108.989 52.1147 108.925L52.8647 108.608C54.0704 108.096 55.0629 107.184 55.6749 106.026C56.2869 104.868 56.4811 103.535 56.2246 102.25V102.198C56.0927 101.493 56.2038 100.764 56.5399 100.131C56.8759 99.497 57.417 98.9963 58.0746 98.7102L58.8621 98.3728C59.0131 98.3082 59.1499 98.2146 59.2648 98.0972C59.3796 97.9798 59.4702 97.841 59.5314 97.6886C59.5925 97.5362 59.6231 97.3732 59.6213 97.209C59.6195 97.0448 59.5853 96.8826 59.5208 96.7315C59.4563 96.5805 59.3627 96.4437 59.2453 96.3289C59.1279 96.214 58.989 96.1234 58.8366 96.0623C58.6842 96.0011 58.5213 95.9706 58.3571 95.9724C58.1929 95.9742 58.0306 96.0083 57.8796 96.0728L57.8696 96.0803ZM100.026 64.351L105.809 54.2337C106.2 53.5483 106.405 52.7718 106.401 51.9823C106.398 51.1928 106.187 50.4181 105.79 49.736C105.392 49.0538 104.822 48.4882 104.137 48.096C103.452 47.7038 102.676 47.4987 101.886 47.5014C101.093 47.5018 100.314 47.7117 99.6287 48.1099C98.9429 48.508 98.3746 49.0803 97.9812 49.7688L93.9188 56.8712C93.8095 57.0625 93.6516 57.2215 93.4611 57.3321C93.2705 57.4428 93.0542 57.5011 92.8338 57.5012H83.749V55.0012C83.7431 54.9583 83.7347 54.9157 83.724 54.8737C85.5634 53.8298 87.0213 52.2258 87.8856 50.2955C88.7498 48.3652 88.9751 46.2094 88.5288 44.1421C88.0824 42.0748 86.9876 40.2041 85.4039 38.8023C83.8202 37.4006 81.8303 36.5411 79.7241 36.3491C79.6068 36.3066 79.4838 36.2821 79.3591 36.2766H79.3341C79.2971 36.2823 79.2604 36.2898 79.2241 36.2991C79.0666 36.2991 78.9191 36.2516 78.7591 36.2516C76.5584 36.2447 74.4173 36.9664 72.6697 38.3041C70.9221 39.6417 69.6664 41.5201 69.0984 43.6463C68.5304 45.7725 68.682 48.0269 69.5296 50.0579C70.3773 52.0888 71.8733 53.7822 73.7843 54.8737C73.7702 54.9155 73.7585 54.9581 73.7493 55.0012V57.5012H64.6645C64.4437 57.5015 64.2268 57.4434 64.0358 57.3328C63.8448 57.2221 63.6865 57.0629 63.577 56.8712L59.5221 49.7688C59.1258 49.079 58.5544 48.506 57.8657 48.1078C57.1769 47.7097 56.3952 47.5005 55.5997 47.5014C54.8114 47.5013 54.037 47.7083 53.354 48.1016C52.6709 48.4949 52.1031 49.0607 51.7074 49.7425C51.3118 50.4242 51.1021 51.1979 51.0994 51.9861C51.0968 52.7743 51.3012 53.5494 51.6922 54.2337L57.4746 64.351C58.0224 65.3069 58.8126 66.1015 59.7655 66.6545C60.7184 67.2075 61.8003 67.4995 62.902 67.5009H68.7494C69.0809 67.5009 69.3988 67.6326 69.6332 67.867C69.8676 68.1015 69.9993 68.4194 69.9993 68.7509V106.25C69.9993 107.245 70.3944 108.198 71.0977 108.902C71.8009 109.605 72.7547 110 73.7493 110H83.749C84.7436 110 85.6974 109.605 86.4006 108.902C87.1039 108.198 87.4989 107.245 87.4989 106.25V68.7509C87.4989 68.4194 87.6306 68.1015 87.8651 67.867C88.0995 67.6326 88.4174 67.5009 88.7489 67.5009H94.5963C95.6983 67.4992 96.7804 67.2071 97.7336 66.6541C98.6869 66.1011 99.4776 65.3068 100.026 64.351ZM100.151 51.0088C100.342 50.7216 100.6 50.4859 100.904 50.3229C101.207 50.1599 101.547 50.0746 101.891 50.0746C102.236 50.0746 102.575 50.1599 102.879 50.3229C103.182 50.4859 103.441 50.7216 103.631 51.0088C103.809 51.3122 103.902 51.6573 103.902 52.0088C103.902 52.3603 103.809 52.7054 103.631 53.0088L102.554 54.8962L98.9612 53.0988L100.151 51.0088ZM78.7491 38.7516C80.5033 38.7549 82.2009 39.3731 83.5465 40.4985C84.892 41.624 85.8006 43.1855 86.114 44.9114L79.4416 43.019C78.1053 42.64 76.681 42.7147 75.3917 43.2315L71.3918 44.8464C71.7184 43.1337 72.6317 41.5882 73.9744 40.4759C75.3172 39.3636 77.0055 38.7538 78.7491 38.7516ZM71.3743 47.4764C71.4919 47.4702 71.6081 47.4475 71.7193 47.4089L76.3242 45.5514C77.0952 45.2375 77.9495 45.1926 78.7491 45.4239L85.9015 47.4564C85.9734 47.4678 86.0462 47.4729 86.119 47.4714C85.8335 49.2215 84.9349 50.813 83.5838 51.9615C82.2328 53.11 80.5174 53.7406 78.7441 53.7406C76.9709 53.7406 75.2555 53.11 73.9044 51.9615C72.5534 50.813 71.6548 49.2215 71.3693 47.4714L71.3743 47.4764ZM81.2491 55.8962V60.0011C81.2491 60.6641 80.9857 61.3 80.5169 61.7688C80.048 62.2377 79.4122 62.501 78.7491 62.501C78.0861 62.501 77.4502 62.2377 76.9814 61.7688C76.5126 61.3 76.2492 60.6641 76.2492 60.0011V55.8962C77.8822 56.3694 79.616 56.3694 81.2491 55.8962ZM53.8647 53.0013C53.6872 52.6979 53.5936 52.3528 53.5936 52.0013C53.5936 51.6498 53.6872 51.3047 53.8647 51.0013C54.0554 50.7141 54.3141 50.4785 54.6179 50.3155C54.9217 50.1525 55.2611 50.0672 55.6059 50.0672C55.9507 50.0672 56.2901 50.1525 56.5939 50.3155C56.8977 50.4785 57.1564 50.7141 57.3471 51.0013L58.5321 53.0763L54.9397 54.8737L53.8647 53.0013ZM84.999 106.25C84.999 106.582 84.8673 106.9 84.6329 107.134C84.3985 107.368 84.0805 107.5 83.749 107.5H79.9991V91.2504C79.9991 90.9189 79.8674 90.601 79.633 90.3665C79.3986 90.1321 79.0807 90.0004 78.7491 90.0004C78.4176 90.0004 78.0997 90.1321 77.8653 90.3665C77.6309 90.601 77.4992 90.9189 77.4992 91.2504V107.5H73.7493C73.4177 107.5 73.0998 107.368 72.8654 107.134C72.631 106.9 72.4993 106.582 72.4993 106.25V85.0005H84.999V106.25ZM94.5963 65.001H88.7489C87.7544 65.001 86.8006 65.3961 86.0973 66.0993C85.3941 66.8026 84.999 67.7564 84.999 68.7509V82.5006H72.4993V68.7509C72.4993 67.7564 72.1042 66.8026 71.401 66.0993C70.6977 65.3961 69.7439 65.001 68.7494 65.001H62.902C62.2419 64.9999 61.5937 64.8246 61.0231 64.4927C60.4524 64.1609 59.9795 63.6842 59.6521 63.111L56.1846 57.0562L59.7796 55.2512L61.4095 58.1036C61.7369 58.6769 62.2099 59.1535 62.7805 59.4853C63.3512 59.8172 63.9993 59.9925 64.6595 59.9936H73.7493C73.7493 61.3197 74.276 62.5914 75.2137 63.5291C76.1513 64.4667 77.4231 64.9935 78.7491 64.9935C80.0752 64.9935 81.3469 64.4667 82.2846 63.5291C83.2223 62.5914 83.749 61.3197 83.749 59.9936H92.8338C93.494 59.9925 94.1421 59.8172 94.7127 59.4853C95.2834 59.1535 95.7563 58.6769 96.0838 58.1036L97.7162 55.2512L101.311 57.0487L97.8537 63.1035C97.5252 63.678 97.0512 64.1559 96.4794 64.489C95.9076 64.8221 95.2581 64.9987 94.5963 65.001ZM113.748 58.7511C113.007 58.7511 112.282 58.9711 111.665 59.3831C111.048 59.7952 110.568 60.3808 110.284 61.066C110 61.7512 109.926 62.5052 110.07 63.2326C110.215 63.96 110.572 64.6282 111.097 65.1526C111.621 65.6771 112.289 66.0342 113.017 66.1789C113.744 66.3236 114.498 66.2493 115.183 65.9655C115.869 65.6817 116.454 65.2011 116.866 64.5844C117.278 63.9677 117.498 63.2427 117.498 62.501C117.498 61.5065 117.103 60.5527 116.4 59.8495C115.697 59.1462 114.743 58.7511 113.748 58.7511ZM113.748 63.751C113.501 63.751 113.259 63.6777 113.054 63.5404C112.848 63.403 112.688 63.2078 112.594 62.9794C112.499 62.751 112.474 62.4997 112.522 62.2572C112.571 62.0147 112.69 61.792 112.864 61.6172C113.039 61.4424 113.262 61.3233 113.505 61.2751C113.747 61.2269 113.998 61.2516 114.227 61.3462C114.455 61.4408 114.65 61.601 114.788 61.8066C114.925 62.0122 114.998 62.2538 114.998 62.501C114.998 62.8326 114.867 63.1505 114.632 63.3849C114.398 63.6193 114.08 63.751 113.748 63.751ZM62.4995 85.0005C62.7314 85.0005 62.9588 84.936 63.1562 84.8141C63.3535 84.6923 63.5131 84.5179 63.617 84.3106L66.1169 79.3107C66.2651 79.014 66.2894 78.6706 66.1843 78.356C66.0793 78.0414 65.8536 77.7814 65.5569 77.6332C65.2602 77.485 64.9168 77.4608 64.6022 77.5658C64.2876 77.6708 64.0277 77.8965 63.8795 78.1932L61.3795 83.1931C61.2845 83.3838 61.2398 83.5955 61.2497 83.8083C61.2595 84.0211 61.3236 84.2279 61.4358 84.409C61.548 84.59 61.7046 84.7394 61.8908 84.843C62.0769 84.9465 62.2865 85.0008 62.4995 85.0005ZM63.7495 101.25C63.0078 101.25 62.2828 101.47 61.6661 101.882C61.0495 102.294 60.5688 102.88 60.285 103.565C60.0012 104.25 59.9269 105.004 60.0716 105.732C60.2163 106.459 60.5734 107.127 61.0979 107.652C61.6223 108.176 62.2905 108.533 63.0179 108.678C63.7453 108.823 64.4993 108.748 65.1845 108.465C65.8697 108.181 66.4554 107.7 66.8674 107.083C67.2795 106.467 67.4994 105.742 67.4994 105C67.4994 104.006 67.1043 103.052 66.4011 102.349C65.6978 101.645 64.744 101.25 63.7495 101.25ZM63.7495 106.25C63.5023 106.25 63.2606 106.177 63.055 106.039C62.8495 105.902 62.6893 105.707 62.5947 105.478C62.5 105.25 62.4753 104.999 62.5235 104.756C62.5718 104.514 62.6908 104.291 62.8656 104.116C63.0404 103.941 63.2631 103.822 63.5056 103.774C63.7481 103.726 63.9994 103.751 64.2278 103.845C64.4562 103.94 64.6514 104.1 64.7888 104.306C64.9261 104.511 64.9994 104.753 64.9994 105C64.9994 105.332 64.8678 105.65 64.6333 105.884C64.3989 106.118 64.081 106.25 63.7495 106.25Z" fill="white"/>
<defs>
<filter id="filter0_d_442_3" x="1" y="0" width="157" height="156" filterUnits="userSpaceOnUse" color-interpolation-filters="sRGB">
<feFlood flood-opacity="0" result="BackgroundImageFix"/>
<feColorMatrix in="SourceAlpha" type="matrix" values="0 0 0 0 0 0 0 0 0 0 0 0 0 0 0 0 0 0 127 0" result="hardAlpha"/>
<feOffset dy="8"/>
<feGaussianBlur stdDeviation="8"/>
<feComposite in2="hardAlpha" operator="out"/>
<feColorMatrix type="matrix" values="0 0 0 0 0.105882 0 0 0 0 0.168627 0 0 0 0 0.486275 0 0 0 0.15 0"/>
<feBlend mode="normal" in2="BackgroundImageFix" result="effect1_dropShadow_442_3"/>
<feBlend mode="normal" in="SourceGraphic" in2="effect1_dropShadow_442_3" result="shape"/>
</filter>
</defs>
</svg>
