<svg width="113" height="21" viewBox="0 0 113 21" fill="none" xmlns="http://www.w3.org/2000/svg">
<path d="M9.99988 0.971191L12.6449 7.33054L19.5103 7.88094L14.2796 12.3616L15.8777 19.0611L9.99988 15.471L4.1221 19.0611L5.72017 12.3616L0.489429 7.88094L7.35488 7.33054L9.99988 0.971191Z" fill="#6FDA44"/>
<path d="M33.076 0.970703L35.721 7.33005L42.5865 7.88045L37.3557 12.3611L38.9538 19.0606L33.076 15.4705L27.1983 19.0606L28.7963 12.3611L23.5656 7.88045L30.431 7.33005L33.076 0.970703Z" fill="#6FDA44"/>
<path d="M56.1532 0.970703L58.7982 7.33005L65.6636 7.88045L60.4329 12.3611L62.031 19.0606L56.1532 15.4705L50.2754 19.0606L51.8735 12.3611L46.6427 7.88045L53.5082 7.33005L56.1532 0.970703Z" fill="#6FDA44"/>
<path d="M79.2305 0.970703L81.8755 7.33005L88.7409 7.88045L83.5102 12.3611L85.1082 19.0606L79.2305 15.4705L73.3527 19.0606L74.9508 12.3611L69.72 7.88045L76.5855 7.33005L79.2305 0.970703Z" fill="#6FDA44"/>
<path d="M102.307 0.970703L104.952 7.33005L111.818 7.88045L106.587 12.3611L108.185 19.0606L102.307 15.4705L96.4296 19.0606L98.0277 12.3611L92.7969 7.88045L99.6624 7.33005L102.307 0.970703Z" fill="#6FDA44"/>
</svg>
