<svg width="159" height="156" viewBox="0 0 159 156" fill="none" xmlns="http://www.w3.org/2000/svg">
<rect width="6.34783" height="6.34783" rx="2" fill="#339AE5" fill-opacity="0.5"/>
<rect y="76.1738" width="6.34783" height="6.34783" rx="2" fill="#339AE5" fill-opacity="0.5"/>
<rect y="38.0869" width="6.34783" height="6.34783" rx="2" fill="#339AE5" fill-opacity="0.5"/>
<rect y="114.261" width="6.34783" height="6.34783" rx="2" fill="#339AE5" fill-opacity="0.5"/>
<rect y="19.0435" width="6.34783" height="6.34783" rx="2" fill="#339AE5" fill-opacity="0.5"/>
<rect y="95.2173" width="6.34783" height="6.34783" rx="2" fill="#339AE5" fill-opacity="0.5"/>
<rect y="57.1304" width="6.34783" height="6.34783" rx="2" fill="#339AE5" fill-opacity="0.5"/>
<rect y="133.304" width="6.34783" height="6.34783" rx="2" fill="#339AE5" fill-opacity="0.5"/>
<rect x="152.348" width="6.34783" height="6.34783" rx="2" fill="#339AE5" fill-opacity="0.5"/>
<rect x="152.348" y="76.1738" width="6.34783" height="6.34783" rx="2" fill="#339AE5" fill-opacity="0.5"/>
<rect x="152.348" y="38.0869" width="6.34783" height="6.34783" rx="2" fill="#339AE5" fill-opacity="0.5"/>
<rect x="152.348" y="114.261" width="6.34783" height="6.34783" rx="2" fill="#339AE5" fill-opacity="0.5"/>
<rect x="152.348" y="19.0435" width="6.34783" height="6.34783" rx="2" fill="#339AE5" fill-opacity="0.5"/>
<rect x="152.348" y="95.2173" width="6.34783" height="6.34783" rx="2" fill="#339AE5" fill-opacity="0.5"/>
<rect x="152.348" y="57.1304" width="6.34783" height="6.34783" rx="2" fill="#339AE5" fill-opacity="0.5"/>
<rect x="152.348" y="133.304" width="6.34783" height="6.34783" rx="2" fill="#339AE5" fill-opacity="0.5"/>
<rect x="76.1738" width="6.34783" height="6.34783" rx="2" fill="#339AE5" fill-opacity="0.5"/>
<rect x="76.1738" y="76.1738" width="6.34783" height="6.34783" rx="2" fill="#339AE5" fill-opacity="0.5"/>
<rect x="76.1738" y="38.0869" width="6.34783" height="6.34783" rx="2" fill="#339AE5" fill-opacity="0.5"/>
<rect x="76.1738" y="114.261" width="6.34783" height="6.34783" rx="2" fill="#339AE5" fill-opacity="0.5"/>
<rect x="76.1738" y="19.0435" width="6.34783" height="6.34783" rx="2" fill="#339AE5" fill-opacity="0.5"/>
<rect x="76.1738" y="95.2173" width="6.34783" height="6.34783" rx="2" fill="#339AE5" fill-opacity="0.5"/>
<rect x="76.1738" y="57.1304" width="6.34783" height="6.34783" rx="2" fill="#339AE5" fill-opacity="0.5"/>
<rect x="76.1738" y="133.304" width="6.34783" height="6.34783" rx="2" fill="#339AE5" fill-opacity="0.5"/>
<rect x="38.0869" width="6.34783" height="6.34783" rx="2" fill="#339AE5" fill-opacity="0.5"/>
<rect x="38.0869" y="76.1738" width="6.34783" height="6.34783" rx="2" fill="#339AE5" fill-opacity="0.5"/>
<rect x="38.0869" y="38.0869" width="6.34783" height="6.34783" rx="2" fill="#339AE5" fill-opacity="0.5"/>
<rect x="38.0869" y="114.261" width="6.34783" height="6.34783" rx="2" fill="#339AE5" fill-opacity="0.5"/>
<rect x="38.0869" y="19.0435" width="6.34783" height="6.34783" rx="2" fill="#339AE5" fill-opacity="0.5"/>
<rect x="38.0869" y="95.2173" width="6.34783" height="6.34783" rx="2" fill="#339AE5" fill-opacity="0.5"/>
<rect x="38.0869" y="57.1304" width="6.34783" height="6.34783" rx="2" fill="#339AE5" fill-opacity="0.5"/>
<rect x="38.0869" y="133.304" width="6.34783" height="6.34783" rx="2" fill="#339AE5" fill-opacity="0.5"/>
<rect x="114.261" width="6.34783" height="6.34783" rx="2" fill="#339AE5" fill-opacity="0.5"/>
<rect x="114.261" y="76.1738" width="6.34783" height="6.34783" rx="2" fill="#339AE5" fill-opacity="0.5"/>
<rect x="114.261" y="38.0869" width="6.34783" height="6.34783" rx="2" fill="#339AE5" fill-opacity="0.5"/>
<rect x="114.261" y="114.261" width="6.34783" height="6.34783" rx="2" fill="#339AE5" fill-opacity="0.5"/>
<rect x="114.261" y="19.0435" width="6.34783" height="6.34783" rx="2" fill="#339AE5" fill-opacity="0.5"/>
<rect x="114.261" y="95.2173" width="6.34783" height="6.34783" rx="2" fill="#339AE5" fill-opacity="0.5"/>
<rect x="114.261" y="57.1304" width="6.34783" height="6.34783" rx="2" fill="#339AE5" fill-opacity="0.5"/>
<rect x="114.261" y="133.304" width="6.34783" height="6.34783" rx="2" fill="#339AE5" fill-opacity="0.5"/>
<rect x="19.043" width="6.34783" height="6.34783" rx="2" fill="#339AE5" fill-opacity="0.5"/>
<rect x="19.043" y="76.1738" width="6.34783" height="6.34783" rx="2" fill="#339AE5" fill-opacity="0.5"/>
<rect x="19.043" y="38.0869" width="6.34783" height="6.34783" rx="2" fill="#339AE5" fill-opacity="0.5"/>
<rect x="19.043" y="114.261" width="6.34783" height="6.34783" rx="2" fill="#339AE5" fill-opacity="0.5"/>
<rect x="19.043" y="19.0435" width="6.34783" height="6.34783" rx="2" fill="#339AE5" fill-opacity="0.5"/>
<rect x="19.043" y="95.2173" width="6.34783" height="6.34783" rx="2" fill="#339AE5" fill-opacity="0.5"/>
<rect x="19.043" y="57.1304" width="6.34783" height="6.34783" rx="2" fill="#339AE5" fill-opacity="0.5"/>
<rect x="19.043" y="133.304" width="6.34783" height="6.34783" rx="2" fill="#339AE5" fill-opacity="0.5"/>
<rect x="95.2178" width="6.34783" height="6.34783" rx="2" fill="#339AE5" fill-opacity="0.5"/>
<rect x="95.2178" y="76.1738" width="6.34783" height="6.34783" rx="2" fill="#339AE5" fill-opacity="0.5"/>
<rect x="95.2178" y="38.0869" width="6.34783" height="6.34783" rx="2" fill="#339AE5" fill-opacity="0.5"/>
<rect x="95.2178" y="114.261" width="6.34783" height="6.34783" rx="2" fill="#339AE5" fill-opacity="0.5"/>
<rect x="95.2178" y="19.0435" width="6.34783" height="6.34783" rx="2" fill="#339AE5" fill-opacity="0.5"/>
<rect x="95.2178" y="95.2173" width="6.34783" height="6.34783" rx="2" fill="#339AE5" fill-opacity="0.5"/>
<rect x="95.2178" y="57.1304" width="6.34783" height="6.34783" rx="2" fill="#339AE5" fill-opacity="0.5"/>
<rect x="95.2178" y="133.304" width="6.34783" height="6.34783" rx="2" fill="#339AE5" fill-opacity="0.5"/>
<rect x="57.1309" width="6.34783" height="6.34783" rx="2" fill="#339AE5" fill-opacity="0.5"/>
<rect x="57.1309" y="76.1738" width="6.34783" height="6.34783" rx="2" fill="#339AE5" fill-opacity="0.5"/>
<rect x="57.1309" y="38.0869" width="6.34783" height="6.34783" rx="2" fill="#339AE5" fill-opacity="0.5"/>
<rect x="57.1309" y="114.261" width="6.34783" height="6.34783" rx="2" fill="#339AE5" fill-opacity="0.5"/>
<rect x="57.1309" y="19.0435" width="6.34783" height="6.34783" rx="2" fill="#339AE5" fill-opacity="0.5"/>
<rect x="57.1309" y="95.2173" width="6.34783" height="6.34783" rx="2" fill="#339AE5" fill-opacity="0.5"/>
<rect x="57.1309" y="57.1304" width="6.34783" height="6.34783" rx="2" fill="#339AE5" fill-opacity="0.5"/>
<rect x="57.1309" y="133.304" width="6.34783" height="6.34783" rx="2" fill="#339AE5" fill-opacity="0.5"/>
<rect x="133.305" width="6.34783" height="6.34783" rx="2" fill="#339AE5" fill-opacity="0.5"/>
<rect x="133.305" y="76.1738" width="6.34783" height="6.34783" rx="2" fill="#339AE5" fill-opacity="0.5"/>
<rect x="133.305" y="38.0869" width="6.34783" height="6.34783" rx="2" fill="#339AE5" fill-opacity="0.5"/>
<rect x="133.305" y="114.261" width="6.34783" height="6.34783" rx="2" fill="#339AE5" fill-opacity="0.5"/>
<rect x="133.305" y="19.0435" width="6.34783" height="6.34783" rx="2" fill="#339AE5" fill-opacity="0.5"/>
<rect x="133.305" y="95.2173" width="6.34783" height="6.34783" rx="2" fill="#339AE5" fill-opacity="0.5"/>
<rect x="133.305" y="57.1304" width="6.34783" height="6.34783" rx="2" fill="#339AE5" fill-opacity="0.5"/>
<rect x="133.305" y="133.304" width="6.34783" height="6.34783" rx="2" fill="#339AE5" fill-opacity="0.5"/>
<g filter="url(#filter0_d_442_4)">
<ellipse cx="79.5" cy="70" rx="62.5" ry="62" fill="#339AE5"/>
</g>
<path d="M79 105C98.33 105 114 89.33 114 70C114 50.67 98.33 35 79 35C59.67 35 44 50.67 44 70C44 89.33 59.67 105 79 105Z" stroke="white" stroke-width="3" stroke-linecap="round" stroke-linejoin="round"/>
<path d="M93.8627 79.1099C92.3552 81.734 90.1883 83.9129 87.5794 85.4277C84.9706 86.9425 82.0117 87.74 78.9998 87.74C75.9879 87.74 73.029 86.9426 70.4201 85.4279C67.8113 83.9131 65.6443 81.7343 64.1367 79.1101" stroke="white" stroke-width="3" stroke-linecap="round" stroke-linejoin="round"/>
<path d="M65.5758 66.6443C67.959 66.6443 69.8909 64.7124 69.8909 62.3292C69.8909 59.9461 67.959 58.0142 65.5758 58.0142C63.1927 58.0142 61.2607 59.9461 61.2607 62.3292C61.2607 64.7124 63.1927 66.6443 65.5758 66.6443Z" fill="white"/>
<path d="M92.4244 66.6443C94.8076 66.6443 96.7395 64.7124 96.7395 62.3292C96.7395 59.9461 94.8076 58.0142 92.4244 58.0142C90.0413 58.0142 88.1094 59.9461 88.1094 62.3292C88.1094 64.7124 90.0413 66.6443 92.4244 66.6443Z" fill="white"/>
<defs>
<filter id="filter0_d_442_4" x="1" y="0" width="157" height="156" filterUnits="userSpaceOnUse" color-interpolation-filters="sRGB">
<feFlood flood-opacity="0" result="BackgroundImageFix"/>
<feColorMatrix in="SourceAlpha" type="matrix" values="0 0 0 0 0 0 0 0 0 0 0 0 0 0 0 0 0 0 127 0" result="hardAlpha"/>
<feOffset dy="8"/>
<feGaussianBlur stdDeviation="8"/>
<feComposite in2="hardAlpha" operator="out"/>
<feColorMatrix type="matrix" values="0 0 0 0 0.105882 0 0 0 0 0.168627 0 0 0 0 0.486275 0 0 0 0.15 0"/>
<feBlend mode="normal" in2="BackgroundImageFix" result="effect1_dropShadow_442_4"/>
<feBlend mode="normal" in="SourceGraphic" in2="effect1_dropShadow_442_4" result="shape"/>
</filter>
</defs>
</svg>
