<svg width="108" height="33" viewBox="0 0 108 33" fill="none" xmlns="http://www.w3.org/2000/svg">
<path d="M29.4987 20.3408C27.7444 20.3408 26.1008 19.598 24.6073 18.389L24.9708 16.6821L24.9866 16.6189C25.3106 14.8014 26.3379 11.7512 29.4987 11.7512C31.8693 11.7512 33.7975 13.6793 33.7975 16.05C33.7896 18.4127 31.8614 20.3408 29.4987 20.3408ZM29.4987 7.39715C25.4607 7.39715 22.3315 10.0207 21.0592 14.3352C19.1153 11.4193 17.6455 7.91869 16.7842 4.97119H12.438V16.2791C12.438 18.5075 10.6205 20.325 8.39211 20.325C6.16371 20.325 4.34622 18.5075 4.34622 16.2791V4.97119H4.95181e-05V16.2791C-0.0157547 20.9098 3.75356 24.7107 8.38421 24.7107C13.0149 24.7107 16.7842 20.9098 16.7842 16.2791V14.3826C17.6297 16.1448 18.6649 17.9228 19.9213 19.5032L17.2583 32.0202H21.7072L23.6353 22.9406C25.3264 24.0232 27.2703 24.7028 29.4987 24.7028C34.2637 24.7028 38.1436 20.7992 38.1436 16.0342C38.1436 11.2771 34.2637 7.39715 29.4987 7.39715Z" fill="#6FDA44"/>
<path d="M51.4124 7.88632L54.2176 19.1943L57.3074 7.88632H60.9898L56.2406 24.2279H52.5582L49.6423 12.8489L46.7343 24.22H43.0519L38.3027 7.87842H41.9851L45.0749 19.1864L47.8801 7.87842H51.4124V7.88632ZM69.8006 7.39639C65.0198 7.39639 61.1478 11.2763 61.1478 16.0492C61.1478 20.83 65.0277 24.702 69.8006 24.702C74.5814 24.702 78.4614 20.83 78.4614 16.0492C78.4614 11.2684 74.5814 7.39639 69.8006 7.39639ZM69.8006 21.1461C66.9875 21.1461 64.7117 18.8703 64.7117 16.0571C64.7117 13.244 66.9954 10.9682 69.8006 10.9682C72.6138 10.9682 74.8896 13.244 74.8896 16.0571C74.8896 18.8624 72.6138 21.1461 69.8006 21.1461ZM88.9791 11.545C86.5057 11.545 84.5065 13.5521 84.5065 16.0176V24.22H80.8004V7.88632H84.5065V10.3992C84.5065 10.3992 86.0869 7.87842 89.3347 7.87842H90.4726V11.545H88.9791ZM101.417 15.417C104.048 13.9314 105.834 11.1104 105.834 7.87842H102.128C102.128 10.6047 99.9156 12.8172 97.1894 12.8172H96.6916V0H92.9855V24.22H96.6916V16.5233H97.1341C97.4976 16.5233 97.9717 16.7604 98.1851 17.0528L103.448 24.22H107.889L101.417 15.417Z" fill="#2E2E2E"/>
</svg>
