<svg width="44" height="44" viewBox="0 0 44 44" fill="none" xmlns="http://www.w3.org/2000/svg">
<path d="M7.5999 39.9999V21.2799C7.60056 20.7072 7.82834 20.1582 8.23327 19.7533C8.63821 19.3483 9.18723 19.1206 9.7599 19.1199H38.5599C39.1326 19.1206 39.6816 19.3483 40.0865 19.7533C40.4915 20.1582 40.7192 20.7072 40.7199 21.2799V25.5999H42.1599V21.2799C42.1588 20.3255 41.7792 19.4104 41.1043 18.7355C40.4294 18.0606 39.5143 17.681 38.5599 17.6799V6.75638C38.5607 6.47261 38.5051 6.1915 38.3965 5.92932C38.2879 5.66715 38.1284 5.42912 37.9272 5.22902L33.7308 1.03259C33.5307 0.831382 33.2927 0.67186 33.0305 0.56326C32.7683 0.45466 32.4872 0.399139 32.2034 0.39991H10.4799C9.90723 0.400565 9.35821 0.628346 8.95327 1.03328C8.54834 1.43822 8.32056 1.98724 8.3199 2.55991V11.1999H3.9999C3.04545 11.201 2.1304 11.5806 1.45551 12.2555C0.78061 12.9304 0.400979 13.8455 0.399902 14.7999V39.9999C0.400979 40.9543 0.78061 41.8694 1.45551 42.5443C2.1304 43.2192 3.04545 43.5988 3.9999 43.5999H32.0799V42.1599H6.87793C7.34722 41.5376 7.6007 40.7793 7.5999 39.9999ZM32.7999 2.13812L36.1017 5.43991H33.5199C33.329 5.43969 33.146 5.36376 33.011 5.22879C32.876 5.09381 32.8001 4.9108 32.7999 4.71991V2.13812ZM32.7999 16.2399H35.6799V14.7999H32.7999V12.6399H35.6799V11.1999H32.7999V6.75606C33.0311 6.83812 33.2746 6.88001 33.5199 6.87991H37.1199V17.6799H32.7999V16.2399ZM31.3599 1.83991V4.4217L28.7781 1.83991H31.3599ZM27.0399 2.13812L30.3417 5.43991H27.7599C27.569 5.43969 27.386 5.36376 27.251 5.22879C27.116 5.09381 27.0401 4.9108 27.0399 4.71991V2.13812ZM9.7599 2.55991C9.76012 2.36902 9.83605 2.18601 9.97102 2.05103C10.106 1.91606 10.289 1.84013 10.4799 1.83991H25.5999V4.71991C25.6005 5.29258 25.8283 5.84161 26.2333 6.24655C26.6382 6.65149 27.1872 6.87927 27.7599 6.87991H31.3599V17.6799H9.7599V2.55991ZM6.1599 39.9999C6.1599 40.5728 5.93233 41.1222 5.52725 41.5273C5.12217 41.9323 4.57277 42.1599 3.9999 42.1599C3.42703 42.1599 2.87763 41.9323 2.47255 41.5273C2.06747 41.1222 1.8399 40.5728 1.8399 39.9999V14.7999C1.84056 14.2272 2.06834 13.6782 2.47327 13.2733C2.87821 12.8683 3.42724 12.6406 3.9999 12.6399H8.3199V17.9814C7.67841 18.262 7.13253 18.7234 6.74894 19.3092C6.36536 19.8949 6.16068 20.5797 6.1599 21.2799V39.9999Z" fill="#EE3F59" stroke="#EE3F59" stroke-width="0.3"/>
<path d="M40.7199 33.6886V30.4712L38.5356 29.9475L38.1535 29.0252L39.331 27.1036L37.0564 24.8289L35.1347 26.0065L34.2124 25.6243L33.6886 23.4399H30.4712L29.9475 25.6242L29.0252 26.0064L27.1036 24.8289L24.8289 27.1036L26.0065 29.0252L25.6243 29.9475L23.4399 30.4712V33.6886L25.6242 34.2124L26.0064 35.1347L24.8289 37.0563L27.1036 39.331L29.0252 38.1534L29.9475 38.5356L30.4712 40.7199H33.6886L34.2124 38.5356L35.1347 38.1534L37.0563 39.331L39.331 37.0563L38.1534 35.1347L38.5356 34.2124L40.7199 33.6886ZM37.5101 36.8408L36.8408 37.5101L35.2613 36.5422L32.9832 37.4862L32.5531 39.2799H31.6068L31.1767 37.4863L28.8986 36.5422L27.3191 37.51L26.6498 36.8408L27.6176 35.2613L26.6736 32.9831L24.8799 32.5531V31.6068L26.6736 31.1767L27.6177 28.8986L26.6498 27.3191L27.3191 26.6498L28.8985 27.6177L31.1767 26.6736L31.6068 24.8799H32.5531L32.9832 26.6737L35.2613 27.6177L36.8408 26.6498L37.5101 27.3191L36.5422 28.8986L37.4863 31.1767L39.2799 31.6068V32.5531L37.4863 32.9831L36.5422 35.2613L37.5101 36.8408Z" fill="#EE3F59" stroke="#EE3F59" stroke-width="0.3"/>
<path d="M32.08 28.48C31.368 28.48 30.6719 28.6911 30.0799 29.0867C29.4879 29.4823 29.0265 30.0445 28.754 30.7023C28.4815 31.3601 28.4102 32.084 28.5492 32.7823C28.6881 33.4806 29.0309 34.1221 29.5344 34.6256C30.0379 35.129 30.6793 35.4719 31.3777 35.6108C32.076 35.7497 32.7998 35.6784 33.4576 35.4059C34.1155 35.1335 34.6777 34.672 35.0733 34.08C35.4688 33.488 35.68 32.792 35.68 32.08C35.6789 31.1255 35.2993 30.2105 34.6244 29.5356C33.9495 28.8607 33.0344 28.4811 32.08 28.48ZM32.08 34.24C31.6528 34.24 31.2352 34.1133 30.88 33.876C30.5247 33.6386 30.2479 33.3013 30.0844 32.9066C29.9209 32.5119 29.8781 32.0776 29.9615 31.6586C30.0448 31.2396 30.2506 30.8547 30.5526 30.5526C30.8547 30.2505 31.2396 30.0448 31.6586 29.9615C32.0776 29.8781 32.5119 29.9209 32.9066 30.0844C33.3013 30.2479 33.6386 30.5247 33.876 30.8799C34.1133 31.2352 34.24 31.6528 34.24 32.08C34.2393 32.6526 34.0115 33.2017 33.6066 33.6066C33.2017 34.0115 32.6526 34.2393 32.08 34.24Z" fill="#EE3F59" stroke="#EE3F59" stroke-width="0.3"/>
<path d="M25.5999 7.6001H11.2V9.0401H25.5999V7.6001Z" fill="#EE3F59" stroke="#EE3F59" stroke-width="0.3"/>
<path d="M29.9199 11.2002H11.2V12.6402H29.9199V11.2002Z" fill="#EE3F59" stroke="#EE3F59" stroke-width="0.3"/>
<path d="M29.9199 14.7998H11.2V16.2398H29.9199V14.7998Z" fill="#EE3F59" stroke="#EE3F59" stroke-width="0.3"/>
<path d="M28.0481 22.8386L27.4715 21.519C24.6721 22.7431 22.4729 25.028 21.3568 27.8722C20.2407 30.7163 20.2989 33.8872 21.5187 36.6884L22.8382 36.112C21.7713 33.6607 21.7207 30.8862 22.6975 28.3976C23.6743 25.909 25.5986 23.9097 28.0481 22.8386Z" fill="#EE3F59" stroke="#EE3F59" stroke-width="0.3"/>
<path d="M30.735 22.0891L30.5448 20.6616C30.0261 20.7308 29.5128 20.8353 29.0083 20.9744L29.3915 22.3624C29.8326 22.2409 30.2814 22.1495 30.735 22.0891Z" fill="#EE3F59" stroke="#EE3F59" stroke-width="0.3"/>
<path d="M42.641 27.4717L41.3214 28.0482C42.3883 30.4995 42.439 33.274 41.4622 35.7626C40.4854 38.2512 38.561 40.2505 36.1116 41.3215L36.6881 42.6411C39.4876 41.4171 41.6868 39.1321 42.8029 36.288C43.919 33.4438 43.8608 30.2729 42.641 27.4717Z" fill="#EE3F59" stroke="#EE3F59" stroke-width="0.3"/>
<path d="M33.4248 42.0713L33.6151 43.4987C34.1338 43.4295 34.6471 43.325 35.1515 43.1859L34.7683 41.7979C34.3272 41.9194 33.8783 42.0108 33.4248 42.0713Z" fill="#EE3F59" stroke="#EE3F59" stroke-width="0.3"/>
<path d="M24.1599 4H11.2V5.44H24.1599V4Z" fill="#EE3F59" stroke="#EE3F59" stroke-width="0.3"/>
</svg>
