<svg width="58" height="44" viewBox="0 0 58 44" fill="none" xmlns="http://www.w3.org/2000/svg">
<path d="M18.5712 18.0397C18.5712 21.1071 19.7045 24.2135 21.6805 26.5624C23.7584 29.0324 26.471 30.3928 29.3184 30.3928C32.1655 30.3928 34.8747 29.0332 36.9473 26.5645C38.9167 24.2184 40.0462 21.1133 40.0462 18.0451V15.3426C40.8427 11.961 41.0097 9.03452 41.0085 7.16797C41.0068 4.75801 40.741 3.09295 40.4928 2.33835C40.361 1.93746 39.9655 1.69397 39.5568 1.73299C39.4893 1.72704 39.4201 1.7277 39.35 1.73751C37.6865 1.97185 35.6458 1.56777 33.4852 1.13998C29.9845 0.446999 26.0295 -0.334937 23.0046 1.73266C22.9777 1.73024 22.9505 1.72859 22.9229 1.72859C21.2252 1.72859 19.718 2.39743 18.6787 3.61189C17.7186 4.73376 17.1899 6.27724 17.1899 7.95806C17.1899 10.7109 18.3777 15.7984 18.5711 16.6086V18.0397H18.5712ZM35.5692 25.4401C33.8428 27.4966 31.6228 28.6293 29.3184 28.6293C27.0128 28.6293 24.7892 27.4954 23.0573 25.4367C21.3431 23.3989 20.36 20.7028 20.36 18.0398V16.9822C20.36 14.8012 21.8455 11.8362 22.4093 10.7896C30.4528 9.88347 35.8367 12.0733 37.0589 12.6372L38.2575 15.4217V18.0452C38.2575 20.7097 37.2776 23.405 35.5692 25.4401ZM22.923 3.49218C22.9879 3.49218 23.051 3.48502 23.112 3.47201C23.3577 3.5236 23.6238 3.47411 23.8397 3.31252C26.2513 1.50659 29.7498 2.19914 33.1332 2.86908C34.9438 3.22753 36.6758 3.57033 38.2857 3.57033C38.5087 3.57033 38.7292 3.56372 38.9475 3.54961C39.217 5.04283 39.4347 8.25743 38.8285 12.2336L38.576 11.647C38.4973 11.4642 38.3585 11.3131 38.1819 11.2177C37.925 11.0792 31.7895 7.84717 21.8041 9.08302C21.5113 9.09768 21.2316 9.25309 21.074 9.52204C21.0167 9.6197 20.2385 10.9596 19.5648 12.6732C19.259 11.0401 18.9787 9.20349 18.9787 7.95784C18.9788 4.87308 20.9597 3.49218 22.923 3.49218Z" fill="#EE3F59"/>
<path d="M44.7217 32.3459C44.7025 32.3406 44.6831 32.336 44.6635 32.3319L39.342 31.2345L37.9353 29.1313C37.9254 29.1164 37.9149 29.1019 37.9042 29.0877C37.6484 28.7515 37.259 28.5296 36.8358 28.4789C36.4128 28.4283 35.9807 28.5518 35.6507 28.818C35.6448 28.8226 35.639 28.8274 35.6334 28.8322L29.3064 34.202L22.9792 28.8323C22.9735 28.8275 22.9678 28.8228 22.9621 28.8181C22.632 28.5519 22.1999 28.4283 21.7769 28.4789C21.3537 28.5296 20.9642 28.7515 20.7085 29.0877C20.6977 29.1019 20.6873 29.1164 20.6774 29.1313L19.2707 31.2345L13.9492 32.3319C13.9297 32.336 13.9102 32.3406 13.891 32.3459C12.3437 32.7733 11.0274 33.7191 10.0842 35.0812C9.22381 36.3236 8.75 37.8236 8.75 39.3046V40.9625C8.75 42.417 10.0636 43.6003 11.6784 43.6003H27.2699C27.2711 43.6003 27.2722 43.6004 27.2733 43.6004C27.2745 43.6004 27.2757 43.6003 27.277 43.6003H31.3356C31.3369 43.6003 31.3381 43.6004 31.3393 43.6004C31.3404 43.6004 31.3416 43.6003 31.3427 43.6003H46.9342C48.549 43.6003 49.8626 42.4171 49.8626 40.9625V39.3046C49.8626 37.8234 49.3888 36.3236 48.5284 35.0812C47.5855 33.7192 46.269 32.7734 44.7217 32.3459ZM36.6003 30.3388L37.7107 31.9988L33.2668 38.0231L30.6203 35.414L36.6003 30.3388ZM28.7196 40.0804H29.8931L30.2494 41.8368H28.3633L28.7196 40.0804ZM30.2008 37.8337C30.2008 38.124 30.0213 38.3167 29.9026 38.3167H28.71C28.5913 38.3167 28.4119 38.124 28.4119 37.8337V37.4943L29.3062 36.6125L30.2006 37.4943V37.8337H30.2008ZM22.0124 30.3388L27.9924 35.4139L25.346 38.023L20.9021 31.9987L22.0124 30.3388ZM10.5387 40.9625V39.3046C10.5387 37.2245 11.8463 34.7576 14.3459 34.0518L19.4312 33.0031L24.515 39.8948C24.6688 40.1034 24.9075 40.2351 25.1683 40.2553C25.1917 40.2572 25.2151 40.258 25.2383 40.258C25.4745 40.258 25.7023 40.1657 25.8706 39.9997L26.9136 38.9714C26.9609 39.0576 27.0129 39.1403 27.0701 39.2186L26.5391 41.8366H11.6784C11.0606 41.8367 10.5387 41.4364 10.5387 40.9625ZM48.074 40.9625C48.074 41.4364 47.5522 41.8367 46.9345 41.8367H32.0736L31.5426 39.2187C31.5998 39.1404 31.6518 39.0577 31.6991 38.9715L32.7421 39.9998C32.9104 40.1658 33.1382 40.2581 33.3744 40.2581C33.3977 40.2581 33.421 40.2572 33.4444 40.2554C33.7052 40.2353 33.9439 40.1036 34.0978 39.8949L39.1815 33.0032L44.2668 34.0519C46.7664 34.7578 48.074 37.2246 48.074 39.3048V40.9625Z" fill="#EE3F59"/>
<path d="M7.85926 19.6944C7.85926 21.8368 8.5987 23.8473 9.9413 25.3556C11.304 26.8865 13.1239 27.7297 15.0655 27.7297C16.5213 27.7297 17.9228 27.2506 19.1187 26.3445C19.5103 26.0477 19.5838 25.4941 19.2827 25.108C18.9816 24.7218 18.4204 24.6493 18.0286 24.9461C17.1481 25.6133 16.1235 25.9661 15.0655 25.9661C12.0782 25.9661 9.64794 23.1526 9.64794 19.6944V19.1761C9.64794 17.7824 10.2325 15.9375 10.5389 15.066C12.4692 14.8974 14.1929 15.1469 15.6007 15.3519L15.7602 15.3751C15.8045 15.3815 15.8483 15.3846 15.8917 15.3846C16.328 15.3846 16.71 15.0694 16.7754 14.6311C16.8474 14.1493 16.5095 13.7012 16.0209 13.6302L15.862 13.6072C14.2183 13.3678 12.1732 13.0702 9.78422 13.3718C9.78143 13.3721 9.77852 13.3723 9.77573 13.3727C9.77539 13.3727 9.77506 13.3727 9.77472 13.3729C9.77159 13.3732 9.76857 13.3741 9.76544 13.3745C9.73984 13.378 9.71435 13.3823 9.68919 13.3881C9.675 13.3913 9.66136 13.3956 9.64749 13.3994C9.63374 13.4033 9.61999 13.4066 9.60646 13.411C9.58891 13.4167 9.57203 13.4236 9.55504 13.4303C9.54553 13.4341 9.53581 13.4374 9.5263 13.4416C9.50897 13.4492 9.4922 13.4577 9.47555 13.4664C9.4666 13.4711 9.45755 13.4753 9.44871 13.4802C9.4334 13.4887 9.41886 13.4981 9.40411 13.5074C9.39416 13.5138 9.38409 13.5198 9.37437 13.5265C9.36207 13.5351 9.35033 13.5444 9.33859 13.5534C9.32719 13.5622 9.31567 13.5707 9.30472 13.5801C9.29533 13.588 9.2866 13.5965 9.27766 13.6049C9.26525 13.6163 9.25284 13.6277 9.2411 13.6398C9.23384 13.6474 9.22713 13.6555 9.22008 13.6632C9.2079 13.6769 9.1956 13.6903 9.1842 13.7047C9.17749 13.7131 9.17156 13.722 9.16519 13.7306C9.15479 13.7449 9.14417 13.759 9.13456 13.774C9.12662 13.7862 9.11958 13.7992 9.11231 13.8119C9.10549 13.8238 9.09822 13.8352 9.09185 13.8476C9.07978 13.8711 9.06882 13.8952 9.05887 13.9197C9.05797 13.9218 9.05697 13.9238 9.05607 13.9259C9.05607 13.926 9.05585 13.9265 9.05574 13.9266C9.05496 13.9287 9.05417 13.9307 9.05339 13.9327C9.03785 13.972 8.97334 14.1368 8.88133 14.3942C8.80989 13.8335 8.76305 13.3054 8.76305 12.8824C8.76305 10.9765 9.6959 10.1233 10.6205 10.1233C10.6642 10.1233 10.7068 10.1192 10.7488 10.1133C10.7912 10.1193 10.8339 10.1234 10.877 10.1234C11.0656 10.1234 11.2556 10.0649 11.4173 9.94376C12.2521 9.31856 13.3291 9.10847 14.9088 9.26223C15.3999 9.31051 15.8382 8.95603 15.8868 8.47137C15.9353 7.98682 15.5762 7.55507 15.0846 7.50723C13.8725 7.38918 12.118 7.35788 10.5913 8.3606C8.46029 8.37757 6.97437 10.2319 6.97437 12.8825C6.97437 14.7395 7.71694 18.124 7.85926 18.7556V19.6944Z" fill="#EE3F59"/>
<path d="M6.94657 35.6649H2.96505C2.68432 35.6649 2.47458 35.4993 2.47458 35.3512V34.2224C2.47458 32.9146 3.29039 31.3654 4.8501 30.9195L8.10705 30.2478L9.78907 32.6401C9.96281 32.8871 10.2414 33.0196 10.5249 33.0196C10.7007 33.0196 10.8783 32.9686 11.0336 32.8624C11.4396 32.585 11.5405 32.0356 11.2591 31.6354L9.58392 29.2527L10.0786 28.5131L13.5667 31.0806C13.9626 31.3721 14.5229 31.2918 14.8184 30.9016C15.114 30.5114 15.0327 29.9589 14.6368 29.6676L10.8085 26.8495C10.5266 26.6307 10.1628 26.53 9.80607 26.5725C9.44115 26.6162 9.10531 26.8075 8.88473 27.0975C8.87388 27.1118 8.8636 27.1263 8.85365 27.1412L7.96059 28.4764L4.45277 29.1998C4.4332 29.2038 4.41375 29.2085 4.39452 29.2138C1.95975 29.8861 0.685791 32.2424 0.685791 34.2224V35.3512C0.685791 36.4967 1.70831 37.4285 2.96505 37.4285H6.94657C7.4405 37.4285 7.84097 37.0337 7.84097 36.5467C7.84097 36.0597 7.4405 35.6649 6.94657 35.6649Z" fill="#EE3F59"/>
<path d="M42.7044 8.32836C44.0194 8.35426 45.4732 8.58629 46.8793 8.8106C47.9417 8.98001 48.9593 9.14083 49.8429 9.19682C49.8117 11.2849 49.6729 13.1627 49.5152 14.6747C49.5134 14.6733 49.5115 14.6722 49.5098 14.6709C49.4957 14.6608 49.4811 14.6513 49.4665 14.642C49.4597 14.6377 49.4536 14.6329 49.4467 14.6288C49.439 14.6242 49.4309 14.6199 49.4231 14.6153C49.4221 14.6147 49.4211 14.614 49.42 14.6135C47.6302 13.5507 45.461 12.9375 42.7891 12.74C42.2961 12.7032 41.8674 13.0678 41.8304 13.5534C41.7933 14.039 42.1627 14.4623 42.6553 14.4986C44.9344 14.6672 46.7796 15.1605 48.2864 16.0034C48.4983 16.496 48.9646 17.7428 48.9646 19.1745V19.6928C48.9646 23.1511 46.5343 25.9645 43.547 25.9645C42.4891 25.9645 41.4645 25.6117 40.584 24.9446C40.1924 24.6478 39.6308 24.7202 39.3298 25.1064C39.0289 25.4925 39.1022 26.046 39.4938 26.3429C40.6898 27.2491 42.0913 27.7281 43.547 27.7281C45.4888 27.7281 47.3086 26.885 48.6713 25.354C50.0139 23.8456 50.7533 21.8351 50.7533 19.6928V18.7398C50.879 18.0806 51.6174 13.9756 51.6372 8.55013C51.6601 8.46317 51.6702 8.37135 51.6646 8.27678C51.6365 7.80623 51.2386 7.44447 50.7663 7.44788C50.7588 7.44766 50.7514 7.44678 50.7438 7.44678C50.7265 7.44678 50.7096 7.44843 50.6925 7.44932C49.8269 7.49363 48.5339 7.28795 47.1649 7.06959C45.7661 6.8465 44.1808 6.59353 42.7401 6.5652C42.243 6.55341 41.8378 6.94228 41.8279 7.42915C41.8182 7.91601 42.2106 8.31866 42.7044 8.32836Z" fill="#EE3F59"/>
<path d="M54.2184 29.2133C54.1992 29.208 54.1797 29.2034 54.1601 29.1993L50.6523 28.4759L49.7593 27.1407C49.7493 27.1259 49.7389 27.1114 49.7282 27.0971C49.5076 26.8071 49.1718 26.6157 48.8068 26.5721C48.4499 26.5295 48.0863 26.6302 47.8045 26.8491L43.9761 29.6671C43.5802 29.9584 43.4989 30.511 43.7945 30.9011C44.0901 31.2915 44.6506 31.3716 45.0462 31.0802L48.5343 28.5126L49.029 29.2522L47.3537 31.6348C47.0723 32.035 47.1732 32.5844 47.5792 32.8618C47.7346 32.968 47.9121 33.019 48.0879 33.019C48.3713 33.019 48.65 32.8865 48.8237 32.6395L50.5058 30.2472L53.7627 30.9189C55.3223 31.3648 56.1382 32.9141 56.1382 34.2218V35.3506C56.1382 35.4986 55.9285 35.6643 55.6477 35.6643H51.6662C51.1723 35.6643 50.7718 36.0591 50.7718 36.5461C50.7718 37.0331 51.1723 37.4279 51.6662 37.4279H55.6477C56.9045 37.4279 57.927 36.4961 57.927 35.3506V34.2218C57.927 32.242 56.653 29.8858 54.2184 29.2133Z" fill="#EE3F59"/>
</svg>
