<svg width="30" height="30" viewBox="0 0 30 30" fill="none" xmlns="http://www.w3.org/2000/svg">
<g clip-path="url(#clip0_74_10491)">
<path d="M10.7767 18.2222C11.8109 18.2222 12.6493 19.0605 12.6493 20.0947V28.1274C12.6493 29.1616 11.8109 29.9998 10.7767 29.9998C9.74268 29.9998 8.9043 29.1616 8.9043 28.1274V20.0947C8.9043 19.0607 9.74268 18.2223 10.7767 18.2223V18.2222Z" fill="#EE3F59"/>
<path d="M6.50181 8.5647C6.49563 8.6357 6.49023 8.70749 6.49023 8.78008V20.9504C6.49023 22.2592 7.52624 23.3136 8.81234 23.3136H21.1887C22.4749 23.3136 23.5109 22.2591 23.5109 20.9504V8.78008C23.5109 8.70749 23.5083 8.63544 23.5022 8.5647H6.50181Z" fill="#EE3F59"/>
<path d="M19.2229 18.2223C20.2571 18.2223 21.0955 19.0607 21.0955 20.0948V28.1275C21.0955 29.1617 20.2571 29.9999 19.2229 29.9999C18.1889 29.9999 17.3505 29.1617 17.3505 28.1275V20.0948C17.3505 19.0608 18.1889 18.2224 19.2229 18.2224V18.2223ZM3.47996 9.64785C4.514 9.64785 5.35238 10.4862 5.35238 11.5204V19.5531C5.35238 20.5873 4.514 21.4256 3.47996 21.4256C2.4458 21.4256 1.60742 20.5873 1.60742 19.5532V11.5205C1.60729 10.4864 2.44567 9.64785 3.47996 9.64785ZM26.5181 9.64785C27.5522 9.64785 28.3905 10.4862 28.3905 11.5204V19.5531C28.3905 20.5873 27.5522 21.4256 26.5181 21.4256C25.484 21.4256 24.6456 20.5873 24.6456 19.5532V11.5205C24.6456 10.4864 25.484 9.64785 26.5181 9.64785ZM6.55485 7.76531C6.60692 4.02706 9.8697 0.962041 14.0579 0.558105H15.9398C20.1283 0.962173 23.3908 4.02733 23.4428 7.76531H6.55485Z" fill="#EE3F59"/>
<path d="M7.20691 0.197266L9.18215 3.61862M22.7928 0.197266L20.8174 3.61862" stroke="#EE3F59" stroke-width="3" stroke-linecap="round" stroke-linejoin="round"/>
<path d="M12.4843 4.41514C12.4858 4.93768 12.0534 5.36252 11.5182 5.36397C10.9833 5.36528 10.5483 4.94294 10.5468 4.4204V4.41514C10.5453 3.89247 10.9778 3.46776 11.5128 3.46631C12.0477 3.46487 12.4827 3.88708 12.4843 4.40988V4.41514ZM19.7157 4.41514C19.7172 4.93768 19.2848 5.36252 18.7496 5.36397C18.2147 5.36528 17.7797 4.94294 17.7782 4.4204V4.41514C17.7767 3.89247 18.2092 3.46776 18.7442 3.46631C19.2791 3.46487 19.7141 3.88708 19.7157 4.40988V4.41514Z" fill="white"/>
</g>
<defs>
<clipPath id="clip0_74_10491">
<rect width="30" height="30" fill="white"/>
</clipPath>
</defs>
</svg>
