<svg width="30" height="30" viewBox="0 0 30 30" fill="none" xmlns="http://www.w3.org/2000/svg">
<path d="M4.00739 11.0282C1.47116 15.4293 3.08349 22.1083 5.88814 26.158C7.28811 28.1827 8.70549 30.0001 10.6468 30.0001C10.6834 30.0001 10.7201 29.9994 10.7577 29.9979C11.6698 29.9615 12.3289 29.6807 12.9662 29.4093C13.6817 29.1044 14.4216 28.7892 15.5823 28.7892C16.6865 28.7892 17.3911 29.0942 18.0726 29.3891C18.7442 29.6796 19.4359 29.9802 20.4581 29.961C22.6449 29.9203 23.9875 27.9592 25.172 26.2291C26.4081 24.4227 27.0282 22.6689 27.2374 21.9986L27.2459 21.972C27.2857 21.8529 27.2295 21.7228 27.1153 21.6704C27.1121 21.6689 27.1005 21.6641 27.0973 21.6627C26.7122 21.5053 23.3343 20.0067 23.2988 15.9224C23.2658 12.6041 25.8328 10.8469 26.3477 10.5284L26.3717 10.5135C26.4274 10.4776 26.4663 10.4206 26.4795 10.3555C26.4926 10.2905 26.4789 10.2228 26.4415 10.1681C24.6696 7.57513 21.9539 7.18434 20.8605 7.13733C20.7019 7.12149 20.5381 7.11353 20.3736 7.11353C19.0894 7.11353 17.8592 7.59854 16.8709 7.98825C16.1887 8.25726 15.5994 8.48959 15.193 8.48959C14.7363 8.48959 14.1437 8.25441 13.4574 7.98215C12.5397 7.61792 11.4995 7.2052 10.3984 7.2052C10.3721 7.2052 10.3462 7.20549 10.3208 7.20598C7.76044 7.24366 5.34116 8.70844 4.00739 11.0282Z" fill="#EE3F59"/>
<path d="M20.8625 0.000188994C19.312 0.0633365 17.4521 1.01773 16.3405 2.31983C15.3957 3.41429 14.4728 5.23907 14.7159 7.07842C14.7312 7.1935 14.8248 7.28232 14.9406 7.29127C15.0453 7.29943 15.1521 7.30357 15.2585 7.30366C16.7745 7.30366 18.41 6.46494 19.5269 5.11445C20.7024 3.68842 21.2968 1.85832 21.117 0.219041C21.1028 0.0905824 20.9898 -0.0048274 20.8625 0.000188994Z" fill="#EE3F59"/>
</svg>
