<svg width="40" height="40" viewBox="0 0 40 40" fill="none" xmlns="http://www.w3.org/2000/svg">
<path fill-rule="evenodd" clip-rule="evenodd" d="M26.667 7.5C26.667 6.11929 27.7862 5 29.167 5H32.5003C33.8811 5 35.0003 6.11929 35.0003 7.5V32.5C35.0003 33.8807 33.8811 35 32.5003 35H29.167C27.7862 35 26.667 33.8807 26.667 32.5V7.5ZM29.167 6.66667C28.7067 6.66667 28.3337 7.03977 28.3337 7.5V32.5C28.3337 32.9602 28.7067 33.3333 29.167 33.3333H32.5003C32.9606 33.3333 33.3337 32.9602 33.3337 32.5V7.5C33.3337 7.03977 32.9606 6.66667 32.5003 6.66667H29.167Z" fill="#EE3F59"/>
<path fill-rule="evenodd" clip-rule="evenodd" d="M15.833 17.5C15.833 16.1192 16.9523 15 18.333 15H21.6663C23.0471 15 24.1663 16.1192 24.1663 17.5V32.5C24.1663 33.8807 23.0471 35 21.6663 35H18.333C16.9523 35 15.833 33.8807 15.833 32.5V17.5ZM18.333 16.6667C17.8728 16.6667 17.4997 17.0397 17.4997 17.5V32.5C17.4997 32.9602 17.8728 33.3333 18.333 33.3333H21.6663C22.1266 33.3333 22.4997 32.9602 22.4997 32.5V17.5C22.4997 17.0397 22.1266 16.6667 21.6663 16.6667H18.333Z" fill="#EE3F59"/>
<path fill-rule="evenodd" clip-rule="evenodd" d="M5 27.5C5 26.1192 6.11929 25 7.5 25H10.8333C12.2141 25 13.3333 26.1192 13.3333 27.5V32.5C13.3333 33.8807 12.2141 35 10.8333 35H7.5C6.11929 35 5 33.8807 5 32.5V27.5ZM7.5 26.6667C7.03977 26.6667 6.66667 27.0397 6.66667 27.5V32.5C6.66667 32.9602 7.03977 33.3333 7.5 33.3333H10.8333C11.2936 33.3333 11.6667 32.9602 11.6667 32.5V27.5C11.6667 27.0397 11.2936 26.6667 10.8333 26.6667H7.5Z" fill="#EE3F59"/>
<path fill-rule="evenodd" clip-rule="evenodd" d="M11.97 26.3632L6.66667 31.6665L5.48816 30.488L10.7915 25.1847L11.97 26.3632Z" fill="#EE3F59"/>
<path fill-rule="evenodd" clip-rule="evenodd" d="M13.0684 29.4318L8.16082 34.3394L6.9823 33.1609L11.8899 28.2533L13.0684 29.4318Z" fill="#EE3F59"/>
<path fill-rule="evenodd" clip-rule="evenodd" d="M23.6873 25.4794L17.5 31.6666L16.3215 30.4881L22.5087 24.3009L23.6873 25.4794Z" fill="#EE3F59"/>
<path fill-rule="evenodd" clip-rule="evenodd" d="M23.6873 21.3128L17.5 27.4999L16.3215 26.3214L22.5087 20.1343L23.6873 21.3128Z" fill="#EE3F59"/>
<path fill-rule="evenodd" clip-rule="evenodd" d="M23.6873 17.146L17.5 23.3332L16.3215 22.1547L22.5087 15.9675L23.6873 17.146Z" fill="#EE3F59"/>
<path fill-rule="evenodd" clip-rule="evenodd" d="M20.4464 16.2204L17.5 19.1666L16.3215 17.9881L19.2678 15.0419L20.4464 16.2204Z" fill="#EE3F59"/>
<path fill-rule="evenodd" clip-rule="evenodd" d="M23.902 29.4316L18.741 34.5926L17.5625 33.4141L22.7235 28.2531L23.902 29.4316Z" fill="#EE3F59"/>
<path fill-rule="evenodd" clip-rule="evenodd" d="M32.8121 6.3549L28.3338 10.8332L27.1553 9.65475L31.6336 5.17639L32.8121 6.3549ZM34.521 8.81275L28.3338 14.9999L27.1553 13.8214L33.3424 7.63422L34.521 8.81275ZM34.5838 12.9166L28.3338 19.1666L27.1553 17.9881L33.4053 11.7381L34.5838 12.9166ZM34.521 17.1461L28.3338 23.3333L27.1553 22.1547L33.3424 15.9676L34.521 17.1461ZM34.521 21.3127L28.3338 27.4999L27.1553 26.3214L33.3424 20.1342L34.521 21.3127ZM34.521 25.4794L28.3338 31.6666L27.1553 30.4881L33.3424 24.3009L34.521 25.4794ZM34.5838 29.5833L29.5838 34.5833L28.4053 33.4048L33.4053 28.4048L34.5838 29.5833Z" fill="#EE3F59"/>
</svg>
