<svg width="40" height="40" viewBox="0 0 40 40" fill="none" xmlns="http://www.w3.org/2000/svg">
<path d="M28.2573 31.0532C28.143 31.3389 27.8166 31.4694 27.5391 31.3552L25.6949 30.5881C25.3685 30.4494 24.9931 30.5636 24.7973 30.8574C23.9649 32.1059 22.9041 33.1668 21.6555 33.9991C21.3618 34.195 21.2475 34.5704 21.3862 34.8968L22.1452 36.741C22.2594 37.0185 22.1288 37.3449 21.8432 37.4591L19.8358 38.2996C19.5583 38.4139 19.2319 38.2833 19.1177 37.9977L18.3506 36.1535C18.2119 35.8271 17.8691 35.6394 17.5264 35.7128C16.0575 36.0066 14.5642 36.0066 13.0872 35.7128C12.7444 35.6475 12.3935 35.8271 12.263 36.1535L11.4959 37.9977C11.3816 38.2752 11.0552 38.4139 10.7778 38.2996L8.77034 37.4673C8.63161 37.4102 8.52553 37.3041 8.4684 37.1654C8.41128 37.0266 8.41128 36.8797 8.4684 36.741L9.23548 34.8968C9.3742 34.5704 9.25996 34.195 8.96619 33.9991C7.71765 33.1668 6.65681 32.1059 5.82445 30.8574C5.6286 30.5636 5.25323 30.4494 4.92681 30.5881L3.08257 31.3552C2.79696 31.4694 2.47871 31.3389 2.36446 31.0532L1.53211 29.0458C1.41786 28.7684 1.54843 28.4419 1.83404 28.3277L3.67828 27.5606C4.00469 27.4219 4.19238 27.0792 4.11894 26.7364C3.82516 25.2676 3.82516 23.7742 4.11894 22.2972C4.18422 21.9545 4.00469 21.6036 3.67828 21.473L1.83404 20.7059C1.69531 20.6488 1.58923 20.5427 1.53211 20.404C1.47498 20.2653 1.47498 20.1184 1.53211 19.9797L2.36446 17.9722C2.42158 17.8335 2.52767 17.7274 2.66639 17.6703C2.80512 17.6132 2.95201 17.6132 3.09073 17.6703L4.93497 18.4373C5.26139 18.5761 5.63676 18.4618 5.83261 18.1681C6.66497 16.9195 7.72581 15.8587 8.97435 15.0263C9.26812 14.8305 9.38236 14.4551 9.24364 14.1287L8.47656 12.2844C8.41944 12.1457 8.41944 11.9988 8.47656 11.8601C8.53369 11.7214 8.63977 11.6153 8.7785 11.5582L10.7859 10.7258C11.0634 10.6116 11.3898 10.7421 11.5041 11.0277L12.2711 12.872C12.4262 13.2474 12.8587 13.4269 13.234 13.2718C13.6094 13.1168 13.789 12.6843 13.6339 12.3089L12.8668 10.4647C12.4343 9.42832 11.2511 8.9387 10.2147 9.36304L8.20727 10.1954C7.70949 10.3994 7.31779 10.7911 7.10563 11.297C6.90162 11.7948 6.90162 12.3497 7.10563 12.8557L7.64421 14.1532C6.616 14.9121 5.71021 15.8179 4.94313 16.8542L3.64564 16.3157C3.14786 16.1116 2.59295 16.1116 2.08701 16.3157C1.58923 16.5197 1.19753 16.9114 0.985362 17.4173L0.153007 19.4247C-0.0510022 19.9225 -0.0510022 20.4774 0.153007 20.9834C0.357015 21.4812 0.748712 21.8729 1.25465 22.085L2.55215 22.6236C2.3563 23.8966 2.3563 25.1696 2.55215 26.4427L1.25465 26.9812C0.218289 27.4137 -0.271332 28.597 0.153007 29.6333L0.985362 31.6163C1.4097 32.6527 2.60111 33.1423 3.63748 32.718L4.93497 32.1794C5.69388 33.2076 6.59968 34.1134 7.63605 34.8805L7.09747 36.178C6.89346 36.6757 6.89346 37.2306 7.09747 37.7366C7.30147 38.2344 7.69317 38.6261 8.19911 38.8382L10.2066 39.6706C11.2429 40.0949 12.4343 39.6053 12.8587 38.5689L13.3973 37.2714C14.6703 37.4673 15.9433 37.4673 17.2163 37.2714L17.7549 38.5689C18.0813 39.3523 18.8402 39.8256 19.6318 39.8256C19.8929 39.8256 20.154 39.7767 20.407 39.6706L22.4144 38.8382C23.4508 38.4057 23.9404 37.2225 23.5161 36.1861L22.9775 34.8886C24.0057 34.1297 24.9115 33.2239 25.6786 32.1875L26.9761 32.7261C28.0124 33.1586 29.2039 32.6608 29.6282 31.6245L30.4606 29.617C30.6646 29.1192 30.6646 28.5643 30.4606 28.0584C30.2565 27.5606 29.8648 27.1689 29.3589 26.9568L27.5147 26.1897C27.1393 26.0346 26.7068 26.2142 26.5517 26.5895C26.3967 26.9649 26.5762 27.3974 26.9516 27.5525L28.7958 28.3195C28.9346 28.3767 29.0407 28.4827 29.0978 28.6215C29.1549 28.7602 29.1549 28.9071 29.0978 29.0458L28.2573 31.0532Z" fill="#EE3F59"/>
<path d="M15.2664 19.4655C15.6745 19.4655 16.0009 19.131 16.0009 18.723C16.0009 18.3149 15.6663 17.9885 15.2583 17.9885C15.2583 17.9885 15.2583 17.9885 15.2501 17.9885C13.5038 18.0048 11.8717 18.6903 10.6477 19.9307C9.42363 21.1711 8.75448 22.8195 8.7708 24.5576C8.78712 26.3039 9.47259 27.936 10.713 29.16C11.9452 30.3759 13.5691 31.0369 15.2909 31.0369C15.3072 31.0369 15.3236 31.0369 15.3399 31.0369C17.0862 31.0206 18.7183 30.3351 19.9423 29.0948C21.1664 27.8544 21.8355 26.206 21.8192 24.4678C21.8192 24.0598 21.4846 23.7334 21.0766 23.7334C21.0766 23.7334 21.0766 23.7334 21.0684 23.7334C20.6604 23.7334 20.334 24.068 20.334 24.476C20.3422 25.8225 19.8281 27.0955 18.8815 28.0584C17.9349 29.0213 16.67 29.5517 15.3236 29.5599C15.3072 29.5599 15.2991 29.5599 15.2828 29.5599C13.9526 29.5599 12.6878 29.0458 11.7412 28.1074C10.7782 27.1608 10.2478 25.8959 10.2397 24.5494C10.2315 23.203 10.7456 21.93 11.6922 20.9671C12.6551 20.0123 13.92 19.4737 15.2664 19.4655Z" fill="#EE3F59"/>
<path d="M38.319 14.4387C39.2411 14.4387 40.0001 13.688 40.0001 12.7577V11.1828C40.0001 10.2606 39.2493 9.50172 38.319 9.50172H37.4622C37.2419 8.68569 36.9236 7.90229 36.4993 7.17602L37.1113 6.56399C37.7641 5.91117 37.7641 4.84216 37.1113 4.18933L35.9933 3.07136C35.6751 2.75311 35.2507 2.58174 34.8101 2.58174C34.3613 2.58174 33.9369 2.75311 33.6268 3.07136L33.0148 3.68339C32.2804 3.25905 31.5051 2.93264 30.6891 2.72047V1.85547C30.6891 0.933351 29.9383 0.174438 29.0081 0.174438H27.425C26.5028 0.174438 25.7439 0.925191 25.7439 1.85547V2.72047C24.9279 2.9408 24.1445 3.25905 23.4182 3.68339L22.8062 3.07136C22.4879 2.75311 22.0636 2.58174 21.6229 2.58174C21.1741 2.58174 20.7498 2.75311 20.4397 3.07136L19.3217 4.18933C18.6689 4.84216 18.6689 5.91117 19.3217 6.56399L19.9338 7.17602C19.5094 7.91045 19.183 8.68569 18.9708 9.50172H18.1058C17.1837 9.50172 16.4248 10.2525 16.4248 11.1828V12.7659C16.4248 13.688 17.1756 14.4469 18.1058 14.4469H18.9708C19.1912 15.2629 19.5094 16.0463 19.9338 16.7726L19.3217 17.3846C18.6689 18.0374 18.6689 19.1065 19.3217 19.7593L20.4397 20.8772C20.758 21.1955 21.1823 21.3669 21.6229 21.3669C22.0718 21.3669 22.4961 21.1955 22.8062 20.8772L23.4182 20.2652C24.1527 20.6896 24.9279 21.016 25.7439 21.2281V22.0931C25.7439 23.0153 26.4947 23.7742 27.425 23.7742H29.0081C29.9302 23.7742 30.6891 23.0234 30.6891 22.0931V21.22C31.5051 20.9997 32.2885 20.6814 33.0148 20.2571L33.6268 20.8691C33.9451 21.1873 34.3694 21.3587 34.8101 21.3587C35.2589 21.3587 35.6832 21.1873 35.9933 20.8691L37.1113 19.7511C37.7641 19.0983 37.7641 18.0293 37.1113 17.3765L36.4993 16.7644C36.9236 16.03 37.25 15.2548 37.4622 14.4387H38.319ZM36.1484 13.5574C35.9444 14.6019 35.5363 15.5812 34.9406 16.4707C34.7448 16.7644 34.7856 17.1561 35.0304 17.4009L36.0586 18.4291C36.1402 18.5107 36.1402 18.6332 36.0586 18.7148L34.9406 19.8327C34.8917 19.8817 34.8346 19.8898 34.8019 19.8898C34.7611 19.8898 34.7122 19.8817 34.6632 19.8327L33.635 18.8045C33.382 18.5515 32.9903 18.5189 32.7047 18.7148C31.8152 19.3105 30.836 19.7103 29.7915 19.9225C29.4487 19.9878 29.1958 20.2979 29.1958 20.6488V22.1013C29.1958 22.2074 29.106 22.2972 28.9999 22.2972H27.4168C27.3107 22.2972 27.221 22.2074 27.221 22.1013V20.6488C27.221 20.2979 26.968 19.9959 26.6252 19.9225C25.5807 19.7185 24.6015 19.3105 23.712 18.7148C23.5896 18.6332 23.4427 18.5924 23.304 18.5924C23.1163 18.5924 22.9204 18.6658 22.7817 18.8127L21.7535 19.8409C21.7046 19.8898 21.6474 19.898 21.6148 19.898C21.574 19.898 21.525 19.8898 21.4761 19.8409L20.3581 18.7229C20.2765 18.6413 20.2765 18.5189 20.3581 18.4373L21.3863 17.4091C21.6393 17.1561 21.6719 16.7644 21.4761 16.4788C20.8804 15.5893 20.4805 14.6101 20.2683 13.5656C20.203 13.2228 19.893 12.9699 19.5421 12.9699H18.0895C17.9834 12.9699 17.8937 12.8801 17.8937 12.774V11.1828C17.8937 11.0767 17.9834 10.9869 18.0895 10.9869H19.5421C19.893 10.9869 20.1949 10.7339 20.2683 10.3912C20.4723 9.34667 20.8804 8.36743 21.4761 7.47795C21.6719 7.18418 21.6311 6.79248 21.3863 6.54767L20.3581 5.51947C20.3091 5.47051 20.301 5.41338 20.301 5.38074C20.301 5.33994 20.3091 5.29098 20.3581 5.24202L21.4679 4.11589C21.5169 4.06693 21.574 4.05877 21.6066 4.05877C21.6474 4.05877 21.6964 4.06693 21.7454 4.11589L22.7736 5.14409C23.0265 5.39706 23.4182 5.4297 23.7038 5.23386C24.5933 4.63815 25.5726 4.23829 26.6171 4.02612C26.9598 3.96084 27.2128 3.65075 27.2128 3.29985V1.85547C27.2128 1.74939 27.3026 1.65962 27.4086 1.65962H28.9917C29.0978 1.65962 29.1876 1.74939 29.1876 1.85547V3.30801C29.1876 3.65891 29.4406 3.96084 29.7833 4.03428C30.8278 4.23829 31.8071 4.64631 32.6965 5.24202C32.9903 5.43786 33.382 5.39706 33.6268 5.15225L34.655 4.12405C34.704 4.07509 34.7611 4.06693 34.7938 4.06693C34.8346 4.06693 34.8835 4.07509 34.9325 4.12405L36.0504 5.24202C36.1321 5.32362 36.1321 5.44603 36.0504 5.52763L35.0222 6.55583C34.7693 6.8088 34.7366 7.2005 34.9325 7.48611C35.5282 8.37559 35.928 9.35483 36.1402 10.3994C36.2055 10.7421 36.5156 10.9951 36.8665 10.9951H38.319C38.4251 10.9951 38.5149 11.0848 38.5149 11.1909V12.774C38.5149 12.8801 38.4251 12.9699 38.319 12.9699H36.8665C36.5156 12.9617 36.2137 13.2065 36.1484 13.5574Z" fill="#EE3F59"/>
<path d="M28.208 7.22498C25.5885 7.22498 23.4668 9.35483 23.4668 11.9661C23.4668 14.5856 25.5966 16.7073 28.208 16.7073C30.8274 16.7073 32.9491 14.5775 32.9491 11.9661C32.9491 9.35483 30.8193 7.22498 28.208 7.22498ZM28.208 15.2303C26.4045 15.2303 24.9438 13.7696 24.9438 11.9661C24.9438 10.1627 26.4045 8.702 28.208 8.702C30.0114 8.702 31.4721 10.1627 31.4721 11.9661C31.4721 13.7696 30.0032 15.2303 28.208 15.2303Z" fill="#EE3F59"/>
</svg>
