<svg width="40" height="40" viewBox="0 0 40 40" fill="none" xmlns="http://www.w3.org/2000/svg">
<path d="M28.1841 22.5984C29.5455 20.8032 30.2651 18.6605 30.2651 16.4017C30.2651 13.6323 29.1789 11.0362 27.2067 9.09156C25.2347 7.14737 22.6212 6.09744 19.8514 6.13746C17.1673 6.17545 14.6385 7.25248 12.7308 9.17018C10.8232 11.0878 9.75921 13.6223 9.73481 16.3067C9.71393 18.608 10.4377 20.7893 11.8279 22.6148C14.0847 25.5784 15.3277 29.2086 15.3277 32.8366V36.8064C15.3277 38.5673 16.7602 39.9999 18.5211 39.9999H21.4916C23.2525 39.9999 24.685 38.5672 24.685 36.8064V32.8369C24.6851 29.1687 25.8863 25.6282 28.1841 22.5984ZM12.875 21.8175C11.6635 20.2266 11.0327 18.3251 11.0509 16.3187C11.0946 11.4986 15.0509 7.52168 19.87 7.4535C22.2876 7.42104 24.5636 8.33399 26.2826 10.0289C28.002 11.7242 28.949 13.9875 28.949 16.4018C28.949 18.3709 28.3219 20.2387 27.1354 21.8032C24.7143 24.9957 23.4108 28.7202 23.3574 32.5894H16.642C16.587 28.7577 15.2542 24.9417 12.875 21.8175ZM16.6438 36.3604V35.8277L23.369 36.5981V36.8064C23.369 36.9161 23.3576 37.023 23.3395 37.1275L16.6438 36.3604ZM16.6438 34.5029V33.9055H23.369V35.2734L16.6438 34.5029ZM18.5211 38.6838C17.8142 38.6838 17.1978 38.2908 16.8776 37.7119L22.5429 38.361C22.2427 38.5646 21.8809 38.6838 21.4917 38.6838H18.5211V38.6838Z" fill="#EE3F59"/>
<path d="M13.4927 17.3916C13.4414 17.0472 13.4169 16.6935 13.4201 16.3402C13.4235 15.9768 13.1316 15.6795 12.7681 15.6762C12.4072 15.673 12.1074 15.9648 12.1041 16.3282C12.1002 16.7502 12.1295 17.1733 12.191 17.5858C12.2397 17.9124 12.5204 18.1469 12.841 18.1469C12.8733 18.1469 12.9061 18.1445 12.939 18.1396C13.2984 18.0859 13.5463 17.7511 13.4927 17.3916Z" fill="#EE3F59"/>
<path d="M17.3654 27.3874C17.4335 27.3874 17.5028 27.3767 17.5711 27.3544C17.9163 27.2408 18.1042 26.8689 17.9907 26.5237C17.2613 24.3059 16.1744 22.2395 14.76 20.3823C14.5262 20.0753 14.3191 19.7483 14.1444 19.4102C13.9775 19.0873 13.5805 18.9609 13.2576 19.1278C12.9348 19.2947 12.8083 19.6918 12.9752 20.0146C13.1849 20.4202 13.4331 20.8121 13.713 21.1797C15.0384 22.9201 16.057 24.8564 16.7404 26.9348C16.8315 27.2118 17.0888 27.3874 17.3654 27.3874Z" fill="#EE3F59"/>
<path d="M26.9146 18.6552C26.5808 18.5114 26.1936 18.6654 26.0499 18.9992C25.8414 19.4834 25.5716 19.9452 25.248 20.3718C25.0284 20.6613 25.0852 21.0741 25.3747 21.2938C25.4936 21.384 25.6333 21.4275 25.7718 21.4275C25.9707 21.4275 26.1673 21.3377 26.2967 21.167C26.6844 20.6557 27.008 20.1015 27.2586 19.5199C27.4024 19.1861 27.2484 18.7989 26.9146 18.6552Z" fill="#EE3F59"/>
<path d="M20.0001 9.82163C23.6284 9.82163 26.5802 12.7735 26.5802 16.4019C26.5802 16.6081 26.5708 16.816 26.5521 17.0196C26.5189 17.3816 26.7853 17.7018 27.1472 17.7351C27.1677 17.7369 27.1879 17.7379 27.2081 17.7379C27.5444 17.7379 27.8314 17.4814 27.8627 17.1399C27.885 16.8965 27.8964 16.6481 27.8964 16.4019C27.8964 12.0478 24.3541 8.50549 20.0001 8.50549C19.6367 8.50549 19.342 8.80013 19.342 9.16356C19.342 9.52699 19.6367 9.82163 20.0001 9.82163Z" fill="#EE3F59"/>
<path d="M20.0001 5.00131C20.3635 5.00131 20.6582 4.70667 20.6582 4.34324V0.658066C20.6582 0.294638 20.3635 0 20.0001 0C19.6367 0 19.342 0.294638 19.342 0.658066V4.34324C19.342 4.70667 19.6367 5.00131 20.0001 5.00131Z" fill="#EE3F59"/>
<path d="M13.3421 6.30164C13.464 6.51283 13.6851 6.63085 13.9126 6.63085C14.0242 6.63085 14.1374 6.60242 14.241 6.54258C14.5557 6.36087 14.6636 5.95839 14.4819 5.64366L12.6402 2.45335C12.4584 2.13854 12.056 2.0307 11.7413 2.21241C11.4266 2.39413 11.3186 2.7966 11.5004 3.11133L13.3421 6.30164Z" fill="#EE3F59"/>
<path d="M34.0634 23.8759L30.8731 22.0342C30.5582 21.8524 30.1558 21.9604 29.9741 22.2752C29.7924 22.5899 29.9003 22.9924 30.2151 23.1741L33.4054 25.0158C33.509 25.0756 33.6221 25.1041 33.7338 25.1041C33.9612 25.1041 34.1824 24.986 34.3043 24.7749C34.486 24.4601 34.3781 24.0577 34.0634 23.8759Z" fill="#EE3F59"/>
<path d="M5.93675 9.15724L9.12706 10.999C9.23068 11.0588 9.34378 11.0872 9.45548 11.0872C9.68291 11.0872 9.9041 10.9691 10.026 10.758C10.2077 10.4433 10.0999 10.0408 9.78504 9.85909L6.59473 8.01738C6.28 7.83558 5.87753 7.94351 5.69581 8.25833C5.5141 8.57306 5.62193 8.97544 5.93675 9.15724Z" fill="#EE3F59"/>
<path d="M35.8589 15.8585H32.1737C31.8103 15.8585 31.5156 16.1532 31.5156 16.5166C31.5156 16.88 31.8103 17.1747 32.1737 17.1747H35.8589C36.2223 17.1747 36.5169 16.88 36.5169 16.5166C36.5169 16.1532 36.2224 15.8585 35.8589 15.8585Z" fill="#EE3F59"/>
<path d="M8.4847 16.5166C8.4847 16.1532 8.19006 15.8585 7.82664 15.8585H4.14146C3.77804 15.8585 3.4834 16.1532 3.4834 16.5166C3.4834 16.88 3.77804 17.1747 4.14146 17.1747H7.82664C8.19015 17.1747 8.4847 16.88 8.4847 16.5166Z" fill="#EE3F59"/>
<path d="M30.5446 11.0873C30.6562 11.0873 30.7694 11.0589 30.873 10.999L34.0633 9.15731C34.3781 8.97559 34.486 8.57312 34.3043 8.25839C34.1226 7.94366 33.72 7.83573 33.4054 8.01745L30.2151 9.85916C29.9003 10.0409 29.7924 10.4433 29.9741 10.7581C30.096 10.9692 30.3173 11.0873 30.5446 11.0873Z" fill="#EE3F59"/>
<path d="M9.12704 22.0343L5.93673 23.876C5.622 24.0577 5.51408 24.4602 5.69579 24.7749C5.81767 24.986 6.03887 25.1041 6.26629 25.1041C6.3779 25.1041 6.49109 25.0757 6.59471 25.0159L9.78502 23.1742C10.0997 22.9925 10.2077 22.59 10.026 22.2753C9.84433 21.9604 9.4416 21.8526 9.12704 22.0343Z" fill="#EE3F59"/>
<path d="M25.7589 6.54258C25.8625 6.60242 25.9756 6.63085 26.0873 6.63085C26.3147 6.63085 26.5359 6.51275 26.6578 6.30164L28.4995 3.11133C28.6812 2.7966 28.5733 2.39413 28.2586 2.21241C27.9439 2.0307 27.5414 2.13854 27.3596 2.45335L25.5179 5.64366C25.3362 5.95839 25.4441 6.36087 25.7589 6.54258Z" fill="#EE3F59"/>
</svg>
