<svg width="31" height="30" viewBox="0 0 31 30" fill="none" xmlns="http://www.w3.org/2000/svg">
<path d="M30.1725 29.2698L29.5374 28.6647C29.2236 28.2509 28.8898 27.8846 28.5259 27.5507L28.5197 27.5457C28.1463 27.2065 27.7583 26.8839 27.3557 26.578C27.0331 26.3563 26.5897 26.0892 26.0254 25.7766C25.5616 25.5678 25.199 25.2015 25.0027 24.7464L24.9977 24.7339L24.9377 24.7039C25.2027 24.6776 25.4453 24.6289 25.6778 24.5601L25.6491 24.5676L26.3617 24.3713C26.6568 24.2788 26.9981 24.2188 27.3519 24.205H27.3594C27.732 24.19 28.0833 24.13 28.4184 24.0313L28.3872 24.0388C28.5489 23.9988 28.7151 23.9533 28.886 23.9025C29.0569 23.8516 29.2032 23.8062 29.3249 23.7662V23.5549C29.204 23.374 29.0577 23.1673 28.886 22.9348C28.7222 22.7122 28.5384 22.5184 28.3321 22.3497L28.3259 22.3447C27.8016 21.8812 27.2586 21.4328 26.6968 20.9994C26.2017 20.613 25.6403 20.2192 25.0577 19.8541L24.9727 19.8041C24.6651 19.6016 24.3126 19.414 23.9412 19.2603L23.8987 19.2453C23.5253 19.0936 23.1573 18.9273 22.7947 18.7464C22.6735 18.6864 22.5322 18.6339 22.3859 18.5976L22.3722 18.5951C22.2259 18.5651 22.1009 18.4901 22.0096 18.3838L22.0083 18.3826C21.8358 18.155 21.6845 17.8962 21.5645 17.6212L21.5545 17.5962C21.4336 17.3136 21.3028 17.0423 21.1619 16.7822C20.8593 16.1971 20.5668 15.6024 20.2842 14.9981C20.0017 14.3938 19.7304 13.7887 19.4703 13.1827C19.2894 12.7793 19.1231 12.3763 18.9715 11.9737C18.8039 11.5312 18.6151 11.1523 18.3951 10.796L18.4113 10.8248C17.8712 9.90456 17.3324 9.1194 16.7472 8.37299L16.7822 8.4205C16.2034 7.69035 15.6032 7.03772 14.9581 6.43259L14.9481 6.42384C14.3117 5.82621 13.6266 5.25609 12.9077 4.72849L12.8464 4.68473C12.0996 4.14211 11.2828 3.60784 10.3959 3.08189C10.0396 2.87185 9.62575 2.70056 9.18941 2.59054L9.15691 2.58304L7.76537 2.23547L6.97895 2.17545C6.71723 2.15545 6.45509 2.14545 6.19254 2.14545C6.0075 2.04793 5.84872 1.93165 5.70869 1.79662C5.57116 1.66535 5.42238 1.54157 5.26735 1.4278L5.25484 1.41905C4.49844 0.977704 3.6195 0.57387 2.70056 0.256303L2.59429 0.223797C2.35299 0.0825172 2.06293 0 1.75412 0C1.53407 0 1.32278 0.0425089 1.13024 0.118775L1.14149 0.115024C0.666389 0.303813 0.303813 0.687643 0.147531 1.16524L0.14378 1.17775C0.0525109 1.39279 0 1.64159 0 1.90415C0 2.36424 0.162534 2.78558 0.43384 3.1144L0.43134 3.11065C0.884768 3.71494 1.23234 4.19004 1.47406 4.53594C1.65493 4.7785 1.84163 5.03063 2.03417 5.29235C2.21046 5.5274 2.36674 5.79621 2.49302 6.08002L2.50302 6.10627C2.57304 6.25505 2.6343 6.43259 2.67931 6.61513L2.68306 6.63513C2.72307 6.80683 2.77349 6.99354 2.83434 7.19525C3.01521 7.65868 3.1865 8.13378 3.3482 8.62055C3.52448 9.15191 3.71952 9.602 3.94582 10.0308L3.92207 9.98083C4.04292 10.2025 4.1642 10.4193 4.28589 10.631C4.40758 10.8427 4.53844 11.0494 4.67847 11.2511C4.75974 11.3736 4.86226 11.4749 4.97979 11.5537L4.98354 11.5562C5.10731 11.6462 5.18858 11.7875 5.19483 11.9475V11.9487C5.0523 12.1588 4.95603 12.4101 4.92353 12.6814L4.92228 12.6889C4.87852 13.0052 4.816 13.2865 4.73099 13.5578L4.74099 13.5203C4.46218 14.353 4.30215 15.3132 4.30215 16.3096C4.30215 16.6322 4.3184 16.9498 4.35216 17.2636L4.34841 17.2248C4.42342 18.4226 4.78475 19.5228 5.36362 20.4755L5.34611 20.4443C5.59241 20.8131 5.85622 21.1344 6.14753 21.4282C6.35757 21.6633 6.66264 21.8108 7.00271 21.8108C7.19275 21.8108 7.37279 21.7645 7.53032 21.682L7.52407 21.6845C7.96166 21.527 8.27297 21.1269 8.29548 20.6506V20.6481C8.35549 20.0554 8.44551 19.5253 8.56928 19.0077L8.55303 19.0915C8.58304 19.0127 8.60054 18.9227 8.60054 18.8277C8.60054 18.8089 8.59929 18.7902 8.59804 18.7714V18.7739C8.58804 18.6831 8.64347 18.5972 8.76433 18.5164V18.5764C8.88518 18.8589 9.01104 19.1411 9.1419 19.4228C9.27276 19.7045 9.40863 19.9867 9.54949 20.2692C9.91832 20.8306 10.3096 21.3207 10.7397 21.772L10.736 21.7683C11.1673 22.2334 11.6374 22.651 12.145 23.0198L12.1725 23.0385C12.4376 23.2411 12.6701 23.4599 12.8802 23.6987L12.8852 23.7037C13.0827 23.9362 13.319 24.1275 13.5853 24.2713L13.5978 24.2776V24.2476H13.6578C13.6091 24.1388 13.5303 24.0513 13.4328 23.9912L13.4303 23.99C13.3315 23.935 13.2465 23.88 13.1665 23.82L13.1727 23.8237C12.9919 23.6428 12.8052 23.4411 12.6126 23.2186C12.4201 22.996 12.2438 22.7843 12.0838 22.5835C11.6603 21.9983 11.2565 21.387 10.8723 20.7493C10.488 20.1117 10.125 19.4636 9.78329 18.8052C9.62159 18.4826 9.4653 18.15 9.31444 17.8075C9.16358 17.4649 9.01729 17.1323 8.8756 16.8098C8.81434 16.686 8.77183 16.5434 8.75557 16.3922V16.3859C8.74807 16.2421 8.66555 16.1184 8.54553 16.0546L8.54303 16.0533C8.39175 16.3109 8.22421 16.5334 8.03292 16.7347L8.03417 16.7335C7.83538 16.9423 7.67285 17.1886 7.55657 17.4586L7.55032 17.4749C7.37404 17.9025 7.24526 18.3988 7.189 18.9177L7.1865 18.9414C7.12648 19.4757 7.06605 20.025 7.00521 20.5893L6.9452 20.6193L6.91519 20.6493C6.59012 20.583 6.32257 20.3755 6.17754 20.0954L6.17504 20.0892C6.02334 19.7966 5.88748 19.5091 5.76745 19.2265C5.45739 18.4301 5.26485 17.5086 5.23859 16.5459V16.5347C5.22734 16.3822 5.22234 16.2034 5.22234 16.0246C5.22234 15.1919 5.35362 14.3892 5.59617 13.6366L5.58116 13.6916C5.64117 13.4699 5.77204 13.0965 5.97374 12.5714C6.17545 12.0463 6.21588 11.6833 6.09502 11.4824C6.03251 11.2761 5.91623 11.1023 5.7637 10.9698L5.76245 10.9685C5.60992 10.836 5.47114 10.6972 5.34361 10.5497L5.33986 10.5447C5.199 10.3413 5.06314 10.1246 4.93228 9.89456C4.80142 9.66451 4.68556 9.4378 4.5847 9.21442C4.37841 8.73682 4.16712 8.13795 3.99208 7.52282L3.96458 7.41154C3.76578 6.70515 3.54449 6.10752 3.28193 5.5324L3.31444 5.61242C3.17566 5.29735 3.01438 5.0248 2.82684 4.776L2.83434 4.786C2.63096 4.51427 2.44926 4.25714 2.28923 4.01459C2.08585 3.75287 1.88414 3.50073 1.6841 3.25818C1.48031 3.01188 1.29902 2.73432 1.15149 2.43676L1.14024 2.41175C1.08022 2.29048 1.02771 2.1492 0.991456 2.00292L0.988956 1.98916C0.975203 1.94541 0.967701 1.89414 0.967701 1.84288C0.967701 1.74036 0.997708 1.64409 1.05022 1.56408L1.04897 1.56658C1.06272 1.49656 1.09523 1.4353 1.14024 1.38529C1.189 1.34153 1.25151 1.30902 1.31902 1.29527H1.32153C1.4278 1.22651 1.55657 1.18525 1.6966 1.18525C1.80163 1.18525 1.9029 1.209 1.99166 1.25151L1.98791 1.25026C2.26172 1.32778 2.48302 1.40529 2.69931 1.49406L2.6543 1.47781C3.03688 1.63951 3.38987 1.79579 3.71327 1.94666C4.08585 2.12419 4.40342 2.31173 4.70348 2.52053L4.68097 2.50552C4.84267 2.60638 5.00396 2.71723 5.16483 2.83809C5.32569 2.95895 5.49698 3.08023 5.67868 3.20192H6.10252C6.42509 3.20192 6.76766 3.21734 7.13023 3.24818C7.49656 3.27693 7.83538 3.3457 8.15795 3.45322L8.12794 3.44447C8.72932 3.62326 9.24568 3.83455 9.73578 4.08835L9.68452 4.0646C10.1788 4.31632 10.6476 4.58345 11.0911 4.86601C11.8275 5.32486 12.4638 5.79496 13.0627 6.30881L13.0415 6.29131C13.6666 6.82642 14.2342 7.37529 14.7668 7.95541L14.7793 7.97041C15.2994 8.53803 15.7958 9.15441 16.2496 9.80079L16.2884 9.85955C16.706 10.4497 17.1273 11.1323 17.5061 11.84L17.5587 11.9462C17.6599 12.1388 17.7624 12.3751 17.8512 12.6164L17.865 12.6576C17.9458 12.8894 18.0363 13.1269 18.1363 13.3703C18.358 13.8746 18.5955 14.3834 18.8489 14.8969C19.1023 15.4103 19.3399 15.9096 19.5616 16.3947L20.2267 17.8462C20.4605 18.3538 20.7218 18.7914 21.0256 19.1952L21.0119 19.1765C21.2657 19.4478 21.6045 19.6378 21.9846 19.7041L21.9946 19.7054C22.4547 19.8204 22.8423 19.9504 23.2173 20.1042L23.1586 20.0829C23.3374 20.1642 23.5674 20.2505 23.8037 20.3267L23.8537 20.3405C24.1188 20.4218 24.3488 20.5293 24.5601 20.6643L24.5489 20.6581C24.9577 20.8869 25.304 21.1119 25.6341 21.357L25.6078 21.3382C25.9504 21.5899 26.293 21.8275 26.6355 22.0508C26.7972 22.1717 27.0686 22.348 27.4495 22.5797C27.8304 22.8114 28.0321 23.0281 28.0546 23.2298C27.9121 23.2248 27.7433 23.2211 27.5745 23.2211C26.9594 23.2211 26.3542 23.2611 25.7616 23.3386L25.8316 23.3311C25.1615 23.4211 24.5539 23.5849 23.9825 23.8187L24.0325 23.8012C23.8912 23.8625 23.7224 23.9187 23.5474 23.9625L23.5236 23.9675C23.3461 23.9937 23.2086 24.1363 23.1911 24.3138V24.3151C23.2673 24.4101 23.3286 24.5201 23.3699 24.6401L23.3724 24.6476C23.4149 24.7752 23.4661 24.8852 23.5287 24.9877L23.5249 24.9802C23.6737 25.244 23.8337 25.4716 24.0138 25.6816L24.0087 25.6754C24.185 25.8929 24.3838 26.0817 24.6039 26.243L24.6126 26.2492C24.816 26.4109 25.0277 26.5772 25.2478 26.7481C25.449 26.9056 25.6766 27.0606 25.9129 27.2007L25.9429 27.2169C26.298 27.4345 26.7106 27.642 27.1407 27.8158L27.1982 27.8358C27.6658 28.0233 28.0671 28.2409 28.4397 28.4997L28.4197 28.4859C28.6622 28.6268 28.9039 28.7831 29.1448 28.9548C29.3857 29.1265 29.6174 29.2928 29.84 29.4536C29.9312 29.5437 30.0112 29.6437 30.0788 29.7524L30.0825 29.7587C30.1963 29.8887 30.3538 29.9775 30.5326 30H30.5364V29.94C30.4263 29.8562 30.3451 29.7399 30.3063 29.6062L30.3051 29.6012C30.2738 29.4736 30.2275 29.3624 30.165 29.2598L30.1675 29.2648L30.1725 29.2698ZM6.9477 5.2586C6.786 5.2586 6.63472 5.2636 6.49385 5.2736C6.35007 5.2836 6.2163 5.30986 6.09002 5.35237L6.10127 5.34861V5.37862H6.16128C6.24213 5.49948 6.34382 5.63534 6.46635 5.78621C6.58887 5.93707 6.69973 6.08335 6.79892 6.22505L7.28277 7.22275L7.34278 7.19275C7.48406 7.09023 7.59283 6.9527 7.65784 6.79142L7.66035 6.78516C7.72536 6.61138 7.76287 6.40884 7.76287 6.19879C7.76287 6.17629 7.76287 6.15378 7.76162 6.13128V6.13503C7.70535 6.08002 7.6591 6.015 7.62659 5.94249L7.62534 5.93874L7.52407 5.71119C7.4578 5.60617 7.36528 5.52365 7.25651 5.47114L7.25276 5.46989C7.13524 5.41363 7.03522 5.34236 6.9477 5.2586Z" fill="#EE3F59"/>
</svg>
