<svg width="34" height="30" viewBox="0 0 34 30" fill="none" xmlns="http://www.w3.org/2000/svg">
<path d="M16.859 11.9942C16.4644 11.9942 16.0736 12.0719 15.709 12.223C15.3444 12.374 15.0131 12.5953 14.7341 12.8744C14.455 13.1534 14.2337 13.4847 14.0827 13.8493C13.9316 14.2139 13.8539 14.6047 13.8539 14.9993C13.8539 15.394 13.9316 15.7847 14.0827 16.1493C14.2337 16.5139 14.455 16.8452 14.7341 17.1243C15.0131 17.4033 15.3444 17.6247 15.709 17.7757C16.0736 17.9267 16.4644 18.0044 16.859 18.0044C17.2537 18.0044 17.6444 17.9267 18.009 17.7757C18.3736 17.6247 18.7049 17.4033 18.984 17.1243C19.263 16.8452 19.4844 16.5139 19.6354 16.1493C19.7864 15.7847 19.8642 15.394 19.8642 14.9993C19.8642 14.6047 19.7864 14.2139 19.6354 13.8493C19.4844 13.4847 19.263 13.1534 18.984 12.8744C18.7049 12.5953 18.3736 12.374 18.009 12.223C17.6444 12.0719 17.2537 11.9942 16.859 11.9942ZM8.44076 20.9773L7.77763 20.8087C2.83513 19.5597 0 17.4397 0 14.9937C0 12.5477 2.83513 10.4277 7.77763 9.17874L8.44076 9.01155L8.62761 9.66906C9.1283 11.3939 9.76872 13.0751 10.5425 14.6959L10.6844 14.9951L10.5425 15.2944C9.76743 16.9146 9.12697 18.5959 8.62761 20.3212L8.44076 20.9773ZM7.46996 10.7143C3.7132 11.7694 1.40773 13.3837 1.40773 14.9937C1.40773 16.6023 3.7132 18.2166 7.46996 19.2731C7.9294 17.8119 8.48413 16.3823 9.13057 14.9937C8.48339 13.6054 7.92864 12.1758 7.46996 10.7143ZM25.2773 20.9773L25.0905 20.3183C24.5903 18.5936 23.9494 16.9128 23.1742 15.2929L23.0323 14.9937L23.1742 14.6945C23.9491 13.074 24.59 11.3928 25.0905 9.66765L25.2773 9.01015L25.9418 9.17733C30.8829 10.4263 33.7181 12.5463 33.7181 14.9937C33.7181 17.4411 30.8829 19.5597 25.9418 20.8087L25.2773 20.9773ZM24.5875 14.9937C25.2619 16.4534 25.8196 17.8878 26.2481 19.2731C30.0063 18.2166 32.3103 16.6023 32.3103 14.9937C32.3103 13.3837 30.0049 11.7708 26.2481 10.7143C25.7893 12.1757 25.2345 13.6053 24.5875 14.9937ZM7.46012 10.7073L7.27327 10.0512C5.8838 5.15365 6.30528 1.64416 8.42952 0.419067C10.513 -0.783544 13.8581 0.636829 17.3634 4.23483L17.8411 4.72515L17.3634 5.21546C16.1179 6.51025 14.9799 7.90432 13.9607 9.38386L13.771 9.65501L13.4409 9.68311C11.6481 9.82444 9.86968 10.111 8.12325 10.5401L7.46012 10.7073ZM10.1239 1.39268C9.74733 1.39268 9.41437 1.47416 9.13338 1.63573C7.73689 2.44075 7.48963 5.23935 8.452 9.01577C9.94913 8.68271 11.4664 8.44759 12.9941 8.3119C13.8756 7.05855 14.8386 5.8646 15.877 4.73779C13.6853 2.60372 11.6103 1.39268 10.1239 1.39268ZM23.5956 29.9996C23.5942 29.9996 23.5942 29.9996 23.5956 29.9996C21.5936 29.9996 19.0226 28.4922 16.3547 25.7526L15.877 25.2623L16.3547 24.7719C17.5999 23.4767 18.7374 22.0822 19.756 20.6021L19.9456 20.331L20.2744 20.3029C22.0681 20.1623 23.8475 19.8762 25.5948 19.4473L26.2579 19.2801L26.4462 19.9376C27.8329 24.8324 27.4128 28.3432 25.2886 29.5669C24.7726 29.8587 24.1883 30.008 23.5956 29.9996ZM17.8411 25.2496C20.0327 27.3837 22.1078 28.5947 23.5942 28.5947H23.5956C23.9707 28.5947 24.3051 28.5132 24.5847 28.3517C25.9812 27.5467 26.2298 24.7467 25.2661 20.9702C23.7686 21.3038 22.2508 21.5389 20.7226 21.6741C19.8422 22.9283 18.8795 24.1228 17.8411 25.2496ZM26.2579 10.7073L25.5948 10.5401C23.8477 10.1098 22.0683 9.82318 20.2744 9.68311L19.9456 9.65501L19.756 9.38386C18.7379 7.90385 17.6004 6.50973 16.3547 5.21546L15.877 4.72515L16.3547 4.23483C19.8585 0.638234 23.2022 -0.782139 25.2886 0.419067C27.4128 1.64416 27.8343 5.15365 26.4462 10.0498L26.2579 10.7073ZM20.7226 8.3119C22.327 8.45802 23.8513 8.69545 25.2661 9.01577C26.2298 5.23935 25.9812 2.44075 24.5847 1.63573C23.1966 0.833518 20.5877 2.06282 17.8411 4.73779C18.879 5.86465 19.8415 7.0586 20.7226 8.3119ZM10.1239 29.9996C9.53069 30.0083 8.94591 29.8589 8.42952 29.5669C6.30528 28.3432 5.8838 24.8338 7.27327 19.9376L7.45872 19.2801L8.12184 19.4473C9.74452 19.8561 11.5344 20.1441 13.4395 20.3029L13.7696 20.331L13.9579 20.6021C14.9772 22.082 16.1152 23.4765 17.3606 24.7719L17.8383 25.2623L17.3606 25.7526C14.6941 28.4922 12.1231 29.9996 10.1239 29.9996ZM8.452 20.9702C7.48822 24.7467 7.73689 27.5467 9.13338 28.3517C10.52 29.1426 13.1276 27.9232 15.877 25.2496C14.839 24.122 13.876 22.9276 12.9941 21.6741C11.4663 21.539 9.94902 21.3039 8.452 20.9702ZM16.859 21.8525C15.7028 21.8525 14.5142 21.8019 13.3243 21.7036L12.9941 21.6755L12.8044 21.4044C12.1314 20.4372 11.4986 19.4426 10.9078 18.4231C10.3187 17.4028 9.77223 16.3585 9.26966 15.2929L9.12917 14.9937L9.26966 14.6945C9.77215 13.6288 10.3187 12.5846 10.9078 11.5643C11.4894 10.5584 12.1287 9.55526 12.8044 8.58305L12.9941 8.3119L13.3243 8.28381C15.677 8.08431 18.0425 8.08431 20.3952 8.28381L20.724 8.3119L20.9122 8.58305C22.2598 10.5177 23.4427 12.562 24.4484 14.6945L24.5903 14.9937L24.4484 15.2929C23.4451 17.4266 22.2621 19.4711 20.9122 21.4044L20.724 21.6755L20.3952 21.7036C19.2053 21.8019 18.0153 21.8525 16.859 21.8525ZM13.7724 20.3296C15.8517 20.4855 17.8664 20.4855 19.947 20.3296C21.1087 18.6314 22.14 16.8477 23.0323 14.9937C22.1416 13.1386 21.1097 11.3547 19.9456 9.65782C17.8909 9.50187 15.8272 9.50187 13.7724 9.65782C12.6079 11.3544 11.5759 13.1383 10.6858 14.9937C11.579 16.8474 12.6108 18.6311 13.7724 20.3296Z" fill="#EE3F59"/>
</svg>
