<svg width="40" height="40" viewBox="0 0 40 40" fill="none" xmlns="http://www.w3.org/2000/svg">
<path d="M24.082 20.5197V19.2908H22.7295V20.5197H21.517L23.2243 17.1465H21.8222L20.0078 20.6516V21.6248H22.7295V22.8866H24.082V21.6248H24.8655V20.5197H24.082Z" fill="#EE3F59"/>
<path d="M17.0886 21.732L18.2598 20.4949C18.8783 19.8516 19.3402 19.2082 19.3402 18.5814C19.3402 17.6742 18.5154 17.0886 17.3773 17.0886C16.5608 17.0886 15.769 17.4021 15.0515 17.9464L15.6041 18.9938C16.1237 18.5402 16.701 18.268 17.1628 18.268C17.5752 18.268 17.8144 18.4577 17.8144 18.7876C17.8144 19.0515 17.5835 19.4392 17.2618 19.7691L15.2164 21.9464V22.8867H19.5133V21.7321H17.0886V21.732Z" fill="#EE3F59"/>
<path d="M34.1426 5.8575C30.3653 2.08023 25.3427 0 20 0C14.6573 0 9.63469 2.08023 5.85742 5.8575C2.08023 9.63469 0 14.6573 0 20C0 25.3427 2.08023 30.3653 5.85742 34.1425C9.63469 37.9198 14.6573 40 20 40C25.3427 40 30.3653 37.9198 34.1426 34.1425C37.9198 30.3653 40 25.3427 40 20C40 14.6573 37.9198 9.63469 34.1426 5.8575ZM33.2678 33.2678C29.7241 36.8113 25.0122 38.7629 20 38.7629C14.9878 38.7629 10.2759 36.8113 6.73219 33.2678C3.18859 29.7242 1.23711 25.0123 1.23711 20C1.23711 14.9877 3.18859 10.2758 6.73219 6.73219C10.2759 3.18867 14.9878 1.23711 20 1.23711C25.0122 1.23711 29.7241 3.18867 33.2678 6.73219C36.8114 10.2758 38.7629 14.9877 38.7629 20C38.7629 25.0123 36.8114 29.7242 33.2678 33.2678Z" fill="#EE3F59"/>
<path d="M32.4351 8.84817C29.2629 5.32161 24.7305 3.29895 20 3.29895C10.791 3.29895 3.29895 10.791 3.29895 20C3.29895 29.2089 10.791 36.701 20 36.701C29.2089 36.701 36.701 29.2089 36.701 20C36.701 15.87 35.1861 11.9097 32.4351 8.84817ZM31.9347 29.8228L29.5096 27.3976L28.6347 28.2723L31.1086 30.7461C28.429 33.515 24.7275 35.2879 20.6185 35.4504V31.9586H19.3814V35.4504C15.2724 35.2879 11.5708 33.515 8.89137 30.7461L11.3652 28.2723L10.4904 27.3976L8.0652 29.8228C5.98379 27.2984 4.68731 24.1048 4.54942 20.6185H8.04114V19.3814H4.5495C4.68739 15.895 5.98387 12.7014 8.0652 10.1771L10.4904 12.6022L11.3651 11.7275L8.89129 9.25371C11.5708 6.48489 15.2724 4.712 19.3814 4.5495V8.04122H20.6185V4.54981C24.579 4.70942 28.346 6.39528 31.1142 9.24801L28.6347 11.7275L29.5094 12.6022L31.9409 10.1707C34.0865 12.7719 35.3167 16 35.4507 19.3814H31.9586V20.6185H35.4504C35.3125 24.1049 34.0161 27.2985 31.9347 29.8228Z" fill="#EE3F59"/>
<path d="M26.1149 11.9587H27.8347V10.7216H23.5048V15.0515H24.7419V12.5103C27.2955 14.1304 28.8656 16.9614 28.8656 20.0001C28.8656 24.8888 24.8883 28.8661 19.9996 28.8661C15.1109 28.8661 11.1336 24.8887 11.1336 20C11.1336 15.1112 15.1109 11.134 19.9996 11.134V9.89685C14.4288 9.89685 9.89648 14.429 9.89648 20C9.89648 25.5709 14.4288 30.1031 19.9996 30.1031C25.5705 30.1031 30.1027 25.5708 30.1027 20C30.1027 16.8284 28.6027 13.8547 26.1149 11.9587Z" fill="#EE3F59"/>
</svg>
