<svg width="40" height="40" viewBox="0 0 40 40" fill="none" xmlns="http://www.w3.org/2000/svg">
<path d="M39.375 0H0.62498C0.279837 0 0 0.279837 0 0.62498V6.87502C0 7.22016 0.279837 7.5 0.62498 7.5H4.37494V31.25H3.74988C3.40473 31.25 3.1249 31.5299 3.1249 31.875C3.1249 32.2202 3.40473 32.5 3.74988 32.5H19.3749V36.3576C18.6474 36.6155 18.1249 37.3103 18.1249 38.125C18.125 39.1589 18.9661 40 20 40C21.0339 40 21.875 39.1589 21.875 38.125C21.875 37.3102 21.3525 36.6155 20.6251 36.3576V32.5H36.25C36.5952 32.5 36.875 32.2202 36.875 31.875C36.875 31.5299 36.5952 31.25 36.25 31.25H35.6251V7.5H39.375C39.7202 7.5 40 7.22016 40 6.87502V0.62498C40 0.279837 39.7202 0 39.375 0ZM20 38.75C19.6554 38.75 19.375 38.4696 19.375 38.1251C19.375 37.7805 19.6553 37.5001 20 37.5001C20.3446 37.5001 20.6249 37.7805 20.6249 38.1251C20.6249 38.4696 20.3446 38.75 20 38.75ZM34.3749 31.25H5.62506V4.37494H34.3749V31.25ZM38.75 6.24996H35.625V4.37494H36.25C36.5951 4.37494 36.8749 4.0951 36.8749 3.74996C36.8749 3.40482 36.5951 3.12498 36.25 3.12498H3.74996C3.40482 3.12498 3.12498 3.40482 3.12498 3.74996C3.12498 4.0951 3.40482 4.37494 3.74996 4.37494H4.37502V6.24996H1.25004V1.24996H38.75V6.24996Z" fill="#EE3F59"/>
<path d="M8.12506 21.875H31.8751C32.2202 21.875 32.5001 21.5951 32.5001 21.25V6.87498C32.5002 6.52984 32.2202 6.25 31.8751 6.25H8.12506C7.77992 6.25 7.5 6.52984 7.5 6.87498V21.25C7.5 21.5951 7.77984 21.875 8.12506 21.875ZM8.75012 7.49996H31.2501V20.6249H8.75012V7.49996Z" fill="#EE3F59"/>
<path d="M10.6251 10.625H12.5001C12.8452 10.625 13.1251 10.3451 13.1251 9.99998C13.1251 9.65484 12.8453 9.375 12.5001 9.375H10.6251C10.2799 9.375 10 9.65484 10 9.99998C10 10.3451 10.2799 10.625 10.6251 10.625Z" fill="#EE3F59"/>
<path d="M10.6251 13.125H12.5001C12.8452 13.125 13.1251 12.8451 13.1251 12.5C13.1251 12.1548 12.8453 11.875 12.5001 11.875H10.6251C10.2799 11.875 10 12.1548 10 12.5C10 12.8451 10.2799 13.125 10.6251 13.125Z" fill="#EE3F59"/>
<path d="M29.375 17.5001H14.6339L19.375 12.7589L22.3707 15.7545C22.6148 15.9986 23.0104 15.9985 23.2545 15.7545L29.192 9.81698C29.4361 9.5729 29.4361 9.17714 29.192 8.93306C28.9479 8.68898 28.5522 8.68898 28.3082 8.93306L22.8126 14.4287L19.817 11.4331C19.5729 11.189 19.1772 11.1891 18.9331 11.4331L12.8662 17.5001H10.6251C10.2799 17.5001 10 17.7799 10 18.1251C9.99992 18.4702 10.2798 18.75 10.625 18.75H29.375C29.7202 18.75 30.0001 18.4702 30.0001 18.1251C30.0001 17.7799 29.7202 17.5001 29.375 17.5001Z" fill="#EE3F59"/>
<path d="M8.12506 25.625H25.0001C25.3452 25.625 25.6251 25.3451 25.6251 25C25.6251 24.6548 25.3452 24.375 25.0001 24.375H8.12506C7.77992 24.375 7.5 24.6548 7.5 25C7.5 25.3452 7.77992 25.625 8.12506 25.625Z" fill="#EE3F59"/>
<path d="M8.12506 28.75H14.3751C14.7202 28.75 15.0002 28.4701 15.0002 28.125C15.0002 27.7798 14.7202 27.5 14.3751 27.5H8.12506C7.77992 27.5 7.5 27.7798 7.5 28.125C7.5 28.4701 7.77984 28.75 8.12506 28.75Z" fill="#EE3F59"/>
<path d="M31.8751 27.5H16.875C16.5298 27.5 16.25 27.7798 16.25 28.125C16.25 28.4701 16.5298 28.75 16.875 28.75H31.8751C32.2202 28.75 32.5 28.4701 32.5 28.125C32.5001 27.7798 32.2202 27.5 31.8751 27.5Z" fill="#EE3F59"/>
<path d="M31.875 24.375H27.5C27.1548 24.375 26.875 24.6548 26.875 25C26.875 25.3451 27.1548 25.625 27.5 25.625H31.875C32.2201 25.625 32.5 25.3451 32.5 25C32.5001 24.6548 32.2201 24.375 31.875 24.375Z" fill="#EE3F59"/>
</svg>
