<svg width="225" height="80" viewBox="0 0 225 80" fill="none" xmlns="http://www.w3.org/2000/svg">
<g clip-path="url(#clip0_188_122)">
<path d="M151.221 45.5594L146.547 45.5935C145.081 45.8354 144.64 45.6106 144.64 45.6106L146.547 45.5935C148.907 45.2051 153.909 43.6104 163.994 37.9337C157.734 36.3766 156.021 33.8108 153.332 27.916C149.141 36.1313 146.262 37.0308 139.218 37.9201C145.743 44.7349 145.461 47.9038 144.161 54.7457C152.372 50.5615 155.362 51.7575 161.33 55.1308C160.444 49.0895 160.908 45.9786 162.897 43.0618C158.848 44.3805 154.89 45.2903 151.221 45.5594Z" fill="white"/>
<path d="M19.9997 49.1203C20.8028 47.9763 21.2126 46.6007 21.1674 45.2019C21.1965 44.0681 20.8516 42.9565 20.1864 42.0399C19.4738 41.1138 18.4914 40.4338 17.3759 40.0943C18.1389 39.6619 18.8018 39.072 19.3208 38.3632C19.8246 37.6544 20.0865 36.8009 20.0676 35.9304C20.0676 31.6871 17.2696 29.5654 11.6734 29.5654H1.2121V52.2654H12.6917C14.1323 52.2806 15.5629 52.0217 16.9075 51.5022C18.1448 51.0231 19.2185 50.1962 19.9997 49.1203ZM7.98378 34.6527H11.541C11.7537 34.6482 11.9651 34.6866 12.1628 34.7657C12.3605 34.8447 12.5402 34.9626 12.6917 35.1127C12.8608 35.2977 12.9904 35.5157 13.0721 35.7531C13.1538 35.9905 13.1862 36.2422 13.1669 36.4926C13.1728 36.9019 13.0345 37.3001 12.7766 37.6171C12.674 37.7603 12.5396 37.8777 12.3841 37.9599C12.2286 38.0422 12.0562 38.0869 11.8805 38.0906H7.98378V34.6527ZM13.5505 46.5989C13.3533 46.7896 13.1185 46.9365 12.8613 47.0304C12.6041 47.1243 12.33 47.163 12.057 47.1441H8.01433V42.8577H11.9484C12.5315 42.8283 13.1039 43.0219 13.5505 43.3994C13.7594 43.5997 13.9219 43.8436 14.0269 44.1138C14.1319 44.384 14.1767 44.6739 14.158 44.9634C14.1757 45.2634 14.1308 45.5639 14.0262 45.8454C13.9216 46.1271 13.7595 46.3837 13.5505 46.5989Z" fill="white"/>
<path d="M43.6309 40.983C44.3713 39.7866 44.7683 38.4082 44.7783 36.9999C44.7783 34.526 44.0055 32.6657 42.4599 31.4185C40.9144 30.1715 38.7646 29.5479 36.0107 29.5479H24.2426V52.2479H31.0313V44.9969H33.4073L37.2972 52.2479H46.0376L40.4131 43.6374C41.7675 43.1674 42.9091 42.2257 43.6309 40.983ZM36.7541 39.5145C36.5509 39.7382 36.3019 39.9149 36.0241 40.0326C35.7464 40.1502 35.4464 40.2059 35.1452 40.196H31.0143V34.6521H35.1452C35.4435 34.6459 35.7396 34.7035 36.0142 34.8211C36.2886 34.9385 36.535 35.1132 36.7371 35.3337C37.1983 35.8839 37.4284 36.5926 37.3787 37.3099C37.3787 38.3253 37.1715 39.0681 36.7541 39.5145Z" fill="white"/>
<path d="M56.1086 29.5479H49.2996V52.2479H56.1086V29.5479Z" fill="white"/>
<path d="M73.2635 51.7878C74.4926 51.1838 75.5224 50.2375 76.2302 49.0619C76.9401 47.8386 77.3017 46.4431 77.2756 45.0276C77.2756 43.1421 76.7563 41.7293 75.7177 40.7888C74.679 39.8483 73.087 39.0715 70.9418 38.4581C70.6024 38.3731 70.3784 38.3151 70.2629 38.2912C69.3283 38.0512 68.419 37.7215 67.5475 37.3065C67.2965 37.1814 67.0868 36.9863 66.9434 36.7446C66.8001 36.5027 66.7293 36.2247 66.7396 35.9435C66.7203 35.6551 66.7812 35.3671 66.9155 35.1114C67.0497 34.8557 67.2521 34.6424 67.5 34.4954C68.0963 34.1691 68.7697 34.0112 69.4483 34.0387C70.6263 34.0837 71.7822 34.3739 72.8427 34.8906C74.0088 35.3855 75.0902 36.0617 76.0469 36.8941V30.4202C75.0543 29.9127 74.0016 29.5338 72.9139 29.2923C71.7159 29.054 70.4965 28.9398 69.2751 28.9516C67.4817 28.8932 65.6982 29.2426 64.0582 29.9738C62.7406 30.5724 61.6283 31.5478 60.8607 32.778C60.1402 33.9794 59.7697 35.3594 59.7915 36.7613C59.7915 38.5332 60.2259 39.8961 61.0949 40.8501C62.0601 41.8636 63.2669 42.6131 64.6012 43.0275C65.3909 43.3001 66.0562 43.5034 66.5971 43.6374C67.5694 43.9314 68.521 44.291 69.445 44.7141C70.0083 44.9935 70.29 45.3751 70.29 45.8522C70.29 46.5098 70.0762 46.9698 69.6452 47.2151C69.0827 47.5084 68.4517 47.6438 67.819 47.607C66.5708 47.5821 65.3345 47.3578 64.1566 46.9425C62.8354 46.5081 61.5995 45.8463 60.5042 44.9868V51.3141C61.6462 51.8654 62.8671 52.2334 64.1227 52.4046C65.7059 52.6254 67.3034 52.7291 68.9018 52.7146C70.4081 52.7549 71.9027 52.4373 73.2635 51.7878Z" fill="white"/>
<path d="M101.08 29.5479H92.5466L87.2617 37.5791V29.5479H80.4594V52.2479H87.2617V45.3377L88.3818 44.0429L93.3612 52.2479H101.725L93.0931 38.7035L101.08 29.5479Z" fill="white"/>
<path d="M119.576 49.065C120.29 47.8433 120.653 46.4469 120.625 45.0307C120.625 43.1452 120.108 41.7324 119.073 40.7919C118.039 39.8515 116.445 39.0746 114.291 38.4612C113.951 38.3762 113.731 38.3182 113.612 38.2943C112.677 38.0547 111.768 37.725 110.896 37.3096C110.643 37.1863 110.431 36.9919 110.286 36.75C110.141 36.508 110.069 36.229 110.078 35.9467C110.061 35.6585 110.122 35.3709 110.256 35.1155C110.39 34.8602 110.592 34.6467 110.839 34.4985C111.436 34.1737 112.109 34.016 112.787 34.042C113.965 34.0874 115.121 34.3775 116.181 34.8937C117.347 35.3895 118.428 36.0655 119.386 36.8972V30.4233C118.392 29.9158 117.338 29.5369 116.249 29.2954C115.051 29.0566 113.832 28.9425 112.611 28.9547C110.819 28.8954 109.038 29.245 107.4 29.9769C106.081 30.5754 104.966 31.5508 104.196 32.7812C103.484 33.9957 103.125 35.3862 103.161 36.7951C103.161 38.5669 103.594 39.9298 104.461 40.8839C105.427 41.8975 106.635 42.6469 107.97 43.0612C108.758 43.3339 109.427 43.5383 109.97 43.6712C110.939 43.9646 111.887 44.3244 112.807 44.7479C113.374 45.0273 113.659 45.4089 113.659 45.886C113.684 46.1503 113.637 46.4164 113.523 46.6563C113.41 46.896 113.234 47.1008 113.014 47.2489C112.451 47.5419 111.819 47.6771 111.185 47.6408C109.939 47.6158 108.705 47.3915 107.529 46.9763C106.205 46.5398 104.965 45.8782 103.863 45.0205V51.348C105.011 51.8974 106.236 52.2651 107.495 52.4383C109.077 52.6593 110.674 52.7629 112.271 52.7484C113.777 52.774 115.267 52.4412 116.619 51.7774C117.844 51.1775 118.871 50.2358 119.576 49.065Z" fill="white"/>
<path d="M140.675 29.5479H122.455V34.6556H128.109V52.2479H134.884V34.6556H140.675V29.5479Z" fill="white"/>
<path d="M185.199 40.9835C185.922 39.7606 186.313 38.3676 186.33 36.945C186.347 35.5224 185.989 34.1205 185.293 32.8809C183.03 34.0166 180.844 35.065 178.732 36.0258C178.881 36.4371 178.954 36.8726 178.945 37.3104C178.945 38.3326 178.736 39.0686 178.321 39.515C178.118 39.7383 177.868 39.9149 177.589 40.0325C177.312 40.1501 177.011 40.2061 176.709 40.1965H172.575V38.704C170.172 39.6921 167.916 40.5417 165.81 41.2527V52.2381H172.575V44.9975H174.95L178.855 52.2484H187.595L181.977 43.6379C183.331 43.1655 184.473 42.2245 185.199 40.9835Z" fill="white"/>
<path d="M177.561 29.5479H165.81V38.2401C169.288 36.2639 173.851 33.5209 179.828 29.7217C179.078 29.6058 178.32 29.5476 177.561 29.5479Z" fill="white"/>
<path d="M155.773 43.4736C155.434 43.518 155.125 43.5521 154.812 43.5827C154.802 43.569 154.961 43.6747 155.773 43.4736Z" fill="white"/>
<path d="M180.301 29.793C174.085 33.7557 169.377 36.5873 165.81 38.6079C159.765 42.0323 156.998 43.1328 155.773 43.4736C158.749 43.0818 162.171 42.1822 165.821 40.9419C168.01 40.1991 170.276 39.3303 172.585 38.3796C174.575 37.5584 176.594 36.6759 178.606 35.7491C180.796 34.7269 182.982 33.7047 185.127 32.6246C199.305 25.5577 211.762 17.7173 211.704 17.7173V13.6283L207.632 11.584C196.257 19.4005 187.32 25.3191 180.301 29.793Z" fill="white"/>
<path d="M224.108 5.63185C224.193 5.50576 224.24 5.35721 224.242 5.20463C224.245 5.05203 224.202 4.90209 224.121 4.77337C224.039 4.64463 223.921 4.54275 223.783 4.48034C223.645 4.41794 223.491 4.39773 223.341 4.42224L219.067 5.17527C218.932 5.19906 218.794 5.18634 218.667 5.13841C218.539 5.09047 218.427 5.00908 218.341 4.90268L215.626 1.49529C215.554 1.40451 215.463 1.33142 215.36 1.28176C215.256 1.23209 215.143 1.20722 215.028 1.20908C214.839 1.20994 214.657 1.27945 214.515 1.40475C214.373 1.53005 214.281 1.70264 214.257 1.89056L213.714 6.18045C213.697 6.32137 213.641 6.45475 213.553 6.56594C213.464 6.67712 213.348 6.76185 213.215 6.81081L209.01 8.41909C208.87 8.47834 208.752 8.57637 208.666 8.70159C208.581 8.82679 208.532 8.97392 208.527 9.12557C208.524 9.27722 208.562 9.42703 208.64 9.55726C208.718 9.68749 208.83 9.79269 208.965 9.86041L213.001 11.8469C213.129 11.9096 213.236 12.0065 213.313 12.1267C213.388 12.247 213.43 12.386 213.433 12.5284L213.558 16.7671C213.559 16.9216 213.607 17.0721 213.695 17.1989C213.783 17.3256 213.907 17.4229 214.05 17.4778C214.194 17.5327 214.352 17.5426 214.501 17.5064C214.65 17.4703 214.786 17.3895 214.889 17.2749L217.756 14.1707C217.851 14.0656 217.973 13.9895 218.109 13.951C218.245 13.9123 218.388 13.9129 218.524 13.9527L222.862 15.1385C223.009 15.175 223.162 15.1687 223.306 15.1199C223.447 15.0713 223.573 14.9825 223.668 14.8641C223.762 14.7455 223.821 14.6025 223.835 14.4518C223.851 14.301 223.823 14.1492 223.754 14.014L221.646 10.0171C221.578 9.89302 221.547 9.75239 221.554 9.61098C221.561 9.46957 221.607 9.33296 221.687 9.21641L224.108 5.63185Z" fill="white"/>
<path d="M197.703 5.69995L199.787 6.69491C199.851 6.72685 199.907 6.7751 199.946 6.83487C199.986 6.89465 200.01 6.96387 200.015 7.03565L200.075 9.16184C200.08 9.23882 200.107 9.3128 200.153 9.37465C200.199 9.43652 200.262 9.48356 200.333 9.51C200.406 9.53645 200.484 9.54111 200.559 9.52345C200.634 9.50578 200.702 9.46656 200.754 9.41058L202.241 7.86023C202.29 7.80519 202.353 7.76508 202.423 7.74458C202.493 7.72407 202.569 7.724 202.639 7.74437L204.879 8.33385C204.953 8.3551 205.03 8.35403 205.104 8.33079C205.177 8.30753 205.242 8.26311 205.29 8.20311C205.338 8.1431 205.367 8.07016 205.375 7.99342C205.382 7.91667 205.366 7.83953 205.33 7.77164L204.247 5.7715C204.209 5.71239 204.188 5.64306 204.188 5.57218C204.188 5.50128 204.209 5.43196 204.247 5.37285L205.499 3.58397C205.543 3.51979 205.566 3.44433 205.566 3.36707C205.566 3.2898 205.543 3.2142 205.501 3.14974C205.458 3.0853 205.398 3.03487 205.327 3.00482C205.256 2.97477 205.178 2.96645 205.103 2.98087L202.896 3.3625C202.826 3.37342 202.754 3.36599 202.687 3.34092C202.621 3.31585 202.562 3.274 202.516 3.21938L201.118 1.5157C201.08 1.46955 201.033 1.43242 200.979 1.40705C200.926 1.3817 200.868 1.36874 200.809 1.36917C200.712 1.36793 200.618 1.40165 200.544 1.46419C200.469 1.52674 200.421 1.61394 200.405 1.70991L200.124 3.84974C200.116 3.92083 200.089 3.98833 200.044 4.04399C199.999 4.09966 199.939 4.14109 199.872 4.16322L197.72 4.97077C197.646 4.99785 197.583 5.04656 197.537 5.11056C197.491 5.17454 197.466 5.25086 197.464 5.32956C197.462 5.40825 197.484 5.48567 197.526 5.55174C197.57 5.6178 197.63 5.66945 197.703 5.69995Z" fill="white"/>
<path d="M1.2121 64.2285H6.2357V79.122H6.98245V64.2285H12.0061V63.5674H1.2121V64.2285Z" fill="white" stroke="white" stroke-width="0.5"/>
<path d="M19.1342 71.1556H25.4714V70.4947H19.1342V64.2285H26.6933V63.5674H18.384V79.122H26.9241V78.4543H19.1342V71.1556Z" fill="white" stroke="white" stroke-width="0.5"/>
<path d="M39.0793 78.6928C35.6069 78.6928 33.4447 75.7693 33.4447 71.2954C33.4447 66.8215 35.6069 63.9934 39.1743 63.9934C39.8384 63.9939 40.4943 64.142 41.0947 64.4271C41.6952 64.7122 42.2251 65.1274 42.6467 65.6426L43.1185 65.1247C42.6327 64.55 42.0285 64.0882 41.3475 63.7711C40.6665 63.454 39.925 63.2892 39.1743 63.2881C35.2301 63.2881 32.647 66.3956 32.647 71.2954C32.647 76.1952 35.2301 79.4015 39.0318 79.4015C41.048 79.4015 42.4261 78.5532 43.5869 77.1868L43.1185 76.7132C41.9441 78.0352 40.7051 78.6928 39.0793 78.6928Z" fill="white" stroke="white" stroke-width="0.5"/>
<path d="M59.6319 70.4947H50.9457V63.5674H50.1923V79.122H50.9457V71.1556H59.6319V79.122H60.382V63.5674H59.6319V70.4947Z" fill="white" stroke="white" stroke-width="0.5"/>
<path d="M77.8357 73.6494C77.8357 75.1112 77.8866 76.5253 77.9307 78.0347H77.8357L76.0536 74.9681L69.1971 63.5771H68.3994V79.1284H69.1055V68.9064C69.1055 67.4411 69.0546 66.1225 69.0104 64.6642H69.1055L70.8874 67.7308L77.7406 79.1318H78.5417V63.5771H77.8357V73.6494Z" fill="white" stroke="white" stroke-width="0.5"/>
<path d="M91.8169 63.2881C88.1545 63.2881 85.5238 66.3956 85.5238 71.2954C85.5238 76.1952 88.1545 79.4015 91.8169 79.4015C95.4794 79.4015 98.1032 76.1986 98.1032 71.2954C98.1032 66.3922 95.4794 63.2881 91.8169 63.2881ZM91.8169 78.6928C88.5312 78.6928 86.3249 75.7761 86.3249 71.2954C86.3249 66.8148 88.5312 63.9934 91.8169 63.9934C95.1026 63.9934 97.3089 66.8215 97.3089 71.2954C97.3089 75.7693 95.1026 78.6928 91.8169 78.6928Z" fill="white" stroke="white" stroke-width="0.5"/>
<path d="M105.842 63.5674H105.092V79.122H113.12V78.4543H105.842V63.5674Z" fill="white" stroke="white" stroke-width="0.5"/>
<path d="M124.05 63.2881C120.39 63.2881 117.763 66.3956 117.763 71.2954C117.763 76.1952 120.39 79.4015 124.05 79.4015C127.709 79.4015 130.343 76.1986 130.343 71.2954C130.343 66.3922 127.712 63.2881 124.05 63.2881ZM124.05 78.6928C120.764 78.6928 118.557 75.7761 118.557 71.2954C118.557 66.8148 120.764 63.9934 124.05 63.9934C127.336 63.9934 129.545 66.8215 129.545 71.2954C129.545 75.7693 127.338 78.6928 124.05 78.6928Z" fill="white" stroke="white" stroke-width="0.5"/>
<path d="M142.721 72.2864H146.575V77.4213C145.779 78.2187 144.371 78.6922 142.864 78.6922C139.252 78.6922 137.093 75.7687 137.093 71.2949C137.093 66.821 139.348 63.9928 143.058 63.9928C143.752 63.9779 144.44 64.118 145.074 64.4034C145.708 64.6886 146.27 65.1116 146.72 65.642L147.189 65.1241C146.672 64.5383 146.035 64.071 145.322 63.7542C144.61 63.4372 143.838 63.2781 143.058 63.2875C138.984 63.2875 136.299 66.395 136.299 71.2949C136.299 76.1947 138.882 79.401 142.821 79.401C144.857 79.401 146.392 78.6922 147.331 77.6565V71.6253H142.721V72.2864Z" fill="white" stroke="white" stroke-width="0.5"/>
<path d="M155.487 63.5674H154.737V79.122H155.487V63.5674Z" fill="white" stroke="white" stroke-width="0.5"/>
<path d="M164.258 71.1556H170.602V70.4947H164.258V64.2285H171.814V63.5674H163.511V79.122H172.052V78.4543H164.258V71.1556Z" fill="white" stroke="white" stroke-width="0.5"/>
<path d="M184.285 71.2035L181.909 70.1233C180.802 69.6224 179.194 68.8932 179.194 66.9613C179.194 65.169 180.65 63.9934 182.808 63.9934C183.516 63.9828 184.217 64.1245 184.865 64.4089C185.514 64.6934 186.093 65.114 186.566 65.6426L187.038 65.1247C186.497 64.5434 185.841 64.0802 185.114 63.7642C184.387 63.4482 183.601 63.2862 182.808 63.2881C180.318 63.2881 178.44 64.7942 178.44 67.0089C178.44 69.3191 180.273 70.2357 181.59 70.8218L183.983 71.9088C185.527 72.6176 186.845 73.2717 186.845 75.3503C186.845 77.3265 185.252 78.6928 182.771 78.6928C181.886 78.6919 181.012 78.4978 180.21 78.1242C179.406 77.7506 178.693 77.2064 178.121 76.5292L177.601 77.0437C178.234 77.7984 179.027 78.4018 179.921 78.8097C180.816 79.2177 181.789 79.4199 182.771 79.4016C185.676 79.4016 187.601 77.6571 187.601 75.3127C187.601 72.9685 186.01 71.9803 184.285 71.2035Z" fill="white" stroke="white" stroke-width="0.5"/>
</g>
<defs>
<clipPath id="clip0_188_122">
<rect width="224.242" height="80" fill="white"/>
</clipPath>
</defs>
</svg>
