<svg width="237" height="150" viewBox="0 0 237 150" fill="none" xmlns="http://www.w3.org/2000/svg">
<path d="M33.3936 123.374L20.3896 123.469C16.3123 124.142 15.0848 123.517 15.0848 123.517L20.3896 123.469C26.9557 122.389 40.8736 117.953 68.932 102.161C51.5169 97.8297 46.7483 90.6921 39.2683 74.2939C27.6065 97.1472 19.5971 99.6495 0 102.123C18.1537 121.081 17.3679 129.896 13.7527 148.929C36.5974 137.289 44.9171 140.616 61.5195 150C59.0542 133.194 60.3459 124.54 65.88 116.427C54.6161 120.095 43.6019 122.626 33.3936 123.374Z" fill="white" fill-opacity="0.05"/>
<path d="M46.0607 117.573C45.1164 117.697 44.2565 117.791 43.3864 117.877C43.3594 117.839 43.8012 118.133 46.0607 117.573Z" fill="white" fill-opacity="0.05"/>
<path d="M114.3 79.517C97.0065 90.5407 83.9081 98.4174 73.9831 104.038C57.1649 113.565 49.4657 116.626 46.0596 117.574C54.3388 116.484 63.8591 113.981 74.0135 110.531C80.104 108.465 86.4104 106.048 92.8349 103.403C98.369 101.119 103.987 98.6639 109.586 96.0858C115.68 93.2423 121.76 90.3988 127.729 87.3941C167.176 67.7353 201.835 45.925 201.673 45.925V34.5503L190.341 28.8633C158.695 50.6072 133.83 67.0718 114.3 79.517Z" fill="white" fill-opacity="0.05"/>
<path d="M236.183 12.3035C236.419 11.9528 236.55 11.5395 236.557 11.1151C236.564 10.6906 236.446 10.2735 236.22 9.91541C235.99 9.55728 235.663 9.27388 235.279 9.10026C234.894 8.92667 234.466 8.87046 234.048 8.93864L222.157 11.0334C221.782 11.0996 221.398 11.0642 221.044 10.9309C220.69 10.7975 220.376 10.5711 220.137 10.2751L212.582 0.796459C212.384 0.543906 212.131 0.340581 211.844 0.202435C211.554 0.0642891 211.24 -0.00490849 210.92 0.000270719C210.394 0.00264452 209.888 0.196029 209.493 0.54458C209.099 0.893131 208.842 1.37325 208.775 1.896L207.264 13.8296C207.217 14.2216 207.062 14.5927 206.816 14.902C206.569 15.2113 206.246 15.447 205.875 15.5832L194.176 20.0571C193.788 20.2219 193.458 20.4946 193.218 20.8429C192.982 21.1912 192.847 21.6005 192.834 22.0224C192.824 22.4442 192.931 22.861 193.147 23.2232C193.363 23.5855 193.677 23.8782 194.051 24.0666L205.281 29.5926C205.635 29.7671 205.935 30.0365 206.148 30.371C206.357 30.7055 206.475 31.0923 206.482 31.4885L206.829 43.2796C206.833 43.7095 206.967 44.128 207.21 44.4807C207.456 44.8334 207.8 45.1038 208.198 45.2565C208.6 45.4093 209.038 45.4369 209.453 45.3361C209.868 45.2356 210.245 45.0111 210.532 44.6921L218.511 36.057C218.774 35.7647 219.115 35.5529 219.493 35.4457C219.87 35.3382 220.268 35.3398 220.646 35.4504L232.716 38.7491C233.124 38.8506 233.552 38.8331 233.95 38.6976C234.345 38.5623 234.695 38.3152 234.958 37.9858C235.221 37.656 235.383 37.2581 235.424 36.839C235.468 36.4195 235.39 35.997 235.198 35.6211L229.333 24.5026C229.144 24.1573 229.057 23.7661 229.077 23.3727C229.097 22.9793 229.225 22.5993 229.448 22.2751L236.183 12.3035Z" fill="white" fill-opacity="0.05"/>
<path d="M162.719 12.4928L168.516 15.2605C168.695 15.3494 168.85 15.4836 168.958 15.6499C169.069 15.8162 169.137 16.0087 169.15 16.2084L169.319 22.1231C169.332 22.3372 169.407 22.543 169.535 22.7151C169.663 22.8872 169.838 23.018 170.037 23.0916C170.24 23.1651 170.455 23.1781 170.664 23.129C170.874 23.0798 171.062 22.9707 171.207 22.815L175.345 18.5022C175.48 18.3491 175.656 18.2375 175.851 18.1805C176.047 18.1235 176.256 18.1233 176.452 18.18L182.684 19.8198C182.889 19.8789 183.105 19.8759 183.311 19.8112C183.513 19.7465 183.695 19.623 183.827 19.4561C183.962 19.2891 184.043 19.0862 184.063 18.8727C184.083 18.6592 184.039 18.4446 183.938 18.2558L180.927 12.6918C180.819 12.5274 180.761 12.3345 180.761 12.1373C180.761 11.9401 180.819 11.7473 180.927 11.5828L184.41 6.60654C184.532 6.428 184.596 6.21807 184.596 6.00314C184.596 5.78822 184.532 5.57792 184.414 5.3986C184.296 5.21932 184.127 5.07905 183.932 4.99546C183.733 4.91187 183.517 4.8887 183.308 4.92883L177.166 5.99043C176.971 6.02081 176.772 6.00014 176.586 5.93041C176.401 5.86068 176.239 5.74425 176.111 5.59231L172.219 0.852999C172.115 0.724631 171.983 0.62135 171.835 0.550777C171.686 0.480237 171.524 0.444192 171.359 0.445406C171.089 0.441933 170.83 0.535738 170.624 0.709727C170.415 0.883717 170.28 1.12629 170.236 1.39328L169.454 7.34586C169.434 7.54362 169.356 7.73137 169.231 7.8862C169.106 8.04108 168.941 8.15633 168.752 8.2179L162.766 10.4643C162.561 10.5397 162.385 10.6752 162.257 10.8532C162.129 11.0312 162.058 11.2435 162.055 11.4624C162.048 11.6813 162.109 11.8967 162.227 12.0805C162.348 12.2643 162.517 12.4079 162.719 12.4928Z" fill="white" fill-opacity="0.05"/>
</svg>
